<svg id="FilledOutline" height="512" viewBox="0 0 512 512" width="512" xmlns="http://www.w3.org/2000/svg"><path d="m384 24h48a24 24 0 0 1 24 24v176a0 0 0 0 1 0 0h-72a0 0 0 0 1 0 0v-200a0 0 0 0 1 0 0z" fill="#798b9b"/><path d="m432 24a24 24 0 0 0 -24 24v440h-304v-440a24 24 0 0 1 24-24z" fill="#ccdce5"/><path d="m144 312h88v32h-88z" fill="#798b9b"/><path d="m24 272 24-24v-72a24 24 0 0 1 24-24h32v32l20-20a16.971 16.971 0 0 1 24 0 16.971 16.971 0 0 1 0 24l-36 36a45.255 45.255 0 0 1 0 64l-40 40z" fill="#f5be9a"/><path d="m488 376-24-24v-72a24 24 0 0 0 -24-24h-32v32l-20-20a16.971 16.971 0 0 0 -24 0 16.971 16.971 0 0 0 0 24l36 36a45.255 45.255 0 0 0 0 64l40 40z" fill="#f5be9a"/><path d="m472 348.687v-68.687a32.036 32.036 0 0 0 -32-32h-24v-16h40a8 8 0 0 0 8-8v-176a32.036 32.036 0 0 0 -32-32h-304a32.036 32.036 0 0 0 -32 32v96h-24a32.036 32.036 0 0 0 -32 32v68.687l-21.657 21.656 11.314 11.314 24-24a8 8 0 0 0 2.343-5.657v-72a16.019 16.019 0 0 1 16-16h24v20.686l-13.657 13.657 11.314 11.314 36-36a8.97 8.97 0 0 1 12.686 12.686l-36 36a8 8 0 0 0 0 11.314 37.3 37.3 0 0 1 0 52.686l-40 40 11.314 11.314 18.343-18.343v172.686a8 8 0 0 0 8 8h304a8 8 0 0 0 8-8v-68.686l18.343 18.343 11.314-11.314-40-40a37.3 37.3 0 0 1 0-52.686 8 8 0 0 0 0-11.314l-36-36a8.97 8.97 0 1 1 12.686-12.686l36 36 11.314-11.314-13.657-13.657v-20.686h24a16.019 16.019 0 0 1 16 16v72a8 8 0 0 0 2.343 5.657l24 24 11.314-11.314zm-24-300.687v168h-32v-168a16 16 0 0 1 32 0zm-54.343 214.343a24.971 24.971 0 0 0 -35.314 35.314l30.762 30.762a53.282 53.282 0 0 0 5.238 69.238l5.657 5.657v76.686h-288v-180.686l5.657-5.657a53.282 53.282 0 0 0 5.238-69.238l30.762-30.762a24.971 24.971 0 0 0 -35.314-35.314l-6.343 6.343v-116.686a16.019 16.019 0 0 1 16-16h276.305a31.8 31.8 0 0 0 -4.305 16v220.686z"/><path d="m136 56h240v16h-240z"/><path d="m136 120h240v16h-240z"/><path d="m136 88h16v16h-16z"/><path d="m168 88h16v16h-16z"/><path d="m200 88h16v16h-16z"/><path d="m232 88h16v16h-16z"/><path d="m264 88h16v16h-16z"/><path d="m296 88h16v16h-16z"/><path d="m328 88h16v16h-16z"/><path d="m360 88h16v16h-16z"/><path d="m184 160h56v16h-56z"/><path d="m168 192h72v16h-72z"/><path d="m152 224h88v16h-88z"/><path d="m152 256h72v16h-72z"/><path d="m288 160h16v16h-16z"/><path d="m320 160h56v16h-56z"/><path d="m272 192h104v16h-104z"/><path d="m272 224h104v16h-104z"/><path d="m272 256h64v16h-64z"/><path d="m136 368h104v16h-104z"/><path d="m136 400h88v16h-88z"/><path d="m144 352h88a8 8 0 0 0 8-8v-32a8 8 0 0 0 -8-8h-88a8 8 0 0 0 -8 8v32a8 8 0 0 0 8 8zm8-32h72v16h-72z"/><path d="m288 304h16v16h-16z"/><path d="m320 304h32v16h-32z"/><path d="m272 336h88v16h-88z"/><path d="m272 368h88v16h-88z"/><path d="m272 400h88v16h-88z"/><path d="m136 440h240v16h-240z"/></svg>