<svg id="_x33_0" enable-background="new 0 0 64 64" height="512" viewBox="0 0 64 64" width="512" xmlns="http://www.w3.org/2000/svg"><path d="m58 21.414 5.414-5.414-15.414-15.414-5.414 5.414 4.5 4.5-2.086 2.086-4.5-4.5-3.207 3.207-.707.707-21.586 21.586-.707.707-3.207 3.207 4 4-3.5 3.5 1.5 1.5-11.172 11.172c-.581.581-.914 1.385-.914 2.207 0 1.721 1.4 3.121 3.121 3.121.822 0 1.626-.333 2.207-.914l11.172-11.172 1.5 1.5 3.5-3.5 4 4 3.207-3.207.707-.707 21.586-21.586.707-.707 3.207-3.207-4.5-4.5 2.086-2.086zm-10-18 12.586 12.586-2.586 2.586-12.586-12.586zm-43.086 57.258c-.209.209-.498.328-.793.328-.618 0-1.121-.503-1.121-1.121 0-.295.119-.584.328-.793l11.172-11.172 1.586 1.586zm14.086-11.086-4.586-4.586 2.086-2.086 4.586 4.586zm7.5.5-12.586-12.586 1.086-1.086 12.586 12.586zm15-15-1.086-1.086c-1.289-1.289-3.539-1.289-4.828 0l-5.293 5.293c-.456.456-1.063.707-1.707.707h-.172c-.645 0-1.251-.251-1.707-.707s-.707-1.063-.707-1.707v-.172c0-.645.251-1.251.707-1.707l4.293-4.293 1 1 2.51-2.51c.294.061.596.096.904.096h.172c1.179 0 2.287-.459 3.121-1.292l2-2c.834-.834 1.293-1.942 1.293-3.122v-.172c0-1.18-.459-2.288-1.293-3.122s-1.942-1.292-3.121-1.292h-.172c-1.179 0-2.287.459-3.121 1.293l-2 2c-.834.833-1.293 1.941-1.293 3.121v.172c0 .308.035.61.096.904l-2.51 2.51 1 1-4.293 4.293c-.834.834-1.293 1.942-1.293 3.121v.172c0 1.179.459 2.287 1.293 3.121s1.942 1.293 3.121 1.293h.172c1.179 0 2.287-.459 3.121-1.293l5.293-5.293c.535-.533 1.465-.533 2 0l1.086 1.086-11.086 11.086-12.586-12.586 21.586-21.586 12.586 12.586zm-7.793-7.794c-.456-.455-.707-1.061-.707-1.706v-.172c0-.139.017-.276.04-.41 1.622.022 2.934 1.334 2.956 2.956-.135.023-.271.04-.41.04h-.172c-.644 0-1.251-.251-1.707-.708zm4.119-.532c-.453-1.757-1.829-3.133-3.586-3.586l1.467-1.467c.456-.456 1.063-.707 1.707-.707h.172c.645 0 1.251.251 1.707.708.456.455.707 1.061.707 1.706v.172c0 .645-.251 1.251-.707 1.707zm-5.798 1.626c.089.107.165.222.265.322.099.099.214.175.321.264l-.614.614-.586-.586zm19.972-3.8-12.586-12.586 1.086-1.086 12.586 12.586zm-2-7-3.586-3.586 2.086-2.086 3.586 3.586z"/></svg>