<svg id="_x33_0" enable-background="new 0 0 64 64" height="512" viewBox="0 0 64 64" width="512" xmlns="http://www.w3.org/2000/svg"><path d="m56 8h-3c-5.385 0-10.354 3.159-12.657 8.048-.232.492-.809.715-1.284.498-.995-.458-2.017-.811-3.059-1.065v-14.481h-8l-.019 3.354c-1.883-.899-3.895-1.354-5.981-1.354h-4c-2.206 0-4 1.794-4 4s1.794 4 4 4h4c2.801 0 5.153 1.932 5.811 4.532-1.673.433-3.24 1.127-4.67 2.026-2.978-2.896-6.981-4.558-11.141-4.558h-4c-2.206 0-4 1.794-4 4s1.794 4 4 4h4c2.101 0 4.068.821 5.555 2.272-1.616 2.679-2.555 5.83-2.555 9.202v10.526h-7c-2.206 0-4 1.794-4 4s1.794 4 4 4h7v1.079c0 4.531 2.717 8.626 6.761 10.19 1.251.484 2.564.721 3.87.721 2.372 0 4.719-.781 6.619-2.281l9.523-7.519c4.593-3.626 7.227-9.061 7.227-14.913v-6.277c0-2.553-.557-5.013-1.654-7.312-.23-.478-.346-.949-.346-1.397v-1.291c0-3.309 2.691-6 6-6h3c2.206 0 4-1.794 4-4s-1.794-4-4-4zm-40-1c0-1.103.897-2 2-2s2 .897 2 2-.897 2-2 2-2-.897-2-2zm6 2h-.556c.344-.591.556-1.268.556-2s-.212-1.409-.556-2h.556c1.785 0 3.508.39 5.12 1.158.634.303 1.365.263 1.955-.109.579-.365.925-.994.925-1.682v-1.367h4v12.119c-.975-.115-1.965-.148-2.969-.092-.424.024-.838.079-1.253.134-.834-3.526-4-6.161-7.778-6.161zm-16 8c0-1.103.897-2 2-2s2 .897 2 2-.897 2-2 2-2-.897-2-2zm6 2h-.556c.344-.591.556-1.268.556-2s-.212-1.409-.556-2h.556c3.523 0 6.919 1.359 9.498 3.745-1.038.841-1.986 1.793-2.807 2.857-1.826-1.662-4.179-2.602-6.691-2.602zm15 24h-4.459c1.123-1.248 2.742-2 4.459-2 3.309 0 6 2.691 6 6s-2.691 6-6 6c-1.716 0-3.336-.752-4.458-2h4.458c2.206 0 4-1.794 4-4s-1.794-4-4-4zm0 2c1.103 0 2 .897 2 2s-.897 2-2 2h-15.556c.344-.591.556-1.268.556-2s-.212-1.409-.556-2zm-21 2c0-1.103.897-2 2-2s2 .897 2 2-.897 2-2 2-2-.897-2-2zm34.533 4.62-9.523 7.519c-2.428 1.919-5.615 2.392-8.528 1.266-3.279-1.269-5.482-4.615-5.482-8.326v-1.079h3.103c1.421 2.442 4.052 4 6.897 4 4.411 0 8-3.589 8-8s-3.589-8-8-8c-2.845 0-5.476 1.558-6.897 4h-3.103v-10.526c0-8.216 6.213-15.003 14.144-15.45.288-.016.571.004.856.004v8.208c0 5.771 3.148 11.075 8.216 13.84 2.016 1.099 4.261 1.745 6.548 1.892-.664 4.184-2.837 7.973-6.231 10.652zm4.467-29.62v1.291c0 .75.183 1.512.542 2.261.968 2.026 1.458 4.196 1.458 6.448v6.277c0 .226-.029.447-.038.672-2.021-.119-4.009-.659-5.789-1.63-4.424-2.414-7.173-7.044-7.173-12.084v-8.074c1.451.195 2.865.578 4.223 1.201 1.466.674 3.229.021 3.929-1.461 1.911-4.055 5.958-6.714 10.396-6.885-.339.588-.548 1.259-.548 1.984 0 .741.216 1.426.568 2.022-4.21.226-7.568 3.713-7.568 7.978zm11-8c-1.103 0-2-.897-2-2s.897-2 2-2 2 .897 2 2-.897 2-2 2z"/><path d="m28 24h2v2h-2z"/><path d="m28.93 29.872h2v2h-2z" transform="matrix(.951 -.309 .309 .951 -8.066 10.743)"/><path d="m31.628 35.168h2v1.999h-2z" transform="matrix(.809 -.588 .588 .809 -15.031 26.102)"/><path d="m35.832 39.372h2v1.999h-2z" transform="matrix(.588 -.809 .809 .588 -17.481 46.421)"/><path d="m41.128 42.07h2v2h-2z" transform="matrix(.309 -.951 .951 .309 -11.853 69.826)"/><path d="m28 19h2v2h-2z"/></svg>