<svg id="FilledOutline" height="512" viewBox="0 0 512 512" width="512" xmlns="http://www.w3.org/2000/svg"><rect fill="#0093ba" height="464" rx="24" width="288" x="112" y="24"/><path d="m48 224h88l32 24v-24h24a24 24 0 0 0 24-24v-80a24 24 0 0 0 -24-24h-144a24 24 0 0 0 -24 24v80a24 24 0 0 0 24 24z" fill="#88bf40"/><path d="m464 288h-88l-32-24v24h-24a24 24 0 0 0 -24 24v80a24 24 0 0 0 24 24h144a24 24 0 0 0 24-24v-80a24 24 0 0 0 -24-24z" fill="#ef5249"/><path d="m392 464a16.019 16.019 0 0 1 -16 16h-240a16.019 16.019 0 0 1 -16-16v-32h-16v32a32.036 32.036 0 0 0 32 32h240a32.036 32.036 0 0 0 32-32v-24h-16z"/><path d="m392 144h16v120h-16z"/><path d="m232 48h16v16h-16z"/><path d="m264 48h16v16h-16z"/><path d="m248 448h16v16h-16z"/><path d="m450.343 50.343-42.343 42.343v-44.686a32.036 32.036 0 0 0 -32-32h-240a32.036 32.036 0 0 0 -32 32v24h16v-24a16.019 16.019 0 0 1 16-16h240a16.019 16.019 0 0 1 16 16v60.686l-272 272v-132.686h-16v148.686l-53.657 53.657 11.314 11.314 400-400z"/><path d="m163.2 254.4a8 8 0 0 0 12.8-6.4v-16h16a32.036 32.036 0 0 0 32-32v-80a32.036 32.036 0 0 0 -32-32h-144a32.036 32.036 0 0 0 -32 32v80a32.036 32.036 0 0 0 32 32h85.333zm-131.2-54.4v-80a16.019 16.019 0 0 1 16-16h144a16.019 16.019 0 0 1 16 16v80a16.019 16.019 0 0 1 -16 16h-24a8 8 0 0 0 -8 8v8l-19.2-14.4a8.006 8.006 0 0 0 -4.8-1.6h-88a16.019 16.019 0 0 1 -16-16z"/><path d="m464 280h-85.333l-29.867-22.4a8 8 0 0 0 -12.8 6.4v16h-16a32.036 32.036 0 0 0 -32 32v80a32.036 32.036 0 0 0 32 32h144a32.036 32.036 0 0 0 32-32v-80a32.036 32.036 0 0 0 -32-32zm16 112a16.019 16.019 0 0 1 -16 16h-144a16.019 16.019 0 0 1 -16-16v-80a16.019 16.019 0 0 1 16-16h24a8 8 0 0 0 8-8v-8l19.2 14.4a8.006 8.006 0 0 0 4.8 1.6h88a16.019 16.019 0 0 1 16 16z"/><path d="m440 344h16v16h-16z"/><path d="m373.657 325.657-11.314-11.314-32 32a8 8 0 0 0 0 11.314l32 32 11.314-11.314-18.343-18.343h68.686v-16h-68.686z"/><path d="m56 152h16v16h-16z"/><path d="m138.343 186.343 11.314 11.314 32-32a8 8 0 0 0 0-11.314l-32-32-11.314 11.314 18.343 18.343h-68.686v16h68.686z"/></svg>