<svg id="_x33_0" enable-background="new 0 0 64 64" height="512" viewBox="0 0 64 64" width="512" xmlns="http://www.w3.org/2000/svg"><path d="m44 24.594v-12.188l-12-6.545-12 6.545v12.188l12 6.545zm-14.912 2.678c.287-1.233 1.332-2.074 2.912-3.087 1.58 1.013 2.625 1.854 2.912 3.087l-2.912 1.589zm2.912-12.65c1.44.736 2.437 1.368 2.817 2.378h-5.634c.38-1.009 1.377-1.642 2.817-2.378zm2.827 4.378c-.371 1.086-1.367 1.878-2.827 2.815-1.46-.936-2.456-1.729-2.827-2.815zm7.173 4.406-5.304 2.893c-.512-1.443-1.633-2.455-2.862-3.299 1.666-1.144 3.166-2.575 3.166-5 0-2.288-1.36-3.575-2.885-4.5 1.097-.665 2.104-1.52 2.585-2.797l5.3 2.891zm-7.093-13.681c-.294 1.177-1.339 1.852-2.907 2.653-1.568-.801-2.613-1.475-2.907-2.653l2.907-1.586zm-12.907 3.869 5.3-2.891c.482 1.277 1.488 2.132 2.585 2.797-1.525.925-2.885 2.212-2.885 4.5 0 2.425 1.5 3.856 3.166 5-1.23.844-2.351 1.856-2.862 3.299l-5.304-2.893z"/><path d="m48 27.412v-17.937l-16-8.727-16 8.727v17.937l13 7.091v2.497h-2c-1.103 0-2 .897-2 2v2c0 1.103.897 2 2 2v2.586l-.542-.542-1.101 4.404-4.981-2.989-4.342 16.283 1.933.516 3.658-13.717 1.299.779c-.555.356-.924.975-.924 1.68v2c0 1.009.753 1.837 1.726 1.972l-1.696 6.786 1.94.484 1.811-7.242h2.219v7h2v-2h4v2h2v-7h2.219l1.811 7.242 1.94-.484-1.696-6.786c.973-.135 1.726-.963 1.726-1.972v-2c0-.705-.369-1.324-.923-1.68l1.299-.779 3.658 13.717 1.933-.516-4.342-16.283-4.981 2.989-1.101-4.404-.543.542v-2.586c1.103 0 2-.897 2-2v-2c0-1.103-.897-2-2-2h-2v-2.498zm-30-16.749 14-7.636 14 7.636v15.562l-14 7.637-14-7.637zm18.458 38.293.261 1.044h-1.305zm-1.458-1.37-2.414 2.414h-1.172l-2.414-2.414v-.586h6zm-6.414 2.414h-1.305l.261-1.044zm-4.586 4v-2h.719l-.5 2zm10 5h-4v-3h4zm-7.719-5 .5-2h10.438l.5 2zm13-2h.719l.001 2h-.221zm-4.281-7h-6v-2h6zm2.001-4h-10.001v-2h10zm-4.001-4h-2v-1.407l1 .545 1-.545z"/></svg>