<svg id="FilledOutline" height="512" viewBox="0 0 512 512" width="512" xmlns="http://www.w3.org/2000/svg"><path d="m104 456v-296a40 40 0 0 1 40-40h280a40 40 0 0 1 40 40v296z" fill="#ccdce5"/><path d="m248 440h64l16-16h160v24a24 24 0 0 1 -24 24h-216z" fill="#abbac2"/><path d="m432 392v-224a16 16 0 0 0 -16-16h-264a16 16 0 0 0 -16 16v224z" fill="#0093ba"/><path d="m240 296a16 16 0 0 1 16 16v120a0 0 0 0 1 0 0h-32a0 0 0 0 1 0 0v-120a16 16 0 0 1 16-16z" fill="#57646f"/><path d="m240 296a16 16 0 0 0 -16 16v16h32v-16a16 16 0 0 0 -16-16z" fill="#ffc119"/><path d="m224 408h32v16h-32z" fill="#354f5c"/><path d="m24 424h248v64h-248z" fill="#57646f"/><path d="m56 296a16 16 0 0 1 16 16v120a0 0 0 0 1 0 0h-32a0 0 0 0 1 0 0v-120a16 16 0 0 1 16-16z" fill="#57646f"/><path d="m56 296a16 16 0 0 0 -16 16v16h32v-16a16 16 0 0 0 -16-16z" fill="#ffc119"/><path d="m344 192h48v64h-48z" fill="#ffc119"/><path d="m40 408h32v16h-32z" fill="#354f5c"/><path d="m272 440h16v32h-16z" fill="#798b9b"/><path d="m272 416h-8v-104a24 24 0 0 0 -48 0v104h-136v-104a24 24 0 0 0 -48 0v104h-8a8 8 0 0 0 -8 8v64a8 8 0 0 0 8 8h248a8 8 0 0 0 8-8v-64a8 8 0 0 0 -8-8zm-32-112a8.009 8.009 0 0 1 8 8v8h-16v-8a8.009 8.009 0 0 1 8-8zm-8 32h16v80h-16zm-176-32a8.009 8.009 0 0 1 8 8v8h-16v-8a8.009 8.009 0 0 1 8-8zm-8 32h16v80h-16zm216 144h-232v-48h232z"/><path d="m48 448h16v16h-16z"/><path d="m80 448h16v16h-16z"/><path d="m112 448h16v16h-16z"/><path d="m488 416h-16v-256a48.055 48.055 0 0 0 -48-48h-280a48.055 48.055 0 0 0 -48 48v240h16v-240a32.036 32.036 0 0 1 32-32h280a32.036 32.036 0 0 1 32 32v256h-128a8 8 0 0 0 -5.657 2.343l-13.656 13.657h-12.687v16h16a8 8 0 0 0 5.657-2.343l13.656-13.657h148.687v16a16.019 16.019 0 0 1 -16 16h-168v16h168a32.036 32.036 0 0 0 32-32v-24a8 8 0 0 0 -8-8z"/><path d="m440 392v-224a24.028 24.028 0 0 0 -24-24h-264a24.028 24.028 0 0 0 -24 24v224a8 8 0 0 0 8 8h64v-16h-56v-216a8.009 8.009 0 0 1 8-8h264a8.009 8.009 0 0 1 8 8v216h-136v16h144a8 8 0 0 0 8-8z"/><path d="m262.117 278.661 8.863-13.321a55.8 55.8 0 0 0 -61.959 0l8.862 13.322a39.837 39.837 0 0 1 44.234-.001z"/><path d="m171.422 213.5 9.156 13.121a104.2 104.2 0 0 1 118.846 0l9.156-13.121a120.261 120.261 0 0 0 -137.158 0z"/><path d="m187.175 241.605 9.617 12.788a72.214 72.214 0 0 1 86.414 0l9.617-12.788a88.3 88.3 0 0 0 -105.648 0z"/><path d="m296 280.003h16v16h-16z"/><path d="m328 280.003h72v16h-72z"/><path d="m296 312.003h104v16h-104z"/><path d="m296 344.003h104v16h-104z"/><path d="m392 264a8 8 0 0 0 8-8v-64a8 8 0 0 0 -8-8h-48a8 8 0 0 0 -8 8v64a8 8 0 0 0 8 8zm-40-64h32v48h-32z"/><path d="m168 80h200v16h-200z"/><path d="m384 80h16v16h-16z"/></svg>