<svg id="_x33_0" enable-background="new 0 0 64 64" height="512" viewBox="0 0 64 64" width="512" xmlns="http://www.w3.org/2000/svg"><circle cx="16" cy="46" r="1"/><path d="m16 41c-2.757 0-5 2.243-5 5s2.243 5 5 5 5-2.243 5-5-2.243-5-5-5zm0 8c-1.654 0-3-1.346-3-3s1.346-3 3-3 3 1.346 3 3-1.346 3-3 3z"/><path d="m10 38v-2c-2.206 0-4 1.794-4 4h2c0-1.103.897-2 2-2z"/><path d="m23 39h2c0-2.757-2.243-5-5-5v2c1.654 0 3 1.346 3 3z"/><path d="m7 53h-2c0 3.309 2.691 6 6 6v-2c-2.206 0-4-1.794-4-4z"/><path d="m26 48c0 1.269-.584 2.436-1.602 3.201l1.203 1.598c1.503-1.13 2.399-2.924 2.399-4.799z"/><circle cx="48" cy="17" r="1"/><path d="m53 17c0-2.757-2.243-5-5-5s-5 2.243-5 5 2.243 5 5 5 5-2.243 5-5zm-8 0c0-1.654 1.346-3 3-3s3 1.346 3 3-1.346 3-3 3-3-1.346-3-3z"/><path d="m56 11h2c0-2.206-1.794-4-4-4v2c1.103 0 2 .897 2 2z"/><path d="m44 7v-2c-2.757 0-5 2.243-5 5h2c0-1.654 1.346-3 3-3z"/><path d="m59.852 16.617c1.319-1.537 2.148-3.621 2.148-5.617 0-4.411-3.589-8-8-8-1.273 0-2.549.247-3.596.679-1.683-1.713-3.966-2.679-6.404-2.679-4.963 0-9 4.037-9 9 0 .495.052.976.128 1.448-1.918 1.698-3.008 4.198-3.107 7.118l-4.727 4.727 1.414 1.414 3.537-3.537c.504 2.265 1.776 4.241 3.53 5.642l-7.877 7.877c-.367-.669-.821-1.281-1.339-1.833l1.149-1.149-1.414-1.414-1.254 1.254c-.65-.441-1.364-.791-2.12-1.052l3.788-3.788-1.414-1.414-4.735 4.735c-.187-.011-.371-.028-.559-.028-2.438 0-4.722.966-6.405 2.679-1.046-.432-2.323-.679-3.595-.679-4.411 0-8 3.589-8 8 0 1.996.829 4.08 2.148 5.617-1.964 1.668-3.148 4.36-3.148 7.383 0 5.514 4.486 10 10 10 3.603 0 6.872-1.938 8.639-5h2.361c5.514 0 10-4.486 10-10 0-2.534-.744-4.77-2.107-6.479l5.814-5.814-1.414-1.414-5.333 5.333c.014-.208.04-.414.04-.626 0-.801-.115-1.573-.312-2.312l.019.019 8.79-8.79c.732.371 1.512.657 2.333.839l-3.537 3.537 1.414 1.414 4.707-4.707h1.947c1.77 3.065 5.038 5 8.639 5 5.514 0 10-4.486 10-10 0-3.023-1.184-5.715-3.148-7.383zm-39.852 15.383c3.859 0 7 3.141 7 7 0 .628-.079 1.236-.235 1.812-.35 1.312-.964 2.006-2.122 2.701-1.083-3.755-4.543-6.513-8.643-6.513-.986 0-1.933.165-2.822.46.227-1.008.669-1.956 1.318-2.783 1.336-1.701 3.342-2.677 5.504-2.677zm-4 21c-3.859 0-7-3.141-7-7s3.141-7 7-7 7 3.141 7 7-3.141 7-7 7zm-6-19c.807 0 1.609.136 2.312.354-.764 1.26-1.219 2.673-1.3 4.16-1.909 1.276-3.301 3.261-3.804 5.576-.371.071-.84.196-1.36.427-1.114-1.187-1.848-2.915-1.848-4.517 0-3.309 2.691-6 6-6zm1 27c-4.411 0-8-3.589-8-8 0-2.836 1.308-5.385 3.33-6.493.24-.131.47-.227.68-.299.113 4.866 4.097 8.792 8.99 8.792.997 0 1.954-.17 2.851-.47-.109.566-.276 1.116-.509 1.644-1.265 2.931-4.147 4.826-7.342 4.826zm11-5h-1.459c.255-.804.393-1.645.434-2.507 2.424-1.614 4.025-4.369 4.025-7.493 0-.129-.014-.254-.019-.381 1.334-.704 2.487-1.523 3.223-3.002 1.159 1.372 1.796 3.235 1.796 5.383 0 4.411-3.589 8-8 8zm38-45c0 1.602-.734 3.33-1.849 4.517-.52-.23-.989-.356-1.36-.427-.503-2.315-1.895-4.3-3.804-5.576-.081-1.486-.536-2.9-1.3-4.16.703-.218 1.506-.354 2.313-.354 3.309 0 6 2.691 6 6zm-19 6c0-3.859 3.141-7 7-7s7 3.141 7 7-3.141 7-7 7-7-3.141-7-7zm3-14c2.162 0 4.168.976 5.504 2.678.649.827 1.091 1.774 1.318 2.782-.889-.295-1.836-.46-2.822-.46-4.1 0-7.56 2.758-8.643 6.513-1.157-.695-1.772-1.39-2.122-2.707-.156-.57-.235-1.177-.235-1.806 0-3.859 3.141-7 7-7zm-10 16c0-2.149.637-4.012 1.797-5.384.736 1.48 1.889 2.299 3.222 3.003-.005.127-.019.252-.019.381 0 3.124 1.601 5.879 4.025 7.493.041.863.179 1.704.433 2.507h-1.458c-4.411 0-8-3.589-8-8zm19 13c-3.195 0-6.077-1.895-7.345-4.833-.231-.524-.397-1.073-.506-1.637.897.3 1.854.47 2.851.47 4.893 0 8.877-3.926 8.989-8.792.211.072.441.167.68.299 2.023 1.108 3.331 3.657 3.331 6.493 0 4.411-3.589 8-8 8z"/><path d="m53 28v2c3.309 0 6-2.691 6-6h-2c0 2.206-1.794 4-4 4z"/><path d="m38.398 23.799 1.203-1.598c-1.017-.765-1.601-1.932-1.601-3.201h-2c0 1.875.896 3.669 2.398 4.799z"/><path d="m28.586 27h2.828v2h-2.828z" transform="matrix(.707 -.707 .707 .707 -11.012 29.414)"/><path d="m33.586 40h2.828v2h-2.828z" transform="matrix(.707 -.707 .707 .707 -18.74 36.757)"/><path d="m37.586 36h2.828v2h-2.828z" transform="matrix(.707 -.707 .707 .707 -14.74 38.414)"/><path d="m41.586 32h2.828v2h-2.828z" transform="matrix(.707 -.707 .707 .707 -10.74 40.071)"/></svg>