<svg id="_x33_0" enable-background="new 0 0 64 64" height="512" viewBox="0 0 64 64" width="512" xmlns="http://www.w3.org/2000/svg"><path d="m62.87 29.688c-1.016-9.043-8.303-16.416-17.328-17.53-9.746-1.207-18.771 4.641-21.637 13.935l-3.905 2.13v-11.285c3.941-.493 7-3.865 7-7.938 0-4.411-3.589-8-8-8-1.842 0-3.585.618-5 1.757-1.415-1.139-3.158-1.757-5-1.757-4.411 0-8 3.589-8 8 0 4.072 3.059 7.444 7 7.938v30.125c-3.941.493-7 3.865-7 7.937 0 4.411 3.589 8 8 8 1.842 0 3.585-.618 5-1.757 1.415 1.139 3.158 1.757 5 1.757 4.411 0 8-3.589 8-8 0-4.072-3.059-7.444-7-7.938v-11.285l3.905 2.131c2.572 8.319 10.363 14.092 19.095 14.092 5.687 0 11.123-2.434 14.916-6.676 3.844-4.301 5.604-9.854 4.954-15.636zm-43.87 19.312c3.309 0 6 2.691 6 6s-2.691 6-6 6c-1.624 0-3.146-.641-4.286-1.805l-.714-.73-.714.73c-1.14 1.164-2.662 1.805-4.286 1.805-3.309 0-6-2.691-6-6s2.691-6 6-6h1v-34h-1c-3.309 0-6-2.691-6-6s2.691-6 6-6c1.624 0 3.146.641 4.286 1.805l.714.73.714-.73c1.14-1.164 2.662-1.805 4.286-1.805 3.309 0 6 2.691 6 6s-2.691 6-6 6h-1v14.314l-.602.328c-.862.472-1.398 1.376-1.398 2.358s.536 1.886 1.399 2.357l.601.328v14.315zm37.424-5.009c-3.413 3.819-8.306 6.009-13.424 6.009-7.985 0-15.097-5.365-17.293-13.047l-.115-.403-7.234-3.948c-.221-.121-.358-.351-.358-.602s.137-.481.357-.602l7.235-3.948.115-.402c2.241-7.839 9.315-13.047 17.31-13.047.753 0 1.514.046 2.28.141 8.117 1.003 14.672 7.635 15.586 15.769.585 5.209-.998 10.209-4.459 14.08z"/><path d="m43 16c-8.822 0-16 7.178-16 16s7.178 16 16 16 16-7.178 16-16-7.178-16-16-16zm0 30c-7.72 0-14-6.28-14-14s6.28-14 14-14 14 6.28 14 14-6.28 14-14 14z"/><path d="m39 33c1.654 0 3-1.346 3-3s-1.346-3-3-3c1.654 0 3-1.346 3-3s-1.346-3-3-3c-3.309 0-6 2.691-6 6s2.691 6 6 6zm0-10c.551 0 1 .448 1 1s-.449 1-1 1c-1.103 0-2 .897-2 2s.897 2 2 2c.551 0 1 .448 1 1s-.449 1-1 1c-2.206 0-4-1.794-4-4s1.794-4 4-4z"/><path d="m37 36c-1.654 0-3 1.346-3 3s1.346 3 3 3 3-1.346 3-3-1.346-3-3-3zm0 4c-.551 0-1-.448-1-1s.449-1 1-1 1 .448 1 1-.449 1-1 1z"/><path d="m48 23h2v2h-2z"/><path d="m32 33h2v2h-2z"/><path d="m48.502 28.709c-.727-.471-1.565-.709-2.502-.709-1.654 0-3 1.346-3 3 0 1.343.909 2.509 2.156 2.878.054.14.125.34.214.62-.087.275-.157.481-.211.623-1.249.368-2.159 1.535-2.159 2.879 0 1.654 1.346 3 3 3 1.018 0 1.832-.276 2.498-.709.727.471 1.565.709 2.502.709 1.654 0 3-1.346 3-3 0-1.343-.909-2.509-2.156-2.878-.054-.14-.125-.34-.214-.62.087-.275.157-.481.211-.623 1.249-.368 2.159-1.535 2.159-2.879 0-1.654-1.346-3-3-3-1.018 0-1.832.276-2.498.709zm-3.502 2.291c0-.552.449-1 1-1 .39 0 .733.067 1.044.198-.381.578-.672 1.208-.9 1.818l-.229-.019c-.513-.043-.915-.48-.915-.997zm7 7c0 .552-.449 1-1 1-.39 0-.733-.067-1.044-.198.381-.578.672-1.208.9-1.818l.229.019c.513.043.915.48.915.997zm0-7c0 .517-.402.954-.916.996l-.455.038-.27.368c-.298.408-.563 1.204-.898 2.372-.66 2.312-1.376 4.226-3.461 4.226-.551 0-1-.448-1-1 0-.517.402-.954.916-.996l.455-.038.27-.368c.298-.408.563-1.204.898-2.372.66-2.312 1.376-4.226 3.461-4.226.551 0 1 .448 1 1z"/><path d="m41 42h2v2h-2z"/><path d="m44 20h2v2h-2z"/></svg>