<svg id="_x33_0" enable-background="new 0 0 64 64" height="512" viewBox="0 0 64 64" width="512" xmlns="http://www.w3.org/2000/svg"><path d="m50.864 28.809c.192-.208.53-.587.868-.967l.748-.85c1.43-.11 2.754-.72 3.763-1.741.905-.895 1.481-2.031 1.682-3.267 2.837-.216 5.081-2.588 5.081-5.479 0-3.033-2.467-5.5-5.5-5.5-2.895 0-5.269 2.249-5.479 5.091-1.224.201-2.359.772-3.267 1.67-1.016 1.027-1.621 2.352-1.731 3.771-.504.437-1.451 1.261-1.833 1.615-2.445 2.303-5.754 3.513-8.501 4.155.642-2.747 1.851-6.055 4.149-8.494.367-.383 1.192-1.327 1.631-1.831 1.418-.11 2.744-.716 3.778-1.739.894-.904 1.463-2.039 1.663-3.264 2.838-.213 5.084-2.586 5.084-5.479 0-3.033-2.467-5.5-5.5-5.5-2.893 0-5.266 2.246-5.479 5.086-1.226.201-2.362.771-3.272 1.671-1.017 1.028-1.621 2.354-1.731 3.773l-.537.469c-.468.399-.984.875-1.286 1.152-4.768 4.477-6.371 10.924-6.91 14.926-3.316.424-10.249 1.917-15.15 7.125-.244.265-.722.803-1.139 1.281l-.476.545c-1.425.109-2.749.716-3.768 1.735-.9.9-1.474 2.035-1.676 3.263-2.838.215-5.082 2.587-5.082 5.479 0 3.033 2.467 5.5 5.5 5.5 2.891 0 5.264-2.244 5.479-5.082 1.229-.202 2.364-.776 3.264-1.676 1.019-1.019 1.625-2.342 1.735-3.767.503-.439 1.451-1.269 1.833-1.623 2.445-2.303 5.754-3.512 8.501-4.154-.642 2.747-1.851 6.055-4.148 8.494-.368.383-1.193 1.327-1.631 1.831-1.424.111-2.75.721-3.774 1.745-.896.896-1.467 2.029-1.668 3.258-2.839.214-5.085 2.586-5.085 5.479 0 3.033 2.467 5.5 5.5 5.5 2.893 0 5.266-2.247 5.479-5.086 1.23-.202 2.367-.775 3.268-1.677 1.019-1.019 1.625-2.342 1.735-3.767l.546-.477c.483-.422 1.018-.896 1.277-1.145 4.772-4.481 6.374-10.935 6.912-14.936 3.316-.424 10.247-1.917 15.147-7.113zm-1.291-8.822 4.457 4.457c-.499.297-1.055.474-1.643.529l-3.34-3.34c.055-.587.232-1.145.526-1.646zm6.418 1.418c-.057.582-.252 1.129-.547 1.625l-4.457-4.457c.499-.293 1.048-.487 1.628-.544zm1.514-8.4c1.93 0 3.5 1.57 3.5 3.5s-1.57 3.5-3.5 3.5h-.086l-3.414-3.414v-.086c0-1.929 1.571-3.5 3.5-3.5zm-10.947 11.61c.288-.266.908-.809 1.403-1.239l2.678 2.679-.401.458c-.329.369-.656.737-.836.932-4.253 4.509-10.261 5.963-13.475 6.43.047-.659.074-1.295.073-1.849 0-.011.029-1.036.271-2.58 3.15-.64 7.261-1.981 10.287-4.831zm-6.995-14.638 4.46 4.46c-.503.295-1.06.472-1.645.527l-3.34-3.34c.054-.588.231-1.145.525-1.647zm6.418 1.418c-.057.581-.251 1.131-.543 1.629l-4.461-4.461c.499-.293 1.048-.487 1.628-.544zm1.519-8.395c1.93 0 3.5 1.57 3.5 3.5s-1.57 3.5-3.5 3.5h-.086l-3.414-3.414v-.086c0-1.93 1.57-3.5 3.5-3.5zm-33.071 41.026-4.455-4.455c.501-.295 1.059-.471 1.647-.525l3.333 3.333c-.054.588-.23 1.145-.525 1.647zm-6.42-1.411c.057-.583.253-1.133.549-1.632l4.459 4.459c-.499.296-1.049.492-1.632.549zm-1.514 8.39c-1.93 0-3.5-1.57-3.5-3.5s1.57-3.5 3.5-3.5h.077l3.423 3.423v.077c0 1.93-1.571 3.5-3.5 3.5zm10.947-11.61c-.287.265-.906.809-1.401 1.243l-2.679-2.679.141-.161c.403-.462.865-.983 1.095-1.232 4.253-4.519 10.262-5.973 13.475-6.44-.047.663-.075 1.301-.073 1.857 0 .011-.031 1.042-.272 2.583-3.15.638-7.261 1.979-10.286 4.829zm6.994 14.637-4.456-4.456c.501-.296 1.058-.474 1.643-.529l3.341 3.341c-.056.587-.233 1.144-.528 1.644zm-6.417-1.417c.057-.582.251-1.131.544-1.627l4.457 4.457c-.497.294-1.045.488-1.626.545zm-1.519 8.395c-1.93 0-3.5-1.57-3.5-3.5s1.57-3.5 3.5-3.5h.086l3.414 3.414v.086c0 1.93-1.57 3.5-3.5 3.5zm17.5-28.976c.001.452-.018 1.406-.155 2.712-.375 3.577-1.705 10.237-6.418 14.663-.253.243-.758.689-1.214 1.088l-.167.146-2.68-2.68c.431-.493.975-1.11 1.241-1.387 3.068-3.257 4.399-7.773 4.976-10.988.386-2.129.417-3.575.417-3.612-.001-.452.018-1.406.155-2.712.375-3.577 1.705-10.237 6.424-14.668.26-.24.753-.694 1.208-1.082l.167-.146 2.68 2.68c-.431.493-.975 1.11-1.241 1.387-3.068 3.257-4.399 7.773-4.976 10.987-.386 2.118-.417 3.575-.417 3.612z"/><path d="m5 9c.74 0 1.424-.215 2.019-.567l10.274 10.274 1.414-1.414-10.274-10.274c.352-.595.567-1.279.567-2.019 0-2.206-1.794-4-4-4s-4 1.794-4 4 1.794 4 4 4zm0-6c1.103 0 2 .897 2 2s-.897 2-2 2-2-.897-2-2 .897-2 2-2z"/><path d="m19 9c.74 0 1.424-.215 2.019-.567l2.567 2.567c.263.263.414.628.414 1s-.151.737-.414 1l-1.586 1.586c-.645.645-1 1.502-1 2.414s.355 1.77 1 2.414l2.293 2.293 1.414-1.414-2.293-2.293c-.263-.263-.414-.628-.414-1s.151-.737.414-1l1.586-1.586c.645-.645 1-1.502 1-2.414s-.355-1.77-1-2.414l-2.567-2.567c.352-.595.567-1.279.567-2.019 0-2.206-1.794-4-4-4s-4 1.794-4 4 1.794 4 4 4zm0-6c1.103 0 2 .897 2 2s-.897 2-2 2-2-.897-2-2 .897-2 2-2z"/><path d="m5.025 14.975c-2.206 0-4 1.794-4 4s1.794 4 4 4c.726 0 1.399-.209 1.987-.549l2.574 2.574c.645.645 1.502 1 2.414 1s1.77-.355 2.414-1l1.586-1.586c.526-.526 1.474-.526 2 0l2.293 2.293 1.414-1.414-2.293-2.293c-1.289-1.29-3.539-1.29-4.828 0l-1.586 1.586c-.526.526-1.474.526-2 0l-2.559-2.559c.363-.602.584-1.299.584-2.051 0-2.206-1.795-4.001-4-4.001zm-2 4c0-1.103.897-2 2-2s2 .897 2 2-.897 2-2 2-2-.897-2-2z"/><path d="m59 55c-.74 0-1.424.215-2.019.567l-10.274-10.274-1.414 1.414 10.274 10.274c-.352.595-.567 1.279-.567 2.019 0 2.206 1.794 4 4 4s4-1.794 4-4-1.794-4-4-4zm0 6c-1.103 0-2-.897-2-2s.897-2 2-2 2 .897 2 2-.897 2-2 2z"/><path d="m59 41c-.74 0-1.424.215-2.019.567l-2.567-2.567c-1.289-1.29-3.539-1.29-4.828 0l-1.586 1.586c-.526.526-1.474.526-2 0l-2.293-2.293-1.414 1.414 2.293 2.293c1.289 1.29 3.539 1.29 4.828 0l1.586-1.586c.526-.526 1.474-.526 2 0l2.567 2.567c-.352.595-.567 1.279-.567 2.019 0 2.206 1.794 4 4 4s4-1.794 4-4-1.794-4-4-4zm0 6c-1.103 0-2-.897-2-2s.897-2 2-2 2 .897 2 2-.897 2-2 2z"/><path d="m45.025 54.975c-.753 0-1.449.221-2.051.584l-2.56-2.559c-.263-.263-.414-.628-.414-1s.151-.737.414-1l1.586-1.586c.645-.645 1-1.502 1-2.414s-.355-1.77-1-2.414l-2.293-2.293-1.414 1.414 2.293 2.293c.263.263.414.628.414 1s-.151.737-.414 1l-1.586 1.586c-.645.645-1 1.502-1 2.414s.355 1.77 1 2.414l2.574 2.574c-.34.588-.549 1.26-.549 1.987 0 2.206 1.794 4 4 4s4-1.794 4-4-1.795-4-4-4zm0 6c-1.103 0-2-.897-2-2s.897-2 2-2 2 .897 2 2-.897 2-2 2z"/></svg>