<svg id="_x33_0" enable-background="new 0 0 64 64" height="512" viewBox="0 0 64 64" width="512" xmlns="http://www.w3.org/2000/svg"><path d="m51.747 34.219c.304-.895.561-1.835.808-2.744.414-1.521.805-2.957 1.34-4.027.237-.475.48-.831.716-1.176.864-1.266 1.389-2.253 1.389-5.272 0-3.449-2.339-5-4-5-.524 0-1.022.169-1.446.385.068-.464.188-.911.408-1.311.688-1.252 1.038-2.623 1.038-4.074 0-4.721-4.704-10-11-10-4.323 0-7.486 2.036-9 4.575-1.514-2.539-4.677-4.575-9-4.575-6.296 0-11 5.279-11 10 0 1.451.35 2.822 1.038 4.074.22.4.34.847.408 1.312-.424-.217-.922-.386-1.446-.386-1.661 0-4 1.551-4 5 0 3.019.525 4.006 1.39 5.271.235.345.479.701.716 1.176.535 1.07.926 2.506 1.34 4.027.247.909.504 1.849.808 2.744-2.222.561-4.254 2.271-4.254 5.782 0 2.37 1.457 5.42 2.866 8.369 1.049 2.195 2.134 4.465 2.134 5.631v5.794c0 1.768 1.438 3.206 3.206 3.206.782 0 1.538-.287 2.128-.808 1.279-1.128 3.666-4.592 3.666-7.192 0-1.922-1.747-3.07-2.847-3.602.081-.408.181-.968.283-1.642 1.291 1.057 3.338 2.244 6.564 2.244 2.734 0 4.84-1.629 6-4.402 1.16 2.773 3.266 4.402 6 4.402 3.226 0 5.273-1.187 6.564-2.243.102.673.202 1.234.283 1.642-1.1.531-2.847 1.679-2.847 3.601 0 2.6 2.387 6.064 3.666 7.192.59.521 1.346.808 2.128.808 1.768 0 3.206-1.438 3.206-3.206v-5.794c0-1.166 1.085-3.436 2.134-5.631 1.409-2.949 2.866-5.999 2.866-8.369 0-3.511-2.032-5.221-4.253-5.781zm-4.75-8.539c-.18-.299-.388-.607-.622-.908.429-.088.824-.21 1.2-.348-.16.439-.356.852-.578 1.256zm-5.997-22.68c3.82 0 6.629 2.187 8.02 4.638-.43.422-2.11.282-3.26.182-1.594-.14-3.098-.269-4.207.285-1.438.719-2.413 2.229-2.962 3.319-.955-.55-1.957-.668-2.835-.307-1.083.449-1.756 1.554-1.756 2.883 0 .861 0 2.962 1.681 4.334-.185.319-.406.68-.641 1.023-1.046-1.115-2.04-2.829-2.04-5.357v-5c0-2.42 2.543-6 8-6zm-11.718 19.592c-.179-.135-.281-.327-.282-.525-.001-.129.042-.315.245-.472.942-.724 1.972-1.786 2.719-3.229.688 1.43 1.635 2.484 2.501 3.205.198.165.228.382.227.497 0 .214-.096.414-.261.549-.87.714-1.792 1.492-2.465 2.608-.73-1.132-1.736-1.915-2.684-2.633zm-6.282-19.592c5.457 0 8 3.58 8 6v5c0 2.441-1.018 4.124-2.115 5.24-.205-.307-.401-.623-.565-.906 1.68-1.373 1.68-3.473 1.68-4.334 0-1.329-.673-2.434-1.756-2.882-.877-.363-1.88-.244-2.835.307-.549-1.09-1.523-2.6-2.962-3.319-1.109-.555-2.614-.426-4.207-.286-1.15.099-2.83.239-3.26-.182 1.392-2.451 4.2-4.638 8.02-4.638zm-5.997 22.68c-.223-.404-.418-.818-.579-1.255.376.138.771.259 1.2.348-.233.3-.44.608-.621.907zm8.997 24.32c-3.552 0-5.31-1.725-6.263-2.678.15-1.504.263-3.291.263-5.322h-2c0 5.789-.961 9.719-.971 9.758l-.223.898.877.292c.49.163 2.317.99 2.317 2.052 0 1.797-1.938 4.767-2.988 5.692-.226.199-.511.308-.806.308-.665 0-1.206-.541-1.206-1.206v-5.794c0-1.619-1.079-3.878-2.329-6.493-1.252-2.62-2.671-5.59-2.671-7.507 0-2.815 1.699-3.669 3.018-3.91.847 1.687 2.044 2.91 3.982 2.91 1.181 0 2.571-.387 3.971-.941 3.216 1.147 5.557 3.234 7.134 6.388l1.789-.895c-1.493-2.985-3.673-5.191-6.477-6.609 2.721-1.397 4.998-3.011 5.163-3.13l-1.162-1.627c-1.875 1.339-7.403 4.814-10.418 4.814-1.837 0-2.661-2.508-3.625-6.051-.421-1.548-.856-3.148-1.48-4.396-.299-.597-.593-1.028-.854-1.409-.627-.918-1.041-1.525-1.041-4.144 0-2.491 1.577-3 2-3 .368 0 .923.372 1.231.654-.008.025-.01.049-.018.073-.324.94-.28 1.938.131 2.965.166.415.411.784.696 1.126.185 2.2 1.09 3.679 1.973 5.11.47.761.923 1.508 1.28 2.364.42 1.007.707 2.167.707 3.708h2c0-1.189-.153-2.194-.389-3.083 2.052-1.616 5.025-2.917 6.389-2.917v-2c-1.801 0-4.825 1.32-7.105 2.966-.218-.456-.454-.877-.692-1.28.387-.863 1.116-2.107 2.081-2.685h1.716v-2h-2c-2.491 0-4.285-.767-4.799-2.051-.231-.576-.263-1.089-.098-1.569.643-1.861.531-3.733-.313-5.27-.524-.954-.79-2.001-.79-3.111 0-.474.077-.976.211-1.487 1.126.554 2.729.427 4.202.299 1.188-.104 2.536-.221 3.14.082 1.327.664 2.254 2.696 2.499 3.423l.516 1.529 1.14-1.14c.644-.643 1.319-.93 1.772-.741.326.136.52.522.52 1.035 0 1.237-.176 2.47-1.447 3.105l-.895.447.447.895c.032.064.599 1.187 1.331 2.217-.275.418-.439.898-.437 1.409.003.828.395 1.598 1.075 2.112 1.815 1.376 2.926 2.343 2.926 4.815v13c0 3.867-1.313 8-5 8zm25.329-2.493c-1.25 2.615-2.329 4.874-2.329 6.493v5.794c0 .665-.541 1.206-1.206 1.206-.295 0-.58-.109-.806-.308-1.05-.925-2.988-3.895-2.988-5.692 0-1.033 1.717-1.849 2.316-2.052l.877-.293-.223-.897c-.009-.039-.97-3.969-.97-9.758h-2c0 2.031.113 3.818.263 5.322-.953.953-2.711 2.678-6.263 2.678-3.687 0-5-4.133-5-8v-13c0-2.495 1.026-3.464 2.7-4.838.627-.515.989-1.276.991-2.089.002-.424-.103-.829-.286-1.195.807-1.083 1.455-2.362 1.489-2.431l.447-.895-.895-.447c-1.27-.635-1.446-1.868-1.446-3.105 0-.513.194-.899.521-1.034.455-.189 1.13.098 1.772.741l1.145 1.144.511-1.535c.242-.725 1.162-2.753 2.499-3.422.603-.302 1.951-.185 3.14-.082 1.473.129 3.076.255 4.202-.299.133.511.21 1.013.21 1.487 0 1.11-.266 2.157-.79 3.111-.845 1.536-.956 3.408-.313 5.269.165.48.134.993-.098 1.57-.514 1.283-2.308 2.05-4.799 2.05h-2v2h1.717c.959.576 1.69 1.823 2.08 2.688-.238.402-.473.823-.691 1.278-2.281-1.646-5.305-2.966-7.106-2.966v2c1.364 0 4.337 1.301 6.389 2.917-.236.889-.389 1.894-.389 3.083h2c0-1.541.287-2.701.707-3.707.358-.856.811-1.603 1.28-2.364.883-1.431 1.788-2.91 1.973-5.11.285-.343.529-.711.696-1.126.411-1.027.455-2.025.131-2.966-.008-.025-.01-.049-.018-.073.308-.282.863-.654 1.231-.654.423 0 2 .509 2 3 0 2.619-.414 3.226-1.041 4.144-.261.381-.555.812-.854 1.409-.624 1.248-1.06 2.849-1.48 4.396-.964 3.543-1.788 6.051-3.625 6.051-3.015 0-8.543-3.475-10.419-4.814l-1.162 1.627c.166.119 2.443 1.733 5.163 3.13-2.804 1.419-4.984 3.624-6.477 6.609l1.789.895c1.577-3.154 3.918-5.241 7.134-6.388 1.401.554 2.791.941 3.972.941 1.938 0 3.135-1.223 3.982-2.91 1.319.241 3.018 1.095 3.018 3.91 0 1.917-1.419 4.887-2.671 7.507z"/></svg>