<svg id="_x33_0" enable-background="new 0 0 64 64" height="512" viewBox="0 0 64 64" width="512" xmlns="http://www.w3.org/2000/svg"><path d="m34 9c2.206 0 4-1.794 4-4s-1.794-4-4-4-4 1.794-4 4 1.794 4 4 4zm0-6c1.103 0 2 .897 2 2s-.897 2-2 2-2-.897-2-2 .897-2 2-2z"/><path d="m27 14c0 1.654 1.346 3 3 3s3-1.346 3-3-1.346-3-3-3-3 1.346-3 3zm3-1c.552 0 1 .449 1 1s-.448 1-1 1-1-.449-1-1 .448-1 1-1z"/><path d="m26 11c1.654 0 3-1.346 3-3s-1.346-3-3-3-3 1.346-3 3 1.346 3 3 3zm0-4c.552 0 1 .449 1 1s-.448 1-1 1-1-.449-1-1 .448-1 1-1z"/><path d="m43 20h14v2h-14z"/><path d="m43 16h14v2h-14z"/><path d="m60 12h-20c-1.654 0-3 1.346-3 3v4h-12c-1.103 0-2 .897-2 2v4c0 1.103.897 2 2 2v2.184c-.314-.112-.648-.184-1-.184h-20c-1.654 0-3 1.346-3 3v12c0 1.654 1.346 3 3 3h5.531l4.292 5.15c.45.54 1.111.85 1.814.85 1.303 0 2.363-1.06 2.363-2.362v-3.638h6c.352 0 .686-.072 1-.184v9.184c0 3.86 3.141 7 7 7s7-3.14 7-7v-26.184c.314.112.648.184 1 .184h6v3.638c0 1.302 1.06 2.362 2.362 2.362.703 0 1.364-.31 1.814-.85l4.293-5.15h5.531c1.654 0 3-1.346 3-3v-12c0-1.654-1.346-3-3-3zm-35 9h14l.001 4h-14.001zm-1 24h-8v5.638c0 .307-.445.468-.64.231l-4.891-5.869h-6.469c-.552 0-1-.449-1-1v-12c0-.551.448-1 1-1h20c.552 0 1 .449 1 1v5 6 1c0 .551-.448 1-1 1zm8 16c-2.757 0-5-2.243-5-5v-12-1-6-5-5h10v8h-4v2h4v2h-6v2h6v2h-4v2h4v2h-6v2h6v7c0 2.757-2.243 5-5 5zm29-34c0 .551-.448 1-1 1h-6.469l-4.892 5.87c-.196.236-.639.075-.639-.232v-5.638h-8c-.552 0-1-.449-1-1 1.103 0 2-.897 2-2v-4c0-1.103-.897-2-2-2v-4c0-.551.448-1 1-1h20c.552 0 1 .449 1 1z"/><path d="m43 24h2v2h-2z"/><path d="m47 24h2v2h-2z"/><path d="m51 24h2v2h-2z"/><path d="m55 24h2v2h-2z"/><path d="m7 37h14v2h-14z"/><path d="m7 33h14v2h-14z"/><path d="m19 41h2v2h-2z"/><path d="m15 41h2v2h-2z"/><path d="m11 41h2v2h-2z"/><path d="m7 41h2v2h-2z"/></svg>