<svg id="_x33_0" enable-background="new 0 0 64 64" height="512" viewBox="0 0 64 64" width="512" xmlns="http://www.w3.org/2000/svg"><path d="m58 14c-3.892 0-15 2.021-15 11v4.94c-.076.127-.153.254-.227.382-1.018-1.93-1.773-4.126-1.773-7.322 0-4.349 1.204-7.704 2.499-10.069 5.35-.449 8.501-3.337 8.501-7.931v-4h-1c-3.11 0-7.975.991-9.515 6.849-.475-.923-1.066-1.844-1.778-2.556-2.267-2.267-6.527-2.293-6.707-2.293h-1v1c0 .087.109 8.514 9.204 8.979-1.151 2.401-2.102 5.558-2.184 9.484-.321-.357-.656-.725-1.02-1.109v-2.082c0-3.815-3.405-8.272-13-8.272h-.905l-.09.9c-.017.168-.38 4.166 2.506 7.354 2.214 2.447 5.676 3.7 10.28 3.738.37.397.72.783 1.047 1.147.471.525.909 1.008 1.345 1.452.494 3.714 1.996 6.123 3.473 8.445 1.72 2.703 3.344 5.255 3.344 9.964 0 5.842-2.169 12.528-11.011 15.472 4.839-3.448 8.011-9.091 8.011-15.472 0-10.477-8.523-19-19-19s-19 8.523-19 19 8.523 19 19 19c20.882 0 24-11.904 24-19 0-5.291-1.859-8.212-3.656-11.037-.132-.208-.262-.414-.392-.621.221-.436.456-.864.706-1.283.431.031.857.051 1.275.051 3.515 0 6.558-1.076 8.886-3.16 2.696-2.413 4.181-5.947 4.181-9.95v-4zm-23.881-8.922c1.298.159 3.142.597 4.174 1.629 1.105 1.105 1.891 2.963 2.329 4.218-4.886-.552-6.167-4.038-6.503-5.847zm15.881-2.042v1.964c0 3.72-2.545 5.182-5.089 5.717.951-1.274 1.709-1.932 1.729-1.949l-1.28-1.536c-.099.083-1.051.898-2.189 2.444.582-4.139 2.821-6.339 6.829-6.64zm-23.997 9.982c7.354.267 9.997 3.484 9.997 6.255v.145c-1.194-1.059-2.633-2.164-4.485-3.276l-1.029 1.715c1.693 1.016 3.02 2.032 4.13 3.01-2.911-.335-5.128-1.317-6.603-2.935-1.552-1.701-1.929-3.753-2.01-4.914zm14.997 30.982c0 2.497-.555 4.862-1.526 7h-4.474c-.551 0-1-.449-1-1s.449-1 1-1c1.654 0 3-1.346 3-3s-1.346-3-3-3h-8c-.551 0-1-.449-1-1s.449-1 1-1h1c1.654 0 3-1.346 3-3s-1.346-3-3-3h-7c-.551 0-1-.449-1-1s.449-1 1-1h15.938c2.527 2.968 4.062 6.805 4.062 11zm-17-17c4.162 0 7.974 1.508 10.932 4h-13.932c-1.654 0-3 1.346-3 3s1.346 3 3 3h7c.551 0 1 .449 1 1s-.449 1-1 1h-1c-1.654 0-3 1.346-3 3s1.346 3 3 3h8c.551 0 1 .449 1 1s-.449 1-1 1c-1.654 0-3 1.346-3 3s1.346 3 3 3h3.396c-2.501 3.985-6.597 6.859-11.396 7.719v-.719c0-1.654-1.346-3-3-3h-2c-.551 0-1-.449-1-1s.449-1 1-1h5c1.654 0 3-1.346 3-3s-1.346-3-3-3h-10c-.551 0-1-.449-1-1s.449-1 1-1h2c1.654 0 3-1.346 3-3s-1.346-3-3-3h-11.719c1.423-7.946 8.37-14 16.719-14zm-17 17c0-.338.031-.667.051-1h11.949c.551 0 1 .449 1 1s-.449 1-1 1h-2c-1.654 0-3 1.346-3 3s1.346 3 3 3h10c.551 0 1 .449 1 1s-.449 1-1 1h-5c-1.654 0-3 1.346-3 3s1.346 3 3 3h2c.551 0 1 .449 1 1v.949c-.333.02-.662.051-1 .051-9.374 0-17-7.626-17-17zm50-26c0 3.427-1.248 6.432-3.515 8.46-1.937 1.734-4.509 2.621-7.496 2.639 1.61-2.125 3.718-4.129 6.611-6.299l-1.2-1.6c-2.704 2.028-4.765 3.932-6.4 5.922v-2.122c0-6.714 8.041-8.673 12-8.96z"/></svg>