<svg id="_x33_0" enable-background="new 0 0 64 64" height="512" viewBox="0 0 64 64" width="512" xmlns="http://www.w3.org/2000/svg"><path d="m60 53.424v-2.424c0-3.859-3.141-7-7-7-3.391 0-6.225 2.425-6.863 5.63-.62-.394-1.35-.63-2.137-.63-2.206 0-4 1.794-4 4h-2.717l1.717-2.71v-20.29c1.103 0 2-.897 2-2v-2c0-.632-.301-1.19-.76-1.557l1.196-3.588c.375-1.123.564-2.293.564-3.478v-6.377c0-5.514-4.486-10-10-10s-10 4.486-10 10v6.377c0 1.186.189 2.355.564 3.479l1.196 3.588c-.459.366-.76.924-.76 1.556v2c0 1.103.897 2 2 2v17h-16c-1.654 0-3 1.346-3 3s1.346 3 3 3h8c.552 0 1 .448 1 1s-.448 1-1 1h-12.043c-2.206 0-4 1.794-4 4s1.794 4 4 4h53.043c2.757 0 5-2.243 5-5 0-2.045-1.237-3.802-3-4.576zm-12-2.424c0-2.757 2.243-5 5-5s5 2.243 5 5v2h-10zm-4 0c1.103 0 2 .897 2 2h-4c0-1.103.897-2 2-2zm-11.389 5.64c-.246.445-.947.494-1.252-.049l-3.542-5.591h8.366zm-7.611-28.64v-2h14v2zm.721-4-1.26-3.777c-.024-.073-.042-.149-.064-.223h15.207c-.023.074-.04.149-.064.223l-1.261 3.777zm-1.721-13c0-4.411 3.589-8 8-8s8 3.589 8 8v6.377c0 .208-.011.416-.025.623h-15.95c-.014-.207-.025-.415-.025-.623zm13 19v2h-6v2h6v2h-4v2h4v2h-6v2h6v2h-4v2h4v3h-10v-19zm21 31h-53.043c-1.103 0-2-.897-2-2s.897-2 2-2h12.043c1.654 0 3-1.346 3-3s-1.346-3-3-3h-8c-.552 0-1-.448-1-1s.448-1 1-1h16v1.29l4.641 7.322c.476.856 1.38 1.388 2.359 1.388s1.883-.532 2.33-1.339l1.686-2.661h21.984c1.654 0 3 1.346 3 3s-1.346 3-3 3z"/><path d="m53 48c-1.654 0-3 1.346-3 3h2c0-.552.448-1 1-1s1 .448 1 1h2c0-1.654-1.346-3-3-3z"/><path d="m47 40c2.206 0 4-1.794 4-4s-1.794-4-4-4-4 1.794-4 4 1.794 4 4 4zm0-6c1.103 0 2 .897 2 2s-.897 2-2 2-2-.897-2-2 .897-2 2-2z"/><path d="m16 45c3.859 0 7-3.141 7-7s-3.141-7-7-7-7 3.141-7 7 3.141 7 7 7zm0-12c2.757 0 5 2.243 5 5s-2.243 5-5 5-5-2.243-5-5 2.243-5 5-5z"/><path d="m17 27c2.206 0 4-1.794 4-4s-1.794-4-4-4-4 1.794-4 4 1.794 4 4 4zm0-6c1.103 0 2 .897 2 2s-.897 2-2 2-2-.897-2-2 .897-2 2-2z"/><path d="m7 11c1.654 0 3-1.346 3-3s-1.346-3-3-3-3 1.346-3 3 1.346 3 3 3zm0-4c.552 0 1 .448 1 1s-.448 1-1 1-1-.448-1-1 .448-1 1-1z"/><path d="m57 28c1.654 0 3-1.346 3-3s-1.346-3-3-3-3 1.346-3 3 1.346 3 3 3zm0-4c.552 0 1 .448 1 1s-.448 1-1 1-1-.448-1-1 .448-1 1-1z"/><path d="m16 37v-2c-1.654 0-3 1.346-3 3h2c0-.552.448-1 1-1z"/></svg>