<svg id="_x33_0" enable-background="new 0 0 64 64" height="512" viewBox="0 0 64 64" width="512" xmlns="http://www.w3.org/2000/svg"><path d="m59.694 23.268c-4.653-4.537-11.679-4.012-15.075-.702-1.045 1.019-1.781 2.228-2.188 3.594-.132.442-.372.847-.666 1.226-.148-.501-.385-1.018-.78-1.404-.688-.67-1.913-1.131-3.3-.93-.368-.801-.882-1.579-1.572-2.356-2.69-3.067-6.23-2.907-8.982-2.457.37-2.877.188-5.969-2.266-8.485-1.815-1.854-4.08-2.754-6.923-2.754-.153 0-.313.012-.47.018.019-.293.037-.587.037-.87 0-2.548-.797-4.574-2.437-6.196l-1.372-1.358-4.123 4.075 1.39 1.374c.514.507.724 1.12.724 2.115 0 .615-.093 1.313-.237 2.122-1.248.308-2.441.572-3.41.572-.942 0-1.531-.227-2.022-.771l-1.397-1.591-3.96 4.445 1.24 1.413c1.602 1.785 3.607 2.652 6.128 2.652.774 0 1.525-.087 2.208-.196-.039.447-.061.868-.061 1.267 0 2.798.882 5.034 2.699 6.842 1.679 1.652 3.486 2.087 5.252 2.087.813 0 1.61-.098 2.39-.206-.242 2.466-.159 5.888 2.445 8.704 1.482 1.615 3.344 2.425 5.675 2.489-.005.009-.01.018-.015.026-7.307.146-8.717 4.429-10.068 8.583-.777 2.388-1.58 4.856-3.515 6.791l-4.104 4.104c-1.252 1.252-1.252 3.288 0 4.54.553.553 1.291.885 2.078.935.104.007.218.01.339.01 1.864 0 5.621-.778 7.35-2.507 1.237-1.238 1.028-2.954.55-4.167.229-.177.527-.413.855-.676.227 1.447.923 3.481 3.07 5.574 1.248 1.217 2.775 1.813 4.44 1.812 2.464 0 5.229-1.307 7.831-3.844l8.639-8.423c3.23-3.149 2.997-5.454 2.772-7.684-.021-.198.052-.396.196-.543.086-.087.275-.226.555-.204 1.78.159 6.227.228 9.127-2.56.504-.398 4.259-3.519 4.259-7.754 0-5.352-3.161-8.587-3.306-8.732zm-25.082.75c.516.582.908 1.15 1.19 1.721-.408.244-.816.549-1.216.939-.102.099-.18.186-.274.28-.211-.549-.51-1.036-.913-1.476-1.82-1.945-4.434-1.618-7.073-1.035.025-.116.045-.224.071-.342l.071-.329c.101-.469.2-.958.299-1.444 3.061-.55 5.762-.689 7.845 1.686zm-8.696 2.576c2.568-.599 4.779-1.074 6.018.249.483.526.706 1.161.745 2.094-.518.838-.708 1.549-.871 2.395-.018.094-.041.194-.06.29-.989.204-2 .378-2.833.378-1.01 0-1.633-.215-2.146-.74-1.067-1.096-1.158-2.619-.853-4.666zm-4.356-5.756-.52.109c-2.126.448-3.272.647-4.057-.127-.687-.68-.993-1.53-.993-2.759 0-.886.159-1.865.351-2.791.936-.184 1.637-.27 2.239-.27 1.148 0 1.945.308 2.585 1 .897.963.809 2.572.395 4.838zm-18.159-7.817-.066-.076 1.281-1.438c.873.917 1.966 1.345 3.427 1.345.917 0 1.92-.175 2.963-.411-.161.702-.333 1.482-.477 2.283-.987.185-1.78.276-2.496.276-1.948 0-3.423-.632-4.632-1.979zm10.884 10.47c-1.417-1.409-2.105-3.182-2.105-5.42 0-.773.085-1.642.267-2.73.146-.876.341-1.723.528-2.543.081-.354.156-.709.229-1.057l.087-.407c.24-1.229.399-2.24.399-3.176 0-1.498-.403-2.609-1.269-3.489l1.279-1.263c1.234 1.237 1.81 2.745 1.81 4.741 0 .656-.058 1.343-.179 2.106-.137.919-.348 1.871-.552 2.792l-.06.268c-.062.277-.125.554-.176.801-.273 1.211-.554 2.627-.554 3.947 0 1.757.52 3.125 1.587 4.181 1.512 1.494 3.395 1.18 5.566.726-.115.564-.231 1.157-.337 1.771-2.847.412-4.715.526-6.52-1.248zm8.266 3.122c.138-1.225.383-2.423.621-3.588l.083-.422c.603-2.938 1.226-5.978-.623-7.964-1.021-1.103-2.346-1.639-4.052-1.639-.529 0-1.105.053-1.779.158.155-.702.301-1.417.423-2.134 2.577-.157 4.648.532 6.209 2.127 2.211 2.267 2.034 5.236 1.517 8.095-.14.709-.287 1.419-.437 2.107l-.071.327c-.128.59-.252 1.163-.355 1.719-.478 2.611-.656 5.298 1.25 7.257.897.917 2.034 1.344 3.578 1.344.647 0 1.333-.078 2.073-.201-.338.697-.755 1.435-1.203 2.201h-.847c-1.908 0-3.338-.589-4.501-1.856-1.693-1.832-2.275-4.153-1.886-7.531zm22.144 22.7-8.639 8.423c-2.666 2.601-6.751 4.691-9.479 2.031-2.527-2.464-2.577-4.781-2.578-5.71 1.347-1.153 2.977-2.621 4.707-4.351l-1.414-1.414c-4.14 4.141-7.848 6.873-7.885 6.9l-.729.54.462.78c.011.017.979 1.713.151 2.541-1.273 1.274-4.744 2.011-6.149 1.915-.3-.019-.58-.145-.789-.353-.472-.472-.472-1.24 0-1.712l4.104-4.104c2.274-2.273 3.192-5.097 4.002-7.587 1.254-3.854 2.199-6.717 7.164-7.151-.82 2.004-1.028 3.948.533 5.47.972.949 2.479 1.738 4.089 2.376.71 2.251.755 4.409.755 8.093h2c0-3.083-.028-5.237-.469-7.294 2.689.829 5.117 1.249 5.303 1.28l.332-1.973c-2.221-.374-8.455-1.806-10.613-3.911-1.299-1.268-.1-3.58 1.735-6.708.806-1.374 1.639-2.794 2.085-4.102.214-.626.312-1.134.398-1.582.207-1.071.344-1.779 2.212-3.602 1.776-1.734 3.315-.977 3.604-.695.234.228.368.893.399 1.393-.023.011-.04.026-.063.037-.906.432-1.592 1.162-2.037 2.174-.264.601-.363 1.25-.339 1.917-1.608 1.579-1.898 3.256-2.152 4.76-.262 1.544-.508 3.003-2.104 4.599l1.414 1.414c.556-.556.977-1.103 1.313-1.639 2.438.303 5.321 1.57 6.233 2.596l1.494-1.328c-1.221-1.375-4.195-2.687-6.859-3.155.164-.52.279-1.027.369-1.516.808-.227 2.002-.523 3.048-.627.008.007.014.015.022.022.493.447 2.039 1.713 2.039 1.713l1.268-1.547s-1.489-1.219-1.965-1.648c-1.783-1.612-2.53-3.436-1.951-4.757.249-.565.598-.949 1.064-1.171 1.8-.854 3.066-2.246 3.564-3.92.31-1.035.871-1.955 1.669-2.733.301-.294.656-.565 1.054-.806.393 1.209 1.629 2.272 2.771 3.239.917.777 1.956 1.657 2.168 2.308.445 1.365-.433 3.14-.808 3.705l-1.039 1.557h1.873c1.968 0 1.968.397 1.968 1 0 .557-.716 2-3.983 2h-.682l-.249.635c-.083.212-.65 1.686-.927 3.073-.187.114-.364.246-.522.405-.565.572-.844 1.356-.764 2.15.211 2.075.362 3.574-2.178 6.05zm-5.955-13.057c-.363.07-.717.149-1.048.229.117-.405.268-.795.495-1.173.157.317.34.632.553.944zm18.735 1.951-.089.077c-2.101 2.05-5.518 2.15-7.087 2.072.132-.491.287-.983.424-1.377 4.153-.246 5.277-2.667 5.277-3.979 0-1.63-.755-2.55-2.408-2.87.425-1.059.791-2.562.318-4.012-.388-1.189-1.602-2.219-2.776-3.213-.911-.772-2.258-1.921-2.182-2.525 2.801-.826 6.516-.441 9.336 2.309.026.027 2.712 2.777 2.712 7.311 0 3.446-3.49 6.18-3.525 6.207z"/></svg>