<svg id="_x33_0" enable-background="new 0 0 64 64" height="512" viewBox="0 0 64 64" width="512" xmlns="http://www.w3.org/2000/svg"><path d="m17 16v2c.551 0 1 .449 1 1h2c0-1.654-1.346-3-3-3z"/><path d="m11.078 19.922c.446 2.871 2.928 5.078 5.922 5.078 3.309 0 6-2.691 6-6 0-.755-.151-1.479-.413-2.159 3.653-.738 6.413-3.973 6.413-7.841 0-4.411-3.589-8-8-8-4.106 0-7.496 3.111-7.946 7.099-.345-.061-.695-.099-1.054-.099-3.309 0-6 2.691-6 6 0 2.994 2.207 5.476 5.078 5.922zm5.922 3.078c-2.206 0-4-1.794-4-4 0-1.975 1.408-3.633 3.378-3.948.183-.035.386-.052.622-.052 1.25 0 2.447.599 3.204 1.604.521.688.796 1.516.796 2.396 0 2.206-1.794 4-4 4zm4-20c3.309 0 6 2.691 6 6 0 3.16-2.456 5.75-5.558 5.978-.922-1.014-2.169-1.681-3.515-1.895-.277-1.786-1.353-3.351-2.918-4.257.093-3.228 2.741-5.826 5.991-5.826zm-9 7c.566 0 1.107.115 1.617.346 1.172.515 1.998 1.556 2.274 2.773-2.471.456-4.343 2.363-4.788 4.772-1.773-.41-3.103-1.995-3.103-3.891 0-2.206 1.794-4 4-4z"/><path d="m12 13v-2c-1.654 0-3 1.346-3 3h2c0-.551.449-1 1-1z"/><path d="m23 9h2c0-2.206-1.794-4-4-4v2c1.103 0 2 .897 2 2z"/><path d="m57 51h-3v-3h-20v3h-4v2h-5.209c.295-2.477.228-5.054.069-7.606 5.507.251 11.531-.096 15.987-4.561 4.589-4.577 5.11-10.774 5.055-16.85.464.007.927.016 1.391.016 5.696 0 11.366-.639 15.406-4.582l.734-.717-4.207-4.096-.612.596-9.815-9.815.616-.615-4.185-4.183-.707.705c-4.362 4.35-4.783 10.59-4.691 16.711-6.175-.049-12.462.474-17.11 4.984-4.622 4.465-4.928 10.521-4.652 16.024-6.066-.338-12.224-.04-16.777 4.513l-.708.706 4.184 4.183.707-.705c.138-.138.284-.262.429-.388l10.779 10.779c-.128.149-.255.299-.396.442l-.696.704 4.14 4.175.71-.716c2.226-2.244 3.415-4.882 4.014-7.704h5.544v2h4v3h20v-3h3v5h6v-16h-6zm-9.447-44.033 9.456 9.456c-.894.524-1.904.899-3.01 1.162l-7.639-7.639c.271-1.094.657-2.093 1.193-2.979zm-1.791 11.189c-.036-2.064-.017-4.017.181-5.799l5.631 5.631c-1.788.189-3.745.205-5.812.168zm.102 3.831c-.006-.225-.009-.45-.016-.675l-.035-1.155c5.354.085 10.07-.163 13.377-2.795l1.344 1.309c-3.812 3.117-9.098 3.41-14.67 3.316zm-21.798 17.425c-.118-2.356-.116-4.625.265-6.667l6.549 6.549c-2.097.317-4.419.261-6.814.118zm9.102-.658-8.223-8.223c.368-.962.866-1.849 1.532-2.639l9.421 9.421c-.82.637-1.736 1.106-2.73 1.441zm4.151-2.849-9.379-9.379c.825-.616 1.736-1.092 2.723-1.449l8.162 8.162c-.375.969-.866 1.864-1.506 2.666zm2.142-4.858-6.577-6.577c2.178-.429 4.591-.497 7.089-.465.026 2.489-.056 4.887-.512 7.042zm-15.347-6.624c4.132-4.01 9.989-4.472 15.762-4.42.007.221.013.442.021.675l.036 1.328c-5.385-.056-10.817.352-14.429 3.979-3.348 3.383-3.673 8.322-3.446 13.296l-.76-.054c-.405-.033-.812-.059-1.218-.086-.285-5.32-.068-10.755 4.034-14.718zm-20.672 19.835c4.25-3.629 9.946-3.576 15.903-3.164.594.038 1.198.078 1.806.128l.797.056c.459.033.914.066 1.356.092 5.439.356 11.06.395 14.774-3.308 3.788-3.798 3.993-9.636 3.877-15.298l-.061-2.198c-.019-.575-.037-1.142-.046-1.724-.128-5.847.05-11.424 3.411-15.398l1.363 1.363c-2.832 3.474-2.971 8.498-2.843 14.204l.071 2.36c.015.514.03 1.028.037 1.543v.005c.111 5.991-.142 12.2-4.454 16.501-4.217 4.226-10.083 4.252-15.723 3.912-.91-.06-1.81-.127-2.771-.201l-1.173-.084c-5.956-.413-11.221-.496-14.959 2.575zm15.512.739c.135 2.04.221 3.944.142 5.686l-5.815-5.815c1.738-.087 3.638-.005 5.673.129zm-11.362 1.181c.952-.491 2.002-.82 3.143-1.029l8.092 8.092c-.203 1.148-.526 2.205-1.01 3.162zm12.113 14.374-1.331-1.342c2.894-3.548 2.951-8.48 2.594-14.072.624.048 1.252.092 1.881.136.37 5.725.32 11.177-3.144 15.278zm12.295-5.552v-2h2v2zm20 3h-16v-8h2v2h2v-2h2v4h2v-4h2v2h2v-2h4zm2-3v-2h3v2zm5-7h2v12h-2z"/></svg>