<svg id="_x33_0" enable-background="new 0 0 64 64" height="512" viewBox="0 0 64 64" width="512" xmlns="http://www.w3.org/2000/svg"><path d="m61.528 9.593c.298-.47.472-1.019.472-1.593 0-1.654-1.346-3-3-3-.197 0-.391.024-.581.061-1.008-.841-2.214-1.467-3.537-1.849-.349-1.27-1.502-2.212-2.882-2.212s-2.533.942-2.882 2.213c-1.323.382-2.529 1.008-3.537 1.849-.19-.038-.384-.062-.581-.062-1.654 0-3 1.346-3 3 0 .573.174 1.121.473 1.592-.446 1.097-.473 2.235-.473 2.408s.027 1.31.472 2.407c-.298.47-.472 1.019-.472 1.593 0 1.654 1.346 3 3 3 .197 0 .391-.024.581-.061 1.008.841 2.214 1.467 3.537 1.849.349 1.27 1.502 2.212 2.882 2.212s2.533-.942 2.882-2.213c1.323-.382 2.529-1.008 3.537-1.849.19.038.384.062.581.062 1.654 0 3-1.346 3-3 0-.573-.174-1.121-.473-1.592.446-1.097.473-2.235.473-2.408s-.027-1.31-.472-2.407zm-6.81 9.167c-.336-.738-.955-1.311-1.718-1.582v-3.446l3.064 1.768c-.029.166-.064.331-.064.5 0 .666.223 1.298.615 1.813-.573.394-1.211.713-1.897.947zm-5.436 0c-.686-.235-1.325-.554-1.899-.948.395-.517.617-1.147.617-1.812 0-.169-.036-.334-.064-.5l3.064-1.768v3.446c-.763.271-1.382.844-1.718 1.582zm-5.128-5.623c-.114-.468-.153-.922-.154-1.134.001-.215.039-.669.153-1.137.281.081.565.134.847.134.727 0 1.409-.287 1.952-.758l3.047 1.758-3.026 1.746c-.741-.651-1.773-.91-2.819-.609zm5.128-7.897c.336.739.955 1.311 1.718 1.582v3.446l-3.064-1.768c.029-.166.064-.331.064-.5 0-.666-.223-1.298-.615-1.813.573-.394 1.211-.713 1.897-.947zm5.436 0c.686.235 1.325.554 1.899.948-.395.517-.617 1.147-.617 1.812 0 .169.036.334.064.5l-3.064 1.768v-3.446c.763-.271 1.382-.844 1.718-1.582zm2.317 8.511-3.034-1.751 3.045-1.757c.542.47 1.225.757 1.954.757.279 0 .561-.053.846-.136.114.467.153.921.154 1.133-.001.215-.039.67-.154 1.139-1.003-.287-2.053-.038-2.811.615zm2.965-5.751c0 .41-.262.787-.633.931-.509.186-1.004-.03-1.242-.445-.083-.151-.125-.314-.125-.486 0-.304.138-.588.386-.788.166-.137.384-.212.614-.212.552 0 1 .449 1 1zm-8-5c.552 0 1 .449 1 1 0 .046-.007.087-.013.129-.059.497-.484.871-.987.871s-.928-.374-.988-.871c-.005-.042-.012-.083-.012-.129 0-.551.448-1 1-1zm-7 4c.23 0 .448.075.623.219.239.193.377.477.377.781 0 .172-.042.335-.118.473-.247.432-.793.622-1.231.465-.389-.151-.651-.528-.651-.938 0-.551.448-1 1-1zm-1 9c0-.41.262-.787.633-.931.126-.046.25-.069.367-.069.358 0 .696.202.875.513.083.151.125.315.125.487 0 .304-.138.588-.386.788-.166.137-.384.212-.614.212-.552 0-1-.449-1-1zm8 5c-.552 0-1-.449-1-1 0-.046.007-.087.013-.129.059-.497.484-.871.987-.871s.928.374.988.871c.005.042.012.083.012.129 0 .551-.448 1-1 1zm7-4c-.23 0-.448-.075-.623-.219-.239-.193-.377-.477-.377-.781 0-.172.042-.336.117-.473.187-.325.525-.527.883-.527.117 0 .241.023.35.062.388.151.65.528.65.938 0 .551-.448 1-1 1z"/><path d="m38.949 27.545c.031-.509.051-1.022.051-1.545 0-9.956-1.99-24-2.01-24.142l-.172-1.198-1.145.395c-.301.104-7.473 2.609-14.76 7.885-9.756 7.065-14.913 15.731-14.913 25.06 0 6.111 2.938 14.018 3.063 14.351l.102.273c-2.571 4.609-5.02 9.073-7.05 12.908l1.768.936c2.112-3.989 4.679-8.663 7.365-13.472 3.134-.016 6.062-.339 8.751-.945v7.2c-2.155 2.079-4.13 4.143-5.769 6.109l1.537 1.28c1.478-1.774 3.255-3.643 5.202-5.537 1.52.722 6.851 2.897 16.031 2.897 21.748 0 22-33.66 22-34v-1h-1c-3.56 0-13.945.791-19.051 2.545zm-23.071 13.231 11.977-3.685c.545.559 1.304.909 2.145.909 1.654 0 3-1.346 3-3s-1.346-3-3-3-3 1.346-3 3c0 .087.018.169.026.254l-9.706 2.986c1.716-3.013 3.379-5.914 4.903-8.563l8.63-2.589c.545.561 1.305.912 2.147.912 1.654 0 3-1.346 3-3s-1.346-3-3-3-3 1.346-3 3c0 .085.018.165.025.248l-6.346 1.904c2.953-5.116 5.183-8.936 5.918-10.193.133.018.265.041.403.041 1.654 0 3-1.346 3-3s-1.346-3-3-3-3 1.346-3 3c0 .791.314 1.507.816 2.044-.821 1.404-3.183 5.452-6.27 10.803l-1.355-6.096c1.063-.463 1.809-1.52 1.809-2.751 0-1.654-1.346-3-3-3s-3 1.346-3 3c0 1.364.92 2.505 2.168 2.868l1.899 8.546c-1.415 2.461-2.938 5.119-4.506 7.872l-1.419-8.515c1.089-.45 1.858-1.521 1.858-2.771 0-1.654-1.346-3-3-3s-3 1.346-3 3c0 1.349.901 2.48 2.129 2.856l1.865 11.19c-1.173 2.069-2.356 4.166-3.526 6.252-.829-2.495-2.468-7.975-2.468-12.298 0-18.566 21.871-28.483 27.179-30.616.48 3.639 1.821 14.519 1.821 22.616 0 12.381-9.615 20.51-24.621 20.977 1.162-2.07 2.336-4.151 3.499-6.201zm13.122-5.776c0-.551.448-1 1-1s1 .449 1 1-.448 1-1 1-1-.449-1-1zm3-10c0-.551.448-1 1-1s1 .449 1 1-.448 1-1 1-1-.449-1-1zm-3-11c0-.551.448-1 1-1s1 .449 1 1-.448 1-1 1-1-.449-1-1zm-11 4c0-.551.448-1 1-1s1 .449 1 1-.448 1-1 1-1-.449-1-1zm-6 8c0-.551.448-1 1-1s1 .449 1 1-.448 1-1 1-1-.449-1-1zm16.546 21.629-.521-2.606c2.545-1.44 4.698-3.243 6.405-5.367l.473 2.835c-2.046 1.601-4.199 3.333-6.357 5.138zm-6.546-.099c1.474-.43 2.871-.945 4.176-1.551l.625 3.127c-1.634 1.397-3.25 2.824-4.801 4.257zm15 10.47c-7.604 0-12.458-1.581-14.459-2.397 1.657-1.554 3.408-3.113 5.187-4.641l10.393 2.834c.352 1.267 1.502 2.204 2.879 2.204 1.654 0 3-1.346 3-3s-1.346-3-3-3c-1.213 0-2.255.727-2.727 1.765l-8.694-2.371c2.248-1.885 4.5-3.697 6.633-5.368l8.798.88c-.002.032-.01.062-.01.094 0 1.654 1.346 3 3 3s3-1.346 3-3-1.346-3-3-3c-.872 0-1.651.38-2.199.975l-7.295-.729c4.017-3.087 7.359-5.502 8.99-6.665.444.259.954.419 1.504.419 1.654 0 3-1.346 3-3s-1.346-3-3-3-3 1.346-3 3c0 .369.076.719.199 1.046-1.787 1.27-5.311 3.815-9.503 7.048l-.633-3.799c1.325-2.242 2.228-4.759 2.654-7.518 3.7-1.665 13.666-2.623 18.255-2.76-.227 5.46-2.241 30.983-19.972 30.983zm3-5c0-.551.448-1 1-1s1 .449 1 1-.448 1-1 1-1-.449-1-1zm7-8c0-.551.448-1 1-1s1 .449 1 1-.448 1-1 1-1-.449-1-1zm1-12c0-.551.448-1 1-1s1 .449 1 1-.448 1-1 1-1-.449-1-1z"/></svg>