<svg id="_x33_0" enable-background="new 0 0 64 64" height="512" viewBox="0 0 64 64" width="512" xmlns="http://www.w3.org/2000/svg"><path d="m49 39h6v2h-6z"/><path d="m39 43h2v-2h2v-2h-2v-2h-2v2h-2v2h2z"/><path d="m43.707 49.707-1.414-1.414-2.293 2.293-2.293-2.293-1.414 1.414 2.293 2.293-2.293 2.293 1.414 1.414 2.293-2.293 2.293 2.293 1.414-1.414-2.293-2.293z"/><path d="m47.757 51h8.485v2h-8.485z" transform="matrix(.707 -.707 .707 .707 -21.539 52)"/><circle cx="50" cy="50" r="1"/><circle cx="54" cy="54" r="1"/><path d="m56 33h-20c-1.654 0-3 1.346-3 3v20c0 1.654 1.346 3 3 3h20c1.654 0 3-1.346 3-3v-20c0-1.654-1.346-3-3-3zm1 3v9h-10v-10h9c.552 0 1 .449 1 1zm-21-1h9v10h-10v-9c0-.551.448-1 1-1zm-1 21v-9h10v10h-9c-.552 0-1-.449-1-1zm21 1h-9v-10h10v9c0 .551-.448 1-1 1z"/><path d="m56 23h-20c-1.654 0-3 1.346-3 3v2c0 1.654 1.346 3 3 3h20c1.654 0 3-1.346 3-3v-2c0-1.654-1.346-3-3-3zm1 5c0 .551-.448 1-1 1h-20c-.552 0-1-.449-1-1v-2c0-.551.448-1 1-1h20c.552 0 1 .449 1 1z"/><path d="m57 19h-11v-18h-39v59h22.812c1.039 1.79 2.973 3 5.188 3h22c3.309 0 6-2.691 6-6v-32c0-3.309-2.691-6-6-6zm-28 6v28.685l-16-17.231v17.546h16v3c0 .341.035.674.09 1h-20.09v-55h35v16h-9c-.188 0-.374.011-.558.028l-3.028-3.028 3.293-3.293-1.414-1.414-3.293 3.293-3.293-3.293-1.414 1.414 3.293 3.293-3.293 3.293 1.414 1.414 3.293-3.293 2.256 2.256c-1.931.998-3.256 3.01-3.256 5.33zm-14 23.414 3.586 3.586h-3.586zm6.414 3.586-6.414-6.414v-4.04l9.707 10.454zm39.586 5c0 2.206-1.794 4-4 4h-22c-2.206 0-4-1.794-4-4v-32c0-2.206 1.794-4 4-4h22c2.206 0 4 1.794 4 4z"/><circle cx="24" cy="36" r="1"/><circle cx="20" cy="36" r="1"/><path d="m13 31h14v2h-14z"/><path d="m13 27h14v2h-14z"/><path d="m20.094 24.097 4.644-15.097h15.262v-2h-16.738l-3.356 10.903-2.213-5.903h-5.693v2h4.307z"/></svg>