<svg id="_x33_0" enable-background="new 0 0 64 64" height="512" viewBox="0 0 64 64" width="512" xmlns="http://www.w3.org/2000/svg"><path d="m8.652 37.741c-2.253 2.252-3.652 5.8-3.652 9.259h2c0-2.947 1.175-5.953 3.057-7.836l7.641-7.448-1.396-1.432z"/><path d="m31.716 17.698 7.439-7.633c1.891-1.89 4.897-3.065 7.845-3.065v-2c-3.459 0-7.007 1.399-9.268 3.66l-7.449 7.642z"/><path d="m50.765 36.631 7.412-7.544c3.11-3.109 4.823-7.242 4.823-11.637 0-4.388-1.713-8.518-4.823-11.627-3.111-3.11-7.239-4.823-11.627-4.823-4.394 0-8.526 1.713-11.637 4.823l-29.09 29.09c-3.11 3.109-4.823 7.242-4.823 11.637 0 4.388 1.713 8.518 4.823 11.627 3.111 3.11 7.239 4.823 11.627 4.823 4.394 0 8.526-1.713 11.63-4.817l7.55-7.418 9.303 9.303c1.892 1.891 4.401 2.932 7.067 2.932s5.175-1.041 7.067-2.933c3.896-3.896 3.896-10.238 0-14.135zm-20.418-6.284c1.514-1.514 3.522-2.347 5.653-2.347s4.139.833 5.653 2.347l7.793 7.793-11.306 11.306-7.793-7.793c-3.117-3.117-3.117-8.189 0-11.306zm5.98-23.11c2.733-2.732 6.363-4.237 10.223-4.237 3.854 0 7.48 1.505 10.213 4.237s4.237 6.36 4.237 10.213c0 3.86-1.505 7.49-4.244 10.229l-7.406 7.537-6.284-6.284c-1.891-1.891-4.4-2.932-7.066-2.932-2.331 0-4.542.796-6.325 2.26l-7.185-7.185zm-8.654 49.526c-2.733 2.732-6.363 4.237-10.223 4.237-3.854 0-7.48-1.505-10.213-4.237s-4.237-6.36-4.237-10.213c0-3.86 1.505-7.49 4.237-10.223l13.838-13.838 7.186 7.186c-3.21 3.922-2.986 9.734.671 13.392l6.284 6.284zm30.98 1.89c-1.514 1.514-3.522 2.347-5.653 2.347s-4.139-.833-5.653-2.347l-7.793-7.793 11.306-11.306 7.793 7.793c3.117 3.117 3.117 8.189 0 11.306z"/><path d="m52.702 44.288-1.404 1.424 4.526 4.463c1.401 1.4 1.563 3.646.376 5.225l1.599 1.201c1.781-2.368 1.54-5.739-.566-7.845z"/></svg>