<svg id="_x33_0" enable-background="new 0 0 64 64" height="512" viewBox="0 0 64 64" width="512" xmlns="http://www.w3.org/2000/svg"><path d="m55 29v3c0 12.682-10.318 23-23 23-4.554 0-8.906-1.308-12.658-3.794l4.161-4.204-19.909-5.421 5.296 20.178 4.741-4.788c5.281 3.894 11.768 6.029 18.369 6.029 17.093 0 31-13.907 31-31v-3zm6 3c0 15.991-13.009 29-29 29-6.455 0-12.792-2.182-17.845-6.144l-.701-.549-3.519 3.554-3.529-13.442 13.264 3.612-3.398 3.433.931.687c4.306 3.172 9.423 4.849 14.797 4.849 13.785 0 25-11.215 25-25v-1h4z"/><path d="m9 32c0-12.682 10.318-23 23-23 4.628 0 9.043 1.352 12.843 3.92l-4.225 4.181 19.765 5.305-4.987-19.939-4.789 4.742c-5.33-4.01-11.902-6.209-18.607-6.209-17.093 0-31 13.907-31 31v3h8zm-2 1h-4v-1c0-15.991 13.009-29 29-29 6.552 0 12.967 2.244 18.064 6.317l.695.556 3.549-3.514 3.309 13.234-13.117-3.52 3.417-3.381-.926-.696c-4.353-3.268-9.537-4.996-14.991-4.996-13.785 0-25 11.215-25 25z"/><path d="m36 17c0-2.757-2.243-5-5-5s-5 2.243-5 5 2.243 5 5 5 5-2.243 5-5zm-8 0c0-1.654 1.346-3 3-3s3 1.346 3 3-1.346 3-3 3-3-1.346-3-3z"/><path d="m22 20c0-1.654-1.346-3-3-3s-3 1.346-3 3 1.346 3 3 3 3-1.346 3-3zm-4 0c0-.551.449-1 1-1s1 .449 1 1-.449 1-1 1-1-.449-1-1z"/><path d="m41 39h8c2.206 0 4-1.794 4-4 0-1.067-.417-2.071-1.173-2.827s-1.76-1.173-2.827-1.173h-7.583c-1.189-2.929-4.065-5-7.417-5-.905 0-1.8.167-2.652.465-1.303-2.161-3.628-3.465-6.348-3.465-3.86 0-7 3.14-7 7 0 1.05.238 2.072.682 3h-1.682c-2.206 0-4 1.794-4 4 0 1.067.417 2.071 1.173 2.827s1.76 1.173 2.827 1.173h12c.551 0 1 .449 1 1 0 .267-.102.513-.306.712-.181.186-.427.288-.694.288h-1c-1.654 0-3 1.346-3 3 0 .811.317 1.565.874 2.108.561.575 1.315.892 2.126.892h15c2.206 0 4-1.794 4-4 0-1.067-.417-2.071-1.173-2.827s-1.76-1.173-2.827-1.173h-2c-.551 0-1-.449-1-1 0-.267.102-.513.306-.712.181-.186.427-.288.694-.288zm-1.083-6h-11.833c.302-1.779 1.398-3.356 3.007-4.254.888-.488 1.894-.746 2.909-.746 2.968 0 5.439 2.166 5.917 5zm-19.917-3c0-2.757 2.243-5 5-5 1.966 0 3.592.872 4.551 2.362-1.924 1.297-3.199 3.353-3.488 5.638h-5.028c-.659-.861-1.035-1.904-1.035-3zm21 13h2c.533 0 1.035.208 1.413.587s.587.88.587 1.413c0 1.103-.897 2-2 2h-15c-.267 0-.513-.102-.712-.306-.186-.181-.288-.427-.288-.694 0-.551.449-1 1-1h1c.811 0 1.565-.317 2.108-.874.575-.561.892-1.315.892-2.126 0-1.654-1.346-3-3-3h-12c-.533 0-1.035-.208-1.413-.587s-.587-.88-.587-1.413c0-1.103.897-2 2-2h25v-1c0-.339-.021-.672-.062-1h7.062c.533 0 1.035.208 1.413.587s.587.88.587 1.413c0 1.103-.897 2-2 2h-8c-.811 0-1.565.317-2.108.874-.575.561-.892 1.315-.892 2.126 0 1.654 1.346 3 3 3z"/><path d="m32 37.085h4v2h-4z"/><path d="m36 43h2v2h-2z"/><path d="m41 21h2v2h-2z"/><path d="m45 26h2v2h-2z"/></svg>