<svg id="_x33_0" enable-background="new 0 0 64 64" height="512" viewBox="0 0 64 64" width="512" xmlns="http://www.w3.org/2000/svg"><path d="m40 9c-.729 0-1.421.217-2.026.577-.538-.363-1.198-.577-1.974-.577-1.654 0-3 1.346-3 3 0 .537.159 1.048.425 1.5-.266.452-.425.963-.425 1.5 0 1.654 1.346 3 3 3 1.028 0 1.934-.523 2.476-1.313.48.2.995.313 1.524.313 2.206 0 4-1.794 4-4s-1.794-4-4-4zm-4 2c.208 0 .377.023.516.059-.17.302-.294.625-.38.963-.375-.014-.748.043-1.098.157-.011-.061-.038-.117-.038-.179 0-.551.449-1 1-1zm.996 4.11c-.055.499-.493.89-.996.89-.551 0-1-.449-1-1 0-.285.124-.555.364-.762.171-.155.391-.238.636-.238.181 0 .356.048.505.137.046.027.079.052.154.122.217.186.341.456.341.741zm3.004-.11c-.434 0-.773-.136-1.032-.297-.076-.754-.416-1.452-.95-1.908.043-.41.204-.796.491-1.114.371-.433.914-.681 1.491-.681 1.103 0 2 .897 2 2s-.897 2-2 2z"/><circle cx="39" cy="25" r="1"/><circle cx="45" cy="25" r="1"/><circle cx="33" cy="25" r="1"/><path d="m49 22v-17h-20v17zm-18-15h16v13h-16z"/><path d="m54.415 55h-35.415v-4h31c1.654 0 3-1.346 3-3v-2c0-1.654-1.346-3-3-3h-31v-6c0-3.899.005-12.102 2-16.19v9.19h9.293l2.824 8h11.768l2.824-8h5.291v-29h-32v6.265c-11.721 3.77-13.855 18.499-13.992 27.735h-3.008c-1.71 0-3 2.149-3 5s1.29 5 3 5h3v10.586l-3 3v4.414h54v-4.414zm-37.415 0h-2v-4.184c.314.112.648.184 1 .184h1zm-2-9c0-.552.449-1 1-1h8v4h-8c-.551 0-1-.448-1-1zm36 0v2c0 .552-.449 1-1 1h-24v-4h24c.551 0 1 .448 1 1zm-34-9v6h-1c-.352 0-.686.072-1 .184v-8.184c0-10.861 1.971-17.521 6-20.295v2.819c-3.495 2.944-4 11.066-4 19.476zm17.531-1-.706-2h10.349l-.706 2zm10.35-4h-11.762l-.706-2h13.173zm6.119-4h-24v-25h24zm-28-25h2v25h-2zm-16.057 38h2.978c-.195 1.292-.719 2-.921 2h-2.579c.253-.578.438-1.25.522-2zm0-2c-.084-.75-.269-1.422-.522-2h2.579c.202 0 .726.708.921 2zm-3.943 1c0-1.936.751-3 1-3s1 1.064 1 3-.751 3-1 3-1-1.064-1-3zm9 0c0-2.846-1.285-4.991-2.992-4.999.129-8.506 1.992-21.896 11.992-25.623v3.005c-5.376 2.741-8 10.143-8 22.617v20h-4v-10c1.71 0 3-2.149 3-5zm-6 19.414 2.414-2.414h14.172l-1.586 1.586v2.414h-15zm50 1.586h-33v-1.586l2.414-2.414h28.172l2.414 2.414z"/></svg>