<svg id="_x33_0" enable-background="new 0 0 64 64" height="512" viewBox="0 0 64 64" width="512" xmlns="http://www.w3.org/2000/svg"><path d="m49 32c-1.654 0-3 1.346-3 3s1.346 3 3 3 3-1.346 3-3-1.346-3-3-3zm0 4c-.551 0-1-.449-1-1s.449-1 1-1 1 .449 1 1-.449 1-1 1z"/><path d="m60 26c-1.654 0-3 1.346-3 3 0 .124.022.243.037.363l-2.565 1.283c-1.284-1.61-3.258-2.646-5.472-2.646v-3.142c1.72-.447 3-2 3-3.858 0-2.206-1.794-4-4-4s-4 1.794-4 4c0 1.858 1.28 3.411 3 3.858v3.437c-1.353.404-2.536 1.205-3.41 2.269l-6.513-4.071c1.211-1.874 1.923-4.1 1.923-6.493 0-2.136-.568-4.14-1.55-5.879l3.445-2.756c1.075 1.01 2.517 1.635 4.105 1.635 3.309 0 6-2.691 6-6s-2.691-6-6-6-6 2.691-6 6c0 1 .249 1.942.684 2.772l-3.361 2.689c-2.201-2.718-5.561-4.461-9.323-4.461-.937 0-1.845.119-2.72.323l-1.123-2.246c.519-.54.843-1.27.843-2.077 0-1.654-1.346-3-3-3s-3 1.346-3 3 1.346 3 3 3c.124 0 .243-.022.363-.037l.987 1.975c-4.021 1.697-6.923 5.526-7.3 10.062h-6.192c-.447-1.72-2-3-3.858-3-2.206 0-4 1.794-4 4s1.794 4 4 4c1.858 0 3.411-1.28 3.858-3h6.193c.393 4.733 3.542 8.684 7.836 10.258l-1.706 5.973c-.705-.15-1.433-.231-2.181-.231-5.79 0-10.5 4.71-10.5 10.5 0 1.014.152 1.992.422 2.921l-2.845 1.423c-.54-.52-1.27-.844-2.077-.844-1.654 0-3 1.346-3 3s1.346 3 3 3 3-1.346 3-3c0-.124-.022-.243-.037-.363l2.702-1.351c1.744 3.387 5.27 5.714 9.335 5.714 3.541 0 6.673-1.767 8.575-4.461l6.66 4.162c-.142.41-.235.842-.235 1.299 0 2.206 1.794 4 4 4s4-1.794 4-4-1.794-4-4-4c-1.024 0-1.95.398-2.659 1.034l-6.773-4.233c.593-1.314.932-2.768.932-4.301 0-4.34-2.647-8.073-6.411-9.671l1.725-6.038c.71.131 1.439.209 2.186.209 3.502 0 6.649-1.517 8.844-3.918l6.708 4.193c-.355.838-.552 1.759-.552 2.725 0 3.86 3.14 7 7 7s7-3.14 7-7c0-.928-.186-1.813-.515-2.624l2.438-1.219c.54.519 1.27.843 2.077.843 1.654 0 3-1.346 3-3s-1.346-3-3-3zm-14-5c0-1.103.897-2 2-2s2 .897 2 2-.897 2-2 2-2-.897-2-2zm-1-18c2.206 0 4 1.794 4 4s-1.794 4-4 4-4-1.794-4-4 1.794-4 4-4zm-25 1c0-.551.449-1 1-1s1 .449 1 1-.449 1-1 1-1-.449-1-1zm-15 18c-1.103 0-2-.897-2-2s.897-2 2-2 2 .897 2 2-.897 2-2 2zm-1 33c-.551 0-1-.449-1-1s.449-1 1-1 1 .449 1 1-.449 1-1 1zm34 2c1.103 0 2 .897 2 2s-.897 2-2 2-2-.897-2-2 .897-2 2-2zm-10.5-9.5c0 4.687-3.813 8.5-8.5 8.5s-8.5-3.813-8.5-8.5 3.813-8.5 8.5-8.5 8.5 3.813 8.5 8.5zm-.5-17.5c-5.514 0-10-4.486-10-10s4.486-10 10-10 10 4.486 10 10-4.486 10-10 10zm22 10c-2.757 0-5-2.243-5-5s2.243-5 5-5 5 2.243 5 5-2.243 5-5 5zm11-10c-.551 0-1-.449-1-1s.449-1 1-1 1 .449 1 1-.449 1-1 1z"/><path d="m12.5 47.5c0 3.584 2.916 6.5 6.5 6.5s6.5-2.916 6.5-6.5-2.916-6.5-6.5-6.5-6.5 2.916-6.5 6.5zm11 0c0 2.481-2.019 4.5-4.5 4.5s-4.5-2.019-4.5-4.5 2.019-4.5 4.5-4.5 4.5 2.019 4.5 4.5z"/><path d="m27 16c-2.206 0-4 1.794-4 4s1.794 4 4 4 4-1.794 4-4-1.794-4-4-4zm0 6c-1.103 0-2-.897-2-2s.897-2 2-2 2 .897 2 2-.897 2-2 2z"/><path d="m27 12c-4.411 0-8 3.589-8 8s3.589 8 8 8 8-3.589 8-8-3.589-8-8-8zm0 14c-3.309 0-6-2.691-6-6s2.691-6 6-6 6 2.691 6 6-2.691 6-6 6z"/></svg>