<svg id="_x33_0" enable-background="new 0 0 64 64" height="512" viewBox="0 0 64 64" width="512" xmlns="http://www.w3.org/2000/svg"><path d="m32 33c-4.411 0-8 3.589-8 8s3.589 8 8 8 8-3.589 8-8-3.589-8-8-8zm2.816 7c-.124-.349-.31-.664-.547-.94l1.553-2.681c1.085.899 1.843 2.174 2.088 3.621zm-3.816 1c0-.551.448-1 1-1s1 .449 1 1-.448 1-1 1-1-.449-1-1zm3.088-5.618-1.548 2.672c-.175-.032-.355-.054-.54-.054s-.365.022-.541.055l-1.548-2.672c.652-.244 1.354-.383 2.089-.383s1.437.139 2.088.382zm-5.91.997 1.553 2.681c-.236.276-.422.591-.547.94h-3.094c.245-1.447 1.003-2.722 2.088-3.621zm-2.088 5.621h3.094c.124.349.31.664.546.94l-1.553 2.681c-1.084-.899-1.842-2.174-2.087-3.621zm3.822 4.618 1.548-2.672c.175.032.355.054.54.054s.365-.022.541-.055l1.548 2.672c-.652.244-1.354.383-2.089.383s-1.437-.139-2.088-.382zm5.91-.997-1.553-2.681c.236-.276.422-.591.547-.94h3.094c-.245 1.447-1.003 2.722-2.088 3.621z"/><path d="m20 11c2.757 0 5-2.243 5-5s-2.243-5-5-5-5 2.243-5 5 2.243 5 5 5zm0-8c1.654 0 3 1.346 3 3s-1.346 3-3 3-3-1.346-3-3 1.346-3 3-3z"/><path d="m43 14c-1.654 0-3 1.346-3 3 0 .583.18 1.057.534 1.409.549.543 1.299.593 1.996.593.08 0 .16 0 .238-.001l.232-.001c.974 0 3 0 3-2 0-1.654-1.346-3-3-3zm0 3-.248.001c-.233.002-.562.005-.752-.024.013-.541.456-.977 1-.977.533 0 .97.419.999.946-.23.054-.7.054-.999.054z"/><path d="m47 10c1.654 0 3-1.346 3-3s-1.346-3-3-3-3 1.346-3 3 1.346 3 3 3zm0-4c.552 0 1 .449 1 1s-.448 1-1 1-1-.449-1-1 .448-1 1-1z"/><path d="m21 6v-2c-1.542 0-3 1.458-3 3h2c0-.449.552-1 1-1z"/><path d="m40 11h-.556c-.694-1.19-1.97-2-3.444-2-1.476 0-2.753.812-3.446 2.004-.184-.001-.368-.004-.554-.004-5.88 0-17 1.045-17 5v42c0 3.955 11.12 5 17 5s17-1.045 17-5v-17c1.654 0 3-1.346 3-3v-18c0-6.643-6.464-9-12-9zm-4 0c1.041 0 1.898.799 1.991 1.815-.235.095-.777.185-1.991.185s-1.756-.09-1.991-.185c.093-1.016.95-1.815 1.991-1.815zm-19 7.541c3.471 1.888 10.66 2.459 15 2.459 1.267 0 2.565-.05 3.861-.149.562-.042 1.09.144 1.499.522.377.349.59.817.625 1.326-1.894.196-3.898.301-5.985.301-9.743 0-15-2.129-15-3zm0 4c3.471 1.888 10.66 2.459 15 2.459 2.085 0 4.093-.102 6-.292v3.989c-1.899.197-3.908.303-6 .303-9.743 0-15-2.129-15-3zm15 38.459c-9.743 0-15-2.129-15-3v-1.459c3.471 1.888 10.66 2.459 15 2.459s11.529-.571 15-2.459v1.459c0 .871-5.257 3-15 3zm0-4c-9.743 0-15-2.129-15-3v-3.459c3.471 1.888 10.66 2.459 15 2.459s11.529-.571 15-2.459v3.459c0 .871-5.257 3-15 3zm15-9c0 .871-5.257 3-15 3s-15-2.129-15-3v-19.459c3.471 1.888 10.66 2.459 15 2.459 2.118 0 4.157-.105 6.091-.301.316 1.316 1.496 2.301 2.909 2.301 1.654 0 3-1.346 3-3v-.161c.755-.137 1.422-.287 2-.447v8.608c0 .883.391 1.67 1 2.22zm-1-20.689c-.456.151-1.103.323-2 .498v-2.809c0-.551.448-1 1-1s1 .449 1 1zm4 10.689c0 .551-.448 1-1 1s-1-.449-1-1v-13c0-1.654-1.346-3-3-3s-3 1.346-3 3v5c0 .551-.448 1-1 1s-1-.449-1-1v-7.159c0-1.112-.467-2.182-1.28-2.936-.812-.75-1.899-1.139-3.011-1.049-1.245.096-2.493.144-3.709.144-9.743 0-15-2.129-15-3s5.257-3 15-3c0 2 2.701 2 4 2s4 0 4-2c1.67 0 10 .337 10 7z"/></svg>