<svg id="_x33_0" enable-background="new 0 0 64 64" height="512" viewBox="0 0 64 64" width="512" xmlns="http://www.w3.org/2000/svg"><path d="m10 22c3.309 0 6-2.691 6-6s-2.691-6-6-6-6 2.691-6 6 2.691 6 6 6zm0-10c2.206 0 4 1.794 4 4s-1.794 4-4 4-4-1.794-4-4 1.794-4 4-4z"/><path d="m10 19v-2c-.552 0-1-.449-1-1h-2c0 1.654 1.346 3 3 3z"/><path d="m18 12c2.206 0 4-1.794 4-4s-1.794-4-4-4-4 1.794-4 4 1.794 4 4 4zm0-6c1.103 0 2 .897 2 2s-.897 2-2 2-2-.897-2-2 .897-2 2-2z"/><path d="m49.278 6.993c-1.727-1.519-4.038-2.224-6.328-1.925-3.963.509-6.95 4.024-6.95 8.176v2.756h6v-3c0-1.103.897-2 2-2s2 .897 2 2v3c-.029.299-1.164 1.023-1.773 1.412-1.784 1.138-4.227 2.697-4.227 5.588v5h6l-.008-4.739c.32-.2.676-.404.952-.563 1.892-1.087 5.056-2.906 5.056-6.698v-3c0-2.296-.992-4.485-2.722-6.007zm.722 9.007c0 2.635-2.342 3.981-4.061 4.969-.286.165-.665.382-1.007.596-.583.366-.932.998-.932 1.693v2.742h-2v-3c0-1.795 1.679-2.866 3.303-3.902 1.386-.885 2.697-1.722 2.697-3.098v-3c0-2.206-1.794-4-4-4s-4 1.794-4 4v1h-2v-.756c0-3.149 2.237-5.812 5.205-6.193 1.742-.225 3.438.287 4.753 1.444 1.298 1.142 2.042 2.784 2.042 4.505z"/><path d="m43 30c-1.654 0-3 1.346-3 3s1.346 3 3 3 3-1.346 3-3-1.346-3-3-3zm0 4c-.552 0-1-.449-1-1s.448-1 1-1 1 .449 1 1-.448 1-1 1z"/><path d="m58 1h-29c-2.757 0-5 2.243-5 5v27c0 2.757 2.243 5 5 5h7v4.879c0 1.721 1.4 3.121 3.121 3.121.822 0 1.626-.333 2.207-.914l7.086-7.086h9.586c2.757 0 5-2.243 5-5v-27c0-2.757-2.243-5-5-5zm3 32c0 1.654-1.346 3-3 3h-10.414l-7.672 7.672c-.209.208-.498.328-.793.328-.618 0-1.121-.503-1.121-1.121v-6.879h-9c-1.654 0-3-1.346-3-3v-27c0-1.654 1.346-3 3-3h29c1.654 0 3 1.346 3 3z"/><path d="m20 35.926v-3.11c1.161-.414 2-1.514 2-2.816 0-1.654-1.346-3-3-3h-8c-1.654 0-3 1.346-3 3 0 1.302.839 2.402 2 2.816v3.11c-5.413 2.063-9 7.228-9 13.074 0 7.72 6.28 14 14 14s14-6.28 14-14c0-5.846-3.587-11.011-9-13.074zm-9-6.926h8c.552 0 1 .449 1 1s-.448 1-1 1h-8c-.552 0-1-.449-1-1s.448-1 1-1zm4 32c-5.838 0-10.709-4.192-11.777-9.722.935-.686 2.369-1.278 3.777-1.278 1.825 0 2.542 1.014 3.301 2.087.635.897 1.353 1.913 2.699 1.913h2v-2h-2c-.296 0-.598-.406-1.065-1.068-.212-.3-.454-.638-.741-.977.632-.952 2.264-2.955 4.806-2.955 2.585 0 3.823 1.238 6.293 3.707 1.282 1.282 2.894 1.847 4.079 2.096-1.595 4.757-6.085 8.197-11.372 8.197zm-9-12.925v-.075c0-2.206 1.794-4 4-4 1.39 0 2.616.547 3.457 1.497-1.884.756-3.143 2.209-3.802 3.159-.691-.39-1.551-.656-2.655-.656-.337 0-.67.03-1 .075zm20.841 2.785c-.905-.182-2.166-.6-3.136-1.569-2.584-2.584-4.292-4.291-7.705-4.291-.144 0-.278.016-.417.025-1.182-1.9-3.22-3.025-5.583-3.025-3.309 0-6 2.691-6 6v.609c-.349.138-.686.287-.997.454 0-.021-.003-.042-.003-.063 0-5.221 3.339-9.809 8.308-11.415l.692-.224v-4.361h6v3.78c-.532-.48-1.229-.78-2-.78-1.654 0-3 1.346-3 3s1.346 3 3 3 3-1.346 3-3c0-.524-.147-1.01-.384-1.439l.077.025c4.968 1.605 8.307 6.193 8.307 11.414 0 .634-.064 1.253-.159 1.86zm-9.841-11.86c0 .551-.448 1-1 1s-1-.449-1-1 .448-1 1-1 1 .449 1 1z"/><path d="m16 22c0 1.654 1.346 3 3 3s3-1.346 3-3-1.346-3-3-3-3 1.346-3 3zm4 0c0 .551-.448 1-1 1s-1-.449-1-1 .448-1 1-1 1 .449 1 1z"/></svg>