<svg id="_x33_0" enable-background="new 0 0 64 64" height="512" viewBox="0 0 64 64" width="512" xmlns="http://www.w3.org/2000/svg"><path d="m48 39c0-4.411-3.589-8-8-8s-8 3.589-8 8 3.589 8 8 8 8-3.589 8-8zm-8 6c-3.309 0-6-2.691-6-6s2.691-6 6-6 6 2.691 6 6-2.691 6-6 6z"/><path d="m50.404 44.976c1.043-1.812 1.596-3.862 1.596-5.976 0-1.914-.462-3.717-1.262-5.324l1.908-1.908c.874-.874 1.354-2.034 1.354-3.268 0-1.215-.47-2.356-1.318-3.225 2.07-1.283 3.318-3.563 3.318-6.275 0-3.021-1.903-5.607-4.629-6.583.405-.732.629-1.559.629-2.417 0-2.757-2.243-5-5-5s-5 2.243-5 5c0 1.565.787 3.062 1.977 4.031-.428.369-.855.806-1.218 1.315l-4.992-4.992c-.859-.861-2.05-1.354-3.267-1.354s-2.408.493-3.268 1.354l-1.879 1.879c-.873.873-1.353 2.033-1.353 3.267 0 .862.247 1.682.687 2.399l-24.08 24.08c-2.327 2.327-3.607 5.419-3.607 8.708 0 6.789 5.523 12.313 12.313 12.313 3.29 0 6.382-1.281 8.707-3.606l10.801-10.801c2.005 1.504 4.485 2.407 7.179 2.407 1.604 0 3.157-.328 4.636-.943l11.537 11.771c.757.755 1.761 1.172 2.827 1.172s2.07-.417 2.827-1.173 1.173-1.76 1.173-2.827-.416-2.071-1.18-2.834zm-1.165 1.659 1.37 1.343-2.632 2.632-1.487-1.517c1.037-.671 1.958-1.503 2.749-2.458zm-2.239-39.635c1.654 0 3 1.346 3 3 0 .761-.301 1.475-.81 2.025-1.181-.028-2.39.245-3.443.804-1.011-.52-1.747-1.663-1.747-2.829 0-1.654 1.346-3 3-3zm-.552 7.705c.908-.55 2.045-.78 3.061-.681 2.56.263 4.491 2.402 4.491 4.976 0 2.199-1.031 3.949-2.776 4.81l-7.017-7.017c.442-.74 1.236-1.49 2.241-2.088zm-15.68-1.059 1.879-1.879c.975-.976 2.732-.976 3.707 0l14.879 14.879c.495.496.767 1.154.767 1.854s-.272 1.358-.768 1.854l-1.566 1.566c-2.105-2.866-5.443-4.76-9.23-4.897l-9.669-9.669c-.495-.496-.767-1.154-.767-1.854s.272-1.358.768-1.854zm-10.162 44.333c-1.947 1.948-4.537 3.021-7.293 3.021-5.686 0-10.313-4.626-10.313-10.313 0-2.507.898-4.872 2.526-6.747l5.767 5.767 1.414-1.414-5.793-5.793 2.086-2.086 2.293 2.293 1.414-1.414-2.293-2.293 2.086-2.086 5.793 5.793 1.414-1.414-5.793-5.793 2.086-2.086 2.293 2.293 1.414-1.414-2.293-2.293 2.086-2.086 5.793 5.793 1.414-1.414-5.793-5.793 2.086-2.086 2.293 2.293 1.414-1.414-2.293-2.293 2.086-2.086 5.793 5.793 1.414-1.414-5.793-5.793 2.086-2.086 7.798 7.798c-5.568 1.038-9.798 5.924-9.798 11.788 0 3.203 1.269 6.11 3.321 8.264zm9.394-18.979c0-5.514 4.486-10 10-10s10 4.486 10 10c0 1.945-.556 3.828-1.606 5.443-1.021 1.563-2.443 2.809-4.107 3.602-1.354.634-2.796.955-4.287.955-5.514 0-10-4.486-10-10zm30.413 21.413c-.758.758-2.075.75-2.819.007l-8.217-8.383 2.66-2.66 8.376 8.21c.384.384.587.872.587 1.413s-.203 1.029-.587 1.413z"/><path d="m58 11c2.757 0 5-2.243 5-5s-2.243-5-5-5-5 2.243-5 5 2.243 5 5 5zm0-8c1.654 0 3 1.346 3 3s-1.346 3-3 3-3-1.346-3-3 1.346-3 3-3z"/><path d="m52 20c0-1.436-1.337-4-4-4v2c1.398 0 2 1.518 2 2z"/></svg>