<svg id="_x33_0" enable-background="new 0 0 64 64" height="512" viewBox="0 0 64 64" width="512" xmlns="http://www.w3.org/2000/svg"><path d="m40.239 27.27h2v1.937h-2z" transform="matrix(.707 -.707 .707 .707 -7.892 37.414)"/><path d="m34.761 21.793h2v1.936h-2z" transform="matrix(.707 -.707 .707 .707 -5.62 31.954)"/><path d="m37.5 24.532h2v1.936h-2z" transform="matrix(.707 -.707 .707 .707 -6.755 34.692)"/><path d="m13 41h8.515c1.871 0 3.628-.729 4.95-2.051l2.036-2.035 1.5 1.5 5.183-5.182c.114-.114.248-.132.317-.132s.203.018.318.132c1.785 1.786 4.158 2.768 6.681 2.768s4.896-.982 6.719-2.807l10.306-11.486c2.241-2.24 3.475-5.22 3.475-8.389 0-2.2-.225-4.154-.688-5.972-.709-2.782-2.878-4.95-5.66-5.658-1.818-.462-3.771-.688-5.97-.688-3.169 0-6.148 1.234-8.35 3.438l-11.564 10.38c-1.785 1.785-2.768 4.158-2.768 6.682s.983 4.897 2.768 6.682c.176.176.176.461 0 .637l-5.182 5.181 1.5 1.5-2.036 2.035c-.944.944-2.199 1.465-3.535 1.465h-8.515c-6.617 0-12 5.383-12 12s5.383 12 12 12h3c2.53 0 9.125-.711 15.707-7.293l13-13c1.101-1.101 2.565-1.707 4.122-1.707h.343c1.557 0 3.021.606 4.122 1.707 1.1 1.101 1.706 2.564 1.706 4.121v.344c0 .864-.154 2.986-1.585 4.017-2.005 1.446-7.937 4.164-10.394 5.266-1.228.549-2.021 1.774-2.021 3.121 0 1.888 1.536 3.424 3.423 3.424h8.577v-2h-8.577c-.784 0-1.423-.639-1.423-1.424 0-.56.33-1.068.84-1.298 3.121-1.398 8.667-3.97 10.745-5.467 1.535-1.106 2.415-3.162 2.415-5.639v-.344c0-2.092-.814-4.058-2.293-5.535-1.479-1.479-3.445-2.293-5.536-2.293h-.343c-2.091 0-4.057.814-5.536 2.293l-13 13c-6.053 6.054-12.011 6.707-14.292 6.707h-3c-5.514 0-10-4.486-10-10s4.486-10 10-10zm30.707-35.111c1.863-1.863 4.34-2.889 6.975-2.889 2.031 0 3.822.205 5.477.626 2.072.527 3.687 2.143 4.215 4.215.421 1.653.626 3.445.626 5.477 0 2.635-1.026 5.111-2.926 7.014l-9.247 10.306c-1.06-8.035-7.428-14.404-15.463-15.465zm-11.524 24.343c.954-.955.954-2.51 0-3.465-1.408-1.406-2.183-3.277-2.183-5.267 0-1.647.538-3.208 1.496-4.475 8.423.26 15.215 7.05 15.478 15.473-1.284.97-2.837 1.502-4.474 1.502-1.989 0-3.86-.774-5.268-2.182-.926-.926-2.54-.926-3.464 0l-3.768 3.768-1.586-1.586z"/></svg>