<svg id="_x33_0" enable-background="new 0 0 64 64" height="512" viewBox="0 0 64 64" width="512" xmlns="http://www.w3.org/2000/svg"><circle cx="40.982" cy="13" r="1"/><path d="m54.013 2.014c-1.046-1.054-2.754-1.305-4.052-.607-1.895 1.02-8.412 4.751-12.747 9.953-1.595 1.914-3.294 4.239-4.935 6.649-2.592.058-8.302.68-13.11 7.411l-1.47 2.058 2.479-.496c.043-.006 3.964-.719 5.712 1.25-.624 1.095-1.152 2.059-1.558 2.845-.949.182-2.766.81-4.327 2.958-4.341.295-5.024 2.571-5.024 3.967 0 2.028.786 3.311 1.487 4.053-.473 1.608-.865 3.355-1.244 5.465l-1.923.723c-1.622.61-2.572 2.243-2.26 3.883.183.963.784 1.814 1.648 2.335.593.355 1.269.539 1.951.539.377 0 .757-.056 1.125-.169l.68-.21c.99-.305 1.8-1.001 2.222-1.91.408-.878.424-1.852.045-2.741l-.618-1.453c.864-.759 2-1.795 3.192-2.987.384 1.744 1.12 3.531 2.116 5.025 1.91 2.866 4.602 4.445 7.58 4.445.382 0 .732-.015 1.067-.036.573 4.379 4.967 8.036 9.933 8.036h2l-1.2-1.6c-.027-.038-2.8-3.787-2.8-8.4 0-4.512 3.671-8.257 3.708-8.294l1.697-1.706h-2.404c-4.66 0-9.607 2.474-10.752 6.312-.556-.421-.982-.91-1.214-1.456.2-.414.45-.835.766-1.256.674-.897 2.205-2.397 4.145-4.296 1.847-1.809 4.008-3.929 6.181-6.25 4.426.985 7.142 3.627 7.168 3.653l1.707 1.707v-2.414c0-4.538-.213-9.374-1.647-11.842 1.492-2.232 2.752-4.522 3.586-6.816 1.994-5.485 2.045-11.762 2.075-15.512l.002-.39c.008-.915-.343-1.776-.987-2.426zm-31.825 22.83c3.121-3.461 6.433-4.445 8.684-4.727-1.442 2.2-2.799 4.39-3.949 6.336-1.386-1.218-3.253-1.569-4.735-1.609zm-5.206 13.156c0-.878.602-1.463 1.77-1.763-.572 1.181-1.054 2.285-1.473 3.397-.171-.433-.297-.962-.297-1.634zm-.129 13.868c-.185.396-.547.703-.997.841l-.68.21c-.49.153-1.021.089-1.453-.172-.384-.231-.638-.585-.716-.996-.133-.692.278-1.366.999-1.638l.829-.312-.276 1.654 1.936-1.584.375.881c.155.363.149.759-.017 1.116zm.623-5.486c.794-3.947 1.712-6.557 3.401-9.935 1.671-3.342 4.02-3.444 4.077-3.448.171.012 1.028.16 1.028 2.001 0 3.001-5.022 8.217-8.506 11.382zm5.54-2.664c2.59-2.843 4.967-6.151 4.967-8.718 0-1.968-.759-3.034-1.583-3.559 2.345-4.411 7.784-13.32 12.351-18.8 4.104-4.927 10.344-8.496 12.158-9.473.539-.29 1.246-.188 1.683.254.266.268.411.624.408 1.001l-.003.391c-.018 2.22-.045 5.357-.494 8.641-.846-.913-1.926-1.455-3.521-1.455-2.185 0-4.355 1.73-6.832 5.445l-1.323 1.985-3.138-3.138-1.414 1.414 3.42 3.42-.869 1.303-2.138-2.138-1.414 1.414 2.42 2.42-.493.739c-1.086-.835-2.093-.864-2.219-.864h-.566l-6.069 10.114c-.238.398-.364.854-.364 1.319 0 .71.291 1.354.759 1.819-1.075 2.19-2.759 5.945-2.759 9.747 0 1.848.38 3.322.885 4.479-2.35-1.924-3.637-5.286-3.852-7.76zm7.171-7.85c-.125-.104-.204-.26-.204-.435 0-.103.028-.204.08-.291l5.402-9.003c.229.101.516.272.811.567.389.389.563.762.643 1.011zm10.525 9.343c-1.229 1.753-2.729 4.558-2.729 7.789 0 3.232 1.153 6.045 2.076 7.776-3.297-.78-5.669-3.476-6.024-6.102 2.048-.514 2.704-1.529 2.901-2.212.09-.307.048-.642-.113-.919-.163-.278-.437-.48-.754-.555-.646-.15-1.343-.377-2.016-.662.443-2.398 3.202-4.466 6.659-5.115zm-6.509 7.319c-.608.251-1.616.47-3.221.47-.112 0-.215-.019-.325-.024-.181-.569-.395-1.517-.309-2.658 1.134 1.103 2.669 1.807 3.855 2.212zm14.763-15.622c-1.207-.835-3.022-1.856-5.329-2.525 1.526-1.703 3.017-3.494 4.378-5.342.715 2.023.903 5.434.951 7.867zm-14.439 3.967c-2 1.958-3.579 3.505-4.345 4.525-1.158 1.544-1.647 3.081-1.798 4.443-.241-.788-.402-1.73-.402-2.843 0-3.437 1.622-6.977 2.621-9h.416l7.963-9.641v-.359c0-.099-.027-.743-.438-1.54l5.27-7.905c2.015-3.023 3.754-4.555 5.168-4.555 1.398 0 2.124.548 3.02 2.287-.251 1.143-.562 2.277-.96 3.371-2.85 7.837-11.073 15.889-16.515 21.217z"/><circle cx="22.982" cy="36" r="1"/></svg>