<svg id="_x33_0" enable-background="new 0 0 64 64" height="512" viewBox="0 0 64 64" width="512" xmlns="http://www.w3.org/2000/svg"><path d="m50.414 9h-28.414v-2c0-3.309-2.691-6-6-6s-6 2.691-6 6v2h-1c-1.654 0-3 1.487-3 3.316v17.368c0 1.829 1.346 3.316 3 3.316h1v11.217l5 11v7.783h44v-45.414zm.586 3.414 4.586 4.586h-4.586zm-35 40.169-1.174-2.583h2.349zm2.083-4.583h-4.167l-1.364-3h6.894zm1.917-5h-8v-21h8zm-4-40c2.206 0 4 1.794 4 4v13h-8v-13c0-2.206 1.794-4 4-4zm-7 28c-.542 0-1-.603-1-1.316v-17.368c0-.713.458-1.316 1-1.316h1v20zm8 30v-5.783l5-11v-33.217h27v8h8v42z"/><path d="m53.293 42.293-2.293 2.293v-1.586h-12v12h12v-7.586l3.707-3.707zm-4.293 10.707h-8v-8h8v1.586l-3 3-2.293-2.293-1.414 1.414 3.707 3.707 3-3z"/><path d="m39 37h12v-12h-12zm2-10h8v8h-8z"/><path d="m26 43h10v2h-10z"/><path d="m26 47h10v2h-10z"/><path d="m26 25h10v2h-10z"/><path d="m26 29h10v2h-10z"/><path d="m26 13h19v2h-19z"/><path d="m43 17h2v2h-2z"/><path d="m26 17h15v2h-15z"/><path d="m26 33h2v2h-2z"/><path d="m30 33h2v2h-2z"/><path d="m34 33h2v2h-2z"/><path d="m26 51h2v2h-2z"/><path d="m30 51h2v2h-2z"/><path d="m34 51h2v2h-2z"/></svg>