<svg id="_x33_0" enable-background="new 0 0 64 64" height="512" viewBox="0 0 64 64" width="512" xmlns="http://www.w3.org/2000/svg"><path d="m29 24c-6.065 0-11 4.935-11 11s4.935 11 11 11 11-4.935 11-11-4.935-11-11-11zm0 20c-4.962 0-9-4.037-9-9s4.038-9 9-9 9 4.037 9 9-4.038 9-9 9z"/><path d="m60 34c-1.302 0-2.402.839-2.816 2h-2.235c.03-.33.051-.662.051-1 0-1.095-.166-2.151-.465-3.149l1.388-.694c.54.519 1.27.843 2.077.843 1.654 0 3-1.346 3-3s-1.346-3-3-3-3 1.346-3 3c0 .124.022.243.037.363l-1.255.628c-.491-.955-1.116-1.828-1.852-2.596l2.662-4.437c.134.019.268.042.408.042 1.654 0 3-1.346 3-3s-1.346-3-3-3-3 1.346-3 3c0 .789.312 1.502.811 2.038l-2.417 4.029c-1.804-1.296-4.009-2.067-6.394-2.067-1.029 0-2.043.149-3.022.428-.882-.998-1.875-1.893-2.978-2.646v-1.782c0-.338-.021-.67-.051-1h5.235c.414 1.161 1.514 2 2.816 2 1.654 0 3-1.346 3-3s-1.346-3-3-3c-1.302 0-2.402.839-2.816 2h-5.611c-.351-1.234-.91-2.377-1.64-3.394l3.465-2.079c.465.296 1.012.473 1.602.473 1.654 0 3-1.346 3-3s-1.346-3-3-3-3 1.346-3 3c0 .329.066.639.164.935l-3.56 2.136c-.768-.737-1.641-1.361-2.596-1.852l.628-1.255c.121.014.24.036.364.036 1.654 0 3-1.346 3-3s-1.346-3-3-3-3 1.346-3 3c0 .807.324 1.537.844 2.077l-.694 1.388c-.999-.299-2.055-.465-3.15-.465-.338 0-.67.021-1 .051v-2.235c1.161-.414 2-1.514 2-2.816 0-1.654-1.346-3-3-3s-3 1.346-3 3c0 1.302.839 2.402 2 2.816v2.611c-1.446.411-2.772 1.105-3.911 2.027l-1.854-2.472c.47-.531.765-1.22.765-1.982 0-1.654-1.346-3-3-3s-3 1.346-3 3 1.346 3 3 3c.159 0 .313-.023.465-.047l2.182 2.909c-.555.649-1.034 1.363-1.428 2.129l-5.255-2.628c.014-.12.036-.239.036-.363 0-1.654-1.346-3-3-3s-3 1.346-3 3 1.346 3 3 3c.807 0 1.537-.324 2.077-.844l5.388 2.694c-.299.999-.465 2.055-.465 3.15 0 .303.023.645.057 1h-3.241c-.414-1.161-1.514-2-2.816-2-1.654 0-3 1.346-3 3s1.346 3 3 3c1.302 0 2.402-.839 2.816-2h3.552c.126.592.276 1.161.441 1.662-2.37 2.791-3.809 6.398-3.809 10.338 0 3.203.929 6.259 2.696 8.892l-1.695 1.695-2.001-2.001-9.258 9.257c-1.123 1.124-1.742 2.618-1.742 4.207 0 3.281 2.669 5.95 5.95 5.95 1.589 0 3.083-.619 4.207-1.743l9.257-9.257-2.001-2.001 1.695-1.695c2.634 1.766 5.689 2.696 8.892 2.696 4.77 0 9.047-2.109 11.981-5.431.006.002.013.003.019.005v3.611c-1.161.414-2 1.514-2 2.816 0 1.654 1.346 3 3 3s3-1.346 3-3c0-1.302-.839-2.402-2-2.816v-3.235c.331.029.664.05 1 .05 1.095 0 2.151-.166 3.149-.465l2.694 5.388c-.519.54-.843 1.27-.843 2.077 0 1.654 1.346 3 3 3s3-1.346 3-3-1.346-3-3-3c-.124 0-.243.022-.363.037l-2.628-5.255c.766-.394 1.48-.873 2.129-1.428l2.909 2.182c-.024.152-.047.305-.047.464 0 1.654 1.346 3 3 3s3-1.346 3-3-1.346-3-3-3c-.762 0-1.451.295-1.981.764l-2.472-1.854c.922-1.138 1.616-2.465 2.027-3.91h2.611c.414 1.161 1.514 2 2.816 2 1.654 0 3-1.346 3-3s-1.347-3-3.001-3zm-14-17c.551 0 1 .448 1 1s-.449 1-1 1-1-.448-1-1 .449-1 1-1zm-21-14c.551 0 1 .448 1 1s-.449 1-1 1-1-.448-1-1 .449-1 1-1zm-16 10c-.551 0-1-.448-1-1s.449-1 1-1 1 .448 1 1-.449 1-1 1zm1 10c-.551 0-1-.448-1-1s.449-1 1-1 1 .448 1 1-.449 1-1 1zm32 30c-.551 0-1-.448-1-1s.449-1 1-1 1 .448 1 1-.449 1-1 1zm11 0c0 .552-.449 1-1 1s-1-.448-1-1 .449-1 1-1 1 .448 1 1zm5-25c.551 0 1 .448 1 1s-.449 1-1 1-1-.448-1-1 .449-1 1-1zm-3-9c.551 0 1 .448 1 1s-.449 1-1 1-1-.448-1-1 .449-1 1-1zm-11 7c.252 0 .5.017.747.038.162.293.253.621.253.962 0 .831-.511 1.545-1.234 1.846-.393-.94-.876-1.834-1.434-2.674.548-.102 1.103-.172 1.668-.172zm-10.476-6.338c.366-.404.89-.662 1.476-.662.34 0 .669.092.962.253.021.247.038.495.038.747v.635c-.793-.388-1.616-.719-2.476-.973zm7.476-11.662c.551 0 1 .448 1 1s-.449 1-1 1-1-.448-1-1 .449-1 1-1zm-5.509 9.045c-.163-.02-.325-.045-.491-.045-1.558 0-2.896.904-3.556 2.207-.799-.124-1.611-.207-2.444-.207-2.122 0-4.145.424-6 1.178v-.178c0-2.206-1.794-4-4-4h-.05c.541-1.085 1.291-2.046 2.203-2.828.531 2.19 2.495 3.828 4.847 3.828 2.757 0 5-2.243 5-5 0-.017-.003-.035-.003-.052 2.09 1.042 3.717 2.869 4.494 5.097zm-17.067 5.981c-.248-1.035-.424-2.218-.424-3.026 0-.688.085-1.356.232-2h.768c1.103 0 2 .897 2 2v1.165c-.922.535-1.783 1.159-2.576 1.861zm14.576-18.026c.551 0 1 .448 1 1s-.449 1-1 1-1-.448-1-1 .449-1 1-1zm-4.11 6.203c.071.259.11.526.11.797 0 1.654-1.346 3-3 3s-3-1.346-3-3c0-.018.006-.036.007-.054 1.205-.6 2.558-.946 3.993-.946.649 0 1.28.072 1.89.203zm-13.89-4.203c0-.552.449-1 1-1s1 .448 1 1-.449 1-1 1-1-.448-1-1zm-5.258 52.843c-.745.746-1.737 1.157-2.792 1.157-2.178 0-3.95-1.772-3.95-3.95 0-1.055.411-2.047 1.157-2.793l4.843-4.843 5.586 5.586zm6.258-6.257-5.586-5.586 1.586-1.586 5.586 5.586zm13-4.586c-3.058 0-5.963-.968-8.401-2.8l-.694-.521-2.906 2.906-1.585-1.585 2.906-2.907-.521-.693c-1.831-2.437-2.799-5.341-2.799-8.4 0-7.72 6.28-14 14-14s14 6.28 14 14-6.28 14-14 14zm13.325-5.162c.588-.883 1.086-1.828 1.491-2.823.062-.005.122-.015.184-.015 1.103 0 2 .897 2 2v.768c-.644.147-1.312.232-2 .232-.568 0-1.126-.059-1.675-.162zm5.675-.788v-.05c0-2.048-1.552-3.721-3.539-3.953.34-1.296.539-2.647.539-4.047 0-1.48-.218-2.907-.596-4.268 1.513-.571 2.596-2.022 2.596-3.732 0-.166-.025-.328-.045-.491 2.228.778 4.055 2.404 5.097 4.495-.017-.001-.035-.004-.052-.004-2.757 0-5 2.243-5 5 0 2.352 1.638 4.316 3.828 4.847-.782.912-1.743 1.662-2.828 2.203zm5-8.05c0 1.435-.346 2.788-.946 3.993-.019.001-.036.007-.054.007-1.654 0-3-1.346-3-3s1.346-3 3-3c.271 0 .538.039.797.11.131.61.203 1.241.203 1.89zm4 10c.551 0 1 .448 1 1s-.449 1-1 1-1-.448-1-1 .449-1 1-1zm3-7c-.551 0-1-.448-1-1s.449-1 1-1 1 .448 1 1-.449 1-1 1z"/></svg>