<svg id="_x33_0" enable-background="new 0 0 64 64" height="512" viewBox="0 0 64 64" width="512" xmlns="http://www.w3.org/2000/svg"><path d="m35.293 39.707c3.19 3.19 4.22 6.153 4.551 7.876-.378.197-.984.417-1.844.417-1.179 0-1.972-.355-2.976-.805-1.25-.56-2.667-1.195-5.024-1.195-2.389 0-4.179.584-5.787 1.306.387-1.754 1.47-4.575 4.494-7.599l-1.414-1.414c-3.902 3.902-5.293 8.09-5.293 10.707 0 5.287 5.055 6 10 6s10-.713 10-6c0-2.617-1.391-6.805-5.293-10.707zm-3.293 13.293c-6.066 0-7.721-1.337-7.962-3.399 1.74-.857 3.479-1.601 5.962-1.601 1.93 0 3.036.495 4.207 1.021 1.075.481 2.187.979 3.793.979.776 0 1.418-.132 1.95-.307-.28 2.01-1.975 3.307-7.95 3.307z"/><path d="m46 49c0-2.296-.886-8.354-9-15.457v-20.821c.595-.347 1-.985 1-1.722v-2c0-.971-.696-1.781-1.614-1.961l.504-1.475c.073-.29.11-.59.11-.893 0-2.024-1.646-3.671-3.671-3.671h-2.658c-2.025 0-3.671 1.647-3.671 3.671 0 .303.037.603.134.972l.479 1.396c-.918.181-1.613.991-1.613 1.961v2c0 .737.405 1.375 1 1.722v20.821c-8.114 7.103-9 13.161-9 15.457 0 2.898.991 6.144 4.672 8.131-.414.514-.672 1.159-.672 1.869v1c0 1.654 1.346 3 3 3h14c1.654 0 3-1.346 3-3v-1c0-.71-.258-1.355-.672-1.869 3.681-1.987 4.672-5.233 4.672-8.131zm-18-38v-2h8l.001 2zm2.671-8h2.658c.921 0 1.671.75 1.671 1.671 0 .137-.017.272-.026.323l-.689 2.006h-4.572l-.663-1.927c-.033-.129-.05-.264-.05-.402 0-.921.75-1.671 1.671-1.671zm9.329 56v1c0 .552-.448 1-1 1h-14c-.552 0-1-.448-1-1v-1c0-.487.356-.874.817-.963 1.874.605 4.227.963 7.183.963s5.309-.358 7.183-.963c.461.089.817.476.817.963zm-.983-2.998c-.006 0-.011-.002-.017-.002v.008c-1.826.659-4.149.992-7 .992s-5.174-.333-7-.992v-.008c-.006 0-.011.002-.017.002-3.335-1.21-4.983-3.525-4.983-7.002 0-1.602.624-7.36 8.65-14.241l.35-.299v-3.46h4v-2h-4v-2h2v-2h-2v-2h4v-2h-4v-2h2v-2h-2v-4h6v21.46l.35.299c8.026 6.881 8.65 12.639 8.65 14.241 0 3.477-1.648 5.792-4.983 7.002z"/></svg>