<svg id="giving" enable-background="new 0 0 300 300" height="512" viewBox="0 0 300 300" width="512" xmlns="http://www.w3.org/2000/svg"><path d="m263.49 142.278c-3.015-3.094-7.013-4.752-11.373-4.721-3.119.036-6.066.98-8.575 2.687-18.069-1.873-30.073 6.398-42.775 15.161-1.654 1.141-3.361 2.307-5.091 3.47-3.041-4.196-7.848-6.669-13.091-6.669h-77.234c-14.463 0-28.06 5.632-38.284 15.857l-18.965 18.965-14.826 14.826c-1.467 1.467-1.569 3.812-.235 5.401l40 47.642c.786.936 1.919 1.428 3.065 1.428.763 0 1.532-.217 2.209-.667l16.202-10.748 8.71-5.778c6.713-4.453 14.52-6.807 22.576-6.807h58.613c12.531 0 24.437-5.421 32.663-14.873l47.008-54.002c5.301-6.091 5.039-15.391-.597-21.172zm-58.179 19.712c10.402-7.176 18.994-13.081 30.379-13.905l-39.018 41.91c-6.324 6.793-15.275 10.689-24.556 10.689h-21.744c-3.522 0-6.388-2.866-6.388-6.389 0-3.522 2.865-6.388 6.388-6.388h26.846c8.46 0 16.066-4.701 19.851-12.269 1.447-2.895 1.975-6.063 1.607-9.146 2.286-1.512 4.5-3.029 6.635-4.502zm-128.442 85.026-35.345-42.098 9.074-9.074 35.853 44.815zm181.184-88.819-47.008 54.002c-6.707 7.706-16.413 12.125-26.629 12.125h-58.613c-9.635 0-18.971 2.815-26.998 8.141l-5.661 3.755-36.854-46.066 16.433-16.434c8.715-8.715 20.302-13.514 32.628-13.514h77.234c2.86 0 5.465 1.452 6.969 3.885s1.638 5.412.358 7.97c-2.42 4.84-7.284 7.846-12.694 7.846h-26.846c-7.934 0-14.388 6.455-14.388 14.388s6.454 14.388 14.388 14.388h21.744c11.494 0 22.578-4.825 30.411-13.238l44.184-47.458c1.437-1.543 3.39-2.407 5.498-2.431h.09c2.075 0 4.012.816 5.463 2.306 2.751 2.822 2.879 7.362.291 10.335z"/><path d="m122.104 138.605c10.168 0 19.855-4.282 26.722-11.759 4.182 1.374 8.643 2.127 13.278 2.127 23.517 0 42.648-19.132 42.648-42.649s-19.132-42.649-42.648-42.649c-16.217 0-30.346 9.1-37.557 22.459-.813-.054-1.629-.091-2.443-.091-20.005 0-36.28 16.275-36.28 36.281s16.275 36.281 36.28 36.281zm40-86.929c19.105 0 34.648 15.543 34.648 34.649s-15.543 34.649-34.648 34.649-34.649-15.543-34.649-34.649 15.543-34.649 34.649-34.649zm-42.506 37.989c.692 8.885 4.111 17.015 9.43 23.546-2.052 1.31-4.432 2.021-6.924 2.021-7.117 0-12.908-5.791-12.908-12.908-.001-6.259 4.48-11.489 10.402-12.659zm1.66-15.6c-.727 2.416-1.244 4.922-1.531 7.496-10.413 1.185-18.531 10.039-18.531 20.763 0 11.529 9.379 20.908 20.908 20.908 4.616 0 8.993-1.507 12.606-4.253 1.953 1.641 4.057 3.106 6.285 4.38-5.163 4.635-11.881 7.246-18.891 7.246-15.594 0-28.28-12.687-28.28-28.281-.001-15.31 12.231-27.809 27.434-28.259z"/><path d="m162.104 115.552c16.116 0 29.228-13.111 29.228-29.227s-13.111-29.227-29.228-29.227-29.228 13.111-29.228 29.227 13.111 29.227 29.228 29.227zm0-50.455c11.705 0 21.228 9.522 21.228 21.227s-9.522 21.227-21.228 21.227-21.228-9.522-21.228-21.227 9.523-21.227 21.228-21.227z"/></svg>