<?xml version="1.0" encoding="utf-8"?>
<!-- Generator: Adobe Illustrator 16.0.0, SVG Export Plug-In . SVG Version: 6.00 Build 0)  -->
<!DOCTYPE svg PUBLIC "-//W3C//DTD SVG 1.1//EN" "http://www.w3.org/Graphics/SVG/1.1/DTD/svg11.dtd">
<svg version="1.1" id="Layer_1" xmlns="http://www.w3.org/2000/svg" xmlns:xlink="http://www.w3.org/1999/xlink" x="0px" y="0px"
	 width="863.636px" height="804.545px" viewBox="984.914 1016.732 863.636 804.545"
	 enable-background="new 984.914 1016.732 863.636 804.545" xml:space="preserve">
<g id="Layer_x0020_1">
	<rect fill="none" width="2834.645" height="2834.645"/>
	<g id="_509740770624">
		<rect x="1003.125" y="1045.758" fill="#005C33" width="664.922" height="307.871"/>
		<g>
			<polygon fill="#FFFFFF" points="1167.902,1169.008 1108.403,1169.008 1108.403,1120.848 1282.365,1120.848 1282.365,1169.008 
				1222.866,1169.008 1222.866,1319.159 1167.902,1319.159 			"/>
			<path fill="#FFFFFF" d="M1471.549,1216.035c9.439,0,16.697-2.127,21.799-6.379s7.654-9.949,7.654-17.121v-0.566
				c0-7.938-2.637-13.833-7.938-17.717c-5.273-3.884-12.557-5.811-21.799-5.811h-36v47.594H1471.549z M1380.303,1120.848h93.77
				c15.307,0,28.262,1.87,38.834,5.669c10.574,3.771,19.162,9.071,25.768,15.846c11.707,11.339,17.574,26.73,17.574,46.205v0.566
				c0,15.279-3.684,27.95-11.055,37.956c-7.369,10.006-17.264,17.66-29.734,22.961l47.309,69.108h-63.467l-39.939-60.066h-0.568
				h-23.527v60.066h-54.963V1120.848z"/>
		</g>
		<rect x="1166.599" y="1349.064" fill="#005C33" width="664.923" height="307.872"/>
		<g>
			<polygon fill="#FFFFFF" points="1275.193,1395.694 1434.444,1395.694 1434.444,1442.465 1329.336,1442.465 1329.336,1472.485 
				1424.524,1472.485 1424.524,1515.827 1329.336,1515.827 1329.336,1547.292 1434.614,1547.405 1434.614,1594.149 
				1275.193,1594.036 			"/>
			<path fill="#FFFFFF" d="M1636.499,1494.311c9.807,0,17.518-2.324,23.074-7c5.584-4.621,8.361-10.941,8.361-18.936v-0.568
				c0-8.531-2.777-15.051-8.361-19.502c-5.557-4.479-13.352-6.689-23.357-6.689h-25.797v52.695H1636.499z M1555.456,1395.694h85.012
				c12.471,0,23.781,1.56,33.986,4.678s18.879,7.653,26.078,13.606c7.172,5.952,12.699,13.266,16.555,21.967
				c3.885,8.676,5.811,18.512,5.811,29.453v0.566c0,11.707-2.125,21.996-6.377,30.898c-4.252,8.871-10.148,16.326-17.688,22.365
				c-7.568,6.037-16.584,10.572-27.072,13.605s-21.854,4.535-34.129,4.535h-27.213v56.666h-54.963V1395.694z"/>
		</g>
		<polygon points="1436.825,1684.206 1444.508,1684.206 1444.508,1780.499 1505.084,1780.499 1505.084,1787.415 1436.825,1787.415 
					"/>
		<path id="_x31_" d="M1597.975,1751.584l-27.127-59.697l-27.27,59.697H1597.975z M1567.305,1683.467h7.369l48.076,103.947h-8.391
			l-13.125-28.885h-60.889l-13.123,28.885h-7.967L1567.305,1683.467z"/>
		<path id="_x32_" d="M1689.676,1780.499c8.844,0,15.873-1.9,21.09-5.699c5.215-3.797,7.822-8.957,7.822-15.477v-0.283
			c0-6.406-2.691-11.367-8.049-14.854c-5.357-3.516-13.125-5.273-23.357-5.273h-34.951v41.586H1689.676z M1686.303,1731.997
			c3.826,0,7.369-0.482,10.602-1.416c3.26-0.965,6.037-2.297,8.418-4.111c2.354-1.758,4.195-3.996,5.527-6.662
			c1.305-2.664,1.984-5.725,1.984-9.211v-0.285c0-5.754-2.211-10.373-6.633-13.889s-10.828-5.273-19.162-5.273h-34.809v40.848
			H1686.303z M1644.577,1684.206h42.52c5.867,0,11.111,0.822,15.646,2.438c4.594,1.615,8.307,3.855,11.141,6.746
			c4.395,4.422,6.605,9.809,6.605,16.242v0.283c0,3.543-0.51,6.633-1.531,9.326c-1.049,2.637-2.381,4.961-4.025,6.916
			c-1.672,1.957-3.57,3.629-5.697,4.961c-2.098,1.332-4.166,2.438-6.236,3.316c3.033,0.795,5.98,1.844,8.816,3.176
			c2.863,1.332,5.328,2.977,7.455,4.988c2.098,2.014,3.799,4.365,5.074,7.088c1.275,2.691,1.898,5.781,1.898,9.324v0.285
			c0,4.336-0.879,8.219-2.637,11.707c-1.785,3.486-4.252,6.434-7.512,8.844c-3.23,2.381-7.115,4.252-11.621,5.584
			c-4.508,1.332-9.582,1.984-15.166,1.984h-44.73V1684.206z"/>
		<path id="_x33_" d="M1785.969,1788.889c-8.277,0-15.705-1.361-22.338-4.111c-6.633-2.777-13.066-6.889-19.246-12.387l5.018-5.754
			c2.834,2.635,5.668,4.932,8.475,6.859c2.807,1.898,5.67,3.486,8.617,4.705s6.037,2.154,9.297,2.807
			c3.232,0.623,6.775,0.963,10.602,0.963c3.855,0,7.371-0.51,10.631-1.559c3.232-1.02,5.98-2.467,8.248-4.279
			c2.268-1.814,4.025-3.969,5.301-6.492c1.275-2.494,1.928-5.215,1.928-8.164v-0.313c0-2.748-0.424-5.186-1.246-7.369
			c-0.852-2.154-2.381-4.109-4.592-5.896c-2.211-1.758-5.16-3.344-8.902-4.791c-3.74-1.416-8.561-2.721-14.455-3.91
			c-6.18-1.275-11.51-2.779-15.932-4.479c-4.422-1.73-8.021-3.742-10.828-6.039c-2.807-2.324-4.848-4.988-6.123-8.051
			c-1.275-3.033-1.898-6.547-1.898-10.459v-0.313c0-3.826,0.82-7.398,2.494-10.686c1.672-3.289,3.969-6.152,6.916-8.617
			c2.947-2.467,6.463-4.365,10.488-5.756c4.025-1.359,8.447-2.068,13.266-2.068c7.455,0,13.918,1.049,19.389,3.117
			c5.443,2.041,10.771,5.188,15.988,9.412l-4.875,6.066c-4.904-4.225-9.836-7.229-14.797-9.016
			c-4.961-1.756-10.291-2.635-16.016-2.635c-3.828,0-7.285,0.51-10.375,1.529c-3.09,1.049-5.756,2.439-7.967,4.225
			c-2.211,1.758-3.91,3.826-5.102,6.18c-1.162,2.352-1.758,4.875-1.758,7.512v0.313c0,2.748,0.426,5.215,1.248,7.426
			c0.85,2.211,2.352,4.252,4.563,6.066c2.24,1.814,5.301,3.459,9.242,4.932c3.912,1.475,8.93,2.836,15.023,4.139
			c11.99,2.438,20.637,5.896,25.938,10.375c5.328,4.479,7.965,10.488,7.965,18.057v0.313c0,4.109-0.85,7.938-2.58,11.424
			c-1.701,3.486-4.082,6.463-7.059,8.928c-3.004,2.439-6.604,4.365-10.771,5.727
			C1795.579,1788.208,1790.987,1788.889,1785.969,1788.889z"/>
	</g>
</g>
</svg>
