<svg height="512" viewBox="0 0 64 64" width="512" xmlns="http://www.w3.org/2000/svg"><g id="Vision-Analysis-Report-File-Graph"><path d="m61.707 10.293-8-8a1 1 0 0 0 -.707-.293h-30a3 3 0 0 0 -3 3v8a13 13 0 1 0 -9 24.361v20.639a4 4 0 0 0 8 0v-20.636c.339-.11.674-.23 1-.367v18.003a3 3 0 0 0 3 3h36a3 3 0 0 0 3-3v-44a1 1 0 0 0 -.293-.707zm-7.707-4.879 4.586 4.586h-3.586a1 1 0 0 1 -1-1zm-50 19.586a11 11 0 1 1 11 11 11.013 11.013 0 0 1 -11-11zm13 33a2 2 0 0 1 -4 0v-20.17a13.056 13.056 0 0 0 2 .17 13.056 13.056 0 0 0 2-.17zm42-2h-36a1 1 0 0 1 -1-1v-19.063a12.968 12.968 0 0 0 0-21.874v-9.063a1 1 0 0 1 1-1h29v5a3 3 0 0 0 3 3h5v43a1 1 0 0 1 -1 1z"/><path d="m26 8h2v2h-2z"/><path d="m30 8h6v2h-6z"/><path d="m26 12h10v2h-10z"/><path d="m24 25a9 9 0 1 0 -9 9 9.01 9.01 0 0 0 9-9zm-12 0a3 3 0 1 1 3 3 3 3 0 0 1 -3-3zm-1.783 1.377a14.664 14.664 0 0 1 -1.787-1.377 14.664 14.664 0 0 1 1.787-1.377 4.477 4.477 0 0 0 0 2.754zm9.566-2.754a14.664 14.664 0 0 1 1.787 1.377 14.664 14.664 0 0 1 -1.787 1.377 4.477 4.477 0 0 0 0-2.754zm-4.783-5.623a7.009 7.009 0 0 1 6.478 4.357 11.376 11.376 0 0 0 -6.478-2.357 11.376 11.376 0 0 0 -6.478 2.357 7.009 7.009 0 0 1 6.478-4.357zm-6.478 9.643a11.376 11.376 0 0 0 6.478 2.357 11.376 11.376 0 0 0 6.478-2.357 6.994 6.994 0 0 1 -12.956 0z"/><path d="m47 24v10h-2v-8h-2v8h-2v-6h-2v6h-2v-4h-2v4h-2v2h18v-2h-2v-10z"/><path d="m35.5 24.136 1 1.728 9.9-5.775-.4 1.511 1.932.518 1.035-3.863a1 1 0 0 0 -.707-1.225l-3.86-1.03-.518 1.932 1.546.414z"/><path d="m26 40h2v2h-2z"/><path d="m30 40h2v2h-2z"/><path d="m34 40h22v2h-22z"/><path d="m26 44h30v2h-30z"/><path d="m26 48h30v2h-30z"/></g></svg>