<?xml version="1.0" encoding="utf-8"?>
<!-- Generator: Adobe Illustrator 16.0.0, SVG Export Plug-In . SVG Version: 6.00 Build 0)  -->
<!DOCTYPE svg PUBLIC "-//W3C//DTD SVG 1.1//EN" "http://www.w3.org/Graphics/SVG/1.1/DTD/svg11.dtd">
<svg version="1.1" id="Layer_1" xmlns="http://www.w3.org/2000/svg" xmlns:xlink="http://www.w3.org/1999/xlink" x="0px" y="0px"
	 width="1366px" height="930px" viewBox="0 0 1366 930" enable-background="new 0 0 1366 930" xml:space="preserve">
<title>clients-hero</title>
<g>
	<g id="_x34_0491a7a-7b0c-4719-a022-b19110ea5057">
		<polygon fill="none" stroke="#48B70D" stroke-width="0.5343" stroke-miterlimit="10" points="439.26,308.23 434.86,308.23 
			432.65,312.05 434.86,315.86 439.26,315.86 441.47,312.05 		"/>
		
			<line fill="none" stroke="#037500" stroke-width="0.5343" stroke-miterlimit="10" x1="437.061" y1="315.86" x2="445.87" y2="424.24"/>
		<g opacity="0.6">
			<polygon fill="none" stroke="#AAAAAA" stroke-width="0.3218" stroke-miterlimit="10" points="619.939,613.89 617.28,613.89 
				615.95,616.18 617.28,618.48 619.939,618.48 621.27,616.18 			"/>
			<polygon fill="none" stroke="#AAAAAA" stroke-width="0.3266" stroke-miterlimit="10" points="1075.59,417.51 1072.88,417.51 
				1071.53,419.83 1072.88,422.16 1075.59,422.16 1076.93,419.83 			"/>
			
				<line fill="none" stroke="#AAAAAA" stroke-width="0.3266" stroke-miterlimit="10" x1="838.33" y1="303.27" x2="802.32" y2="351.03"/>
			
				<line fill="none" stroke="#AAAAAA" stroke-width="0.3266" stroke-miterlimit="10" x1="815.91" y1="397.43" x2="787.02" y2="493.96"/>
			
				<line fill="none" stroke="#AAAAAA" stroke-width="0.3266" stroke-miterlimit="10" x1="787.02" y1="493.96" x2="808.11" y2="541.78"/>
			
				<line fill="none" stroke="#AAAAAA" stroke-width="0.3266" stroke-miterlimit="10" x1="808.11" y1="541.78" x2="845.02" y2="578.34"/>
			
				<line fill="none" stroke="#AAAAAA" stroke-width="0.3266" stroke-miterlimit="10" x1="845.02" y1="578.34" x2="898.8" y2="619.78"/>
			
				<line fill="none" stroke="#AAAAAA" stroke-width="0.3266" stroke-miterlimit="10" x1="898.8" y1="619.78" x2="937.82" y2="631.79"/>
			
				<line fill="none" stroke="#AAAAAA" stroke-width="0.3266" stroke-miterlimit="10" x1="1008.41" y1="628.83" x2="1070.64" y2="610.82"/>
			
				<line fill="none" stroke="#AAAAAA" stroke-width="0.3266" stroke-miterlimit="10" x1="1070.64" y1="610.82" x2="1122.14" y2="567.11"/>
			
				<line fill="none" stroke="#AAAAAA" stroke-width="0.3266" stroke-miterlimit="10" x1="1125.32" y1="563.29" x2="1164.35" y2="484.28"/>
			
				<line fill="none" stroke="#AAAAAA" stroke-width="0.3266" stroke-miterlimit="10" x1="1165.7" y1="481.96" x2="1163" y2="387.59"/>
			
				<line fill="none" stroke="#AAAAAA" stroke-width="0.3266" stroke-miterlimit="10" x1="1080.65" y1="281.12" x2="1163" y2="387.59"/>
			
				<line fill="none" stroke="#AAAAAA" stroke-width="0.3266" stroke-miterlimit="10" x1="1080.65" y1="281.12" x2="991.3" y2="253.13"/>
			
				<line fill="none" stroke="#AAAAAA" stroke-width="0.3266" stroke-miterlimit="10" x1="991.3" y1="253.13" x2="930.02" y2="257.03"/>
			
				<line fill="none" stroke="#AAAAAA" stroke-width="0.3266" stroke-miterlimit="10" x1="919.75" y1="257.96" x2="842" y2="300.28"/>
			<rect x="556.11" y="609.43" opacity="0.1" fill="#474747" enable-background="new    " width="52.14" height="5.53"/>
			<rect x="570.8" y="617.41" opacity="0.1" fill="#474747" enable-background="new    " width="37.45" height="5.53"/>
			
				<line fill="none" stroke="#AAAAAA" stroke-width="0.8574" stroke-miterlimit="10" x1="787.02" y1="493.96" x2="815.91" y2="471.65"/>
			<line fill="none" stroke="#AAAAAA" stroke-width="0.43" stroke-miterlimit="10" x1="810.1" y1="540.55" x2="880.65" y2="506.6"/>
			
				<line fill="none" stroke="#AAAAAA" stroke-width="0.43" stroke-miterlimit="10" x1="880.65" y1="506.6" x2="787.02" y2="493.96"/>
			
				<line fill="none" stroke="#AAAAAA" stroke-width="0.43" stroke-miterlimit="10" x1="815.91" y1="471.65" x2="880.65" y2="506.6"/>
			
				<line fill="none" stroke="#AAAAAA" stroke-width="0.43" stroke-miterlimit="10" x1="880.65" y1="506.6" x2="940.25" y2="518.39"/>
			
				<line fill="none" stroke="#AAAAAA" stroke-width="0.43" stroke-miterlimit="10" x1="881.66" y1="498.94" x2="898.29" y2="451.85"/>
			
				<line opacity="0.4" fill="none" stroke="#AAAAAA" stroke-width="0.43" stroke-miterlimit="10" enable-background="new    " x1="988.24" y1="673.82" x2="937.82" y2="631.79"/>
			
				<line opacity="0.4" fill="none" stroke="#AAAAAA" stroke-width="0.43" stroke-miterlimit="10" enable-background="new    " x1="880.65" y1="506.6" x2="989.59" y2="676.15"/>
			
				<line opacity="0.4" fill="none" stroke="#AAAAAA" stroke-width="0.43" stroke-miterlimit="10" enable-background="new    " x1="989.59" y1="676.15" x2="1008.41" y2="628.83"/>
			
				<line opacity="0.4" fill="none" stroke="#AAAAAA" stroke-width="0.43" stroke-miterlimit="10" enable-background="new    " x1="997.24" y1="505.15" x2="989.59" y2="676.15"/>
			
				<line fill="none" stroke="#AAAAAA" stroke-width="0.43" stroke-miterlimit="10" x1="940.25" y1="518.39" x2="997.23" y2="505.38"/>
			
				<line fill="none" stroke="#AAAAAA" stroke-width="0.43" stroke-miterlimit="10" x1="949.939" y1="465.63" x2="940.25" y2="518.39"/>
			
				<line fill="none" stroke="#AAAAAA" stroke-width="0.43" stroke-miterlimit="10" x1="898.29" y1="451.85" x2="940.25" y2="518.39"/>
			
				<line fill="none" stroke="#AAAAAA" stroke-width="0.3266" stroke-miterlimit="10" x1="1008.41" y1="628.83" x2="997.24" y2="505.15"/>
			
				<line fill="none" stroke="#AAAAAA" stroke-width="0.3266" stroke-miterlimit="10" x1="1070.64" y1="610.82" x2="997.24" y2="505.15"/>
			
				<line fill="none" stroke="#AAAAAA" stroke-width="0.43" stroke-miterlimit="10" x1="898.29" y1="451.85" x2="815.91" y2="397.43"/>
			
				<line fill="none" stroke="#AAAAAA" stroke-width="0.43" stroke-miterlimit="10" x1="889.55" y1="376.05" x2="898.29" y2="451.85"/>
			
				<line fill="none" stroke="#AAAAAA" stroke-width="0.392" stroke-miterlimit="10" x1="885.2" y1="372.31" x2="815.91" y2="397.43"/>
			
				<line fill="none" stroke="#AAAAAA" stroke-width="0.392" stroke-miterlimit="10" x1="802.32" y1="351.03" x2="815.91" y2="397.43"/>
			
				<line fill="none" stroke="#AAAAAA" stroke-width="0.3266" stroke-miterlimit="10" x1="618.61" y1="616.18" x2="808.11" y2="541.78"/>
			
				<line fill="none" stroke="#AAAAAA" stroke-width="0.3266" stroke-miterlimit="10" x1="937.82" y1="631.79" x2="1008.41" y2="628.83"/>
			
				<line fill="none" stroke="#AAAAAA" stroke-width="0.3266" stroke-miterlimit="10" x1="1070.64" y1="610.82" x2="1088.65" y2="622.59"/>
			<polyline fill="none" stroke="#AAAAAA" stroke-width="0.43" stroke-miterlimit="10" points="744.47,291.26 744.47,289.49 
				742.7,289.49 			"/>
			<polyline fill="none" stroke="#AAAAAA" stroke-width="0.43" stroke-miterlimit="10" points="742.7,294.48 744.47,294.48 
				744.47,292.7 			"/>
			<polyline fill="none" stroke="#AAAAAA" stroke-width="0.43" stroke-miterlimit="10" points="739.48,291.26 739.48,289.49 
				741.25,289.49 			"/>
			<polyline fill="none" stroke="#AAAAAA" stroke-width="0.43" stroke-miterlimit="10" points="739.48,292.7 739.48,294.48 
				741.25,294.48 			"/>
			<g>
				<polyline fill="none" stroke="#AAAAAA" stroke-width="0.43" stroke-miterlimit="10" points="770.6,697.29 770.6,695.52 
					768.83,695.52 				"/>
				<polyline fill="none" stroke="#AAAAAA" stroke-width="0.43" stroke-miterlimit="10" points="768.83,700.5 770.6,700.5 
					770.6,698.73 				"/>
				<polyline fill="none" stroke="#AAAAAA" stroke-width="0.43" stroke-miterlimit="10" points="765.62,697.29 765.62,695.52 
					767.39,695.52 				"/>
				<polyline fill="none" stroke="#AAAAAA" stroke-width="0.43" stroke-miterlimit="10" points="765.62,698.73 765.62,700.5 
					767.39,700.5 				"/>
			</g>
			<g opacity="0.1">
				<g>
					
						<line fill="none" stroke="#AAAAAA" stroke-width="0.43" stroke-miterlimit="10" x1="790.51" y1="710.34" x2="791.12" y2="709.74"/>
					
						<line fill="none" stroke="#AAAAAA" stroke-width="0.43" stroke-miterlimit="10" stroke-dasharray="1.7469,1.7469" x1="792.35" y1="708.5" x2="801.62" y2="699.24"/>
					<polyline fill="none" stroke="#AAAAAA" stroke-width="0.43" stroke-miterlimit="10" points="802.24,698.62 802.84,698.01 
						802.24,697.4 					"/>
					
						<line fill="none" stroke="#AAAAAA" stroke-width="0.43" stroke-miterlimit="10" stroke-dasharray="1.7469,1.7469" x1="801" y1="696.17" x2="791.74" y2="686.9"/>
					
						<line fill="none" stroke="#AAAAAA" stroke-width="0.43" stroke-miterlimit="10" x1="791.12" y1="686.29" x2="790.51" y2="685.68"/>
				</g>
				<g>
					
						<line fill="none" stroke="#AAAAAA" stroke-width="0.43" stroke-miterlimit="10" x1="755.77" y1="720.41" x2="756.38" y2="721.02"/>
					
						<line fill="none" stroke="#AAAAAA" stroke-width="0.43" stroke-miterlimit="10" stroke-dasharray="1.7469,1.7469" x1="757.62" y1="722.26" x2="766.88" y2="731.52"/>
					<polyline fill="none" stroke="#AAAAAA" stroke-width="0.43" stroke-miterlimit="10" points="767.5,732.14 768.11,732.75 
						768.72,732.14 					"/>
					
						<line fill="none" stroke="#AAAAAA" stroke-width="0.43" stroke-miterlimit="10" stroke-dasharray="1.7469,1.7469" x1="769.95" y1="730.9" x2="779.22" y2="721.64"/>
					
						<line fill="none" stroke="#AAAAAA" stroke-width="0.43" stroke-miterlimit="10" x1="779.83" y1="721.02" x2="780.439" y2="720.41"/>
				</g>
				<g>
					
						<line fill="none" stroke="#AAAAAA" stroke-width="0.43" stroke-miterlimit="10" x1="755.77" y1="675.61" x2="756.38" y2="675"/>
					
						<line fill="none" stroke="#AAAAAA" stroke-width="0.43" stroke-miterlimit="10" stroke-dasharray="1.7469,1.7469" x1="757.62" y1="673.77" x2="766.88" y2="664.5"/>
					<polyline fill="none" stroke="#AAAAAA" stroke-width="0.43" stroke-miterlimit="10" points="767.5,663.88 768.11,663.27 
						768.72,663.88 					"/>
					
						<line fill="none" stroke="#AAAAAA" stroke-width="0.43" stroke-miterlimit="10" stroke-dasharray="1.7469,1.7469" x1="769.95" y1="665.12" x2="779.22" y2="674.38"/>
					
						<line fill="none" stroke="#AAAAAA" stroke-width="0.43" stroke-miterlimit="10" x1="779.83" y1="675" x2="780.439" y2="675.61"/>
				</g>
				<g>
					
						<line fill="none" stroke="#AAAAAA" stroke-width="0.43" stroke-miterlimit="10" x1="745.71" y1="685.68" x2="745.1" y2="686.29"/>
					
						<line fill="none" stroke="#AAAAAA" stroke-width="0.43" stroke-miterlimit="10" stroke-dasharray="1.7469,1.7469" x1="743.86" y1="687.52" x2="734.6" y2="696.78"/>
					<polyline fill="none" stroke="#AAAAAA" stroke-width="0.43" stroke-miterlimit="10" points="733.98,697.4 733.37,698.01 
						733.98,698.62 					"/>
					
						<line fill="none" stroke="#AAAAAA" stroke-width="0.43" stroke-miterlimit="10" stroke-dasharray="1.7469,1.7469" x1="735.22" y1="699.85" x2="744.48" y2="709.12"/>
					
						<line fill="none" stroke="#AAAAAA" stroke-width="0.43" stroke-miterlimit="10" x1="745.1" y1="709.74" x2="745.71" y2="710.34"/>
				</g>
			</g>
			<g opacity="0.4">
				<g>
					
						<line fill="none" stroke="#AAAAAA" stroke-width="0.43" stroke-miterlimit="10" x1="1200.41" y1="621.23" x2="1201.02" y2="620.62"/>
					
						<line fill="none" stroke="#AAAAAA" stroke-width="0.43" stroke-miterlimit="10" stroke-dasharray="1.8067,1.8067" x1="1202.3" y1="619.35" x2="1204.21" y2="617.43"/>
					<polyline fill="none" stroke="#AAAAAA" stroke-width="0.43" stroke-miterlimit="10" points="1204.85,616.79 1205.46,616.18 
						1204.85,615.58 					"/>
					
						<line fill="none" stroke="#AAAAAA" stroke-width="0.43" stroke-miterlimit="10" stroke-dasharray="1.8067,1.8067" x1="1203.57" y1="614.3" x2="1201.66" y2="612.38"/>
					
						<line fill="none" stroke="#AAAAAA" stroke-width="0.43" stroke-miterlimit="10" x1="1201.02" y1="611.74" x2="1200.41" y2="611.14"/>
				</g>
				<g>
					
						<line fill="none" stroke="#AAAAAA" stroke-width="0.43" stroke-miterlimit="10" x1="1186.189" y1="625.35" x2="1186.8" y2="625.96"/>
					
						<line fill="none" stroke="#AAAAAA" stroke-width="0.43" stroke-miterlimit="10" stroke-dasharray="1.8067,1.8067" x1="1188.08" y1="627.24" x2="1189.99" y2="629.16"/>
					<polyline fill="none" stroke="#AAAAAA" stroke-width="0.43" stroke-miterlimit="10" points="1190.63,629.79 1191.24,630.4 
						1191.85,629.79 					"/>
					
						<line fill="none" stroke="#AAAAAA" stroke-width="0.43" stroke-miterlimit="10" stroke-dasharray="1.8067,1.8067" x1="1193.12" y1="628.52" x2="1195.04" y2="626.6"/>
					
						<line fill="none" stroke="#AAAAAA" stroke-width="0.43" stroke-miterlimit="10" x1="1195.68" y1="625.96" x2="1196.29" y2="625.35"/>
				</g>
				<g>
					
						<line fill="none" stroke="#AAAAAA" stroke-width="0.43" stroke-miterlimit="10" x1="1186.189" y1="607.01" x2="1186.8" y2="606.41"/>
					
						<line fill="none" stroke="#AAAAAA" stroke-width="0.43" stroke-miterlimit="10" stroke-dasharray="1.8067,1.8067" x1="1188.08" y1="605.13" x2="1189.99" y2="603.21"/>
					<polyline fill="none" stroke="#AAAAAA" stroke-width="0.43" stroke-miterlimit="10" points="1190.63,602.57 1191.24,601.97 
						1191.85,602.57 					"/>
					
						<line fill="none" stroke="#AAAAAA" stroke-width="0.43" stroke-miterlimit="10" stroke-dasharray="1.8067,1.8067" x1="1193.12" y1="603.85" x2="1195.04" y2="605.77"/>
					
						<line fill="none" stroke="#AAAAAA" stroke-width="0.43" stroke-miterlimit="10" x1="1195.68" y1="606.41" x2="1196.29" y2="607.01"/>
				</g>
				<g>
					
						<line fill="none" stroke="#AAAAAA" stroke-width="0.43" stroke-miterlimit="10" x1="1182.07" y1="611.14" x2="1181.46" y2="611.74"/>
					
						<line fill="none" stroke="#AAAAAA" stroke-width="0.43" stroke-miterlimit="10" stroke-dasharray="1.8067,1.8067" x1="1180.18" y1="613.02" x2="1178.27" y2="614.94"/>
					<polyline fill="none" stroke="#AAAAAA" stroke-width="0.43" stroke-miterlimit="10" points="1177.63,615.58 1177.02,616.18 
						1177.63,616.79 					"/>
					
						<line fill="none" stroke="#AAAAAA" stroke-width="0.43" stroke-miterlimit="10" stroke-dasharray="1.8067,1.8067" x1="1178.91" y1="618.07" x2="1180.82" y2="619.99"/>
					
						<line fill="none" stroke="#AAAAAA" stroke-width="0.43" stroke-miterlimit="10" x1="1181.46" y1="620.62" x2="1182.07" y2="621.23"/>
				</g>
			</g>
			
				<line fill="none" stroke="#AAAAAA" stroke-width="0.43" stroke-miterlimit="10" stroke-dasharray="1.72" x1="744.47" y1="294.47" x2="802.32" y2="351.03"/>
			
				<line fill="none" stroke="#AAAAAA" stroke-width="0.43" stroke-miterlimit="10" stroke-dasharray="1.72" x1="840.21" y1="302.07" x2="881.38" y2="318.94"/>
			
				<line fill="none" stroke="#AAAAAA" stroke-width="0.43" stroke-miterlimit="10" stroke-dasharray="1.72" x1="962.23" y1="318.94" x2="881.38" y2="318.94"/>
			
				<line fill="none" stroke="#AAAAAA" stroke-width="0.43" stroke-miterlimit="10" stroke-dasharray="1.72" x1="921.92" y1="257.03" x2="962.23" y2="318.94"/>
			
				<line fill="none" stroke="#AAAAAA" stroke-width="0.43" stroke-miterlimit="10" stroke-dasharray="1.72" x1="991.3" y1="253.13" x2="962.23" y2="318.94"/>
			
				<line fill="none" stroke="#AAAAAA" stroke-width="0.43" stroke-miterlimit="10" stroke-dasharray="1.72" x1="1028.41" y1="301.98" x2="962.23" y2="318.94"/>
			
				<line fill="none" stroke="#AAAAAA" stroke-width="0.43" stroke-miterlimit="10" stroke-dasharray="1.72" x1="1080.65" y1="281.12" x2="1028.41" y2="301.98"/>
			
				<line fill="none" stroke="#AAAAAA" stroke-width="0.43" stroke-miterlimit="10" stroke-dasharray="1.72" x1="998.86" y1="390.38" x2="1037.35" y2="390.38"/>
			
				<line fill="none" stroke="#AAAAAA" stroke-width="0.43" stroke-miterlimit="10" stroke-dasharray="1.72" x1="1028.41" y1="301.98" x2="998.86" y2="390.38"/>
			
				<line fill="none" stroke="#AAAAAA" stroke-width="0.43" stroke-miterlimit="10" stroke-dasharray="1.72" x1="1037.35" y1="390.38" x2="1028.41" y2="301.98"/>
			
				<line fill="none" stroke="#AAAAAA" stroke-width="0.43" stroke-miterlimit="10" stroke-dasharray="1.72" x1="998.86" y1="390.38" x2="962.23" y2="318.94"/>
			
				<line fill="none" stroke="#AAAAAA" stroke-width="0.43" stroke-miterlimit="10" stroke-dasharray="1.72" x1="889.55" y1="372.31" x2="998.86" y2="390.38"/>
			
				<line fill="none" stroke="#AAAAAA" stroke-width="0.43" stroke-miterlimit="10" stroke-dasharray="1.72" x1="962.23" y1="318.94" x2="889.55" y2="372.31"/>
			
				<line fill="none" stroke="#AAAAAA" stroke-width="0.43" stroke-miterlimit="10" stroke-dasharray="0.7041" x1="898.29" y1="451.85" x2="998.86" y2="390.38"/>
			
				<line fill="none" stroke="#AAAAAA" stroke-width="0.43" stroke-miterlimit="10" stroke-dasharray="1.72" x1="997.23" y1="505.38" x2="998.86" y2="390.38"/>
			
				<line fill="none" stroke="#AAAAAA" stroke-width="0.392" stroke-miterlimit="10" x1="1037.35" y1="390.38" x2="1085.95" y2="410.53"/>
			
				<line fill="none" stroke="#AAAAAA" stroke-width="0.392" stroke-miterlimit="10" x1="1074.23" y1="419.95" x2="1085.95" y2="410.53"/>
			
				<line fill="none" stroke="#AAAAAA" stroke-width="0.392" stroke-miterlimit="10" x1="1074.23" y1="419.95" x2="1085.95" y2="426.26"/>
			
				<line fill="none" stroke="#AAAAAA" stroke-width="0.392" stroke-miterlimit="10" x1="1085.95" y1="410.53" x2="1085.95" y2="426.26"/>
			
				<line fill="none" stroke="#AAAAAA" stroke-width="0.392" stroke-miterlimit="10" x1="1074.23" y1="419.95" x2="1037.35" y2="390.38"/>
			
				<line fill="none" stroke="#AAAAAA" stroke-width="0.392" stroke-miterlimit="10" x1="997.23" y1="505.38" x2="1074.23" y2="419.95"/>
			
				<line fill="none" stroke="#AAAAAA" stroke-width="0.392" stroke-miterlimit="10" x1="1085.95" y1="410.53" x2="1163" y2="387.59"/>
			
				<line fill="none" stroke="#AAAAAA" stroke-width="0.392" stroke-miterlimit="10" x1="1085.95" y1="426.26" x2="1163" y2="387.59"/>
			
				<line fill="none" stroke="#AAAAAA" stroke-width="0.392" stroke-miterlimit="10" x1="1165.7" y1="481.96" x2="1085.95" y2="426.26"/>
			
				<line fill="none" stroke="#AAAAAA" stroke-width="0.3266" stroke-miterlimit="10" x1="1080.65" y1="281.12" x2="1199.37" y2="295.41"/>
			
				<line fill="none" stroke="#AAAAAA" stroke-width="0.43" stroke-miterlimit="10" x1="845.02" y1="578.34" x2="880.65" y2="506.6"/>
			
				<line fill="none" stroke="#AAAAAA" stroke-width="0.43" stroke-miterlimit="10" x1="898.8" y1="619.78" x2="940.25" y2="518.39"/>
			<line fill="none" stroke="#AAAAAA" stroke-width="0.43" stroke-miterlimit="10" x1="880.65" y1="506.6" x2="898.8" y2="619.78"/>
			
				<line fill="none" stroke="#AAAAAA" stroke-width="0.3266" stroke-miterlimit="10" x1="1070.64" y1="610.82" x2="1085.95" y2="426.26"/>
			
				<line fill="none" stroke="#AAAAAA" stroke-width="0.3266" stroke-miterlimit="10" x1="1165.7" y1="481.96" x2="997.24" y2="505.15"/>
			
				<line fill="none" stroke="#AAAAAA" stroke-width="0.43" stroke-miterlimit="10" stroke-dasharray="1.72" x1="1163" y1="387.59" x2="997.24" y2="505.15"/>
			
				<line fill="none" stroke="#AAAAAA" stroke-width="0.43" stroke-miterlimit="10" stroke-dasharray="1.72" x1="1123.97" y1="565.61" x2="997.24" y2="505.15"/>
			
				<line fill="none" stroke="#AAAAAA" stroke-width="0.3266" stroke-miterlimit="10" x1="815.91" y1="397.43" x2="881.38" y2="318.94"/>
			
				<line fill="none" stroke="#AAAAAA" stroke-width="0.3266" stroke-miterlimit="10" x1="889.55" y1="372.31" x2="802.32" y2="351.03"/>
			
				<line fill="none" stroke="#AAAAAA" stroke-width="0.3266" stroke-miterlimit="10" x1="802.32" y1="351.03" x2="787.02" y2="493.96"/>
		</g>
		<g>
			<g>
				<circle fill="#5333ED" cx="1031.47" cy="644.39" r="2.33"/>
				<path fill="#5333ED" d="M1012.92,630.39v-0.05c0,0,1.58-0.14,1.93-2.31c0,0,0-0.2,0-0.311c0.146-3.637,3.214-6.466,6.851-6.319
					s6.466,3.213,6.319,6.85c0,0-0.38,4,2.271,5.61c1.172,0.821,1.907,2.131,2,3.56c1.7,0.376,2.875,1.932,2.771,3.67
					c-0.134,1.979-1.846,3.474-3.824,3.341c-0.002,0-0.004,0-0.006-0.001c-0.776-0.067-1.508-0.391-2.08-0.92
					c-0.87,0.45-1.842,0.664-2.82,0.62c-2.185-0.164-4.084-1.563-4.89-3.6l-3.21-3.84c-1.026,2.312-3.732,3.354-6.044,2.328
					c-2.313-1.025-3.354-3.731-2.329-6.044c0.566-1.275,1.683-2.223,3.033-2.574L1012.92,630.39z"/>
				<path fill="#120667" d="M1031.62,733.39v-1.71c-0.003-0.738-0.442-1.406-1.12-1.699l-0.52-0.221
					c-0.831-0.36-1.797-0.196-2.461,0.42c-1.342,1.285-2.602,2.655-3.77,4.101c-0.529,0.603-1.097,1.171-1.7,1.7
					c0,0,0,0.569,0,0.869c0.021,0.418,0.256,0.795,0.62,1l0.44,0.25c0.374,0.215,0.835,0.215,1.21,0l6.859-4
					C1031.438,733.954,1031.604,733.687,1031.62,733.39z"/>
				<path fill="#120667" d="M1022.79,728.1v-1.71c-0.003-0.738-0.442-1.405-1.12-1.7l-0.52-0.22c-0.831-0.36-1.797-0.196-2.461,0.42
					c-1.342,1.285-2.602,2.655-3.77,4.101c-0.529,0.603-1.097,1.171-1.7,1.699c0,0,0,0.57,0,0.87c0.021,0.418,0.256,0.795,0.62,1
					l0.44,0.25c0.374,0.215,0.835,0.215,1.21,0l6.859-4C1022.608,728.664,1022.773,728.396,1022.79,728.1z"/>
				<path fill="#DFE9F8" d="M1010.41,654.56c0.62-0.5,2.4-1.279,3.49-5.56l3-14.38l-1-0.2c-2.242-0.447-4.423,1.009-4.87,3.251
					c-0.016,0.079-0.029,0.159-0.04,0.239c-0.57,4.08-1.66,9.899-3.51,12.29C1006.13,652,1009.18,655.56,1010.41,654.56z"/>
				<path fill="#EBA87C" d="M1007.58,650.87c-1.25,1.09-8.54,6.57-8.54,6.57l1.75,2.25c3.363-1.562,6.574-3.434,9.59-5.591
					C1011.35,653.37,1008.63,650,1007.58,650.87z"/>
				<polygon fill="#5333ED" points="1022.77,725.37 1018.18,724.83 1017.51,718.3 1022.23,720.08 				"/>
				
					<ellipse transform="matrix(-0.866 -0.5 0.5 -0.866 1543.54 1851.78)" fill="#0C022F" cx="1019.865" cy="719.092" rx="2.58" ry="1.49"/>
				<path fill="#5333ED" d="M1022.79,727.29v-1.71c-0.003-0.739-0.442-1.406-1.12-1.7l-0.52-0.22
					c-0.831-0.361-1.797-0.196-2.461,0.42c-1.342,1.285-2.602,2.654-3.77,4.1c-0.61,0.74-1,1.33-1.39,1.73
					c-0.447,0.504-0.401,1.275,0.104,1.722c0.063,0.057,0.132,0.106,0.206,0.148l0.44,0.25c0.374,0.214,0.835,0.214,1.21,0l6.859-4
					C1022.617,727.878,1022.784,727.597,1022.79,727.29z"/>
				<polygon fill="#5333ED" points="1031.61,730.65 1027.01,730.11 1026.34,723.58 1031.061,725.37 				"/>
				
					<ellipse transform="matrix(-0.866 -0.5 0.5 -0.866 1557.384 1866.0657)" fill="#0C022F" cx="1028.701" cy="724.38" rx="2.58" ry="1.491"/>
				<path fill="#EBA87C" d="M1028.18,703.55c-0.77-1.92-5.25-2.74-5.25-2.74l4,22.57c0.13,0.732,0.587,1.366,1.24,1.72
					c0.88,0.46,1.78,0.49,2.07,0c0.055-0.101,0.083-0.215,0.08-0.33l0,0C1030.32,724.77,1029.79,707.57,1028.18,703.55z"/>
				<path fill="#EBA87C" d="M1019.43,698.4c-0.77-1.92-5.25-2.74-5.25-2.74l4,22.57c0.13,0.732,0.586,1.365,1.24,1.72
					c0.88,0.46,1.78,0.49,2.07,0c0.055-0.102,0.083-0.215,0.08-0.33l0,0C1021.57,719.62,1021,702.43,1019.43,698.4z"/>
				<path fill="#5333ED" d="M1031.62,732.57v-1.71c-0.003-0.739-0.442-1.406-1.12-1.7l-0.52-0.22
					c-0.831-0.361-1.797-0.196-2.461,0.42c-1.342,1.285-2.602,2.654-3.77,4.1c-0.61,0.74-1,1.33-1.39,1.729
					c-0.447,0.505-0.401,1.275,0.104,1.723c0.063,0.057,0.132,0.105,0.206,0.147l0.44,0.25c0.374,0.215,0.835,0.215,1.21,0l6.859-4
					C1031.447,733.158,1031.614,732.877,1031.62,732.57z"/>
				<g>
					<path fill="#E08C5C" d="M1022.93,700.81l0.78,4.36c1.653,0.512,3.37,0.788,5.101,0.82c-0.133-0.831-0.34-1.647-0.62-2.44
						C1027.42,701.62,1022.93,700.81,1022.93,700.81z"/>
					<path fill="#E08C5C" d="M1014.18,695.67l0.87,4.87c1.067,0.875,2.205,1.66,3.4,2.35c0.689,0.4,1.38,0.74,2.069,1.061
						c-0.159-1.88-0.521-3.737-1.08-5.54C1018.67,696.48,1014.18,695.67,1014.18,695.67z"/>
				</g>
				<path fill="#2CD4D9" d="M1036.84,698.07L1036.84,698.07c-0.07-0.612-0.204-1.216-0.4-1.801c-1.13-4.72-3.42-12.55-4.739-16.949
					c-0.619-2.061-1.104-4.158-1.45-6.28c-0.802-5.417-1.931-10.78-3.38-16.06c0,0-2.69,5-9.181,1.26
					c-2.659-1.53-5.25-5.28-5.25-5.28c-3.43,4.4-3.209,20.72-3.209,20.72c0.194,4.87,0.141,9.746-0.16,14.61
					c0,0.286-0.021,0.573-0.061,0.86c0,2.689,1.63,5.81,4.44,8.6c1.523,1.503,3.233,2.804,5.09,3.87c7.31,4.22,15.21,4.22,17.64,0
					C1036.774,700.538,1037.006,699.293,1036.84,698.07z"/>
				<path fill="#DFE9F8" d="M1027.61,640.79l-11.08-6.39l0,0c-0.456-0.267-0.995-0.352-1.511-0.24c-1.14,0.197-2.17,0.802-2.899,1.7
					c-0.348,0.469-0.519,1.047-0.48,1.63l0.75,14.8l0,0c-0.189,2.13,1.74,4.89,4.88,6.7c3.761,2.17,7.82,2.17,9.07,0
					c0.247-0.443,0.371-0.943,0.36-1.45l0,0l2.66-14.13C1029.58,642.63,1028.85,641.51,1027.61,640.79z"/>
				<path fill="#EBA87C" d="M1030.43,679.71l1.271-9v-0.06c-0.54-1.058-1.835-1.478-2.893-0.938
					c-0.403,0.205-0.731,0.533-0.938,0.938l0,0l-0.68,8.27c-0.421,1.84-1.511,6.63-1.561,6.82c-0.05,0.189-0.7,3.46-0.7,3.46
					l0.28,2.14c0.82-0.59,0.53-1.87,0.53-1.87l0.67-2.689l-0.28,2.859l0.851,2.511c0.439-0.782,0.439-1.738,0-2.521l0.56-2.67
					l-0.229,2.83l0.29,2.36c0.637-0.704,0.874-1.683,0.63-2.601l0.569-3.3v3l0.921,1.42c0.142-0.621,0.049-1.272-0.261-1.83
					l0.29-2.46c0.65-2.18,0.885-4.463,0.69-6.729L1030.43,679.71z"/>
				<path fill="#DFE9F8" d="M1029.25,642.46c-0.62-1.08-2.64-1.08-4.51,0s-2.88,2.83-2.26,3.91c0,0,5.81,7.75,5.17,25.66l0,0
					c-0.005,0.139,0.025,0.276,0.09,0.399c0.35,0.61,1.5,0.61,2.56,0c0.72-0.34,1.229-1.007,1.37-1.79l0,0
					C1031.67,670.64,1033.72,651.95,1029.25,642.46z"/>
				
					<ellipse transform="matrix(-0.4999 -0.8661 0.8661 -0.4999 976.6956 1843.9454)" fill="#EBA87C" cx="1020.693" cy="640.001" rx="1.77" ry="3.06"/>
				<path fill="#EBA87C" d="M1023.49,634.76l-5.59-2.46v8.641l0,0c-0.014,0.208,0.031,0.416,0.13,0.6c0.489,0.85,2.069,0.85,3.54,0
					c1.04-0.47,1.76-1.447,1.899-2.58l0,0L1023.49,634.76z"/>
				<path fill="#BCCCE2" d="M1023.47,637.08c-0.14,1.133-0.859,2.11-1.899,2.58c-1.461,0.85-3,0.85-3.54,0
					c-0.092-0.172-0.137-0.365-0.13-0.561l0,0v1.841c-0.01,0.209,0.038,0.416,0.14,0.6c0.49,0.85,2.07,0.85,3.54,0
					c1.041-0.47,1.765-1.446,1.91-2.58v-1.88H1023.47z"/>
				<path fill="#E08C5C" d="M1017.9,630.43l5.59,2v4.23l0,0c0.013,0.208-0.032,0.416-0.13,0.6c-0.49,0.851-2.07,0.851-3.54,0
					c-1.04-0.47-1.761-1.447-1.9-2.58l0,0L1017.9,630.43z"/>
				<path fill="#BCCCE2" d="M1024,650.85c1.15,2.736,1.826,5.647,2,8.61c0.374-0.406,0.609-0.921,0.67-1.47
					c-0.477-2.403-1.146-4.764-2-7.061L1024,650.85z"/>
				<path fill="#EBA87C" d="M998.65,658c-0.057-0.721,0.018-1.445,0.22-2.14c0.19-0.261,0.89-1,0.89-1l1.141-0.65
					c0.027,0.51-0.287,0.976-0.771,1.14l-0.19,1c0.777,0.464,1.086,1.434,0.721,2.261L998.65,658z"/>
				<path fill="#F8FBFF" d="M995.48,649.84l10.479,1.92c3.576,2.964,5.578,7.418,5.42,12.061l-9.729-1.73
					C1001.49,655,995.48,649.84,995.48,649.84z"/>
				<path fill="#EBA87C" d="M1001.26,654.52l1.9,0.051c0,0-0.12,0.5-0.94,0.609h-0.76l-1,0.561l1.56-0.311l1.561,0.28
					c0,0-0.38,0.63-1.49,0.32l-1.42,0.3l1.42-0.13h1.36c-0.374,0.495-1.033,0.679-1.61,0.45l-1.37,0.31l1.091-0.16l1,0.601
					c-0.381,0.146-0.808,0.113-1.16-0.091l-0.75,0.2c2.13,1.931-0.07,2.141-0.07,2.141c-1.399-0.236-2.343-1.563-2.106-2.962
					c0.002-0.013,0.004-0.025,0.007-0.038c0.069-0.42,1-1.37,1-1.37l0.58-0.28L1001.26,654.52z"/>
				<path fill="#EBA87C" d="M1022.1,636.31L1022.1,636.31c2-0.06,3.69-0.72,3.59-4.159l-0.109-3.83
					c0.027-2.379-1.872-4.332-4.25-4.37l0,0c-2.38,0.17-4.171,2.237-4,4.617c0,0.001,0,0.002,0,0.003l0.09,2.939
					C1017.393,634.126,1019.484,636.271,1022.1,636.31z"/>
				<circle fill="#EBA87C" cx="1017.103" cy="631.583" r="1.43"/>
				<g>
					<path fill="#5333ED" d="M1019.09,623.39c-0.487-0.333-1.045-0.549-1.63-0.63c0.548-0.399,1.155-0.71,1.8-0.92
						c-0.125,0.377-0.212,0.766-0.26,1.16C1019,623.16,1019.08,623.26,1019.09,623.39z"/>
					<path fill="#5333ED" d="M1019.09,623.39c1.76-1.159,7.92,0.95,7.92,4.61c0,0.27-0.13,1.2-0.16,1.46c-2,0.26-5.1-1.47-6.25-2.81
						c-0.34,1.689-1.76,3.43-3.56,3.43c-0.802-0.015-1.576-0.297-2.2-0.8C1014.76,628.87,1018.61,623.71,1019.09,623.39z"/>
				</g>
				<path fill="#BCCCE2" d="M1012.37,652.62v-8.84l-0.601,0.64c0,0-0.109,4.9-0.739,9.72L1012.37,652.62z"/>
			</g>
			<g>
				<path fill="#724C3B" d="M983.439,660.07l0.08-0.11c-0.619,6.771,0.141,14.34,5.681,17.42c-0.045,0.797-0.445,1.53-1.09,2
					c-0.691,0.57-1.638,0.72-2.471,0.39c0,0-10.479-7.869-8.939-20.579c0.756,0.528,1.604,0.911,2.5,1.13
					C980.6,660.729,982.098,660.641,983.439,660.07z"/>
				<path fill="#5333ED" d="M978.311,655.69c0.14-0.421,0.289-0.841,0.459-1.271c0,0,6.78-4.53,6.461-3.31
					c-0.571,2.116-1.025,4.263-1.36,6.43c-0.14,0.93-0.26,1.89-0.351,2.88l-0.069,0.1c-1.204,0.509-2.548,0.583-3.8,0.211
					c-0.799-0.193-1.555-0.532-2.23-1C977.581,658.357,977.88,657.004,978.311,655.69z"/>
				<g>
					<path fill="#DFE9F8" d="M960.9,742.3v-2.14c0-0.926,0.55-1.763,1.399-2.13l0.65-0.28c1.038-0.455,2.248-0.251,3.08,0.52
						c1.681,1.608,3.257,3.322,4.72,5.131c0.76,0.93,1.29,1.659,1.74,2.159c0.56,0.626,0.507,1.587-0.119,2.146
						c-0.083,0.074-0.174,0.14-0.271,0.194l-0.55,0.31c-0.471,0.27-1.049,0.27-1.52,0l-8.591-5
						C961.115,743.021,960.911,742.676,960.9,742.3z"/>
					<path fill="none" stroke="#120667" stroke-width="1.248" stroke-linecap="round" stroke-miterlimit="10" d="M972.16,746.88
						c-0.094,0.423-0.363,0.786-0.74,1l-0.55,0.311c-0.471,0.269-1.05,0.269-1.521,0l-8.239-4.761"/>
					<path fill="#724C3B" d="M961.68,733.37l4.33-1.64l0.051,6.159l0,0c0.18,0.66-0.421,1.58-1.45,2.181
						c-1.03,0.6-2.37,0.659-2.75,0c-0.071-0.136-0.106-0.287-0.101-0.44l0,0L961.68,733.37z"/>
					
						<ellipse transform="matrix(-0.5001 -0.866 0.866 -0.5001 807.2297 1944.713)" fill="#DFE9F8" cx="964.912" cy="739.368" rx="1.12" ry="1.93"/>
					<path fill="none" stroke="#120667" stroke-width="0.3954" stroke-linecap="round" stroke-miterlimit="10" d="M967,738.92
						c-0.498,0.002-0.985,0.141-1.41,0.4c-0.92,0.529-1.42,1.399-1.12,1.93"/>
					<path fill="none" stroke="#120667" stroke-width="0.3954" stroke-linecap="round" stroke-miterlimit="10" d="M968,740.2
						c-0.479,0-0.949,0.132-1.36,0.38c-0.89,0.51-1.37,1.35-1.069,1.86"/>
					<path fill="none" stroke="#120667" stroke-width="0.3954" stroke-linecap="round" stroke-miterlimit="10" d="M969.12,741.52
						c-0.448,0.002-0.888,0.127-1.271,0.36c-0.83,0.48-1.279,1.25-1,1.73"/>
					<path fill="none" stroke="#120667" stroke-width="0.3954" stroke-linecap="round" stroke-miterlimit="10" d="M967.43,739.54
						c-0.479,0-0.949,0.132-1.359,0.38c-0.891,0.51-1.37,1.35-1.07,1.86"/>
					<path fill="none" stroke="#120667" stroke-width="0.3954" stroke-linecap="round" stroke-miterlimit="10" d="M968.57,740.85
						c-0.448,0.002-0.888,0.126-1.271,0.36c-0.83,0.479-1.28,1.25-1,1.729"/>
					
						<line fill="none" stroke="#120667" stroke-width="1.248" stroke-linecap="round" stroke-miterlimit="10" x1="972.93" y1="747.02" x2="971.15" y2="748.05"/>
				</g>
				<g>
					<path fill="#DFE9F8" d="M969.78,736.82v-2.141c0-0.926,0.55-1.763,1.399-2.13l0.65-0.28c1.039-0.454,2.248-0.25,3.08,0.521
						c1.681,1.608,3.257,3.321,4.72,5.13c0.761,0.93,1.29,1.66,1.74,2.16c0.56,0.625,0.507,1.586-0.119,2.146
						c-0.083,0.074-0.174,0.139-0.271,0.193l-0.551,0.311c-0.471,0.269-1.049,0.269-1.52,0l-8.59-5
						C969.995,737.54,969.791,737.196,969.78,736.82z"/>
					<path fill="none" stroke="#120667" stroke-width="1.248" stroke-linecap="round" stroke-miterlimit="10" d="M981,741.4
						c-0.094,0.423-0.363,0.786-0.74,1l-0.55,0.31c-0.471,0.27-1.049,0.27-1.521,0L970,738"/>
					<path fill="#724C3B" d="M970.43,728l4.33-1.64l0.19,6.069l0,0c0.18,0.66-0.42,1.58-1.45,2.181c-1.03,0.6-2.37,0.659-2.75,0
						c-0.071-0.136-0.105-0.287-0.1-0.44l0,0L970.43,728z"/>
					
						<ellipse transform="matrix(-0.4998 -0.8661 0.8661 -0.4998 824.8359 1944.1328)" fill="#DFE9F8" cx="973.792" cy="733.893" rx="1.12" ry="1.929"/>
					<path fill="none" stroke="#120667" stroke-width="0.3954" stroke-linecap="round" stroke-miterlimit="10" d="M975.83,733.44
						c-0.498,0.002-0.985,0.141-1.41,0.399c-0.92,0.53-1.42,1.4-1.12,1.93"/>
					<path fill="none" stroke="#120667" stroke-width="0.3954" stroke-linecap="round" stroke-miterlimit="10" d="M976.86,734.72
						c-0.479,0.001-0.95,0.132-1.36,0.38c-0.89,0.511-1.37,1.351-1.07,1.86"/>
					<path fill="none" stroke="#120667" stroke-width="0.3954" stroke-linecap="round" stroke-miterlimit="10" d="M978,736
						c-0.448,0.002-0.888,0.126-1.27,0.36c-0.83,0.479-1.28,1.25-1,1.729"/>
					<path fill="none" stroke="#120667" stroke-width="0.3954" stroke-linecap="round" stroke-miterlimit="10" d="M976.311,734.06
						c-0.48,0.001-0.95,0.132-1.36,0.381c-0.89,0.51-1.37,1.35-1.07,1.859"/>
					<path fill="none" stroke="#120667" stroke-width="0.3954" stroke-linecap="round" stroke-miterlimit="10" d="M977.45,735.37
						c-0.448,0.001-0.888,0.126-1.271,0.36c-0.83,0.479-1.279,1.25-1,1.729"/>
					
						<line fill="none" stroke="#120667" stroke-width="1.248" stroke-linecap="round" stroke-miterlimit="10" x1="981.811" y1="741.54" x2="980.03" y2="742.57"/>
				</g>
				<path fill="#5333ED" d="M969.77,729.71l-0.06-1.15c0.097-1.18,0.791-2.229,1.84-2.779c1.48-1,3.141-1.061,3.7-0.21
					c0.158,0.264,0.215,0.576,0.16,0.88l0,0l0.06,1.1l0,0c-0.128,1.154-0.816,2.171-1.84,2.72c-1.479,1-3.14,1.061-3.7,0.21
					c-0.075-0.122-0.126-0.258-0.149-0.399l0,0V730C969.767,729.904,969.764,729.807,969.77,729.71z"/>
				<path fill="#5333ED" d="M960.939,734.28L960.939,734.28c0.103-1.177,0.796-2.22,1.841-2.771c1.479-1,3.14-1.06,3.7-0.21
					c0.134,0.216,0.196,0.467,0.18,0.72l0,0l0.07,1.181l0,0c-0.087,1.187-0.778,2.244-1.83,2.8c-1.48,1-3.141,1.06-3.7,0.21
					c-0.1-0.16-0.157-0.342-0.17-0.53l0,0L960.939,734.28z"/>
				<path fill="#2CD4D9" d="M960.061,712.58c-0.24-5-0.681-16.92-0.61-18.83c0.11-3.11,0.52-10.61,1.28-13.68V680
					c0.119-2.8,2.489-6.26,6.279-8.74c5-3.29,10-3.069,12.53-0.7c1.49,1.391-1.43,18.48-2.26,33.5
					c-0.681,12.311-2.24,18.921-2.42,21.391c0.489,0.74-0.16,2-1.45,2.87s-2.73,0.92-3.21,0.18c-0.071-0.113-0.118-0.238-0.14-0.37
					l0,0v-0.06c-0.012-0.1-0.012-0.2,0-0.301c-0.36-8.13-0.36-31.77-0.36-31.77s-3.92,32.93-3.47,35.36l0,0
					c0.239,0.76-0.391,1.87-1.551,2.63c-1.159,0.76-2.729,0.92-3.21,0.18c-0.101-0.162-0.152-0.35-0.149-0.54l0,0
					C961.32,733.63,960.3,717.58,960.061,712.58z"/>
				<path fill="#013F07" d="M955.4,663.56c1.141-3.481,2.646-6.833,4.489-10l0.091-0.13l0.149-0.199l0,0
					c1.503-1.694,3.342-3.057,5.4-4c2.88-1.36,7.569-3.891,10.77-5.061c0.894-0.301,1.814-0.508,2.75-0.62
					c3.436-0.039,6.251,2.714,6.29,6.149c0.009,0.715-0.106,1.425-0.34,2.101c0,0-4.9,7.7-5.39,10.65c-0.061,0.33,0,3,0.09,4.8
					c0.31,3.59,1.16,6.47-5.41,9C969.71,678,965,677.81,964,676c-0.182-0.343-0.301-0.715-0.35-1.1c-0.105-1.729-0.105-3.462,0-5.19
					c0.069-0.764-0.062-1.532-0.381-2.229l-1.39-2.75l-0.12-0.24c-0.149,0.359-0.27,0.71-0.399,1.06
					c-0.827,0.625-1.845,0.943-2.88,0.9c-1.811,0-3.271-0.8-3.42-1.82C955.18,664.257,955.293,663.9,955.4,663.56z"/>
				<circle fill="#150773" cx="973.9" cy="637.977" r="3.07"/>
				<g>
					
						<ellipse transform="matrix(-0.8661 -0.4999 0.4999 -0.8661 1487.4917 1697.9846)" fill="#EBA87C" cx="971.179" cy="649.753" rx="3.06" ry="1.77"/>
					<polygon fill="#5B3427" points="973.98,650.7 973.98,646.47 968.38,644.51 968.38,648.71 					"/>
					
						<ellipse transform="matrix(-0.8661 -0.4999 0.4999 -0.8661 1487.4917 1697.9846)" fill="#5B3427" cx="971.179" cy="649.753" rx="3.06" ry="1.77"/>
					<path fill="#724C3B" d="M968.38,641.07l5.59,2v4.229l0,0c0.013,0.208-0.032,0.416-0.13,0.601c-0.49,0.85-2.07,0.85-3.54,0
						c-1.04-0.47-1.76-1.448-1.899-2.58l0,0L968.38,641.07z"/>
				</g>
				<path fill="#724C3B" d="M975.08,646.56c-0.69,1.2-2.94,1.2-5,0c-1.262-0.636-2.219-1.747-2.66-3.09c0-0.2,0.48-0.27,0.5-0.46
					c-0.06-0.283-0.176-0.552-0.34-0.79c0.689-1.2,2.939-1.2,5,0C974.64,643.42,975.77,645.36,975.08,646.56z"/>
				<path fill="#724C3B" d="M967.4,637.95l7.88-1.45c1.026,3.242,0.978,6.729-0.141,9.94L967.9,643L967.4,637.95z"/>
				<circle fill="#724C3B" cx="969.58" cy="638.69" r="1.08"/>
				<path fill="#150773" d="M966.27,640.35c0-0.13-0.31-2.27,0.291-3.189c0.448-0.547,1.182-0.771,1.859-0.57c0,0,0.78-2,2.47-1.49
					c0.108-0.371,0.3-0.713,0.561-1c-0.186-0.175-0.314-0.401-0.37-0.649c-0.072-0.537,0.229-1.056,0.729-1.261
					c0.333-0.165,0.719-0.19,1.07-0.069c0.275,0.103,0.501,0.307,0.63,0.569c0,0,0,0,0.07,0c0.518-0.043,0.983,0.317,1.07,0.83
					c0,0,0,0.08,0,0.12c0.687,0.385,1.153,1.07,1.26,1.851c0.177,1.402-0.817,2.683-2.22,2.859c0,0,0,0-0.001,0
					c-0.595,0.065-1.193-0.083-1.689-0.42V638c0,0-1.07-0.81-1.79-0.25c-0.522,0.389-0.632,1.128-0.243,1.651
					c0.023,0.03,0.047,0.061,0.073,0.089c0.038,0.128,0.068,0.258,0.09,0.39c0.136,1.063-0.616,2.034-1.679,2.17h-0.001h-0.09
					c0.12,0.17,0.76,1.11,0.399,1.61l-0.64,0.18c0.003-0.588-0.42-1.092-1-1.189c-0.122-0.022-0.249-0.005-0.36,0.05
					C966.447,641.955,966.281,641.157,966.27,640.35z"/>
				<path fill="#724C3B" d="M966.189,642.29c0.031,0.716,0.403,1.374,1,1.77c0.561,0.33,1,0.08,1-0.569
					c-0.03-0.716-0.402-1.374-1-1.771C966.66,641.39,966.2,641.65,966.189,642.29z"/>
				<path fill="#5333ED" d="M968.4,646.83c0.14,1.133,0.859,2.11,1.899,2.58c1.46,0.85,3,0.85,3.54,0
					c0.092-0.172,0.137-0.365,0.13-0.561l0,0v1.841c0.01,0.209-0.038,0.416-0.14,0.6c-0.49,0.85-2.07,0.85-3.54,0
					c-1.042-0.47-1.765-1.446-1.91-2.58v-1.88H968.4z"/>
				<path fill="#724C3B" d="M955.09,664.58c0.15,1,1.61,1.82,3.42,1.82c1.035,0.043,2.054-0.275,2.88-0.9
					c-4.84,13.45,6.37,17.17,14.74,16.93c0.646,0.011,1.161,0.544,1.15,1.189c-0.002,0.109-0.019,0.217-0.05,0.321l-3,0.909
					C957.16,687.07,951.84,675.49,955.09,664.58z"/>
			</g>
			<g>
				<polygon fill="#43414E" points="972.28,687.62 980.7,692.46 986.2,679.64 				"/>
				<polygon fill="#6E7075" points="980.58,692.75 972.2,687.89 972.28,687.62 980.7,692.46 				"/>
				<polygon fill="#6E7075" points="980.05,690.51 979,691.12 980.05,691.72 981.09,691.12 				"/>
				<polygon fill="#6E7075" points="981.39,689.73 980.35,690.33 981.39,690.93 982.439,690.33 				"/>
				<polygon fill="#6E7075" points="979.46,689.31 978.42,689.91 979.46,690.51 980.51,689.91 				"/>
				<polygon fill="#6E7075" points="980.811,688.52 979.76,689.12 980.811,689.73 981.85,689.12 				"/>
				<polygon fill="#6E7075" points="977.37,688.98 976.33,689.58 977.37,690.18 978.42,689.58 				"/>
				<polygon fill="#6E7075" points="978.72,688.19 977.67,688.79 978.72,689.4 979.76,688.79 				"/>
				<polygon fill="#6E7075" points="980.05,687.41 979,688.01 980.05,688.62 981.09,688.01 				"/>
				<polygon fill="#6E7075" points="981.39,686.62 980.35,687.22 981.39,687.83 982.439,687.22 				"/>
				<polygon fill="#6E7075" points="976.83,687.75 975.78,688.36 976.83,688.96 977.87,688.36 				"/>
				<polygon fill="#6E7075" points="978.17,686.97 977.13,687.57 978.17,688.17 979.22,687.57 				"/>
				<polygon fill="#6E7075" points="979.5,686.18 978.46,686.79 979.5,687.39 980.55,686.79 				"/>
				<polygon fill="#6E7075" points="980.85,685.4 979.8,686 980.85,686.6 981.89,686 				"/>
				<path fill="#724C3B" d="M984.061,685.49c0,0-2.841-2.13-3-2.25c-0.16-0.12-1.65-0.62-2.95-1.08
					c-1.261-0.461-2.675-0.153-3.63,0.79c-0.279,0.302-0.279,0.768,0,1.069c0.899,0.92,1.5,0.891,4.13,2.28l1.35,1.311
					c0.099,0.553,0.425,1.039,0.9,1.34l-0.19-1.48l-1.52-1.88l2.26,1.67c0.409,0.783,1.189,1.304,2.07,1.38l-1.291-1.779
					l-1.729-1.57l1.94,1.3c0.204,0.806,0.814,1.446,1.609,1.69L983,686l-1.86-1.6l2.521,1.739c0,0,0.609,1.061,1.54,0.94
					L984.061,685.49z"/>
				<g>
					<polygon fill="#6E7075" points="980.561,692.75 981.92,678.38 997.811,669.44 996.46,683.81 					"/>
					<path fill="#FFFFFF" d="M988.76,681.05c0.012,0.231,0.209,0.41,0.441,0.398c0.115-0.006,0.224-0.06,0.299-0.148
						c0.344-0.335,0.507-0.814,0.439-1.29c-0.013-0.187-0.14-0.346-0.319-0.399c0.38-0.11,0.71,0.12,0.81,0.64
						c0.11,0.77-0.153,1.546-0.71,2.09c-0.53,0.46-1.069,0.28-1.21-0.41c-0.076-0.543,0.032-1.097,0.311-1.569
						C988.742,680.581,988.722,680.818,988.76,681.05z"/>
				</g>
			</g>
		</g>
		<g>
			<polygon fill="none" stroke="#AAAAAA" stroke-width="0.5257" stroke-miterlimit="10" points="891.72,368.56 887.37,368.56 
				885.2,372.31 887.37,376.05 891.72,376.05 893.89,372.31 			"/>
			<polygon fill="none" stroke="#AAAAAA" stroke-width="1.0454" stroke-miterlimit="10" points="966.55,310.97 957.9,310.97 
				953.58,318.41 957.9,325.86 966.55,325.86 970.87,318.41 			"/>
			<polygon fill="none" stroke="#AAAAAA" stroke-width="0.392" stroke-miterlimit="10" points="1000.48,387.59 997.24,387.59 
				995.62,390.38 997.24,393.17 1000.48,393.17 1002.1,390.38 			"/>
			<polygon fill="none" stroke="#AAAAAA" stroke-width="0.392" stroke-miterlimit="10" points="1038.97,387.59 1035.73,387.59 
				1034.11,390.38 1035.73,393.17 1038.97,393.17 1040.59,390.38 			"/>
			<polygon fill="none" stroke="#AAAAAA" stroke-width="0.392" stroke-miterlimit="10" points="998.96,503 995.72,503 994.1,505.8 
				995.72,508.59 998.96,508.59 1000.58,505.8 			"/>
			<polygon fill="none" stroke="#AAAAAA" stroke-width="1.0758" stroke-miterlimit="10" points="885.1,498.94 876.2,498.94 
				871.75,506.61 876.2,514.26 885.1,514.26 889.54,506.61 			"/>
			<polygon fill="none" stroke="#AAAAAA" stroke-width="0.4355" stroke-miterlimit="10" points="900.09,448.75 896.49,448.75 
				894.689,451.85 896.49,454.95 900.09,454.95 901.89,451.85 			"/>
			<polygon fill="none" stroke="#AAAAAA" stroke-width="0.4355" stroke-miterlimit="10" points="817.71,468.55 814.11,468.55 
				812.311,471.65 814.11,474.75 817.71,474.75 819.51,471.65 			"/>
			<polygon fill="none" stroke="#AAAAAA" stroke-width="0.3266" stroke-miterlimit="10" points="816.89,395.1 814.18,395.1 
				812.83,397.43 814.18,399.75 816.89,399.75 818.24,397.43 			"/>
			<polygon fill="none" stroke="#AAAAAA" stroke-width="0.3266" stroke-miterlimit="10" points="882.74,316.61 880.03,316.61 
				878.68,318.94 880.03,321.26 882.74,321.26 884.09,318.94 			"/>
			<polygon fill="none" stroke="#AAAAAA" stroke-width="0.3266" stroke-miterlimit="10" points="923.27,254.71 920.57,254.71 
				919.21,257.03 920.57,259.36 923.27,259.36 924.62,257.03 			"/>
			<polygon fill="none" stroke="#AAAAAA" stroke-width="0.3266" stroke-miterlimit="10" points="841.561,299.52 838.86,299.52 
				837.51,301.85 838.86,304.17 841.561,304.17 842.91,301.85 			"/>
			<polygon fill="none" stroke="#AAAAAA" stroke-width="0.3266" stroke-miterlimit="10" points="788.37,491.63 785.67,491.63 
				784.32,493.96 785.67,496.29 788.37,496.29 789.72,493.96 			"/>
			<polygon fill="none" stroke="#AAAAAA" stroke-width="0.3266" stroke-miterlimit="10" points="809.46,539.45 806.76,539.45 
				805.41,541.78 806.76,544.1 809.46,544.1 810.811,541.78 			"/>
			<polygon fill="none" stroke="#AAAAAA" stroke-width="0.3266" stroke-miterlimit="10" points="846.37,576.01 843.67,576.01 
				842.32,578.34 843.67,580.66 846.37,580.66 847.72,578.34 			"/>
			<polygon fill="none" stroke="#AAAAAA" stroke-width="0.3266" stroke-miterlimit="10" points="900.15,616.89 897.45,616.89 
				896.1,619.22 897.45,621.54 900.15,621.54 901.5,619.22 			"/>
			<polygon fill="none" stroke="#AAAAAA" stroke-width="0.3266" stroke-miterlimit="10" points="939.17,629.47 936.47,629.47 
				935.12,631.79 936.47,634.12 939.17,634.12 940.52,631.79 			"/>
			<polygon fill="none" stroke="#AAAAAA" stroke-width="0.3266" stroke-miterlimit="10" points="1009.88,625.87 1007.18,625.87 
				1005.83,628.19 1007.18,630.51 1009.88,630.51 1011.24,628.19 			"/>
			<polygon fill="none" stroke="#AAAAAA" stroke-width="0.3266" stroke-miterlimit="10" points="1071.99,607.98 1069.29,607.98 
				1067.939,610.3 1069.29,612.63 1071.99,612.63 1073.35,610.3 			"/>
			<polygon fill="none" stroke="#AAAAAA" stroke-width="0.3266" stroke-miterlimit="10" points="1125.32,563.29 1122.62,563.29 
				1121.27,565.61 1122.62,567.94 1125.32,567.94 1126.67,565.61 			"/>
			<polygon fill="none" stroke="#AAAAAA" stroke-width="0.3266" stroke-miterlimit="10" points="1167.05,479.63 1164.35,479.63 
				1163,481.96 1164.35,484.29 1167.05,484.29 1168.4,481.96 			"/>
			<polygon fill="none" stroke="#AAAAAA" stroke-width="0.3266" stroke-miterlimit="10" points="1164.35,385.27 1161.64,385.27 
				1160.3,387.59 1161.64,389.92 1164.35,389.92 1165.7,387.59 			"/>
			<polygon fill="none" stroke="#AAAAAA" stroke-width="0.3266" stroke-miterlimit="10" points="1200.72,293.08 1198.02,293.08 
				1196.67,295.41 1198.02,297.73 1200.72,297.73 1202.07,295.41 			"/>
			<polygon fill="none" stroke="#AAAAAA" stroke-width="0.3266" stroke-miterlimit="10" points="1082,278.8 1079.3,278.8 
				1077.95,281.12 1079.3,283.45 1082,283.45 1083.36,281.12 			"/>
			<polygon fill="none" stroke="#AAAAAA" stroke-width="0.3266" stroke-miterlimit="10" points="1029.76,299.66 1027.061,299.66 
				1025.71,301.98 1027.061,304.31 1029.76,304.31 1031.11,301.98 			"/>
			<polygon fill="none" stroke="#AAAAAA" stroke-width="0.6532" stroke-miterlimit="10" points="994,248.48 988.6,248.48 
				985.9,253.13 988.6,257.79 994,257.79 996.71,253.13 			"/>
			<polygon fill="none" stroke="#AAAAAA" stroke-width="0.3266" stroke-miterlimit="10" points="1087.3,408.21 1084.6,408.21 
				1083.24,410.53 1084.6,412.86 1087.3,412.86 1088.65,410.53 			"/>
			<polygon fill="none" stroke="#AAAAAA" stroke-width="0.3266" stroke-miterlimit="10" points="1087.3,423.94 1084.6,423.94 
				1083.24,426.26 1084.6,428.59 1087.3,428.59 1088.65,426.26 			"/>
			<polygon fill="none" stroke="#AAAAAA" stroke-width="0.579" stroke-miterlimit="10" points="942.65,514.26 937.86,514.26 
				935.46,518.39 937.86,522.51 942.65,522.51 945.04,518.39 			"/>
			<polygon fill="none" stroke="#AAAAAA" stroke-width="0.3266" stroke-miterlimit="10" points="803.67,348.7 800.97,348.7 
				799.62,351.03 800.97,353.35 803.67,353.35 805.02,351.03 			"/>
			<polyline fill="none" stroke="#AAAAAA" stroke-width="0.86" stroke-miterlimit="10" points="1095.36,625.81 1095.36,624.04 
				1093.59,624.04 			"/>
			<polyline fill="none" stroke="#AAAAAA" stroke-width="0.86" stroke-miterlimit="10" points="1093.59,629.02 1095.36,629.02 
				1095.36,627.25 			"/>
			<polyline fill="none" stroke="#AAAAAA" stroke-width="0.86" stroke-miterlimit="10" points="1090.37,625.81 1090.37,624.04 
				1092.14,624.04 			"/>
			<polyline fill="none" stroke="#AAAAAA" stroke-width="0.86" stroke-miterlimit="10" points="1090.37,627.25 1090.37,629.02 
				1092.14,629.02 			"/>
			<polyline fill="none" stroke="#AAAAAA" stroke-width="0.86" stroke-miterlimit="10" points="910.45,382.42 910.45,380.65 
				908.68,380.65 			"/>
			<polyline fill="none" stroke="#AAAAAA" stroke-width="0.86" stroke-miterlimit="10" points="908.68,385.64 910.45,385.64 
				910.45,383.87 			"/>
			<polyline fill="none" stroke="#AAAAAA" stroke-width="0.86" stroke-miterlimit="10" points="905.47,382.42 905.47,380.65 
				907.24,380.65 			"/>
			<polyline fill="none" stroke="#AAAAAA" stroke-width="0.86" stroke-miterlimit="10" points="905.47,383.87 905.47,385.64 
				907.24,385.64 			"/>
		</g>
		<path opacity="0.4" fill="none" stroke="#AAAAAA" stroke-width="0.344" stroke-miterlimit="10" enable-background="new    " d="
			M441.47-5.68c0,253.31,205,458.291,458.29,458.291"/>
		
			<rect x="862.017" y="209.853" transform="matrix(-0.707 -0.7072 0.7072 -0.707 1324.7371 971.8112)" fill="none" stroke="#AAAAAA" stroke-width="0.86" stroke-miterlimit="10" width="3.3" height="3.3"/>
		
			<rect x="1181.085" y="632.978" transform="matrix(-0.707 -0.7073 0.7073 -0.707 1570.0372 1919.7781)" fill="none" stroke="#AAAAAA" stroke-width="0.86" stroke-miterlimit="10" width="3.3" height="3.299"/>
		
			<rect x="1138.084" y="443.778" transform="matrix(-0.707 -0.7073 0.7073 -0.707 1630.4491 1566.4086)" fill="none" stroke="#AAAAAA" stroke-width="0.86" stroke-miterlimit="10" width="3.3" height="3.299"/>
		
			<rect x="742.475" y="543.54" transform="matrix(-0.7071 -0.7071 0.7071 -0.7071 884.7933 1456.8733)" fill="none" stroke="#AAAAAA" stroke-width="0.86" stroke-miterlimit="10" width="3.299" height="3.3"/>
	</g>
</g>
</svg>
