<?xml version="1.0" encoding="utf-8"?>
<!-- Generator: Adobe Illustrator 16.0.0, SVG Export Plug-In . SVG Version: 6.00 Build 0)  -->
<!DOCTYPE svg PUBLIC "-//W3C//DTD SVG 1.1//EN" "http://www.w3.org/Graphics/SVG/1.1/DTD/svg11.dtd">
<svg version="1.1" id="OBJECTS" xmlns="http://www.w3.org/2000/svg" xmlns:xlink="http://www.w3.org/1999/xlink" x="0px" y="0px"
	 width="750px" height="500px" viewBox="0 0 750 500" enable-background="new 0 0 750 500" xml:space="preserve">
<g>
	<g>
		<g>
			<path fill="#39B982" d="M528.608,246.382c0,2.127-1.729,3.857-3.855,3.857c-2.128,0-3.858-1.73-3.858-3.857
				s1.73-3.857,3.858-3.857C526.879,242.524,528.608,244.255,528.608,246.382z M526.697,246.382c0-1.073-0.872-1.946-1.944-1.946
				c-1.074,0-1.947,0.873-1.947,1.946c0,1.073,0.873,1.946,1.947,1.946C525.825,248.328,526.697,247.455,526.697,246.382z"/>
			<g>
				<path fill="#39B982" d="M593.452,105.148h-21.847c-0.528,0-0.956,0.428-0.956,0.956s0.428,0.956,0.956,0.956h21.847
					c0.528,0,0.956-0.428,0.956-0.956S593.98,105.148,593.452,105.148z"/>
				<path fill="#39B982" d="M564.652,105.145h-4.269c-0.528,0-0.956,0.428-0.956,0.956s0.428,0.956,0.956,0.956h4.269
					c0.527,0,0.956-0.428,0.956-0.956S565.18,105.145,564.652,105.145z"/>
				<path fill="#39B982" d="M583.188,112.76c0,0.528-0.428,0.956-0.955,0.956H579.5c-0.528,0-0.956-0.428-0.956-0.956
					s0.428-0.956,0.956-0.956h2.732C582.76,111.804,583.188,112.232,583.188,112.76z M575.677,112.76
					c0,0.528-0.428,0.956-0.956,0.956h-4.778c-0.528,0-0.956-0.428-0.956-0.956s0.428-0.956,0.956-0.956h4.778
					C575.249,111.804,575.677,112.232,575.677,112.76z M566.119,112.76c0,0.528-0.428,0.956-0.955,0.956h-4.779
					c-0.527,0-0.955-0.428-0.955-0.956s0.428-0.956,0.955-0.956h4.779C565.691,111.804,566.119,112.232,566.119,112.76z"/>
			</g>
			<g>
				<path fill="#39B982" d="M239.001,169.041c-0.527,0-0.956,0.428-0.956,0.956v2.217c0,0.528,0.429,0.956,0.956,0.956
					c0.528,0,0.956-0.428,0.956-0.956v-2.217C239.957,169.468,239.529,169.041,239.001,169.041z"/>
				<path fill="#39B982" d="M236.5,166.816h-2.218c-0.527,0-0.955,0.428-0.955,0.956s0.428,0.956,0.955,0.956h2.218
					c0.527,0,0.955-0.428,0.955-0.956S237.027,166.816,236.5,166.816z"/>
				<path fill="#39B982" d="M239.001,162.224c-0.527,0-0.956,0.428-0.956,0.956v2.216c0,0.527,0.429,0.956,0.956,0.956
					c0.528,0,0.956-0.428,0.956-0.956v-2.216C239.957,162.651,239.529,162.224,239.001,162.224z"/>
				<path fill="#39B982" d="M243.72,166.664h-2.218c-0.527,0-0.955,0.428-0.955,0.956c0,0.528,0.428,0.956,0.955,0.956h2.218
					c0.528,0,0.956-0.428,0.956-0.956C244.676,167.092,244.248,166.664,243.72,166.664z"/>
			</g>
			<g>
				<path fill="#39B982" d="M479.402,107.076c-0.528,0-0.956,0.428-0.956,0.956v2.217c0,0.528,0.428,0.956,0.956,0.956
					c0.527,0,0.955-0.428,0.955-0.956v-2.217C480.357,107.504,479.93,107.076,479.402,107.076z"/>
				<path fill="#39B982" d="M476.9,104.852h-2.217c-0.527,0-0.956,0.428-0.956,0.956s0.429,0.956,0.956,0.956h2.217
					c0.528,0,0.956-0.428,0.956-0.956S477.429,104.852,476.9,104.852z"/>
				<path fill="#39B982" d="M479.402,100.259c-0.528,0-0.956,0.428-0.956,0.956v2.216c0,0.528,0.428,0.956,0.956,0.956
					c0.527,0,0.955-0.428,0.955-0.956v-2.216C480.357,100.687,479.93,100.259,479.402,100.259z"/>
				<path fill="#39B982" d="M484.121,104.7h-2.218c-0.527,0-0.956,0.428-0.956,0.956c0,0.528,0.429,0.956,0.956,0.956h2.218
					c0.527,0,0.955-0.428,0.955-0.956C485.076,105.128,484.648,104.7,484.121,104.7z"/>
			</g>
			<g>
				<path fill="#39B982" d="M390.296,59.604h-21.847c-0.527,0-0.955,0.428-0.955,0.956s0.428,0.956,0.955,0.956h21.847
					c0.528,0,0.956-0.428,0.956-0.956S390.824,59.604,390.296,59.604z"/>
				<path fill="#39B982" d="M361.496,59.6h-4.269c-0.528,0-0.956,0.428-0.956,0.956s0.428,0.956,0.956,0.956h4.269
					c0.528,0,0.956-0.428,0.956-0.956S362.024,59.6,361.496,59.6z"/>
				<path fill="#39B982" d="M380.032,67.216c0,0.528-0.429,0.956-0.956,0.956h-2.732c-0.528,0-0.956-0.428-0.956-0.956
					s0.428-0.956,0.956-0.956h2.732C379.604,66.26,380.032,66.688,380.032,67.216z M372.521,67.216c0,0.528-0.428,0.956-0.955,0.956
					h-4.779c-0.527,0-0.956-0.428-0.956-0.956s0.429-0.956,0.956-0.956h4.779C372.093,66.26,372.521,66.688,372.521,67.216z
					 M362.963,67.216c0,0.528-0.428,0.956-0.955,0.956h-4.778c-0.528,0-0.956-0.428-0.956-0.956s0.428-0.956,0.956-0.956h4.778
					C362.535,66.26,362.963,66.688,362.963,67.216z"/>
			</g>
			<circle fill="#39B982" cx="628.502" cy="159.734" r="3.375"/>
			<g>
				<path fill="#39B982" d="M182.702,325.093h21.847c0.527,0,0.956-0.428,0.956-0.955c0-0.528-0.429-0.956-0.956-0.956h-21.847
					c-0.528,0-0.956,0.428-0.956,0.956C181.746,324.665,182.174,325.093,182.702,325.093z"/>
				<path fill="#39B982" d="M171.479,325.097h4.27c0.527,0,0.955-0.428,0.955-0.955c0-0.528-0.428-0.956-0.955-0.956h-4.27
					c-0.527,0-0.955,0.428-0.955,0.956C170.524,324.669,170.952,325.097,171.479,325.097z"/>
			</g>
			<path fill="#39B982" d="M595.508,340.636c0,0,1.305,9.31-9.569,9.095c0,0,9.341,0.096,9.096,8.832c0,0,0.84-6.872,9.411-8.408
				C604.445,350.154,597.202,351.816,595.508,340.636z"/>
			<path fill="#39B982" d="M647.427,209.323c0,0,1.305,9.31-9.57,9.095c0,0,9.342,0.095,9.096,8.831c0,0,0.841-6.872,9.412-8.407
				C656.364,218.842,649.121,220.503,647.427,209.323z"/>
			<path fill="#39B982" d="M302.521,83.28c0,0,1.305,9.309-9.569,9.094c0,0,9.341,0.096,9.096,8.831c0,0,0.84-6.872,9.412-8.407
				C311.46,92.798,304.216,94.46,302.521,83.28z"/>
			<path fill="#39B982" d="M208.909,108.991c0,0,1.305,9.309-9.569,9.094c0,0,9.341,0.096,9.096,8.832c0,0,0.84-6.872,9.412-8.408
				C217.848,118.509,210.604,120.171,208.909,108.991z"/>
			<path fill="#39B982" d="M265.649,69.2c0,0,0.454,3.245-3.335,3.17c0,0,3.256,0.033,3.169,3.079c0,0,0.293-2.396,3.28-2.932
				C268.764,72.517,266.239,73.096,265.649,69.2z"/>
			<path fill="#39B982" d="M435.94,181.07c0,0,0.454,3.245-3.335,3.17c0,0,3.256,0.033,3.169,3.078c0,0,0.293-2.396,3.28-2.931
				C439.055,184.387,436.53,184.966,435.94,181.07z"/>
			<path fill="#39B982" d="M120.417,236.533c0,0,0.454,3.245-3.335,3.17c0,0,3.256,0.033,3.169,3.079c0,0,0.293-2.396,3.28-2.931
				C123.531,239.851,121.007,240.429,120.417,236.533z"/>
			<path fill="#39B982" d="M403.563,324.014c0,0,0.454,3.244-3.336,3.17c0,0,3.257,0.033,3.17,3.078c0,0,0.293-2.396,3.28-2.931
				C406.677,327.331,404.152,327.91,403.563,324.014z"/>
			<g>
				<path fill="#39B982" d="M274.719,271.714h-21.213c-2.714,0-4.922-2.207-4.922-4.921c0-2.66,2.123-4.836,4.765-4.919
					c0.069-4.141,3.46-7.487,7.616-7.487c2.58,0,4.979,1.313,6.379,3.458c2.859-0.408,5.411,1.39,6.135,4.026h1.24
					c2.714,0,4.922,2.209,4.922,4.922C279.641,269.507,277.433,271.714,274.719,271.714z M253.506,263.328
					c-1.911,0-3.466,1.555-3.466,3.465c0,1.911,1.555,3.465,3.466,3.465h21.213c1.911,0,3.465-1.554,3.465-3.465
					c0-1.91-1.554-3.465-3.465-3.465h-2.448l-0.098-0.614c-0.368-2.317-2.567-3.938-5.021-3.353l-0.536,0.129l-0.269-0.481
					c-1.09-1.953-3.152-3.166-5.383-3.166c-3.397,0-6.161,2.765-6.161,6.161c0,0.181,0.013,0.357,0.027,0.533l0.067,0.791H253.506z"
					/>
			</g>
			<g>
				<path fill="#39B982" d="M653.158,92.188h-21.213c-2.714,0-4.922-2.208-4.922-4.921c0-2.661,2.124-4.836,4.765-4.919
					c0.07-4.14,3.46-7.487,7.616-7.487c2.58,0,4.979,1.312,6.379,3.458c2.857-0.408,5.411,1.39,6.135,4.027h1.24
					c2.714,0,4.922,2.208,4.922,4.922S655.872,92.188,653.158,92.188z M631.945,83.802c-1.911,0-3.465,1.555-3.465,3.465
					s1.554,3.465,3.465,3.465h21.213c1.911,0,3.466-1.554,3.466-3.465s-1.555-3.465-3.466-3.465h-2.448l-0.097-0.614
					c-0.369-2.317-2.57-3.936-5.021-3.352l-0.536,0.128l-0.269-0.481c-1.09-1.953-3.152-3.166-5.383-3.166
					c-3.397,0-6.161,2.764-6.161,6.162c0,0.18,0.013,0.357,0.027,0.533l0.067,0.791H631.945z"/>
			</g>
			<g>
				<path fill="#39B982" d="M324.692,146.35h-21.213c-2.714,0-4.922-2.208-4.922-4.921c0-2.662,2.123-4.836,4.765-4.919
					c0.07-4.14,3.459-7.487,7.616-7.487c2.58,0,4.978,1.312,6.379,3.458c2.857-0.408,5.411,1.39,6.135,4.027h1.24
					c2.714,0,4.922,2.208,4.922,4.921S327.406,146.35,324.692,146.35z M303.479,137.964c-1.911,0-3.466,1.555-3.466,3.465
					s1.555,3.465,3.466,3.465h21.213c1.911,0,3.465-1.554,3.465-3.465s-1.554-3.465-3.465-3.465h-2.448l-0.098-0.614
					c-0.368-2.317-2.569-3.936-5.021-3.352l-0.536,0.128l-0.269-0.481c-1.09-1.954-3.152-3.167-5.383-3.167
					c-3.397,0-6.161,2.764-6.161,6.162c0,0.18,0.012,0.357,0.027,0.533l0.067,0.791H303.479z"/>
			</g>
		</g>
		<g>
			<g>
				<path fill="#39B982" d="M391.131,418.291L391.131,418.291c-9.111,2.578-18.587-2.718-21.165-11.829l-13.603-48.076
					c-2.578-9.11,2.718-18.587,11.829-21.164l0,0c9.11-2.578,18.587,2.718,21.164,11.829l13.604,48.076
					C405.537,406.237,400.241,415.713,391.131,418.291z"/>
				<path fill="#39B982" d="M371.716,417.886L371.716,417.886c-6.76-6.63-6.865-17.485-0.235-24.245l34.985-35.671
					c6.63-6.76,17.485-6.865,24.245-0.235l0,0c6.76,6.63,6.865,17.485,0.235,24.245l-34.985,35.671
					C389.331,424.41,378.477,424.516,371.716,417.886z"/>
				<g>
					<circle fill="#FF8383" cx="428.833" cy="357.708" r="15.022"/>
					<path fill="#FF8383" d="M418.771,355.54L418.771,355.54c-2.094,0.539-4.229-0.721-4.768-2.814l-1.332-5.17
						c-0.539-2.093,0.721-4.228,2.814-4.767l0,0c2.094-0.54,4.229,0.721,4.768,2.814l1.331,5.169
						C422.125,352.866,420.864,355,418.771,355.54z"/>
					<path fill="#FF8383" d="M433.839,337.742l-5.323,13.475c-0.824,2.088-3.185,3.111-5.271,2.287l0,0
						c-2.088-0.825-3.111-3.186-2.287-5.272l5.322-13.476c0.825-2.087,3.186-3.11,5.273-2.286l0,0
						C433.64,333.294,434.663,335.654,433.839,337.742z"/>
					<path fill="#FF8383" d="M443.219,340.566l-6.428,12.983c-0.995,2.012-3.433,2.835-5.444,1.84l0,0
						c-2.012-0.996-2.835-3.434-1.839-5.445l6.428-12.984c0.996-2.011,3.434-2.834,5.444-1.839l0,0
						C443.392,336.117,444.215,338.555,443.219,340.566z"/>
					<path fill="#FF8383" d="M450.197,347.796l-8.977,11.372c-1.391,1.762-3.945,2.063-5.707,0.672l0,0
						c-1.762-1.391-2.063-3.946-0.672-5.707l8.977-11.372c1.391-1.762,3.945-2.063,5.707-0.672l0,0
						C451.287,343.479,451.588,346.034,450.197,347.796z"/>
				</g>
			</g>
			<g>
				<g>
					<path fill="#FF8383" d="M354.017,320.366l-5.829-0.229c-3.917-0.154-6.967-3.454-6.813-7.371l1.219-30.977l20.014,0.787
						l-1.219,30.977C361.233,317.47,357.934,320.521,354.017,320.366z"/>
					<path fill="#D15E79" d="M362.606,281.487l-20.014-0.787l-0.31,7.86c-0.303,7.703,5.968,14.464,13.656,13.904
						c0.479-0.034,0.958-0.094,1.438-0.18c1.605-0.287,3.102-0.856,4.476-1.637L362.606,281.487z"/>
				</g>
				<g>
					<path fill="#025E2D" d="M372.655,250.829c5.17,9.4-0.813,21.466-13.365,26.951s-26.917,2.311-32.087-7.089
						s0.814-21.466,13.365-26.951C353.12,238.255,367.485,241.429,372.655,250.829z"/>
					<path fill="#025E2D" d="M386.529,253.665c3.431,7.378-3.235,16.112-14.889,19.509c-11.652,3.396-23.879,0.169-27.31-7.209
						c-3.43-7.379,3.236-16.113,14.889-19.51C370.873,243.059,383.1,246.287,386.529,253.665z"/>
					<path fill="#025E2D" d="M367.419,235.247c6.903,4.307,6.09,15.264-1.815,24.474c-7.906,9.209-19.911,13.184-26.814,8.877
						c-6.902-4.307-6.09-15.264,1.816-24.474C348.511,234.914,360.516,230.939,367.419,235.247z"/>
					<path fill="#FF8383" d="M374.2,276.524c1.97,11.039-3.808,21.307-12.904,22.93l0,0c-9.095,1.623-18.065-6.012-20.036-17.052
						l-1.55-8.688c-1.971-11.039,3.806-21.307,12.9-22.93l0,0c9.097-1.624,18.069,6.012,20.039,17.052L374.2,276.524z"/>
					<path fill="#025E2D" d="M354.771,249.473c-5.03-4.554-13.786-2.352-19.557,4.919c-5.77,7.271-6.369,16.854-1.338,21.408
						c5.03,4.554,13.786,2.352,19.556-4.919C359.202,263.612,359.802,254.026,354.771,249.473z"/>
					<g>
						<g>
							<g>
								<g>
									<path fill="#86294E" d="M358.089,274.071c-0.29,0-0.576-0.138-0.754-0.393c-0.284-0.416-0.184-0.982,0.23-1.269
										c0.121-0.081,3.022-2.051,6.099-0.26c0.436,0.255,0.584,0.816,0.329,1.252c-0.252,0.437-0.81,0.585-1.251,0.329
										c-2.06-1.201-4.052,0.125-4.138,0.182C358.447,274.021,358.268,274.071,358.089,274.071z"/>
								</g>
								<g>
									<path fill="#86294E" d="M373.87,274.074c-0.179,0-0.358-0.052-0.517-0.161l0,0c-0.086-0.057-2.077-1.383-4.139-0.182
										c-0.438,0.256-0.994,0.107-1.25-0.329c-0.255-0.436-0.106-0.997,0.329-1.252c3.081-1.802,5.977,0.176,6.099,0.26
										c0.415,0.288,0.517,0.857,0.229,1.273C374.444,273.938,374.159,274.074,373.87,274.074z"/>
								</g>
								<g>
									<circle fill="#86294E" cx="361.263" cy="276.495" r="0.954"/>
								</g>
								<circle fill="#86294E" cx="370.414" cy="276.855" r="0.954"/>
							</g>
							<g>
								<g>
									<path fill="#FFD2D4" d="M373.593,283.531c-0.101,0-0.202-0.003-0.305-0.008c-2.001-0.076-3.854-0.931-5.216-2.403
										c-1.359-1.472-2.066-3.388-1.987-5.391s0.934-3.854,2.404-5.215c1.474-1.359,3.373-2.079,5.391-1.987
										c2.003,0.076,3.855,0.932,5.216,2.403c1.361,1.472,2.068,3.386,1.989,5.391c-0.079,2.003-0.934,3.855-2.406,5.215
										C377.281,282.83,375.484,283.531,373.593,283.531z M373.576,269.788c-1.572,0-3.063,0.584-4.225,1.658
										c-1.223,1.13-1.934,2.668-1.999,4.334c-0.066,1.664,0.521,3.256,1.652,4.478c1.13,1.225,2.67,1.934,4.333,2
										c1.679,0.028,3.256-0.521,4.48-1.652c1.223-1.131,1.934-2.669,1.999-4.335s-0.522-3.256-1.652-4.48
										c-1.132-1.222-2.671-1.931-4.335-1.997C373.745,269.79,373.661,269.788,373.576,269.788z"/>
								</g>
								<g>
									<path fill="#FFD2D4" d="M357.469,283.819c-0.113,0-0.227-0.002-0.34-0.008c-4.644-0.184-8.272-4.109-8.09-8.75
										c0.088-2.251,1.047-4.33,2.7-5.858c1.651-1.53,3.803-2.339,6.052-2.232c2.249,0.087,4.329,1.047,5.857,2.699
										c1.528,1.653,2.32,3.802,2.232,6.052c-0.09,2.25-1.049,4.33-2.702,5.858C361.61,283.031,359.593,283.819,357.469,283.819z
										 M357.451,268.39c-1.766,0-3.441,0.653-4.745,1.859c-1.374,1.271-2.171,2.998-2.244,4.868l0,0
										c-0.151,3.857,2.864,7.118,6.723,7.271c1.85,0.089,3.653-0.585,5.027-1.855s2.171-2.997,2.245-4.867
										s-0.585-3.656-1.854-5.028c-1.27-1.373-2.998-2.172-4.868-2.243C357.641,268.39,357.546,268.39,357.451,268.39z"/>
								</g>
								<g>
									<path fill="#FFD2D4" d="M364.434,276.707l3.1,0.122c0.36,0.015,0.664-0.267,0.678-0.627l0,0
										c0.015-0.36-0.266-0.664-0.626-0.679l-3.101-0.121c-0.36-0.015-0.664,0.267-0.678,0.627l0,0
										C363.792,276.39,364.073,276.693,364.434,276.707z"/>
								</g>
							</g>
							<g>
								<path fill="#86294E" d="M370.641,281.102c-0.088,1.089-1.353,2.082-2.824,2.217c-1.472,0.136-2.593-0.638-2.504-1.727
									c0.088-1.09,1.353-2.082,2.824-2.218C369.608,279.239,370.729,280.013,370.641,281.102z"/>
							</g>
							<g>
								<path fill="#86294E" d="M370.017,286.96c-0.099,2.527-2.399,4.489-5.137,4.381c-2.738-0.107-4.318-2.819-4.219-5.347
									C363.874,285.707,366.996,286.004,370.017,286.96z"/>
								<path fill="#FFD2D4" d="M365.275,288.542c-2.164-0.251-3.499-0.993-3.626-2.619c2.699-0.144,5.335,0.13,7.896,0.877
									C369.177,288.266,367.396,288.787,365.275,288.542z"/>
							</g>
						</g>
						<g>
							<g>
								<g>
									<path fill="#025E2D" d="M358.878,292.351L358.878,292.351l-5.381-0.005c-2.171,0-4.254-0.801-5.866-2.258l-3.368-3.038
										c-0.268-0.243-0.29-0.656-0.047-0.922c0.241-0.27,0.654-0.288,0.922-0.048l3.368,3.038c1.371,1.24,3.145,1.922,4.991,1.922
										l5.381,0.005c0.36,0,0.652,0.293,0.652,0.653C359.53,292.061,359.238,292.351,358.878,292.351z"/>
								</g>
								<g>
									<path fill="#FFD2D4" d="M358.878,293.004h-0.002l-2.181-0.002c-0.723,0-1.307-0.587-1.306-1.31
										c0.002-0.719,0.586-1.304,1.307-1.304h0.001l2.182,0.003c0.722,0,1.307,0.587,1.305,1.309
										C360.183,292.42,359.599,293.004,358.878,293.004z"/>
								</g>
							</g>
							<g>
								<circle fill="#39B982" cx="341.353" cy="280.278" r="10.94"/>
								
									<ellipse transform="matrix(0.9992 0.0393 -0.0393 0.9992 11.2712 -13.1317)" fill="#4BC68D" cx="339.752" cy="280.215" rx="8.538" ry="9.339"/>
								
									<ellipse transform="matrix(0.9992 0.0393 -0.0393 0.9992 11.2606 -13.0611)" fill="#88F7C5" cx="338.153" cy="280.152" rx="2.935" ry="3.783"/>
							</g>
						</g>
					</g>
				</g>
			</g>
			<g>
				<path fill="#39B982" d="M367.783,433.006l-52.33,1.475c-8.724-0.344-15.518-7.693-15.175-16.418l3.306-87.573
					c0.18-4.577,3.207-8.552,7.572-9.942l39.013-12.422l31.185,14.946c3.916,1.877,6.342,5.902,6.171,10.242l-3.324,84.518
					C383.857,426.556,376.507,433.35,367.783,433.006z"/>
				<path fill="#228759" d="M387.524,333.313c0.18,9.132,0.074,18.253-0.075,27.371c-0.12,9.119-0.445,18.231-0.771,27.343
					c-0.388,9.109-0.78,18.219-1.375,27.319c-0.135,2.212-0.246,4.704-1.081,6.969c-0.79,2.263-2.057,4.354-3.731,6.037
					c-3.359,3.344-8.142,5.152-12.708,4.654c4.571-0.099,8.948-2.146,11.767-5.521c1.447-1.644,2.503-3.603,3.103-5.677
					c0.64-2.08,0.622-4.212,0.643-6.541c0.122-9.12,0.446-18.231,0.775-27.344c0.391-9.107,0.783-18.217,1.38-27.318
					C386.018,351.503,386.628,342.402,387.524,333.313z"/>
				<path fill="#39B982" d="M364.49,324.691l-28.243-1.821l1.083-16.788c0.135-2.087,1.936-3.669,4.022-3.534l20.686,1.334
					c2.087,0.135,3.67,1.936,3.535,4.022L364.49,324.691z"/>
			</g>
			<g>
				<g>
					<path fill="#39B982" d="M280.351,407.337L280.351,407.337c-8.745-3.632-12.89-13.665-9.258-22.409l19.163-46.143
						c3.632-8.744,13.665-12.89,22.409-9.258l0,0c8.744,3.632,12.89,13.665,9.258,22.409l-19.164,46.143
						C299.128,406.823,289.095,410.968,280.351,407.337z"/>
					<path fill="#2A7251" d="M312.665,329.527c3.062,0.991,5.853,2.959,7.92,5.563c2.026,2.628,3.321,5.882,3.604,9.26
						c0.453,3.356-0.627,6.935-1.86,9.822l-3.619,8.903c-2.485,5.906-4.975,11.811-7.65,17.636l-4.022,8.737
						c-1.43,2.875-2.775,5.784-4.277,8.629c0.955-3.071,2.066-6.079,3.095-9.12l3.349-9.017c2.239-6.008,4.665-11.938,7.096-17.866
						l3.752-8.849c0.642-1.512,1.305-2.848,1.623-4.306c0.354-1.449,0.563-2.949,0.519-4.457
						C322.111,338.408,318.406,332.455,312.665,329.527z"/>
				</g>
				<g>
					<g>
						<g>
							<path fill="#86294E" d="M360.145,383.154l-8.729-0.563c-3.272-0.211-5.763-3.046-5.552-6.317l0.254-3.936
								c0.211-3.272,3.044-5.764,6.317-5.553l8.729,0.563L360.145,383.154z M352.182,370.696c-1.116-0.072-2.082,0.778-2.154,1.894
								l-0.254,3.936c-0.072,1.115,0.777,2.083,1.894,2.155l4.819,0.311l0.516-7.984L352.182,370.696z"/>
						</g>
						<g>
							<path fill="#D15E79" d="M368.635,395.71l-7.551-0.487c-4.585-0.296-8.063-4.253-7.767-8.838l1.565-24.273
								c0.175-2.708,24.33-1.15,24.155,1.558l-1.565,24.274C377.177,392.528,373.22,396.006,368.635,395.71z"/>
							
								<ellipse transform="matrix(0.9979 0.0644 -0.0644 0.9979 24.1673 -22.8487)" fill="#86294E" cx="366.729" cy="363.688" rx="9.923" ry="1.769"/>
						</g>
					</g>
					<path fill="#39B982" d="M270.85,391.922L270.85,391.922c0.149-9.468,7.945-17.021,17.413-16.872l49.958,0.788
						c9.467,0.149,17.021,7.945,16.871,17.413l0,0c-0.149,9.468-7.945,17.021-17.413,16.872l-49.957-0.789
						C278.254,409.185,270.7,401.389,270.85,391.922z"/>
					<path fill="#28885D" d="M288.263,375.05c6.415-0.438,12.825-0.59,19.235-0.696c6.41-0.138,12.817-0.07,19.225-0.003
						l9.607,0.221c3.141,0.021,6.854,0.45,9.753,2.203c2.987,1.605,5.455,4.091,7.062,6.994c1.565,2.936,2.259,6.278,1.947,9.483
						c-0.403-6.433-4.39-12.199-9.911-14.683c-1.366-0.64-2.823-1.049-4.293-1.3c-1.466-0.287-2.954-0.211-4.596-0.225l-9.611-0.083
						c-6.405-0.134-12.812-0.27-19.214-0.608C301.063,376.043,294.66,375.69,288.263,375.05z"/>
					<g>
						<circle fill="#FF8383" cx="357.377" cy="389.504" r="15.022"/>
						<path fill="#FF8383" d="M349.608,382.305L349.608,382.305c-1.875-0.648-2.868-2.694-2.22-4.569l1.602-4.629
							c0.648-1.875,2.695-2.868,4.569-2.22l0,0c1.875,0.648,2.869,2.694,2.22,4.569l-1.602,4.629
							C353.529,381.96,351.483,382.954,349.608,382.305z"/>
						<path fill="#FF8383" d="M378.372,384.271l-13.332,1.24c-2.064,0.192-3.895-1.326-4.087-3.392l0,0
							c-0.192-2.064,1.326-3.895,3.392-4.087l13.331-1.24c2.065-0.192,3.896,1.326,4.088,3.392l0,0
							C381.955,382.248,380.438,384.078,378.372,384.271z"/>
						<path fill="#FF8383" d="M375.548,396.529l-13.361-0.862c-2.069-0.133-3.64-1.919-3.506-3.989l0,0
							c0.134-2.069,1.92-3.64,3.989-3.506l13.361,0.862c2.069,0.133,3.64,1.919,3.506,3.989l0,0
							C379.403,395.093,377.617,396.662,375.548,396.529z"/>
					</g>
				</g>
			</g>
		</g>
		<g>
			<g>
				<g>
					<path fill="#39B982" d="M511.416,350.977c-0.4,0-0.801-0.153-1.106-0.459c-0.612-0.61-0.612-1.603,0-2.215l14.958-14.961
						c0.607-0.611,1.602-0.611,2.214,0c0.612,0.61,0.612,1.603,0,2.215l-14.958,14.961
						C512.221,350.823,511.817,350.977,511.416,350.977z"/>
				</g>
				<g>
					<g>
						<path fill="#39B982" d="M500.766,341.797c-0.865,0-1.567-0.701-1.567-1.566v-21.154c0-0.865,0.702-1.566,1.567-1.566
							c0.864,0,1.566,0.701,1.566,1.566v21.154C502.332,341.096,501.63,341.797,500.766,341.797z"/>
					</g>
					<g>
						<path fill="#39B982" d="M541.751,361.628h-21.157c-0.865,0-1.566-0.701-1.566-1.566s0.701-1.566,1.566-1.566h21.157
							c0.865,0,1.566,0.701,1.566,1.566S542.616,361.628,541.751,361.628z"/>
					</g>
				</g>
			</g>
			<g>
				<g>
					<path fill="#39B982" d="M353.85,427.433h129.439c3.61,0,4.723-2.926,4.723-6.538l0,0H347.31l0,0
						C347.31,424.507,350.238,427.433,353.85,427.433z"/>
					<path fill="#39B982" d="M346.342,420.895h45.882c0,3.612-3.323,6.538-7.425,6.538H354.73c-0.041,0-8.543-0.001-8.584-0.001
						C341.917,427.371,342.111,420.895,346.342,420.895z"/>
					<g>
						<path fill="#A0EAC8" d="M395.087,422.797h92.925c2.758,0,5.132-1.965,5.644-4.674l12.524-53.744
							c0.674-3.54-2.041-6.819-5.645-6.819h-92.922c-2.764,0-5.132,1.965-5.647,4.676l-12.523,53.742
							C388.771,419.518,391.484,422.797,395.087,422.797z"/>
						<path fill="#309969" d="M401.966,362.235c0.279-1.491,1.131-2.753,2.292-3.591c1.737,1.255,2.732,3.433,2.292,5.734
							l-12.522,53.744c-0.283,1.491-1.127,2.749-2.289,3.587c-1.736-1.253-2.732-3.435-2.296-5.732L401.966,362.235z"/>
						<g>
							<path fill="#FFFFFF" d="M460.409,397.034H445.17c-3.126,0-5.66-2.534-5.66-5.66l0,0c0-3.126,2.534-5.66,5.66-5.66h15.239
								c3.126,0,5.66,2.534,5.66,5.66l0,0C466.069,394.5,463.535,397.034,460.409,397.034z"/>
						</g>
					</g>
				</g>
				<g>
					<path fill="#39B982" d="M360.195,422.696h-4.572c-0.901,0-1.633-0.73-1.633-1.633l0,0c0-0.901,0.731-1.633,1.633-1.633h4.572
						c0.901,0,1.633,0.731,1.633,1.633l0,0C361.828,421.966,361.097,422.696,360.195,422.696z"/>
					<path fill="#39B982" d="M369.121,422.696h-4.572c-0.901,0-1.633-0.73-1.633-1.633l0,0c0-0.901,0.731-1.633,1.633-1.633h4.572
						c0.901,0,1.633,0.731,1.633,1.633l0,0C370.754,421.966,370.022,422.696,369.121,422.696z"/>
					<path fill="#39B982" d="M378.047,422.696h-4.571c-0.902,0-1.633-0.73-1.633-1.633l0,0c0-0.901,0.73-1.633,1.633-1.633h4.571
						c0.902,0,1.633,0.731,1.633,1.633l0,0C379.68,421.966,378.949,422.696,378.047,422.696z"/>
					<path fill="#39B982" d="M386.973,422.696h-4.571c-0.902,0-1.633-0.73-1.633-1.633l0,0c0-0.901,0.73-1.633,1.633-1.633h4.571
						c0.902,0,1.633,0.731,1.633,1.633l0,0C388.605,421.966,387.875,422.696,386.973,422.696z"/>
				</g>
			</g>
		</g>
		<path fill="#3E6B56" d="M557.289,434.915H166.288c-2.165,0-3.919-1.754-3.919-3.918l0,0c0-2.164,1.754-3.919,3.919-3.919h391.001
			c2.164,0,3.918,1.755,3.918,3.919l0,0C561.207,433.161,559.453,434.915,557.289,434.915z"/>
		<g>
			<g>
				<path fill="none" stroke="#1B2A67" stroke-width="0.8269" stroke-linecap="round" stroke-miterlimit="10" d="M224.816,402.984
					c0,0-2.878-21.621-8.089-26.937"/>
				<g>
					<path fill="#FFD2D4" d="M217.569,363.184c1.393,4.607,1.108,8.77-0.635,9.297c-1.743,0.526-4.285-2.782-5.677-7.39
						c-0.014-0.047-0.027-0.093-0.041-0.139c-1.18-4.105,5.02-5.978,6.311-1.906C217.542,363.092,217.556,363.138,217.569,363.184z"
						/>
					<g>
						<path fill="#FFD2D4" d="M225.838,373.48c-4.607,1.393-8.771,1.107-9.297-0.635c-0.526-1.743,2.782-4.285,7.39-5.677
							c0.046-0.015,0.092-0.027,0.139-0.041c4.104-1.18,5.978,5.02,1.906,6.311C225.93,373.452,225.884,373.467,225.838,373.48z"/>
						<path fill="#FFD2D4" d="M210.074,378.243c4.608-1.392,7.916-3.934,7.39-5.677s-4.688-2.027-9.296-0.635
							c-0.047,0.014-0.093,0.027-0.138,0.042c-4.071,1.291-2.199,7.49,1.906,6.311C209.982,378.271,210.028,378.257,210.074,378.243
							z"/>
					</g>
					<g>
						<path fill="#FFD2D4" d="M217.831,383.48c1.295-4.636,0.924-8.791-0.83-9.281c-1.754-0.489-4.226,2.871-5.521,7.507
							c-0.013,0.047-0.025,0.093-0.038,0.14c-1.093,4.129,5.144,5.871,6.349,1.773C217.805,383.573,217.818,383.527,217.831,383.48z
							"/>
						<path fill="#FFD2D4" d="M222.279,382.137c-3.646-3.143-5.637-6.809-4.448-8.188c1.188-1.38,5.108,0.051,8.754,3.193
							c0.036,0.032,0.072,0.063,0.108,0.096c3.196,2.832-1.032,7.736-4.305,4.992C222.352,382.199,222.315,382.168,222.279,382.137z
							"/>
					</g>
					<circle fill="#D15E79" cx="216.949" cy="373.736" r="2.254"/>
				</g>
				<g>
					<path fill="#39B982" d="M216.318,389.086c5.986,4.717,9.394,10.376,7.609,12.64c-1.784,2.265-8.084,0.277-14.07-4.439
						c-5.986-4.716-7.608-12.64-7.608-12.64S210.332,384.369,216.318,389.086z"/>
					<path fill="#39B982" d="M237.344,396.226c-6.318,5.934-13.261,8.807-15.506,6.417c-2.245-2.391,1.058-9.139,7.377-15.073
						s15.506-6.417,15.506-6.417S243.663,390.291,237.344,396.226z"/>
				</g>
			</g>
			<g>
				<polygon fill="#025E2D" points="232.698,428.385 212.022,428.385 208.403,402.373 236.316,402.373 				"/>
				<path fill="#025E2D" d="M237.398,409.043h-30.076c-0.812,0-1.469-0.658-1.469-1.469v-6.733c0-0.812,0.657-1.469,1.469-1.469
					h30.076c0.812,0,1.469,0.657,1.469,1.469v6.733C238.867,408.385,238.21,409.043,237.398,409.043z"/>
			</g>
		</g>
		<g>
			<g>
				<g>
					<polygon fill="#025E2D" points="285.44,207.939 295.693,218.935 373.846,186.337 					"/>
					<polygon fill="#39B982" points="289.086,171.655 281.367,183.3 286.586,194.712 274.878,196.703 264.532,219.417 
						376.354,185.579 					"/>
					<polygon fill="#025E2D" points="286.586,194.712 281.367,183.3 341.935,186.132 					"/>
				</g>
				<g>
					<path fill="#39B982" d="M280.699,307.569c-0.859,0-1.722-0.005-2.581-0.015c-0.868-0.011-1.56-0.72-1.549-1.585
						c0.01-0.864,0.758-1.65,1.584-1.548c4.06,0.045,8.088-0.019,12.509-0.205c0.023,0,0.046,0,0.066,0
						c0.837,0,1.531,0.658,1.566,1.501c0.036,0.864-0.635,1.597-1.5,1.633C287.254,307.498,283.95,307.569,280.699,307.569z
						 M265.559,306.952c-0.047,0-0.093,0-0.139-0.005c-4.316-0.37-8.564-0.924-12.623-1.646c-0.853-0.15-1.419-0.965-1.269-1.819
						c0.153-0.85,0.97-1.393,1.819-1.268c3.965,0.706,8.118,1.247,12.343,1.609c0.862,0.074,1.5,0.832,1.427,1.697
						C267.048,306.338,266.361,306.952,265.559,306.952z M240.823,302.429c-0.15,0-0.306-0.022-0.459-0.071
						c-4.123-1.263-8.144-2.807-11.947-4.592c-0.783-0.368-1.12-1.302-0.753-2.085c0.367-0.788,1.309-1.12,2.085-0.753
						c3.671,1.723,7.552,3.213,11.534,4.435c0.826,0.253,1.293,1.128,1.038,1.957C242.114,301.992,241.494,302.429,240.823,302.429z
						 M218.123,291.736c-0.299,0-0.6-0.084-0.868-0.263c-3.551-2.37-6.944-5.033-10.085-7.922c-0.638-0.584-0.679-1.576-0.092-2.214
						s1.582-0.677,2.215-0.092c3.021,2.775,6.286,5.34,9.702,7.62c0.72,0.479,0.913,1.454,0.434,2.174
						C219.128,291.492,218.63,291.736,218.123,291.736z M199.651,274.763c-0.459,0-0.916-0.201-1.228-0.589
						c-2.663-3.348-5.084-6.919-7.194-10.621c-0.429-0.75-0.165-1.709,0.587-2.138c0.753-0.421,1.71-0.163,2.139,0.587
						c2.03,3.559,4.359,6.998,6.924,10.218c0.538,0.679,0.426,1.663-0.25,2.204C200.34,274.653,199.996,274.763,199.651,274.763z
						 M187.237,252.96c-0.633,0-1.229-0.388-1.467-1.016c-1.531-4.064-2.718-8.22-3.523-12.353c-0.166-0.85,0.388-1.674,1.237-1.84
						c0.857-0.176,1.674,0.388,1.84,1.237c0.772,3.962,1.91,7.95,3.38,11.848c0.306,0.811-0.104,1.714-0.913,2.021
						C187.607,252.927,187.421,252.96,187.237,252.96z M182.236,228.366c-0.818,0-1.508-0.638-1.561-1.467
						c-0.164-2.562-0.245-5.258-0.245-8.011v-0.635c0.005-1.362,0.03-2.727,0.074-4.095c0.027-0.847,0.722-1.516,1.566-1.516
						c0.015,0,0.033,0,0.051,0c0.864,0.028,1.544,0.753,1.516,1.618c-0.044,1.337-0.069,2.671-0.074,3.998v0.63
						c0,2.689,0.081,5.317,0.239,7.812c0.057,0.865-0.6,1.61-1.464,1.664C182.306,228.366,182.272,228.366,182.236,228.366z"/>
				</g>
				<g>
					<path fill="#39B982" d="M195.416,203.512c-2.393,0-4.75-0.028-7.064-0.086c-0.864-0.021-1.548-0.74-1.525-1.607
						c0.021-0.852,0.72-1.526,1.566-1.526c0.013,0,0.025,0,0.041,0c4.047,0.102,8.218,0.112,12.521,0.033
						c0.975-0.051,1.582,0.671,1.598,1.536c0.018,0.867-0.672,1.582-1.536,1.597C199.126,203.494,197.259,203.512,195.416,203.512z
						 M213.568,202.986c-0.824,0-1.516-0.646-1.561-1.479c-0.049-0.862,0.611-1.603,1.477-1.651
						c4.054-0.229,8.264-0.533,12.514-0.908c0.84-0.089,1.625,0.561,1.699,1.423c0.077,0.862-0.562,1.623-1.424,1.699
						c-4.283,0.378-8.525,0.687-12.615,0.914C213.63,202.986,213.6,202.986,213.568,202.986z M175.817,202.787
						c-0.04,0-0.081,0-0.125-0.002c-4.362-0.339-8.607-0.804-12.618-1.377c-0.857-0.123-1.451-0.916-1.329-1.773
						c0.122-0.854,0.934-1.434,1.773-1.329c3.944,0.564,8.123,1.021,12.419,1.352c0.862,0.069,1.508,0.822,1.441,1.687
						C177.315,202.165,176.627,202.787,175.817,202.787z M238.66,200.785c-0.783,0-1.462-0.587-1.554-1.385
						c-0.103-0.86,0.516-1.638,1.375-1.737c4.072-0.478,8.223-1.016,12.45-1.618c0.859-0.135,1.653,0.475,1.773,1.329
						c0.122,0.857-0.473,1.651-1.329,1.773c-4.259,0.607-8.435,1.151-12.532,1.628C238.782,200.782,238.722,200.785,238.66,200.785z
						 M150.905,199.177c-0.115,0-0.229-0.013-0.345-0.038c-3.031-0.681-5.985-1.447-8.779-2.278
						c-1.188-0.355-2.357-0.725-3.508-1.105c-0.821-0.271-1.268-1.158-0.995-1.979c0.271-0.822,1.158-1.276,1.98-0.995
						c1.12,0.37,2.258,0.73,3.416,1.074c2.728,0.811,5.61,1.559,8.569,2.222c0.847,0.191,1.378,1.028,1.189,1.873
						C152.268,198.68,151.622,199.177,150.905,199.177z M127.097,191.125c-0.229,0-0.464-0.051-0.684-0.158
						c-4.014-1.946-7.735-4.141-11.065-6.521c-0.703-0.505-0.867-1.482-0.364-2.187c0.5-0.704,1.479-0.872,2.187-0.365
						c3.188,2.278,6.758,4.383,10.61,6.25c0.778,0.378,1.104,1.317,0.728,2.095C128.237,190.799,127.678,191.125,127.097,191.125z
						 M181.056,189.725c-0.865,0-1.566-0.702-1.566-1.566v-0.556c0-3.952-0.158-7.968-0.472-11.938
						c-0.066-0.862,0.578-1.618,1.441-1.687c0.831-0.076,1.614,0.577,1.686,1.441c0.316,4.049,0.478,8.149,0.478,12.183v0.556
						C182.622,189.023,181.92,189.725,181.056,189.725z M106.832,176.433c-0.424,0-0.85-0.171-1.158-0.51
						c-2.937-3.217-5.473-6.753-7.534-10.509c-0.415-0.76-0.138-1.712,0.62-2.13c0.766-0.413,1.715-0.13,2.131,0.62
						c1.938,3.539,4.329,6.871,7.1,9.906c0.584,0.638,0.538,1.63-0.102,2.215C107.587,176.298,107.21,176.433,106.832,176.433z
						 M179.037,164.59c-0.75,0-1.41-0.538-1.543-1.301c-0.728-4.263-1.658-8.338-2.769-12.113c-0.244-0.83,0.229-1.702,1.062-1.944
						c0.834-0.255,1.702,0.229,1.944,1.062c1.146,3.891,2.104,8.085,2.854,12.465c0.146,0.854-0.429,1.664-1.28,1.812
						C179.214,164.585,179.127,164.59,179.037,164.59z M94.813,154.576c-0.689,0-1.319-0.457-1.511-1.15
						c-0.193-0.704-0.375-1.414-0.546-2.13c-0.556-2.357-0.837-4.694-0.837-6.947c0-1.353,0.1-2.705,0.301-4.021
						c0.131-0.857,0.941-1.449,1.783-1.314c0.857,0.127,1.444,0.929,1.314,1.783c-0.176,1.161-0.266,2.355-0.266,3.552
						c0,2.01,0.256,4.105,0.756,6.225c0.16,0.678,0.331,1.352,0.515,2.015c0.232,0.837-0.258,1.699-1.092,1.929
						C95.091,154.556,94.951,154.576,94.813,154.576z M171.771,140.519c-0.584,0-1.143-0.329-1.413-0.891
						c-1.873-3.908-4.036-7.398-6.432-10.373c-0.541-0.674-0.437-1.661,0.239-2.205c0.666-0.538,1.653-0.441,2.205,0.24
						c2.543,3.161,4.837,6.857,6.813,10.98c0.375,0.78,0.046,1.717-0.734,2.092C172.23,140.468,171.998,140.519,171.771,140.519z
						 M98.704,130.694c-0.332,0-0.666-0.102-0.949-0.319c-0.688-0.525-0.821-1.507-0.299-2.196c2.516-3.304,5.817-6.223,9.814-8.672
						c0.743-0.449,1.707-0.217,2.156,0.518c0.451,0.737,0.22,1.704-0.518,2.156c-3.667,2.245-6.68,4.903-8.958,7.896
						C99.643,130.482,99.176,130.694,98.704,130.694z M155.918,121.375c-0.293,0-0.592-0.082-0.857-0.255
						c-3.321-2.179-7.019-3.778-10.985-4.755c-0.84-0.209-1.354-1.056-1.148-1.898c0.207-0.837,1.06-1.35,1.898-1.148
						c4.312,1.064,8.335,2.807,11.955,5.179c0.725,0.475,0.926,1.447,0.452,2.171C156.931,121.127,156.431,121.375,155.918,121.375z
						 M119.604,117.379c-0.679,0-1.301-0.444-1.503-1.125c-0.244-0.832,0.229-1.702,1.06-1.946
						c3.951-1.166,8.098-1.914,12.322-2.228l0.472-0.015c0.773,0.038,1.582,0.671,1.597,1.536c0.019,0.865-0.671,1.582-1.535,1.597
						l-0.342,0.013c-3.963,0.293-7.889,1-11.626,2.103C119.899,117.356,119.749,117.379,119.604,117.379z"/>
				</g>
			</g>
			<g>
				<g>
					<path fill="#025E2D" d="M496.752,128.051h83.783c10.474,0,18.964,8.49,18.964,18.963v43.214
						c0,10.474-8.49,18.964-18.964,18.964h-54.787l-19.706,17.387v-17.387h-9.29c-10.474,0-18.964-8.49-18.964-18.964v-43.214
						C477.788,136.542,486.278,128.051,496.752,128.051z"/>
					<g>
						<g>
							<path fill="#45C97D" d="M508.939,154.795h59.408c1.313,0,2.376-1.065,2.376-2.377c0-1.313-1.063-2.377-2.376-2.377h-59.408
								c-1.313,0-2.376,1.065-2.376,2.377C506.563,153.73,507.627,154.795,508.939,154.795z"/>
						</g>
						<g>
							<path fill="#45C97D" d="M508.939,170.637h59.408c1.313,0,2.376-1.065,2.376-2.377s-1.063-2.377-2.376-2.377h-59.408
								c-1.313,0-2.376,1.064-2.376,2.377S507.627,170.637,508.939,170.637z"/>
						</g>
						<g>
							<path fill="#45C97D" d="M559.635,186.479h8.713c1.313,0,2.376-1.065,2.376-2.377s-1.063-2.377-2.376-2.377h-8.713
								c-1.313,0-2.377,1.064-2.377,2.377S558.322,186.479,559.635,186.479z"/>
						</g>
						<g>
							<path fill="#45C97D" d="M539.832,186.479h8.713c1.313,0,2.376-1.065,2.376-2.377s-1.063-2.377-2.376-2.377h-8.713
								c-1.313,0-2.377,1.064-2.377,2.377S538.52,186.479,539.832,186.479z"/>
						</g>
						<g>
							<path fill="#45C97D" d="M508.939,186.479h19.803c1.313,0,2.377-1.065,2.377-2.377s-1.064-2.377-2.377-2.377h-19.803
								c-1.313,0-2.376,1.064-2.376,2.377S507.627,186.479,508.939,186.479z"/>
						</g>
					</g>
				</g>
				<g>
					<path fill="#40B271" stroke="#3DB26F" stroke-miterlimit="10" d="M486.154,214.35H422.02c-6.308,0-11.42,5.113-11.42,11.42
						v36.983c0,6.025,4.668,10.949,10.584,11.378l-13.225,21.671l34.854-21.628h43.342c6.307,0,11.42-5.113,11.42-11.421V225.77
						C497.574,219.463,492.461,214.35,486.154,214.35z"/>
					<g>
						
							<circle fill="#025E2D" stroke="#025E2D" stroke-width="2.7611" stroke-linecap="round" stroke-linejoin="round" stroke-miterlimit="10" cx="454.087" cy="235.288" r="7.593"/>
						
							<path fill="#025E2D" stroke="#025E2D" stroke-width="2.7611" stroke-linecap="round" stroke-linejoin="round" stroke-miterlimit="10" d="
							M472.034,260.828H436.14l0,0c0-6.354,5.15-11.504,11.505-11.504h12.885C466.883,249.324,472.034,254.475,472.034,260.828
							L472.034,260.828z"/>
					</g>
				</g>
			</g>
			<g>
				<g>
					<g>
						<path fill="#39B982" d="M408.739,154.204c-2.123,0-4.251-0.217-6.319-0.643c-0.85-0.176-1.394-1.005-1.22-1.852
							c0.176-0.853,1.022-1.373,1.853-1.22c3.222,0.666,6.615,0.755,9.84,0.273c0.857-0.12,1.653,0.464,1.783,1.319
							c0.128,0.857-0.462,1.653-1.319,1.784C411.844,154.089,410.29,154.204,408.739,154.204z M422.968,150.543
							c-0.554,0-1.087-0.293-1.376-0.809c-0.418-0.757-0.143-1.712,0.613-2.133c2.897-1.602,5.464-3.691,7.636-6.209
							c0.563-0.656,1.556-0.727,2.209-0.163c0.655,0.563,0.729,1.554,0.163,2.209c-2.411,2.799-5.268,5.123-8.487,6.909
							C423.482,150.479,423.223,150.543,422.968,150.543z M393.092,149.701c-0.283,0-0.573-0.077-0.831-0.24
							c-3.118-1.962-5.84-4.441-8.093-7.368c-0.528-0.687-0.4-1.671,0.286-2.199c0.688-0.526,1.673-0.398,2.199,0.286
							c2.025,2.633,4.475,4.863,7.275,6.628c0.735,0.462,0.954,1.429,0.493,2.161C394.123,149.443,393.613,149.701,393.092,149.701z
							 M436.313,135.034c-0.182,0-0.365-0.033-0.546-0.1c-0.812-0.301-1.226-1.204-0.924-2.015c1.147-3.092,1.732-6.35,1.732-9.685
							c0-0.865,0.701-1.566,1.566-1.566c0.864,0,1.566,0.702,1.566,1.566c0,3.707-0.648,7.335-1.927,10.776
							C437.548,134.641,436.948,135.034,436.313,135.034z M380.637,133.478c-0.671,0-1.291-0.434-1.497-1.107
							c-0.908-2.946-1.367-6.018-1.37-9.133c0-0.584,0.016-1.161,0.049-1.735c0.048-0.865,0.834-1.51,1.652-1.475
							c0.863,0.048,1.526,0.789,1.475,1.653c-0.027,0.513-0.043,1.033-0.043,1.554c0.003,2.804,0.419,5.567,1.232,8.212
							c0.255,0.827-0.209,1.704-1.036,1.959C380.945,133.455,380.79,133.478,380.637,133.478z M437.28,117.711
							c-0.704,0-1.345-0.477-1.521-1.191c-0.799-3.217-2.151-6.235-4.026-8.976c-0.489-0.714-0.306-1.691,0.408-2.179
							c0.712-0.495,1.688-0.309,2.179,0.408c2.087,3.051,3.595,6.412,4.48,9.991c0.209,0.842-0.304,1.691-1.144,1.898
							C437.53,117.695,437.402,117.711,437.28,117.711z M381.78,113.047c-0.209,0-0.424-0.043-0.628-0.133
							c-0.793-0.347-1.155-1.271-0.809-2.064c1.472-3.375,3.521-6.439,6.087-9.098c0.598-0.63,1.593-0.643,2.215-0.041
							c0.625,0.6,0.643,1.592,0.041,2.214c-2.307,2.393-4.146,5.144-5.47,8.18C382.959,112.695,382.385,113.047,381.78,113.047z
							 M425.738,100.809c-0.314,0-0.631-0.092-0.906-0.288c-2.701-1.921-5.696-3.329-8.898-4.184
							c-0.837-0.225-1.334-1.084-1.112-1.918c0.228-0.834,1.076-1.334,1.919-1.112c3.566,0.952,6.9,2.521,9.908,4.659
							c0.707,0.502,0.87,1.479,0.37,2.186C426.713,100.582,426.23,100.809,425.738,100.809z M395.97,98.311
							c-0.581,0-1.14-0.327-1.41-0.888c-0.378-0.781-0.052-1.717,0.729-2.092c3.316-1.602,6.865-2.587,10.547-2.931
							c0.834-0.079,1.625,0.554,1.707,1.416c0.079,0.862-0.554,1.625-1.416,1.707c-3.307,0.309-6.496,1.194-9.476,2.63
							C396.432,98.26,396.199,98.311,395.97,98.311z"/>
					</g>
					<g>
						<path fill="#025E2D" d="M408.739,108.347c-11.348,0-20.547,6.081-20.547,13.583c0,0.013,0,0.026,0,0.039
							c0.009,1.958,1.554,3.301,2.999,2.684l5.393-2.301c1.298-0.554,1.928-2.444,1.345-4.036l-0.663-1.809
							c0,0,9.911,1.766,22.871,0l-0.669,2.321c-0.423,1.47,0.126,3.108,1.248,3.72l5.334,2.912c1.298,0.708,2.812-0.242,3.109-2.014
							c0.084-0.498,0.127-1.004,0.127-1.517C429.286,114.428,420.087,108.347,408.739,108.347z"/>
						<path fill="#39B982" d="M422.971,138.123h-28.478l4.22-13.221c0.791-2.479,3.094-4.161,5.696-4.161h8.646
							c2.603,0,4.905,1.683,5.697,4.161L422.971,138.123z"/>
					</g>
				</g>
				<g>
					<g>
						<path fill="#39B982" d="M592.283,315.249c-2.133,0-4.26-0.217-6.327-0.646c-0.847-0.179-1.393-1.008-1.217-1.854
							c0.179-0.848,1.021-1.381,1.854-1.218c3.213,0.672,6.626,0.758,9.838,0.273c0.857-0.117,1.653,0.462,1.783,1.319
							c0.128,0.856-0.461,1.653-1.318,1.783C595.391,315.132,593.837,315.246,592.283,315.249z M606.51,311.591
							c-0.554,0-1.087-0.294-1.373-0.81c-0.421-0.758-0.148-1.712,0.609-2.13c2.898-1.607,5.468-3.696,7.637-6.212
							c0.563-0.656,1.553-0.73,2.209-0.164c0.655,0.564,0.729,1.554,0.163,2.21c-2.408,2.796-5.266,5.12-8.487,6.906
							C607.024,311.526,606.765,311.591,606.51,311.591z M576.637,310.746c-0.283,0-0.574-0.077-0.832-0.24
							c-3.117-1.964-5.84-4.444-8.09-7.368c-0.528-0.686-0.4-1.671,0.286-2.199c0.688-0.525,1.671-0.397,2.199,0.286
							c2.022,2.633,4.472,4.863,7.273,6.628c0.734,0.462,0.954,1.429,0.492,2.161C577.668,310.488,577.157,310.746,576.637,310.746z
							 M619.854,296.081c-0.181,0-0.364-0.033-0.546-0.1c-0.811-0.301-1.225-1.204-0.923-2.015c1.147-3.093,1.731-6.351,1.731-9.685
							c0-0.865,0.702-1.566,1.566-1.566c0.865,0,1.567,0.701,1.567,1.566c0,3.707-0.648,7.335-1.927,10.776
							C621.09,295.691,620.49,296.081,619.854,296.081z M564.177,294.52c-0.671,0-1.291-0.434-1.498-1.106
							c-0.908-2.947-1.367-6.019-1.367-9.131c0-0.582,0.015-1.158,0.048-1.732c0.049-0.865,0.903-1.523,1.651-1.478
							c0.864,0.049,1.525,0.788,1.477,1.65c-0.027,0.519-0.043,1.039-0.043,1.56c0,2.799,0.413,5.562,1.229,8.207
							c0.256,0.826-0.209,1.704-1.035,1.959C564.485,294.497,564.329,294.52,564.177,294.52z M620.827,278.759
							c-0.704,0-1.345-0.478-1.521-1.191c-0.799-3.215-2.153-6.233-4.026-8.974c-0.489-0.714-0.306-1.691,0.408-2.179
							c0.715-0.494,1.689-0.306,2.179,0.408c2.087,3.049,3.595,6.412,4.48,9.988c0.209,0.84-0.304,1.691-1.144,1.898
							C621.077,278.743,620.949,278.759,620.827,278.759z M565.324,274.092c-0.209,0-0.423-0.043-0.627-0.132
							c-0.794-0.348-1.156-1.271-0.809-2.064c1.477-3.378,3.525-6.439,6.09-9.098c0.597-0.633,1.592-0.643,2.214-0.041
							c0.625,0.6,0.643,1.592,0.041,2.215c-2.304,2.391-4.146,5.144-5.473,8.179C566.503,273.74,565.927,274.092,565.324,274.092z
							 M609.285,261.861c-0.313,0-0.63-0.092-0.906-0.288c-2.706-1.926-5.701-3.335-8.898-4.187
							c-0.837-0.225-1.334-1.084-1.112-1.919c0.225-0.834,1.077-1.324,1.919-1.112c3.562,0.952,6.896,2.521,9.908,4.661
							c0.707,0.503,0.87,1.479,0.37,2.187C610.26,261.635,609.777,261.861,609.285,261.861z M579.518,259.354
							c-0.582,0-1.141-0.326-1.411-0.888c-0.378-0.78-0.052-1.717,0.729-2.092c3.319-1.603,6.87-2.587,10.549-2.929
							c0.883-0.079,1.628,0.559,1.707,1.415c0.079,0.863-0.556,1.628-1.416,1.707c-3.306,0.307-6.495,1.189-9.478,2.628
							C579.979,259.303,579.747,259.354,579.518,259.354z"/>
					</g>
					<g>
						<rect x="573.811" y="278.704" fill="#67D3A2" width="36.451" height="20.67"/>
						<g>
							<g>
								<path fill="#39B982" d="M605.264,277.065v-2.529c0-1.862,1.51-3.372,3.371-3.372l0,0c1.862,0,3.372,1.51,3.372,3.372v4.193
									h-6.743"/>
								<path fill="#E0EEF7" d="M605.33,274.487v21.483h-24.852v-21.483c0-1.861,1.51-3.371,3.371-3.371h24.571l-0.683,0.142
									C606.346,271.673,605.33,272.961,605.33,274.487z"/>
							</g>
							<g>
								<rect x="582.024" y="274.614" fill="#2D8D62" width="5.51" height="5.657"/>
								<g>
									<g>
										
											<line fill="none" stroke="#39B982" stroke-width="0.6576" stroke-linecap="round" stroke-linejoin="round" stroke-miterlimit="10" x1="589.223" y1="274.582" x2="603.231" y2="274.582"/>
										
											<line fill="none" stroke="#39B982" stroke-width="0.6576" stroke-linecap="round" stroke-linejoin="round" stroke-miterlimit="10" x1="589.223" y1="276.487" x2="603.231" y2="276.487"/>
										
											<line fill="none" stroke="#39B982" stroke-width="0.6576" stroke-linecap="round" stroke-linejoin="round" stroke-miterlimit="10" x1="589.223" y1="278.393" x2="603.231" y2="278.393"/>
										
											<line fill="none" stroke="#39B982" stroke-width="0.6576" stroke-linecap="round" stroke-linejoin="round" stroke-miterlimit="10" x1="589.354" y1="280.298" x2="603.363" y2="280.298"/>
									</g>
									
										<line fill="none" stroke="#39B982" stroke-width="0.6576" stroke-linecap="round" stroke-linejoin="round" stroke-miterlimit="10" x1="582.024" y1="282.177" x2="603.231" y2="282.177"/>
									
										<line fill="none" stroke="#39B982" stroke-width="0.6576" stroke-linecap="round" stroke-linejoin="round" stroke-miterlimit="10" x1="582.024" y1="284.081" x2="603.231" y2="284.081"/>
									
										<line fill="none" stroke="#39B982" stroke-width="0.6576" stroke-linecap="round" stroke-linejoin="round" stroke-miterlimit="10" x1="582.024" y1="285.944" x2="603.231" y2="285.944"/>
									
										<line fill="none" stroke="#39B982" stroke-width="0.6576" stroke-linecap="round" stroke-linejoin="round" stroke-miterlimit="10" x1="582.024" y1="287.85" x2="592.331" y2="287.85"/>
								</g>
							</g>
						</g>
						<polygon fill="#39B982" points="601.307,299.374 573.811,299.374 573.811,278.704 						"/>
						<polygon fill="#39B982" points="582.766,299.374 610.262,299.374 610.262,278.704 						"/>
						<path fill="#39B982" d="M610.262,299.374h-18.226h-18.226l16.371-8.743c1.115-0.773,2.594-0.773,3.709,0L610.262,299.374z"/>
					</g>
				</g>
			</g>
		</g>
	</g>
</g>
</svg>
