<?xml version="1.0" encoding="utf-8"?>
<!-- Generator: Adobe Illustrator 16.0.0, SVG Export Plug-In . SVG Version: 6.00 Build 0)  -->
<!DOCTYPE svg PUBLIC "-//W3C//DTD SVG 1.1//EN" "http://www.w3.org/Graphics/SVG/1.1/DTD/svg11.dtd">
<svg version="1.1" id="Layer_1" xmlns="http://www.w3.org/2000/svg" xmlns:xlink="http://www.w3.org/1999/xlink" x="0px" y="0px"
	 width="297px" height="297px" viewBox="0 0 297 297" enable-background="new 0 0 297 297" xml:space="preserve">
<g id="New_Symbol">
	<g>
		<path fill="#0A2B4E" d="M112.715,260.019c-12.928-9.863-25.722-21.159-37.667-33.021c-35.503-4.825-40.96-5.567-44.285-2.565
			c-4.864-6.653-8.715-13.007-11.119-18.533l0.061,0.14l1.049,2.348c2.387,5.185,6.01,11.061,10.511,17.191
			c2.385-3.025,9.441-2.026,43.347,2.777c11.696,11.579,24.201,22.6,36.836,32.239c27.359,20.873,49.27,30.647,61.005,28.826l0,0
			l2.063-0.342C162.729,291.079,140.508,281.223,112.715,260.019z"/>
		<path fill="#0A2B4E" d="M107.736,262.175c-11.764-8.976-23.413-19.185-34.364-29.921c-36.54-5.728-38.727-6.07-40.519-3.411
			c-3.446-4.636-6.355-9.124-8.542-13.24l1.233,2.282c2.079,3.76,4.748,7.813,7.864,11.988c0.923-2.675,4.58-2.078,39.562,3.629
			c10.703,10.459,22.068,20.401,33.544,29.157c25.591,19.524,46.221,28.943,57.704,27.819l1.528-0.159l0,0l0.565-0.063
			C154.765,291.568,133.796,282.057,107.736,262.175z"/>
		<path fill="#0A2B4E" d="M102.903,263.982c-10.619-8.102-21.139-17.252-31.094-26.886c-34.102-6.139-34.102-6.139-36.542-5.077
			c-0.034,0.231-0.079,0.54-0.112,0.771c-1.763-2.333-3.374-4.628-4.802-6.847l0.77,1.185l1.191,1.784
			c1.066,1.568,2.219,3.169,3.447,4.787c-0.031-0.159-0.072-0.371-0.102-0.531c1.474-1.36,1.474-1.36,35.77,5.068
			c9.708,9.364,19.951,18.257,30.288,26.144c23.662,18.052,42.89,27.072,54.066,26.684l0,0l2.106-0.1
			C146.627,291.527,127.047,282.402,102.903,263.982z"/>
		<path fill="#0A2B4E" d="M70.313,241.497c-31.712-6.51-31.712-6.51-32.974-6.054c0.045,0.182,0.105,0.424,0.151,0.605l0.494,0.635
			c0.004-0.172,0.009-0.4,0.013-0.571c1.435-0.153,1.435-0.153,31.956,6.412c8.726,8.308,17.876,16.191,27.105,23.233
			c21.735,16.582,39.539,25.155,50.312,25.395l2.093,0.024c-10.883-0.093-29.043-8.781-51.258-25.729
			C88.702,258.196,79.282,250.064,70.313,241.497z"/>
		<path fill="#0A2B4E" d="M68.898,245.434c-29.28-6.899-29.28-6.899-29.43-6.885l0.497,0.61c0.677-0.128,0.748-0.142,7.419,1.683
			c10.595,2.896,13.26,3.553,21.17,5.502c7.761,7.293,15.854,14.214,24.013,20.438c19.711,15.038,36.004,23.114,46.299,23.958l0,0
			l2.19,0.154c-10.418-0.671-27.121-8.878-47.382-24.336C85.252,260.133,76.898,252.976,68.898,245.434z"/>
		<path fill="#0A2B4E" d="M249.648,58.771c-0.061-0.268-0.256-0.784-0.583-1.533c-0.366-0.838-0.815-1.77-1.1-2.321
			c-0.375-0.795-0.764-1.582-1.164-2.36c0.389,0.771,0.765,1.55,1.129,2.338C249.488,58.672,249.576,58.727,249.648,58.771z"/>
		<path fill="#0A2B4E" d="M250.008,58.986c-0.079-0.284-0.307-0.819-0.675-1.591c-0.415-0.87-0.916-1.83-1.228-2.395
			c-0.422-0.823-0.856-1.637-1.304-2.442c0.436,0.799,0.858,1.606,1.269,2.422C249.869,58.905,249.924,58.937,250.008,58.986z"/>
		<path fill="#0A2B4E" d="M250.354,59.179c-0.124-0.373-0.483-1.1-0.764-1.644c-0.456-0.887-1.008-1.875-1.352-2.461
			c-0.466-0.848-0.945-1.687-1.438-2.517c0.48,0.825,0.949,1.658,1.404,2.499C250.229,59.111,250.267,59.131,250.354,59.179z"/>
		<path fill="#0A2B4E" d="M250.688,59.352c-0.149-0.391-0.545-1.135-0.851-1.691c-0.502-0.914-1.1-1.924-1.47-2.52
			c-0.509-0.87-1.031-1.731-1.566-2.583c0.524,0.847,1.036,1.703,1.535,2.567C250.579,59.297,250.594,59.305,250.688,59.352z"/>
		<path fill="#0A2B4E" d="M251.007,59.503c-0.173-0.408-0.603-1.168-0.932-1.733l0,0c-0.54-0.926-1.185-1.958-1.584-2.571
			l-1.689-2.642c0.566,0.868,1.119,1.744,1.659,2.628C250.915,59.461,250.915,59.461,251.007,59.503z"/>
		<path fill="#0A2B4E" d="M267.126,210.064c0.308-1.183,0.237-1.728-0.241-1.88c-1.519,0.199-3.058,3.701-2.865,4.841
			c0.127,0.754,0.945,0.903,2.297-1.174c4.817,0.312,8.636-0.575,11.306-2.676c-0.997,3.189-2.618,7.357-4.049,10.378l1.103-1.969
			c1.375-3.003,2.907-7.15,3.858-10.313C275.872,209.455,272.017,210.381,267.126,210.064z"/>
		<polygon fill="#0A2B4E" points="273.573,219.554 273.573,219.554 273.572,219.554 		"/>
		<path fill="#0A2B4E" d="M263.738,217.167c0.368-1.157,0.319-1.69-0.168-1.841c-1.597,0.188-3.283,3.572-3.137,4.72
			c0.095,0.739,0.923,0.89,2.399-1.134c4.501,0.291,8.147-0.443,10.821-2.216c-1.229,4.085-1.229,4.085-4.84,10.605l1.237-1.91
			c2.028-3.205,2.028-3.205,4.639-10.553C272.013,216.691,268.32,217.463,263.738,217.167z"/>
		<path fill="#0A2B4E" d="M259.976,224.079c0.423-1.127,0.396-1.647-0.092-1.797c-1.608,0.177-3.515,3.507-3.409,4.595
			c0.07,0.718,0.912,0.865,2.5-1.1c4.159,0.269,7.6-0.324,10.233-1.786c-1.575,4.38-1.575,4.38-5.694,10.806l1.38-1.854
			c2.449-3.414,2.506-3.552,5.472-10.755C267.717,223.727,264.222,224.354,259.976,224.079z"/>
		<path fill="#0A2B4E" d="M271.428,74.916c-0.233-0.391-0.479-0.793-0.735-1.209L271.428,74.916z"/>
		<path fill="#0A2B4E" d="M243.041,41.386l-0.603-0.518c-0.002-0.001-0.007-0.002-0.009-0.003c0.401,1.623,1.992,5.683,4.372,11.691
			C242.952,42.42,243.017,41.669,243.041,41.386z"/>
		<path fill="#0A2B4E" d="M244.96,43.386c0.13,0.023,0.303,0.054,0.433,0.077l-0.578-0.519c-0.008-0.007-0.018-0.016-0.025-0.022
			c-0.095,0.019-0.22,0.045-0.314,0.064c0.052,1.93,0.457,3.43,2.327,9.571C244.72,45.488,244.848,44.371,244.96,43.386z"/>
		<path fill="#0A2B4E" d="M246.802,52.557c0.058-0.454,0.108-0.848,0.155-1.2C246.907,51.691,246.858,52.069,246.802,52.557z"/>
		<path fill="#0A2B4E" d="M277.516,87.726L277.516,87.726c-1.35-4.382-2.556-6.703-5.188-11.331l-0.899-1.479
			c3.477,5.811,4.448,8.842,5.238,11.308c0.671,2.435,0.793,4.385,0.426,5.858c-11.313-17.887-23.192-31.431-30.29-39.524
			c16.631,18.99,24.216,30.389,31.131,41.337C278.342,92.356,278.225,90.302,277.516,87.726z"/>
		<path fill="#0A2B4E" d="M273.953,81.765c-1.288-4.678-4.667-10.678-9.361-17.057l-0.437-0.591l0,0
			c-0.774-1.042-1.842-2.406-2.635-3.434c8.748,11.098,10.662,17.071,11.479,19.622c0.522,1.897,0.652,3.449,0.43,4.658
			c-10.283-14.578-19.73-24.882-26.628-32.406c15.318,16.724,21.835,25.986,27.585,34.158
			C274.642,85.44,274.512,83.792,273.953,81.765z"/>
		<path fill="#0A2B4E" d="M269.982,75.996c-2.21-8.026-11.862-20.756-23.22-31.228c-0.106-0.058-0.272-0.073-0.39-0.105
			c-0.803,1.063-0.659,2.26,0.429,7.894c-0.946-5.179-0.698-6.055-0.355-7.267c0.191-0.043,0.445-0.1,0.636-0.143
			c10.692,9.89,19.759,21.871,21.843,29.436c0.39,1.414,0.513,2.593,0.394,3.54c-8.259-10.535-14.277-16.962-22.517-25.566
			c10.787,11.269,15.788,17.263,23.587,27.25C270.53,78.795,270.404,77.526,269.982,75.996z"/>
		<path fill="#0A2B4E" d="M265.586,70.41L265.586,70.41c-2.087-6.586-8.395-15.14-17.76-24.086l0,0
			c-1.333,0.537-1.236,2.322-1.024,6.233c-0.235-4.582,0.243-4.999,1.199-5.83c8.063,7.558,14.843,16.583,16.423,22.322
			c0.271,0.985,0.375,1.823,0.326,2.514c-7.057-8.121-11.625-12.687-17.948-19.006c9.628,9.625,12.803,13.298,19.129,20.614
			C265.995,72.417,265.885,71.497,265.586,70.41z"/>
		<path fill="#0A2B4E" d="M261.042,66.866c0.018-0.51-0.066-1.115-0.26-1.817c-1.209-4.39-6.34-11.26-12.48-17.073
			c-0.892,0.806-1.048,1.178-1.345,3.382c0.206-1.377,0.434-1.701,1.37-2.954c5.509,5.232,10.103,11.395,11.189,15.34
			c0.19,0.745,0.196,0.858,0.236,1.6c-4.777-4.971-5.395-5.562-12.951-12.786C253.407,58.875,254.573,60.095,261.042,66.866z"/>
		<path fill="#0A2B4E" d="M255.564,59.915c-0.36-1.241-1.802-4.718-7.388-10.194c-0.582,0.746-1.038,1.953-1.375,2.836
			c0.263-0.763,0.835-1.688,1.246-2.382c1.489,1.44,5.066,5.15,6.135,8.483c0.084,0.305,0.128,0.573,0.133,0.807
			c-2.228-2.1-5.252-4.843-7.514-6.908c2.707,2.473,6.263,5.828,8.922,8.352C255.72,60.623,255.668,60.292,255.564,59.915z"/>
		<path fill="#0A2B4E" d="M249.919,55.016c-0.245-0.89-1.255-2.262-2.482-3.456l-0.635,0.997l0.354-0.524
			c0.695,0.692,1.13,1.297,1.291,1.8c0.011,0.046,0.021,0.107,0.027,0.153l-1.672-1.43l3.171,2.761
			C249.968,55.229,249.95,55.128,249.919,55.016z"/>
		<path fill="#0A2B4E" d="M206.272,268.429c2.886-7.306,3.492-9.43,5.409-18.938c0.931-0.884,1.855-1.784,2.774-2.7
			c37.272-37.134,55.594-90.821,51.155-138.197c-2.874-8.462-3.004-8.834-9.765-28.309c-2.313-1.391-4.822-3.105-7.488-5.14
			c-7.45-5.684-14.763-12.824-20.452-19.97c0.147-0.22,0.345-0.514,0.492-0.734c-2.045-0.676-3.004,0.143-3.576,0.633
			c0.424,0.339,1.186,0.552,1.729,0.54c6.189,7.392,13.864,14.886,21.684,20.851c2.738,2.089,5.319,3.857,7.703,5.3
			c7.22,21.373,7.22,21.373,9.21,27.34c3.813,47.025-14.757,100.227-51.832,137.165c-1.116,1.113-2.242,2.202-3.375,3.269
			c-1.604,9.765-3.652,14.878-5.633,19.822c9.583,2.888,16.974,2.897,21.622-0.028l1.781-1.143
			C223.122,271.177,215.794,271.237,206.272,268.429z"/>
		<path fill="#0A2B4E" d="M198.37,271.976c3.629-7.94,4.444-11.966,6.271-22.438c1.742-1.595,3.469-3.244,5.18-4.947
			c36.481-36.347,55.778-88.091,53.81-134.035c-2.527-8.117-5.094-16.22-7.635-24.332c-2.567-1.583-5.329-3.489-8.247-5.716
			c-13.872-10.583-27.349-25.386-34.349-37.412c0.278-0.122,0.65-0.285,0.929-0.407c-0.019-0.021-2.375-1.738-4.75-0.394
			c0.547,0.261,1.317,0.524,1.906,0.663c7.609,12.505,21.631,27.906,36.063,38.918c2.965,2.262,5.774,4.207,8.392,5.83
			c2.373,7.771,4.761,15.537,7.141,23.306c1.364,45.574-18.168,96.831-54.452,132.98c-1.907,1.9-3.836,3.733-5.782,5.5
			c-1.997,12.614-3.07,15.442-6.483,23.307c9.807,3.199,17.427,3.492,22.3,0.819l1.848-1.034
			C215.69,275.32,208.125,275.099,198.37,271.976z"/>
		<path fill="#0A2B4E" d="M190.35,275.069c4.454-8.413,5.645-16.499,7.022-25.86c2.56-2.265,5.093-4.643,7.593-7.133
			c35.688-35.555,55.904-85.34,56.327-129.771c-3.644-12.761-3.644-12.761-5.734-20.157c-2.737-1.728-5.655-3.764-8.724-6.104
			c-10.345-7.893-20.5-17.808-28.289-27.888c0.067-0.269,0.157-0.626,0.225-0.895c-1.644-0.797-2.797-0.141-3.749,0.536
			c0.023,0.282,0.054,0.659,0.077,0.942c0.521,0.152,1.259,0.236,1.8,0.192c8.466,10.112,18.966,20.363,29.661,28.523
			c3.09,2.357,6.033,4.416,8.799,6.172c1.534,5.586,2.182,7.909,5.296,19.075c-1.005,44.044-21.441,93.341-56.931,128.699
			c-2.702,2.692-5.44,5.253-8.209,7.682c-1.742,14.526-3.862,19.604-7.177,26.688c9.991,3.496,17.813,4.068,22.89,1.656l1.875-0.908
			C208.073,278.996,200.299,278.493,190.35,275.069z"/>
		<path fill="#0A2B4E" d="M182.276,277.702c4.558-8.785,5.961-15.28,7.631-29.168c3.378-2.898,6.721-5.989,10.016-9.272
			c34.896-34.768,55.968-82.601,58.683-125.463c-1.226-4.716-2.85-11.008-4.061-15.729c-2.821-1.822-5.806-3.925-8.926-6.306
			c-18.259-13.93-35.996-33.413-45.3-49.287c0.269-0.216,0.626-0.503,0.895-0.719c-0.644-0.713-2.115-0.961-4.374-0.737
			c-0.176,0.263-0.409,0.614-0.585,0.877c0.59,0.278,1.429,0.542,2.069,0.656c9.905,16.279,28.157,36.327,46.945,50.661
			c3.119,2.379,6.105,4.489,8.935,6.326c1.093,4.379,2.565,10.215,3.675,14.59c-3.273,42.462-24.548,89.809-59.246,124.378
			c-3.493,3.48-7.037,6.746-10.617,9.797c-1.683,15.226-3.134,20.83-7.765,29.983c10.097,3.763,18.062,4.616,23.32,2.501
			l1.929-0.797C200.285,282.185,192.352,281.4,182.276,277.702z"/>
		<path fill="#0A2B4E" d="M174.153,279.896c6.008-9.949,7.078-21.369,8.112-32.413c4.182-3.495,8.327-7.278,12.412-11.349
			c34.106-33.979,55.966-79.868,60.879-121.107c-0.783-3.325-1.813-7.761-2.586-11.088c-2.819-1.861-5.777-3.966-8.854-6.314
			c-13.084-9.982-25.927-22.521-35.728-35.478c-0.004-0.283-0.01-0.66-0.014-0.943c-0.021-0.018-2.313-1.48-4.213,0.995
			c0.095,0.275,0.221,0.641,0.315,0.916c0.582,0.183,1.413,0.288,2.021,0.229c10.617,12.68,23.784,25.536,37.197,35.77
			c3.052,2.328,5.99,4.424,8.795,6.286c0.666,2.97,1.573,6.927,2.25,9.895c-5.445,40.827-27.491,86.231-61.399,120.013
			c-4.283,4.268-8.628,8.222-13.009,11.861c-1.575,21.1-4.797,26.98-8.208,33.207c10.15,4.004,18.22,5.129,23.632,3.313l1.961-0.678
			C192.34,284.9,184.294,283.842,174.153,279.896z"/>
		<path fill="#0A2B4E" d="M166.041,281.649c5.479-9.278,7.135-16.257,8.438-35.557c4.968-4.063,9.908-8.524,14.784-13.383
			c33.315-33.191,55.892-77.147,62.894-116.724l-1.318-6.237c-2.728-1.839-5.568-3.88-8.509-6.124
			c-22.38-17.074-44.12-40.954-55.32-60.561c0.165-0.27,0.385-0.631,0.55-0.901c-0.017-0.02-2.119-1.728-5.141-0.155
			c0.07,0.29,0.165,0.676,0.235,0.966c0.578,0.229,1.397,0.413,2.014,0.492c12.062,19.824,34.288,44.237,57.168,61.693
			c2.893,2.207,5.692,4.223,8.385,6.048l1.03,4.974c-7.507,39.155-30.251,82.631-63.368,115.626
			c-5.074,5.055-10.212,9.685-15.373,13.885c-0.989,23.714-4.976,30.416-8.491,36.329c10.153,4.219,18.284,5.601,23.821,4.087
			l0.723-0.2l0,0l1.274-0.362C184.326,287.138,176.204,285.819,166.041,281.649z"/>
		<path fill="#0A2B4E" d="M281.792,103.2c-5.481-10.087-7.565-13.375-14.872-24.269c-0.368,0.214-0.805,0.355-1.306,0.423
			c-0.849-1.443-1.016-1.587-1.176-1.727c0.005,0.045,2.066,4.939,2.811,5.147c-0.116-0.436-0.315-0.882-0.69-1.66
			c0.508-0.068,0.954-0.208,1.334-0.419c7.846,11.913,9.62,15.118,14.563,24.395c0.687-1.913,0.608-4.581-0.337-8.016
			c-0.521-1.864-0.58-2.008-2.076-5.687l0,0l-1.134-2.502c1.105,2.365,1.957,4.588,2.519,6.628
			C282.33,98.79,282.42,101.349,281.792,103.2z"/>
		<path fill="#0A2B4E" d="M286.265,118.601c-4.373-10.313-6.141-13.744-12.458-25.205c-0.649,0.258-1.411,0.393-2.276,0.406
			c-0.688-1.52-0.875-1.672-1.073-1.832c-0.217,0.766,1.357,4.703,1.975,5.458c0.055-0.023,0.128-0.055,0.183-0.078
			c-0.005-0.396-0.093-0.794-0.377-1.708c0.863-0.013,1.627-0.143,2.283-0.391c6.784,12.537,8.224,15.833,12.171,25.333
			c1.534-3.529,1.061-6.105,0.016-10.727c-0.157-0.546-0.319-1.092-0.485-1.636C287.492,112.836,287.447,116.291,286.265,118.601z"
			/>
		<path fill="#0A2B4E" d="M276.467,100.868c-0.364,0.117-0.755,0.203-1.172,0.259c-0.64-1.529-0.827-1.67-1.025-1.82
			c-0.203,0.222,0.884,4.73,1.891,5.605c0.103-0.178,0.199-0.347-0.224-1.918c0.395-0.053,0.766-0.132,1.113-0.237
			c6.266,12.815,7.547,16.153,11.025,25.755c1.491-2.322,1.775-5.873,0.66-10.672l-0.484-2.097c1.19,4.844,0.968,8.43-0.476,10.778
			C283.92,116.089,282.304,112.59,276.467,100.868z"/>
		<path fill="#0A2B4E" d="M286.707,109.856c-0.049-0.179-0.101-0.36-0.153-0.542l-0.704-2.357c0.134,0.427,0.258,0.848,0.372,1.263
			C286.388,108.765,286.55,109.31,286.707,109.856z"/>
		<path fill="#0A2B4E" d="M284.326,102.601c-0.098-0.266-0.192-0.532-0.293-0.797c1.26,4.799,0.93,6.608,0.236,9.017
			c-4.918-10.208-6.843-13.57-13.652-24.758c-0.797,0.385-1.819,0.524-3.044,0.42c-0.728-1.49-0.908-1.652-1.1-1.824
			c-0.087,0.443,1.429,4.751,2.306,5.391c0.006-0.294,0.011-0.506-0.44-1.765c1.249,0.106,2.298-0.029,3.123-0.41
			c7.312,12.235,8.916,15.487,13.353,24.876c1.159-2.957,0.681-5.481-0.194-9.355l-0.001-0.001c-0.278-0.994-0.74-2.291-1.064-3.271
			l-0.826-2.214c0.526,1.353,0.964,2.653,1.305,3.893C284.134,102.069,284.229,102.335,284.326,102.601z"/>
		<path fill="#0A2B4E" d="M185.161,26.802c0.175,0.633,0.374,1.283,0.597,1.946c13.91,5.289,13.91,5.289,44.608,17.396
			c3.297,5.448,9.02,11.998,15.216,17.283c0.872-4.006,1.292-7.651,1.22-10.871c-0.015,2.881-0.439,6.119-1.244,9.667
			c-5.63-4.843-10.807-10.799-13.782-15.748c-25.308-10.274-29.852-12.091-44.199-17.674c-0.189-0.574-0.36-1.137-0.512-1.688
			c-2.246-8.154,0.1-12.256,5.8-12.434c18.619,5.738,29.918,13.97,36.669,18.889c0.269,0.096,0.545,0.202,0.828,0.316
			c0.962,0.817,0.962,0.817,1.519,1.159c-0.022-0.024-2.43-2.521-3.537-2.954c0.228,0.216,0.537,0.5,0.771,0.709
			c-0.269-0.109-0.531-0.21-0.788-0.303c-14.335-10.923-28.565-15.639-37.068-18.456C185.304,14.159,182.838,18.367,185.161,26.802z
			"/>
		<path fill="#0A2B4E" d="M237.384,48.188c-22.229-10.142-32.131-14.361-42.613-18.828c-0.079-0.259-0.153-0.515-0.223-0.768
			c-1.944-7.058-0.044-10.723,4.697-11.1c18.163,6.6,28.768,15.41,35.104,20.674c0.789,0.263,1.665,0.643,2.618,1.139
			c0.807,0.855,0.807,0.855,1.149,1.055c-0.019-0.024-1.904-2.441-2.808-2.888c0.186,0.219,0.438,0.506,0.63,0.721
			c-1.013-0.528-1.947-0.936-2.791-1.222c-13.384-11.646-27.228-17.015-35.499-20.223c-4.975,0.333-6.98,4.109-4.962,11.438
			c0.089,0.322,0.185,0.649,0.287,0.98c10.092,4.203,19.625,8.173,43.019,18.537c2.06,3.489,5.664,7.701,9.633,11.204
			c0.597-2.294,0.993-4.417,1.177-6.351c-0.21,1.644-0.582,3.433-1.107,5.354C242.261,54.856,239.154,51.207,237.384,48.188z"/>
		<path fill="#0A2B4E" d="M242.896,50.506c-17.704-9.103-28.146-14.04-40.964-20.021c-0.004-0.012-0.007-0.024-0.011-0.036
			c-1.65-5.993-0.147-9.202,3.714-9.712c17.688,7.5,26.829,16.183,33.503,22.522c0.221,0.068,0.452,0.152,0.695,0.25
			c0.957,1.088,0.957,1.088,1.232,1.34c-0.018-0.026-2.098-2.805-3.305-3.762c0.204,0.266,0.289,0.375,0.942,1.13
			c-0.264-0.107-0.516-0.199-0.756-0.274c-12.435-12.396-25.878-18.444-33.911-22.058c-4.073,0.483-5.67,3.808-3.947,10.063
			c0.018,0.067,0.037,0.134,0.056,0.201c12.647,5.769,23.019,10.56,41.382,19.719c0.952,1.656,2.634,3.664,4.516,5.38
			c0.303-0.942,0.556-1.84,0.759-2.692c-0.171,0.613-0.37,1.252-0.597,1.916C244.823,53.201,243.592,51.724,242.896,50.506z"/>
		<path fill="#0A2B4E" d="M246.712,52.426L246.712,52.426c0.026,0.04,0.063,0.092,0.09,0.131c-0.17-0.253-0.337-0.509-0.517-0.756
			C246.421,52.014,246.568,52.218,246.712,52.426z"/>
		<path fill="#0A2B4E" d="M216.797,27.438c-2.35,0.556-3.306,2.677-2.464,6.407c13.912,7.597,20.891,11.62,32.469,18.712
			c-10.252-6.44-17.144-10.498-30.722-18.089c-0.752-3.447,0.136-5.424,2.301-5.972c15.306,9.155,20.521,14.826,28.421,24.061
			C236.739,40.589,231.411,36.128,216.797,27.438z"/>
		<path fill="#0A2B4E" d="M223.125,31.835c-1.652,0.502-2.347,2.07-1.83,4.729c12.903,7.714,16.169,9.833,25.507,15.993
			c-10.413-7.033-14.884-9.771-23.79-15.225c-0.449-2.417,0.186-3.856,1.682-4.338c10.141,6.928,13.24,9.67,22.108,19.563
			C237.463,41.953,234.434,39.523,223.125,31.835z"/>
		<path fill="#0A2B4E" d="M76.963,265.771c-0.063,0.063-0.149,0.148-0.212,0.212c0.253,0.924,2.269,1.561,2.788,1.648
			c0.66,0.112,0.767,0.003,0.96-0.197c-0.123-0.372-0.123-0.372-0.492-0.693c-0.665-0.475-1.284-0.75-2.138-0.949
			c-4.234-3.327-8.435-6.872-12.546-10.565c-13.576-5.013-16.837-7.142-19.218-9.052l0.52,0.554
			c3.327,3.126,12.751,6.799,18.383,8.993C68.929,259.232,72.93,262.603,76.963,265.771z"/>
		<path fill="#0A2B4E" d="M70.099,264.811c-0.03,0.036-0.069,0.084-0.1,0.12c0.482,0.731,2.319,1.442,2.337,1.448
			c0.58,0.207,0.685,0.168,0.876,0.095c-0.079-0.238-0.079-0.238-0.384-0.497c-0.55-0.4-1.082-0.683-1.834-0.973
			c-2.74-2.152-5.463-4.416-8.147-6.761c-7.952-3.951-9.357-5.113-12.438-7.659l0.568,0.555c3.166,2.873,6.69,4.741,11.568,7.326
			C65.07,260.662,67.627,262.783,70.099,264.811z"/>
		<path fill="#0A2B4E" d="M75.721,269.595c-0.426-0.267-0.814-0.489-1.642-0.906c-1.402-0.992-2.839-2.048-4.307-3.168
			c-2.729-2.082-5.444-4.292-8.122-6.599c-5.082-3.05-5.998-3.6-8.94-6.132l0.361,0.337l0.241,0.224
			c3.584,2.905,4.044,3.278,8.042,5.652c2.514,2.159,5.064,4.229,7.625,6.184c1.423,1.086,2.816,2.109,4.175,3.071
			c-0.094-0.038-0.221-0.082-0.316-0.111c0.228,0.362,2.14,1.345,2.159,1.354l0,0c0.84,0.426,0.983,0.437,1.148,0.448
			C76.021,269.794,76.021,269.794,75.721,269.595z"/>
		<path fill="#0A2B4E" d="M287.324,174.946c-2.322,1.864-5.664,2.653-9.891,2.38c0.021-0.464,0.09-1.876-0.53-1.992
			c-0.113-0.021-3.049,4.296-1.188,5.744c0.407-0.137,0.758-0.254,1.331-1.837c4.356,0.282,7.781-0.554,10.133-2.521
			c3.583-12.889,3.85-18.31,4.433-30.188c0.252-1.423,0.357-3.356,0.388-4.801l-0.132-2.214c0.149,2.045,0.01,3.823-0.401,5.335
			C291.243,158.665,290.016,163.768,287.324,174.946z"/>
		<path fill="#0A2B4E" d="M291.883,151.551c-0.742,14.026-2.169,19.168-5.296,30.434c-3.818,3.62-10.753,3.981-20.116,1.154
			c3.293-11.191,5.396-22.668,6.438-34.291c0.738-1.013,1.155-4.379-0.135-5.594c-1.433,0.404-1.393,4.294-0.692,5.523
			c-0.998,12.115-3.348,24.223-7.014,35.998c9.983,3.165,17.334,2.846,21.267-1.04c4.087-12.976,4.556-18.478,5.583-30.533
			c0.175-0.924,0.266-1.929,0.27-3.017l0.001-2.088C292.199,149.356,292.097,150.508,291.883,151.551z"/>
		<path fill="#0A2B4E" d="M261.392,189.762c0.064-0.478,0.262-1.931-0.604-2.303c-1.283-0.552-3.186,2.884-2.645,4.774
			c0.212,0.739,1.154,1.608,2.574-0.625c11.744,4.079,20.226,3.769,24.35-1.046c3.756-10.701,4.879-16.382,5.966-24.816
			c-1.167,8.937-2.772,14.075-5.608,23.127C281.284,193.507,272.924,193.767,261.392,189.762z"/>
		<path fill="#0A2B4E" d="M291.163,164.705c-0.044,0.35-0.087,0.7-0.131,1.041C291.076,165.405,291.12,165.057,291.163,164.705z"/>
		<path fill="#0A2B4E" d="M291.163,164.705c0.195-1.551,0.392-3.189,0.605-4.982c0.049-0.374,0.085-0.759,0.11-1.156l0.123-2.099
			c-0.026,0.569-0.078,1.115-0.153,1.638C291.635,160.552,291.407,162.717,291.163,164.705z"/>
		<path fill="#0A2B4E" d="M290.328,172.132l0.066-0.452c-0.041,0.257-0.084,0.498-0.126,0.749
			C290.289,172.328,290.309,172.234,290.328,172.132z"/>
		<path fill="#0A2B4E" d="M290.269,172.429c-0.718,3.54-1.251,6.161-1.729,8.324C289.187,178.21,289.752,175.522,290.269,172.429z"
			/>
		<path fill="#0A2B4E" d="M290.395,171.68c0.219-1.363,0.43-2.807,0.635-4.356L290.395,171.68z"/>
		<path fill="#0A2B4E" d="M271.194,199.943c0.07-0.376,0.257-1.376-0.057-1.756c-0.98-1.187-3.082,3.308-2.769,4.822
			c0.125,0.606,0.84,1.139,2.148-1.229c5.969,0.386,10.353-1.13,12.847-4.58c3.011-8.162,3.906-10.712,5.176-16.448
			c-1.214,4.771-2.713,9.077-4.709,14.808C281.334,198.869,277.025,200.32,271.194,199.943z"/>
		<path fill="#0A2B4E" d="M237.187,261.376c8.627-8.543,10.897-13.51,14.224-26.156c-2.632-0.271-5.524-0.859-8.657-1.762
			c0.493-1.131,0.441-1.716-0.178-2.018c-1.869-0.237-3.932,2.46-4.073,3.785c-0.124,1.161,1.035,1.688,3.066-0.163
			c3.009,0.865,5.797,1.443,8.346,1.729c-3.573,13.195-6.144,17.797-14.477,25.914c0.335-0.206,0.656-0.426,0.963-0.66l0,0
			l1.688-1.312C237.8,260.961,237.5,261.175,237.187,261.376z"/>
		<path fill="#0A2B4E" d="M153.241,25.09c4.883,17.73,23.771,44.315,47.467,68.589c-24.129,22.585-53.798,51.229-82.271,79.597
			c-5.581,5.561-10.898,10.894-16.328,15.802c-0.923-0.093-3.083-0.31-3.469,2.049c-0.372,2.27,2.037,4.374,4.345,3.05
			c1.475-1.135,1.146-2.472,0.883-3.545c5.041-5.063,10.365-10.39,15.946-15.95c28.95-28.842,58.955-58.156,83.011-81.206
			c-23.759-24.149-42.778-50.78-47.648-68.465c-3.535-12.836,1.063-18.493,11.329-17.227l-2.159-0.234
			C154.202,6.459,149.697,12.222,153.241,25.09z"/>
		<path fill="#0A2B4E" d="M78.501,217.836c1.296,2.053,3.12,1.556,3.537,1.311c0.539-0.316,1.697-1.672,0.012-3.675
			c-1.808-1.546-3.33-0.889-3.844,0.516c-36.007-3.693-44.563-4.57-50.762-1.111c-6.841-9.665-11.8-18.704-13.934-25.973
			l0.701,2.333c2.221,7.06,7.049,15.736,13.625,24.985C30.43,214.49,34.351,211.874,78.501,217.836z"/>
		<path fill="#0A2B4E" d="M71.833,210.805c1.264,2.043,2.926,1.606,3.409,1.292c0.02-0.013,1.911-1.406-0.012-3.8
			c-1.758-1.563-3.215-0.856-3.694,0.601c-30.174-2.652-38.585-2.964-45.506,0.351c-7.141-10.273-12.256-19.837-14.367-27.5
			c-0.14-0.508-0.265-1.002-0.376-1.483l0.494,2.126c0.081,0.328,0.168,0.662,0.261,1.002c2.092,7.598,7.196,17.099,14.318,27.299
			C29.148,209.145,34.338,206.268,71.833,210.805z"/>
		<path fill="#0A2B4E" d="M145.502,25.639c4.905,17.811,23.15,44.056,46.43,68.649c-24.153,20.788-52.364,46.868-78.93,73.334
			c-0.808,0.806-1.609,1.605-2.82,2.234c-2.929-0.445-3.589,1.62-3.722,2.264c-0.485,2.353,1.976,4.531,4.395,3.098
			c1.189-0.787,1.555-2.058,1.088-3.776c0.796-0.796,1.598-1.597,2.406-2.401c27.042-26.942,55.635-53.646,79.822-74.875
			c-23.408-24.54-41.831-50.892-46.734-68.698c-3.557-12.917,0.648-18.982,10.384-18.428l-1.621-0.08l-0.539-0.022
			C146.053,6.548,141.94,12.707,145.502,25.639z"/>
		<path fill="#0A2B4E" d="M24.179,198.515c3.625-1.439,10.372-4.119,36.917-1.871c1.177,2.13,2.746,1.583,3.202,1.224
			c0.019-0.015,1.779-1.572-0.019-4.004c-1.633-1.569-3.043-0.832-3.462,0.788c-22.369-1.06-29.254-0.64-36.834,2.247
			c-7.108-10.627-12.196-20.475-14.407-28.505c-0.565-2.054-0.925-3.925-1.09-5.617l0.233,2.22c0.179,1.546,0.519,3.238,1.026,5.079
			C11.947,178.076,17.05,187.909,24.179,198.515z"/>
		<path fill="#0A2B4E" d="M130.064,27.845c4.819,17.5,21.313,42.38,43.008,66.78c-23.006,17.459-47.813,38.906-70.559,61.567
			c-0.808,0.805-1.608,1.606-2.802,2.234c-2.84-0.456-3.528,1.624-3.671,2.272c-0.524,2.374,1.82,4.577,4.206,3.134
			c1.179-0.797,1.564-2.076,1.143-3.804c0.794-0.798,1.595-1.6,2.403-2.404c23.223-23.137,48.485-45.129,71.714-62.984
			c-21.941-24.483-38.684-49.58-43.523-67.152c-3.619-13.139,0.025-19.868,9.009-20.388l-2.104,0.147
			C130.013,7.898,126.444,14.698,130.064,27.845z"/>
		<path fill="#0A2B4E" d="M23.105,185.043c6.837-2.35,12.482-2.852,24.955-3.087c0.782,2.006,2.229,2.073,2.972,1.351
			c0.017-0.017,1.594-1.73-0.029-4.176c-1.483-1.557-2.703-0.636-3.097,1.02c-13.893,0.252-17.987,0.931-24.851,3.133
			c-6.785-10.577-11.649-20.351-13.883-28.463c-0.941-3.415-1.373-6.381-1.332-8.902l-0.028,2.12
			c-0.002,2.422,0.427,5.249,1.318,8.484C11.365,164.638,16.266,174.439,23.105,185.043z"/>
		<path fill="#0A2B4E" d="M23.257,170.527c5.925-1.709,7.848-1.965,15.037-2.773c0.549,1.818,1.851,2.135,2.649,1.204
			c0.015-0.019,1.464-1.895,0.039-4.311c-1.414-1.625-2.51-0.207-2.806,1.263c-8.181,0.906-9.322,1.223-14.809,2.743
			c-6.235-10.17-10.724-19.559-12.908-27.492c-1.319-4.789-1.721-8.769-1.292-11.949l-0.271,2.059
			c-0.375,3.109,0.036,6.972,1.31,11.596C12.4,150.836,16.942,160.289,23.257,170.527z"/>
		<path fill="#0A2B4E" d="M26.724,153.416c9.785-2.144,17.059-2.654,32.639-3.021c5.847-7.365,12.546-14.854,20.073-22.353
			c7.859-7.829,16.188-15.24,25.161-21.974c0.637,0.125,1.429,0.281,2.482-0.297c0.027-0.016,2.673-1.68,1.247-4.161
			c-0.106-0.111-0.235-0.273-0.354-0.372c-1.33-1.104-5.086-0.378-4.754,3.288c-8.634,6.883-16.972,14.28-24.831,22.109
			c-7.33,7.302-13.865,14.606-19.585,21.807c-16.729,0.383-22.07,1.02-31.75,3.011c-6.008-10.117-10.352-19.458-12.551-27.446
			c-1.774-6.443-2.026-11.543-0.928-15.317l-0.568,1.988c-1.027,3.727-0.756,8.726,0.976,15.015
			C16.199,133.749,20.613,143.19,26.724,153.416z"/>
		<path fill="#0A2B4E" d="M28.175,145.525c9.401-2.178,18.501-2.537,29.039-2.952c5.334-6.686,11.375-13.424,18.107-20.132
			c3.08-3.069,6.239-6.065,9.465-8.984c0.943,0.44,1.868,0.365,2.748-0.224c1.741-1.166,2.164-3.611,0.822-4.756
			c-1.606-1.372-5.093,0.295-4.561,3.596c-3.229,2.915-6.39,5.909-9.47,8.979c-6.535,6.51-12.411,13.06-17.616,19.57
			c-15.528,0.479-20.808,1.501-28.115,2.916c-5.579-9.64-9.628-18.549-11.746-26.236c-1.946-7.065-2.11-12.558-0.707-16.5
			l-0.687,1.963c-1.323,3.903-1.136,9.299,0.767,16.209C18.361,126.738,22.486,135.76,28.175,145.525z"/>
		<path fill="#0A2B4E" d="M34.813,121.408c6.308-1.14,8-1.292,17.388-2.137c3.712-4.443,7.75-8.85,12.111-13.194
			c7.858-7.83,16.334-15.026,25.226-21.532c0.853,0.445,1.759,0.412,2.693-0.099l0,0c0.028-0.015,2.717-1.564,1.664-3.913
			c-0.086-0.105-0.188-0.257-0.288-0.35c-1.37-1.273-4.995,0.153-4.865,3.076c-8.907,6.481-17.39,13.666-25.249,21.495
			c-4.163,4.148-8.029,8.356-11.598,12.601c-7.079,0.559-7.427,0.614-16.36,2.021c-4.188-7.897-7.287-15.233-9.08-21.744
			c-2.429-8.821-2.242-15.332,0.19-19.573l-1.042,1.846c-2.339,4.228-2.492,10.663-0.102,19.342
			C27.327,105.871,30.507,113.351,34.813,121.408z"/>
		<path fill="#0A2B4E" d="M238.475,123.971c-0.837-0.484-1.32-0.057-2.052,0.59c-0.514-0.385-1.028-0.776-1.547-1.171
			c-8.036-6.131-16.007-12.956-23.643-20.147c-21.091,25.7-48.972,56.432-77.604,84.958c-3.029,3.018-6.002,5.946-8.914,8.783
			c0.492,19.446,2.067,38.851,2.165,58.312c-0.59,0.197-1.284,0.728-1.695,1.196c0.378,2.523,3.72,3.244,5.587,1.205
			c-0.181-1.296-0.213-1.529-1.843-2.268c-0.183-19.239-1.644-38.428-2.205-57.652c2.733-2.66,5.518-5.401,8.349-8.223
			c28.155-28.051,55.404-58.403,76.077-84.107c7.454,6.965,15.21,13.575,23.027,19.539c0.525,0.401,1.049,0.797,1.522,1.597
			c0.171,1.873,0.372,1.974,1.484,2.536c0.546-0.216,1.29-0.628,1.6-1.127h-0.001C239.8,126.029,239.065,124.888,238.475,123.971z"
			/>
		<path fill="#0A2B4E" d="M219.629,142.614c1.47,0.264,4.156-2.396,1.98-5.142c-1.009-0.519-1.367-0.557-2.571,0.267
			c-2.507-2.017-5.003-4.086-7.481-6.199c-16.421,24.119-37.389,49.657-60.293,72.476c-0.653,0.651-1.305,1.297-1.955,1.937
			c0.383,14.758,0.383,14.758,0.307,23.076c-0.54,0.319-1.28,0.757-1.475,1.745c-0.403,2.045,2.271,3.8,4.82,2.5l0,0
			c1.703-0.963,2.019-3.444-0.832-4.458c-0.377-10.165-0.377-10.165-0.736-22.179c0.454-0.448,0.909-0.899,1.364-1.354
			c22.428-22.345,42.88-47.396,58.944-71.236c2.119,1.791,4.249,3.548,6.387,5.269C217.682,141.969,219.03,142.506,219.629,142.614z
			"/>
		<path fill="#0A2B4E" d="M246.898,52.674c-0.029-0.035-0.068-0.082-0.097-0.117c0.41,0.51,0.804,1.034,1.23,1.531
			C247.932,53.948,247.533,53.447,246.898,52.674z"/>
		<path fill="#0A2B4E" d="M277.509,117.504L258.772,75.29c-0.536-1.198-0.677-1.369-0.909-1.653
			c-0.015,0.006-0.032,0.015-0.047,0.021c0.017,0.19,1.13,4.531,1.99,4.795c9.899,20.793,14.339,31.983,17.906,40.975
			c1.275,0.09,2.425,0.027,3.438-0.188c0.423,1.399,0.562,1.529,0.865,1.812c0.109-0.232,0.293-0.62-0.078-2.433
			c-0.126-0.615-0.48-2.151-1.056-3.14c-0.099,0-0.229,0-0.327,0c-0.025,0.551-0.033,0.717,0.149,1.831
			C279.759,117.511,278.69,117.576,277.509,117.504z"/>
		<path fill="#0A2B4E" d="M240.962,39.703c-0.157-0.206-0.688-0.648-1.238-1.095l-0.732-0.591l-0.015-0.011l-0.045-0.036
			l-0.832-0.661c0.908,0.73,1.762,1.526,2.66,2.27C240.923,39.705,240.923,39.705,240.962,39.703z"/>
		<path fill="#0A2B4E" d="M198.825,15.546c3.162,1.258,3.211,1.27,3.528,1.341c6.673,2.738,7.41,3.137,16.436,8.026
			c2.447,1.075,5.187,2.565,8.156,4.45c-3.413-2.229-6.545-3.966-9.324-5.2c-9.999-5.613-19.205-8.952-19.983-9.098
			C198.031,15.231,198.429,15.388,198.825,15.546L198.825,15.546z"/>
		<path fill="#0A2B4E" d="M230.693,31.865c-1.288-0.903-2.535-1.732-3.748-2.501c0.438,0.286,0.879,0.577,1.325,0.879
			L230.693,31.865z"/>
		<path fill="#0A2B4E" d="M137.758,26.559c4.883,17.732,22.321,43.4,44.924,68.034c-23.766,19.078-50.346,42.76-74.999,67.322
			c-5.581,5.561-10.845,10.948-16.159,15.963c-0.89-0.091-2.975-0.304-3.374,2.104c-0.383,2.311,1.926,4.451,4.173,3.102
			c1.084-0.731,1.381-1.952,0.883-3.629c4.939-5.171,10.21-10.552,15.791-16.112c25.13-25.037,52.131-49.302,76.03-68.798
			c-22.795-24.649-40.447-50.483-45.34-68.249c-3.595-13.056,0.328-19.474,9.698-19.472l-2.094,0.023
			C138.011,6.974,134.154,13.474,137.758,26.559z"/>
		<path fill="#0A2B4E" d="M122.404,29.5c4.715,17.122,20.151,41.021,40.728,64.922c-21.909,15.92-44.815,35.265-65.648,56.021
			c-5.581,5.561-10.795,11.005-15.995,16.128c-2.612-0.479-3.167,1.536-3.276,2.166c-0.403,2.343,1.782,4.491,3.96,3.106
			c1.05-0.75,1.359-1.987,0.917-3.677c4.843-5.278,10.063-10.716,15.645-16.276c21.311-21.232,44.7-41.089,66.911-57.387
			c-20.878-24.053-36.591-48.219-41.337-65.451c-3.618-13.137-0.28-20.134,8.252-21.175l-2.046,0.265
			C122.063,9.288,118.781,16.347,122.404,29.5z"/>
		<path fill="#0A2B4E" d="M107.33,33.898c4.396,15.962,17.482,37.418,35.325,59.593c-18.87,13.055-37.701,28.542-54.715,45.493
			c-5.581,5.56-10.749,11.062-15.842,16.292c-2.491-0.461-3.065,1.588-3.183,2.228c-0.432,2.364,1.611,4.497,3.718,3.073
			c1.019-0.772,1.34-2.024,0.955-3.724c4.751-5.387,9.925-10.88,15.506-16.44c17.496-17.431,36.857-33.382,56.164-46.785
			c-18.214-22.439-31.606-44.23-36.049-60.364c-3.618-13.137-0.762-20.559,7.042-22.426l-2.044,0.511
			C106.508,13.318,103.717,20.782,107.33,33.898z"/>
		<path fill="#0A2B4E" d="M30.003,137.527c8.57-1.713,12.441-2.054,25.276-2.768c4.813-5.97,10.194-11.945,16.136-17.865
			c7.858-7.829,16.265-15.131,25.027-21.835c0.679,0.268,1.524,0.602,2.771-0.108c0.027-0.016,2.698-1.623,1.453-4.04
			c-0.097-0.109-0.213-0.267-0.322-0.363c-1.223-1.072-4.912-0.374-4.814,3.179c-8.779,6.679-17.195,13.968-25.053,21.797
			c-5.744,5.723-10.959,11.504-15.64,17.29c-13.061,0.665-17.06,1.39-24.319,2.706c-5.127-9.107-8.87-17.534-10.891-24.873
			c-2.116-7.684-2.173-13.551-0.436-17.628l-0.436,1.032l-0.367,0.888c-1.654,4.047-1.569,9.825,0.506,17.359
			C20.941,119.729,24.761,128.281,30.003,137.527z"/>
		<path fill="#0A2B4E" d="M53.608,126.992c4.274-5.22,8.989-10.416,14.14-15.548c3.081-3.069,6.25-6.049,9.499-8.936
			c0.881,0.421,1.773,0.339,2.65-0.245c1.735-1.154,2.274-3.545,1.048-4.651c-1.468-1.324-4.906,0.335-4.574,3.553
			c-3.25,2.883-6.422,5.861-9.502,8.93c-4.954,4.935-9.5,9.935-13.636,14.962c-10.974,0.808-12.414,1.051-20.409,2.405
			c-15.054-27.994-11.737-37.454-10.143-42l-0.917,1.874c-5.203,12.206,5.367,32.426,10.446,42.143
			C39.817,128.168,41.625,127.856,53.608,126.992z"/>
		<path fill="#0A2B4E" d="M37.836,113.33c3.963-0.611,9.272-1.258,13.26-1.685c3.124-3.646,6.471-7.256,10.041-10.813
			c3.081-3.069,6.261-6.033,9.528-8.889c0.81,0.399,1.664,0.305,2.54-0.278c1.723-1.148,2.387-3.473,1.291-4.521
			c-1.315-1.259-4.694,0.402-4.581,3.513c-3.27,2.852-6.451,5.814-9.531,8.883c-3.373,3.36-6.545,6.769-9.517,10.215
			c-3.674,0.381-8.557,1.032-12.212,1.564c-3.712-7.236-6.484-13.976-8.147-20.015c-2.578-9.36-2.248-16.154,0.558-20.425
			l-1.145,1.771c-2.714,4.267-3.008,10.994-0.466,20.225C31.151,99.034,34.005,105.926,37.836,113.33z"/>
		<path fill="#0A2B4E" d="M41.273,105.31c2.698-0.429,6.318-0.844,9.028-1.184c2.502-2.838,5.143-5.645,7.923-8.415
			c7.858-7.83,16.393-14.925,25.396-21.241c0.783,0.411,1.652,0.368,2.586-0.126l0,0c0.027-0.015,2.725-1.518,1.891-3.758
			c-0.075-0.1-0.161-0.245-0.25-0.333c-1.218-1.208-4.806,0.184-4.9,2.981c-9.016,6.292-17.558,13.376-25.417,21.206
			c-2.582,2.572-5.043,5.179-7.385,7.814c-2.391,0.26-5.563,0.739-7.947,1.061c-3.243-6.548-5.691-12.667-7.215-18.203
			c-2.717-9.865-2.235-16.907,0.949-21.176l-1.26,1.714c-3.088,4.273-3.531,11.255-0.848,20.997
			C35.386,92.311,37.914,98.588,41.273,105.31z"/>
		<path fill="#0A2B4E" d="M66.639,48.75c-0.372,0.363-1.146,1.118-1.362,1.923c-0.327,1.223,0.909,1.266,2.224,0.538
			c1.165-0.644,2.281-1.807,2.597-2.705c0.228-0.647,0.141-1.662-1.816-0.869c-1.628-9.289,0.229-15.419,4.979-18.454l-1.774,1.155
			C66.832,33.415,65.023,39.532,66.639,48.75z"/>
		<path fill="#0A2B4E" d="M87.118,54.272c-2.85,2.481-1.935,4.515,0.049,4.622c0.543,0.03,1.392-0.14,2.018-0.402l0,0
			c1.602-0.671,4.204-2.851,2.962-4.852c-0.795-0.722-1.719-0.817-3.296-0.339c-1.463-3.504-2.64-6.842-3.505-9.983
			c-3.507-12.736-1.421-20.534,5.084-23.517l-1.899,0.89c-6.399,3.056-8.428,10.866-4.935,23.549
			C84.465,47.396,85.647,50.751,87.118,54.272z M90.177,54.526c1.007,0.412,0.453,1.887-0.972,2.587
			c-0.563,0.277-1.628,0.543-2.042-0.214C86.703,55.577,88.998,54.045,90.177,54.526z"/>
		<path fill="#0A2B4E" d="M62.891,63.482c-0.252,0.309-0.842,1.031-1.03,1.833c-0.358,1.525,0.885,2.053,2.508,1.067v0
			c0.983-0.597,1.859-1.634,2.181-2.579c0.387-1.139-0.006-2.417-2.078-1.547c-0.574-1.651-1.078-3.259-1.508-4.82
			c-3.277-11.899-1.895-19.686,3.274-23.451l-1.711,1.267c-5.069,3.81-6.402,11.58-3.146,23.4
			C61.812,60.217,62.316,61.828,62.891,63.482z"/>
		<path fill="#0A2B4E" d="M54.847,60.959c1.084-0.765,2.116-2.064,2.399-3.022c0.205-0.691,0.107-1.735-1.722-0.742
			c-1.523-8.691-0.046-14.665,3.961-17.97l-1.648,1.382c-3.916,3.33-5.348,9.275-3.839,17.884c-0.341,0.406-1.051,1.249-1.236,2.097
			C52.481,61.871,53.635,61.813,54.847,60.959z"/>
		<path fill="#0A2B4E" d="M229.729,140.473c0.297,2.082,2.192,2.528,3.438,0.81c0.43-0.648,1.265-2.355-0.246-4.19
			c-1.04-0.339-1.287-0.419-2.339,0.479c-0.572-0.43-1.148-0.866-1.727-1.308c-5.966-4.551-11.898-9.444-17.711-14.573
			c-17.896,25.022-41.017,52.437-65.833,77.162c-1.448,1.442-2.887,2.861-4.316,4.256c0.302,11.284,0.81,22.562,1.077,33.846
			c-0.612,0.269-1.538,0.675-1.749,1.688c-0.415,1.999,2.59,3.583,4.728,2.491c1.104-0.563,2.543-2.878-0.805-4.187
			c-0.881-23.144-0.881-23.144-1.174-33.1c1.237-1.21,2.481-2.438,3.731-3.683c24.335-24.245,46.9-51.2,64.417-76.027
			c5.524,4.833,11.151,9.452,16.807,13.766c0.585,0.447,1.168,0.888,1.686,1.745C229.718,139.896,229.694,140.228,229.729,140.473z"
			/>
		<path fill="#0A2B4E" d="M132.581,244.021c-0.39,1.719,2.213,3.435,4.613,2.479c1.088-0.554,2.499-2.608-0.776-3.957
			c-0.526-13.89-1.175-27.774-1.58-41.669c1.998-1.943,4.019-3.932,6.059-5.965c26.248-26.15,51.076-54.882,70.13-80.344
			c4.686,4.238,9.466,8.329,14.288,12.21c-0.329,2.471,0.75,3.006,1.423,3.106c1.318,0.195,3.697-2.469,1.721-5.02
			c-1.009-0.503-1.309-0.302-2.303,0.364c-5.113-4.114-10.177-8.467-15.129-12.983c-19.451,25.56-44.869,54.712-71.593,81.337
			c-2.238,2.23-4.451,4.407-6.635,6.531c0.187,7.299,0.187,7.299,1.636,42.335C133.744,242.71,132.797,243.07,132.581,244.021z"/>
		<path fill="#0A2B4E" d="M103.54,278.474c-0.086-0.245-0.086-0.245-0.373-0.448c-1.47-0.811-3.614-1.125-4.203-0.776
			c-0.039,0.713,2.11,1.211,2.769,1.346c13.072,7.989,19.515,9.479,23.779,10.465l2.13,0.354
			c-6.333-1.046-14.72-4.638-24.598-10.716C103.364,278.649,103.364,278.649,103.54,278.474z"/>
		<path fill="#0A2B4E" d="M115.453,286.568c-0.049-0.031-0.121-0.063-0.175-0.084c-1.193-0.402-4.558-1.167-4.89-1.142
			c0.105,0.099,1.115,0.399,2.574,0.767c1.414,0.496,2.756,0.896,4.022,1.199l1.258,0.293l0.96,0.215
			c-1.45-0.321-3.001-0.771-4.647-1.349C115.318,286.61,115.354,286.599,115.453,286.568z"/>
		<path fill="#0A2B4E" d="M96.209,278.896c-0.023-0.132-0.023-0.132-0.259-0.285c-1.196-0.642-3.306-1.256-4.008-1.246
			c-0.023,0.025-0.054,0.059-0.077,0.084c0.377,0.387,1.862,0.903,2.483,1.107c5.034,2.912,9.552,4.995,13.437,6.239l2.283,0.686
			c-4.119-1.24-8.971-3.44-14.412-6.587C95.987,278.94,95.987,278.94,96.209,278.896z"/>
		<path fill="#0A2B4E" d="M99.104,281.802L99.104,281.802l3.761,1.374c0.018,0.006,0.042,0.013,0.06,0.018
			c-0.04-0.017-0.094-0.037-0.134-0.053C101.563,282.692,100.329,282.261,99.104,281.802z"/>
		<path fill="#0A2B4E" d="M84.075,272.255c-0.585-0.379-1.196-0.659-2.109-0.968c-1.735-1.228-3.513-2.534-5.33-3.92
			c-4.233-3.229-8.443-6.71-12.563-10.36c-9.572-4.091-12.745-6.044-15.873-8.638l0.438,0.447l0.095,0.096
			c3.216,2.992,8.04,5.29,15.032,8.455c3.926,3.467,7.935,6.774,11.965,9.85c1.774,1.354,3.511,2.63,5.206,3.828
			c-0.077,0.002-0.18,0.004-0.257,0.005c-0.006,0.066-0.013,0.153-0.019,0.22c0.879,0.723,2.275,1.182,2.546,1.266
			c0.771,0.241,0.805,0.229,1.215,0.093C84.336,272.502,84.196,272.349,84.075,272.255z"/>
		<path fill="#0A2B4E" d="M23.493,191.927c3.375-1.362,11.277-4.552,44.16-1.952c1.209,2.263,3.01,1.57,3.426,1.261
			c0.021-0.016,1.982-1.651,0.109-4.198c-1.688-1.596-3.244-0.826-3.773,0.84c-27.989-1.28-35.873-0.498-44.045,2.346
			c-6.978-10.648-11.975-20.501-14.207-28.605c-0.747-2.71-1.155-5.122-1.247-7.239l0.097,2.123
			c0.115,2.012,0.514,4.286,1.214,6.826C11.454,171.419,16.478,181.276,23.493,191.927z"/>
		<path fill="#0A2B4E" d="M23.021,177.908c7.206-2.329,15.375-3.634,33.808-2.943c1.079,2.263,2.706,1.594,3.191,1.181
			c0.02-0.017,1.881-1.782,0.167-4.346c-1.395-1.425-2.956-0.977-3.553,1.021c-22.417-0.059-27.346,1.408-33.586,3.266
			c-6.535-10.415-11.228-20.032-13.446-28.085c-1.139-4.138-1.566-7.647-1.338-10.532l-0.122,1.644l-0.029,0.429
			c-0.182,2.806,0.248,6.192,1.342,10.166C11.679,157.781,16.417,167.445,23.021,177.908z"/>
		<path fill="#0A2B4E" d="M246.647,64.839c-0.947,0.457-1.266,4.516-0.362,4.621c0.313,0.037,0.616-0.512,0.773-1.398
			c0.088-0.5,0.234-2.015-0.144-3.004c0.474-4.565,0.448-8.756-0.113-12.5C247.272,56.226,247.207,60.344,246.647,64.839z
			 M246.793,67.468c-0.056,0.359-0.217,0.926-0.465,0.772c-0.421-0.432-0.07-2.294,0.266-2.287
			C246.806,65.958,246.908,66.736,246.793,67.468L246.793,67.468z"/>
		<path fill="#0A2B4E" d="M166.673,25.018c0.483,1.755,1.121,3.607,1.901,5.543c2.872,0.863,6.702,2.008,9.571,2.879
			c-1.024,0.981,1.241,1.78,3.317,1.92l0,0c1.261,0.085,4.596-0.089,3.607-1.381c-1.543-1.138-4.238-1.116-4.54-1.11
			c-1.53,0.032-1.53,0.032-10.177-2.604c-0.717-1.801-1.305-3.527-1.756-5.166c-2.796-10.15,0.145-15.237,7.269-15.424l8.572,1.77
			c0.044,0.014,4.598,1.438,5.875,1.661c-0.545-0.67-6.356-2.233-16.054-3.81C166.87,9.408,163.802,14.591,166.673,25.018z
			 M183.071,33.861c0.536,0.27,0.503,0.584-0.081,0.763c-0.459,0.141-1.048,0.133-1.279,0.123l0,0
			c-0.592-0.025-1.67-0.191-1.951-0.651C179.521,33.357,181.973,33.309,183.071,33.861z M185.193,11.52
			c0.675,0.096,3.236,0.851,3.469,1.022c-0.089,0.072-2.332-0.608-2.354-0.615c-0.697-0.212-1.09-0.347-1.166-0.399
			C185.154,11.52,185.178,11.519,185.193,11.52z"/>
		<path fill="#0A2B4E" d="M237.902,43.739c0.221,0.233,0.365,0.379,1.712,1.644c0.862,0.81,1.718,1.627,2.584,2.432
			c1.561,1.537,3.096,3.118,4.604,4.743c-1.499-1.627-3.024-3.211-4.577-4.751C241.131,46.657,238.493,44.092,237.902,43.739z"/>
		<path fill="#0A2B4E" d="M244.763,50.543c0.232,0.229,0.47,0.448,0.7,0.678l-0.209-0.209
			C245.092,50.853,244.925,50.702,244.763,50.543z"/>
		<path fill="#0A2B4E" d="M245.463,51.221l1.339,1.336l-0.926-0.937C245.74,51.484,245.6,51.357,245.463,51.221z"/>
		<path fill="#0A2B4E" d="M237.554,43.937c0.557,0.553,4.425,3.951,4.463,3.984c0.925,0.857,1.837,1.736,2.746,2.622
			c-0.904-0.888-1.806-1.779-2.727-2.639C240.999,46.88,238.134,44.246,237.554,43.937z"/>
		<path fill="#0A2B4E" d="M233.679,42.43c-0.74-0.599-4.331-3.111-4.833-3.062c0.184,0.157,0.461,0.394,1.975,1.377
			c0.084,0.054,2.056,1.334,2.856,1.775c4.131,2.793,8.138,5.819,12.001,9.079l1.124,0.958l-1.769-1.511
			C241.37,47.965,237.579,45.094,233.679,42.43z"/>
		<path fill="#0A2B4E" d="M242.124,47.848c-1.009-1.026-3.814-3.687-4.409-4.024c0.23,0.236,0.381,0.382,1.755,1.634
			c0.878,0.8,1.749,1.606,2.631,2.402c1.593,1.522,3.16,3.088,4.701,4.697C245.269,50.944,243.709,49.374,242.124,47.848z"/>
		<path fill="#0A2B4E" d="M228.867,39.884c0.188,0.157,0.474,0.394,1.987,1.336c0.209,0.13,2.069,1.287,2.841,1.685
			c1.907,1.289,4.068,2.85,6.225,4.449c-2.028-1.436-4.088-2.819-6.184-4.136c-0.765-0.579-4.38-2.92-4.791-2.769
			c0.194,0.158,0.488,0.396,1.994,1.292c0.082,0.049,2.021,1.204,2.816,1.587c2.741,1.703,5.421,3.521,8.047,5.43
			c1.768,1.329,3.483,2.639,4.999,3.798c-4.205-3.53-8.586-6.781-13.115-9.752C232.934,42.215,229.327,39.784,228.867,39.884z"/>
		<path fill="#0A2B4E" d="M277.872,139.69c-0.998-3.299-2.322-7.699-3.365-10.983c0.231-2.496-0.556-6.081-1.567-5.995
			c-1.309,1.224-0.301,7.393,0.735,7.643c0.223,0.054,0.334-0.094,0.475-0.28c1.087,3.449,2.537,8.049,3.537,11.524
			c5.029,0.852,8.795,0.136,11.025-2.177l1.117,4.466c0.009,0.639,0.071,3.888,0.52,5.12c0.054,0.012,0.123,0.029,0.176,0.042
			c0.314-0.854,0.247-3.048,0.219-3.7c-0.036-0.833-0.161-2.877-0.545-3.844c-0.052-0.014-0.122-0.032-0.175-0.046
			c-0.082,0.239-0.109,0.32-0.153,0.861c-0.384-1.474-0.896-3.438-1.28-4.912C286.441,139.73,282.78,140.481,277.872,139.69z
			 M273.576,128.436c-0.772-0.356-0.818-3.609-0.37-3.822c0.327-0.155,0.734,1,0.793,2.248l0,0
			C274.026,127.467,273.97,128.479,273.576,128.436z M290.254,143.356c0.093,0.092,0.222,0.741,0.278,1.764l0,0
			c0.031,0.565,0.052,1.718-0.093,2.035c-0.161,0.181-0.279-0.95-0.319-1.573C290.046,144.418,290.088,143.193,290.254,143.356z"/>
		<path fill="#0A2B4E" d="M277.627,159.186c0.264,0.045,0.927-0.139,1.388-2.78c3.435,0.367,6.265-0.002,8.406-1.116
			c0.104,1.821,0.275,2.317,0.517,2.528c0.678-0.103,0.783-3.405,0.788-3.546l0,0c0.011-0.353,0.084-3.465-0.564-4.208
			c-0.04,0.002-0.093,0.004-0.132,0.006c-0.033,0.038-0.077,0.089-0.109,0.126c-0.228,0.507-0.389,1.212-0.496,3.16
			c-2.112,1.099-4.904,1.463-8.293,1.102c-0.174-3.452-1.102-3.219-1.444-2.838C276.519,152.916,276.16,158.94,277.627,159.186z
			 M288.008,152.081c0.062-0.112,0.154-0.18,0.253,0.13c0.105,0.332,0.168,1.004,0.159,1.711l0,0
			c-0.008,0.575-0.087,1.722-0.334,1.952C287.605,156.041,287.712,152.622,288.008,152.081z M277.938,153.353
			c0.41-0.204,0.701,0.918,0.576,2.223c-0.059,0.616-0.276,1.66-0.72,1.667C276.947,156.974,277.384,153.628,277.938,153.353z"/>
		<path fill="#0A2B4E" d="M215.646,166.927c0.309,0.521,0.658,1.109,1.582,1.255c1.729,0.271,4.533-2.505,2.132-5.333
			c-2.729-1.146-3.688,1.417-3.916,2.229c-5.114,1.295-11.988,2.808-17.156,3.87c-8.727,11.717-18.338,23.261-28.603,34.199
			c0.434,9.924,0.434,9.924,0.8,21.988c2.433,1.797,4.826,3.519,7.18,5.164c-5.794,5.558-11.623,10.587-17.433,15.08
			c-2.861-0.509-3.859,0.867-4.097,1.301c-1.103,2.013,1.935,3.72,4.392,2.468c1.854-0.944,1.293-2.336,1.108-2.794
			c6.307-4.851,12.629-10.336,18.896-16.445c-2.616-1.808-5.284-3.711-8-5.709c-0.189-6.141-0.499-14.326-0.771-20.463
			c9.844-10.564,19.055-21.701,27.429-33.022C204.154,169.706,210.73,168.153,215.646,166.927z"/>
		<path fill="#0A2B4E" d="M197.295,207.141c-0.342,2.481,2.48,3.621,4.507,1.82l0,0c1.103-0.979,1.367-2.204,0.787-3.64
			c19.12-24.318,33.567-51.59,41.779-77.561c-0.021-0.125-2.115-12.551-1.65-13.676c0.171-0.412,0.636-1.87-0.528-3.344
			c-0.325-0.11-0.851-0.179-1.144,0c-1.036,0.631-2.145,4.353,0.192,4.938c0.571,3.641,1.369,8.49,1.965,12.127
			c-8.476,25.604-22.998,52.49-42.014,76.544C197.751,204.127,197.313,207.018,197.295,207.141z"/>
		<path fill="#0A2B4E" d="M40.002,62.496c1.18-1.23,2.796-3.43,2.525-3.832c-0.218-0.017-0.468,0.154-1.114,0.764
			c0.55-2.267,1.505-4.139,2.838-5.619l-1.435,1.615c-1.274,1.459-2.191,3.288-2.725,5.49c-1.327,1.712-1.491,2.264-1.485,2.553
			c0.024,0.016,0.056,0.038,0.08,0.055C38.818,63.489,39.124,63.411,40.002,62.496z"/>
		<path fill="#0A2B4E" d="M115.141,251.774c0.41-0.144,0.833-0.463,1.005-0.76c0.758-1.299-1.071-3.385-3.823-2.938
			c-3.088-2.521-6.159-5.107-9.205-7.752c-1.566-21.771-1.566-21.771-2.136-30.742c2.988-2.853,6.082-5.832,9.276-8.933
			c0.314,0.125,0.744,0.297,1.27,0.31c1.919,0.047,4.03-2.16,1.854-4.729c-0.273-0.22-0.651-0.51-0.975-0.645
			c-2.06-0.86-4.751,0.868-3.54,3.708c-3.363,3.284-6.612,6.437-9.74,9.449c0.595,9.49,0.595,9.49,2.286,31.941
			c3.2,2.788,6.429,5.515,9.676,8.164c-0.041,0.079-0.104,0.179-0.137,0.262C110.304,250.766,113.045,252.509,115.141,251.774z"/>
		<path fill="#0A2B4E" d="M162.98,256.31c-0.309-0.567-0.934-0.891-1.39-1.127c-3.878-1.216-7.046,1.372-6.072,3.256
			c0.061,0.117,0.173,0.256,0.247,0.365c-6.12,3.801-12.213,6.994-18.213,9.571c3.623,2.366,7.117,4.509,10.47,6.427
			c-1.961,1.379,0.013,2.201,0.938,2.401c0.994,0.214,2.43,0.181,3.494-0.082c2.167-0.534,2.912-1.786,1.533-2.575
			c-0.462-0.265-1.82-0.825-4.454-0.322c-3.002-1.718-6.116-3.613-9.333-5.688c5.571-2.439,11.211-5.404,16.867-8.888
			C160.996,260.774,163.996,258.181,162.98,256.31z M158.98,256.188c1.551-0.248,2.722,0.696,2.055,1.656
			c-0.136,0.195-0.363,0.388-0.626,0.528c-0.51,0.274-1.636,0.584-2.628,0.01C156.69,257.59,157.552,256.416,158.98,256.188z
			 M150.325,274.969c1.397-0.292,2.807,0.209,2.434,0.864c-0.178,0.313-0.683,0.494-0.892,0.558
			c-0.482,0.147-1.619,0.315-2.464-0.101C148.562,275.767,149.373,275.168,150.325,274.969z"/>
		<path fill="#0A2B4E" d="M225.176,263.657c3.946-3.135,7.774-6.54,11.465-10.217c0.795-0.792,1.579-1.592,2.353-2.4
			c0.8-0.327,1.603-0.886,2.388-1.66c0.022-0.022,2.289-2.3,1.168-2.679c-1.601,0.119-4.655,3.106-4.358,4.262
			c-0.773,0.808-1.558,1.607-2.353,2.4c-3.214,3.201-6.531,6.197-9.938,8.988c-2.11-0.229-4.385-0.655-6.813-1.281
			c1.047-2.924,1.975-6.976,3.019-9.9c0.116-0.326,0.474-0.32,0.693-0.505c0.924-0.773,1.514-1.729,1.467-2.377
			c-0.106-1.508-2.996-0.682-4.613,1.32c-1.021,1.263-0.982,2.489,0.704,2.302c-0.813,3.125-2.128,7.231-3.166,10.29
			C220.071,262.962,222.738,263.448,225.176,263.657z"/>
		<path fill="#0A2B4E" d="M262.324,230.784c-1.286,0.555-3.92,4.257-3.479,4.892c0.197,0.01,0.257,0.012,0.705-0.334
			c-3.225,7.523-5.433,10.818-10.739,16.025l1.626-1.594l0,0l2.185-2.235c1.886-2.261,4.476-5.308,5.684-7.989
			c0.74-1.642,1.521-3.938,2.467-5.471c0.335-0.543,0.787-1.001,1.111-1.551c0.761-1.295,0.713-1.56,0.589-1.736
			C262.428,230.789,262.368,230.786,262.324,230.784z"/>
		<path fill="#0A2B4E" d="M253.106,247.041l-0.485,0.497c-0.002,0.003-0.005,0.006-0.007,0.009
			C252.779,247.379,252.943,247.21,253.106,247.041z"/>
		<path fill="#0A2B4E" d="M66.566,252.714L66.566,252.714c0.854-0.156,1.419-1.224-0.492-2.794c-1.763-1.139-2.905-0.85-3.122,0.023
			c-15.575-4.898-19.281-6.723-20.104-7.373l0.497,0.566c3.531,2.384,16.032,6.438,19.779,7.623
			C63.851,252.18,65.677,252.876,66.566,252.714z M64.55,250.087c0.94-0.022,2.051,1.138,1.563,1.632
			c-0.045,0.045-0.125,0.093-0.195,0.116h0c-0.224,0.074-0.819,0.063-1.47-0.505C63.766,250.658,63.946,250.101,64.55,250.087z"/>
		<path fill="#0A2B4E" d="M80.264,204.848c1.286,2.17,3.121,1.661,3.662,1.313c0.021-0.015,2.105-1.528,0.112-4.004
			c-1.829-1.599-3.512-0.887-4.023,0.69c-35.462-2.612-46.165-3.4-55.143,0.393c-7.165-10.504-12.293-20.258-14.464-28.142
			c-0.34-1.235-0.602-2.401-0.786-3.497l0.367,2.18c0.174,0.944,0.404,1.938,0.692,2.983c2.158,7.836,7.29,17.552,14.456,28.009
			C28.353,203.092,34.338,199.963,80.264,204.848z"/>
		<path fill="#0A2B4E" d="M132.251,92.835c-17.015,11.7-33.717,25.391-48.823,40.442c-0.808,0.805-1.606,1.609-2.396,2.412
			c-3.048-1.068-3.878,2.016-3.913,2.148c-0.623,2.42,1.396,4.571,3.731,3.088c1.145-0.809,1.579-2.093,1.289-3.816
			c0.79-0.803,1.588-1.607,2.396-2.412c15.583-15.525,32.821-29.659,50.318-41.694c-16.68-21.294-28.828-41.689-33.068-57.084
			c-3.593-13.047-0.989-20.623,6.405-22.875l-1.971,0.618c-7.304,2.337-9.854,9.947-6.266,22.976
			C104.138,51.83,115.971,71.858,132.251,92.835z"/>
		<path fill="#0A2B4E" d="M114.831,31.516c4.573,16.606,18.866,39.356,38.149,62.51c-20.519,14.458-41.429,31.825-60.355,50.682
			c-0.808,0.805-1.607,1.607-2.781,2.239c-2.741-0.453-3.459,1.637-3.614,2.288c-0.566,2.376,1.645,4.58,3.985,3.13
			c1.163-0.802,1.57-2.086,1.21-3.815c0.792-0.801,1.591-1.604,2.399-2.409c19.403-19.331,40.821-37.183,61.712-52
			c-19.621-23.363-34.207-46.415-38.819-63.163c-3.628-13.173-0.522-20.403,7.67-21.86l-2.039,0.385
			C114.249,11.063,111.204,18.344,114.831,31.516z"/>
	</g>
</g>
</svg>
