<?xml version="1.0" encoding="utf-8"?>
<!-- Generator: Adobe Illustrator 16.0.0, SVG Export Plug-In . SVG Version: 6.00 Build 0)  -->
<!DOCTYPE svg PUBLIC "-//W3C//DTD SVG 1.1//EN" "http://www.w3.org/Graphics/SVG/1.1/DTD/svg11.dtd">
<svg version="1.1" id="Layer_2" xmlns="http://www.w3.org/2000/svg" xmlns:xlink="http://www.w3.org/1999/xlink" x="0px" y="0px"
	 width="995.801px" height="1704.148px" viewBox="0 0 995.801 1704.148" enable-background="new 0 0 995.801 1704.148"
	 xml:space="preserve">
<g>
	<path fill="#38D39F" stroke="#0A2B4E" stroke-width="4" stroke-miterlimit="10" d="M577.716,107.242
		c0-20.008-11.086-36.242-24.75-36.242s-24.75,16.233-24.75,36.242V1596h49.5V107.242z"/>
	
		<rect x="512.548" y="255.263" fill="#0A2B4E" stroke="#0A2B4E" stroke-width="4" stroke-miterlimit="10" width="84" height="38.344"/>
</g>
<path fill="none" stroke="#3F3B3B" stroke-miterlimit="10" d="M525.216,135.512"/>
<g>
	<path fill="none" stroke="#0A2B4E" stroke-width="7" stroke-miterlimit="10" d="M309.217,648.41c0,11.365-9.401,20.578-21,20.578
		l0,0c-11.6,0-21-9.213-21-20.578v-15.702c0-11.365,9.401-20.578,21-20.578l0,0c11.6,0,21,9.213,21,20.578V648.41z"/>
	<path fill="#FFFFFF" stroke="#0A2B4E" stroke-width="4" stroke-miterlimit="10" d="M469.71,1110.48c0,14.912-11.63,27-25.986,27
		H150.703c-14.35,0-25.986-12.088-25.986-27c0,0,4.5-165,7.494-213c2.994-47.994-7.494-219-7.494-219c0-14.906,11.637-27,25.986-27
		h293.021c14.356,0,25.986,12.094,25.986,27c0,0-10.095,150.006-11.536,226.506C456.721,981.486,469.71,1110.48,469.71,1110.48z"/>
	<path fill="none" stroke="#0A2B4E" stroke-width="7" stroke-miterlimit="10" d="M902.467,1436.016c0,0-2.25-355.488-2.25-587.25
		c0-137.25-63-139.5-94.5-139.5c-36,0-74.25,6.75-72,130.5c2.977,163.693-1.459,423.082-4.5,470.25
		c-4.5,69.75-2.25,112.5-83.25,121.5s-297.159-6.521-355.5-2.25c-92.25,6.75-92.815-79.21-92.815-79.21"/>
	<g>
		
			<rect x="185.216" y="1137.457" fill="none" stroke="#0A2B4E" stroke-width="4" stroke-miterlimit="10" width="27.5" height="34.5"/>
		<rect x="168.216" y="1171.957" fill="none" stroke="#0A2B4E" stroke-width="4" stroke-miterlimit="10" width="58.5" height="12"/>
		
			<rect x="167.716" y="1204.957" fill="none" stroke="#0A2B4E" stroke-width="4" stroke-miterlimit="10" width="60.006" height="9"/>
		
			<rect x="175.716" y="1214.463" fill="none" stroke="#0A2B4E" stroke-width="4" stroke-miterlimit="10" width="45" height="110.994"/>
		
			<rect x="187.722" y="1325.457" fill="none" stroke="#0A2B4E" stroke-width="4" stroke-miterlimit="10" width="22.494" height="23"/>
	</g>
	<path fill="#F94158" d="M440.46,1089.604c0,9.041-9.955,16.377-22.26,16.377H167.226c-12.299,0-22.26-7.336-22.26-16.377
		c0,0,3.855-100.072,6.422-129.182c2.566-29.098-21.233-117.303,7.265-130.803c29.909-14.166,94.495-26.998,127.313,1.146
		c55.423,47.529,96.82-67.174,154.494-3.158c16.678,18.512-8.648,90.967-9.885,137.367
		C429.333,1011.375,440.46,1089.604,440.46,1089.604z"/>
</g>
<path fill="none" stroke="#3F3B3B" stroke-width="14" stroke-miterlimit="10" d="M531.298,153.072l-196.297-0.575
	c-8.088,25.5-33.401,44.107-63.378,44.107c-36.496,0-66.081-27.581-66.081-61.604"/>
<path fill="#F7EFCD" stroke="#3F3B3B" stroke-width="4" stroke-miterlimit="10" d="M466.864,542.061c0,3.729-3.572,6.75-7.978,6.75
	H82.323c-4.405,0-7.977-3.022-7.977-6.75V285.534c0-3.728,3.572-6.75,7.977-6.75h376.563c4.405,0,7.978,3.022,7.978,6.75V542.061z"
	/>
<rect x="117.104" y="310.356" fill="#273351" width="307.272" height="189.456"/>
<path fill="#FFFFFF" stroke="#0A2B4E" stroke-width="14" stroke-miterlimit="10" d="M286.549,544.002v42c0,0,25,0,27,18
	c1,1,1,33-28,26c0,0-22-3-21-29"/>
<path fill="none" stroke="#0A2B4E" stroke-width="14" stroke-miterlimit="10" d="M262.548,266.948v-42c0,0,25,0,27-18
	c1-1,1-33-28-26c0,0-22,3-21,29"/>
<line fill="none" stroke="#FFFFFF" stroke-width="9" stroke-miterlimit="10" x1="153.339" y1="356.916" x2="282.352" y2="356.916"/>
<line fill="none" stroke="#FFFFFF" stroke-width="9" stroke-miterlimit="10" x1="158.541" y1="393.739" x2="221.551" y2="393.739"/>
<line fill="none" stroke="#FFFFFF" stroke-width="9" stroke-miterlimit="10" x1="168.58" y1="435.759" x2="202.05" y2="435.759"/>
<line fill="none" stroke="#FFFFFF" stroke-width="9" stroke-miterlimit="10" x1="245.831" y1="439.713" x2="308.101" y2="439.713"/>
<rect x="177.548" y="1254.658" fill="#F94158" width="41.5" height="68.842"/>
<rect x="187.048" y="1139.25" fill="#F94158" width="24" height="30.75"/>
<rect x="191.548" y="1185.104" fill="#F94158" stroke="#0A2B4E" stroke-width="4" stroke-miterlimit="10" width="15.103" height="18.959"/>
<path fill="#F4F4F4" d="M544.882,123.001c0,2.762-2.238,5-5,5h-1.334c-2.762,0-5-2.238-5-5v-10c0-2.762,2.238-5,5-5h1.334
	c2.762,0,5,2.238,5,5V123.001z"/>
<path fill="#F4F4F4" d="M544.882,208.334c0,2.761-2.238,5-5,5h-0.667c-2.762,0-5-2.239-5-5v-65.333c0-2.762,2.238-5,5-5h0.667
	c2.762,0,5,2.238,5,5V208.334z"/>
<path fill="#F4F4F4" d="M544.215,503.334c0,2.577-2.089,4.667-4.667,4.667l0,0c-2.577,0-4.666-2.089-4.666-4.667V330.667
	c0-2.577,2.089-4.667,4.666-4.667l0,0c2.578,0,4.667,2.089,4.667,4.667V503.334z"/>
<rect x="509.373" y="263.782" fill="#E5E5E5" stroke="#0A2B4E" stroke-width="4" stroke-miterlimit="10" width="12.001" height="24.002"/>
<rect x="511.548" y="1566" fill="#273351" stroke="#3F3B3B" stroke-width="5" stroke-miterlimit="10" width="80" height="84"/>
<rect x="209.548" y="917.875" fill="#EDEEEF" width="156" height="144.125"/>
<rect x="275.548" y="962" fill="#273351" width="26" height="82"/>
<rect x="241.548" y="992" fill="#273351" width="90" height="22"/>
<polygon fill="#FFFFFF" stroke="#273351" stroke-width="4" stroke-miterlimit="10" points="916.549,1006.162 888.223,1007.068 
	874.32,904.5 916.549,904.5 "/>
<ellipse fill="none" stroke="#273351" stroke-width="3" stroke-miterlimit="10" cx="883.271" cy="931.836" rx="15.835" ry="16.029"/>
<path fill="#38D39F" stroke="#273351" stroke-width="4" stroke-miterlimit="10" d="M892.071,923.077
	c4.613,7.062,2.197,15.867-5.395,19.668c-7.591,3.8-17.485,1.156-22.098-5.905c-4.613-7.061-2.197-15.866,5.395-19.667
	C877.565,913.373,887.459,916.016,892.071,923.077z"/>
<line fill="none" stroke="#273351" stroke-width="5" stroke-miterlimit="10" x1="151.388" y1="1105.98" x2="151.388" y2="687.875"/>
<line fill="none" stroke="#273351" stroke-width="5" stroke-miterlimit="10" x1="160.548" y1="708" x2="190.658" y2="708"/>
<line fill="none" stroke="#273351" stroke-width="5" stroke-miterlimit="10" x1="160.19" y1="727" x2="178.905" y2="727"/>
<line fill="none" stroke="#273351" stroke-width="5" stroke-miterlimit="10" x1="160.19" y1="751" x2="178.905" y2="751"/>
<line fill="none" stroke="#273351" stroke-width="5" stroke-miterlimit="10" x1="160.107" y1="775.25" x2="185.631" y2="775.25"/>
<line fill="none" stroke="#273351" stroke-width="5" stroke-miterlimit="10" x1="161.607" y1="805" x2="187.131" y2="805"/>
<line fill="none" stroke="#273351" stroke-width="5" stroke-miterlimit="10" x1="160.607" y1="839" x2="186.131" y2="839"/>
<line fill="none" stroke="#273351" stroke-width="5" stroke-miterlimit="10" x1="160.607" y1="865" x2="186.131" y2="865"/>
<line fill="none" stroke="#273351" stroke-width="5" stroke-miterlimit="10" x1="160.607" y1="898" x2="186.131" y2="898"/>
<line fill="none" stroke="#273351" stroke-width="5" stroke-miterlimit="10" x1="160.607" y1="921" x2="186.131" y2="921"/>
<line fill="none" stroke="#273351" stroke-width="5" stroke-miterlimit="10" x1="160.107" y1="945.876" x2="185.631" y2="945.876"/>
<line fill="none" stroke="#273351" stroke-width="5" stroke-miterlimit="10" x1="159.107" y1="966.876" x2="176.548" y2="966.876"/>
<line fill="none" stroke="#273351" stroke-width="5" stroke-miterlimit="10" x1="159.107" y1="986.876" x2="184.631" y2="986.876"/>
<line fill="none" stroke="#273351" stroke-width="5" stroke-miterlimit="10" x1="159.107" y1="1003.876" x2="175.548" y2="1003.876"/>
<line fill="none" stroke="#273351" stroke-width="5" stroke-miterlimit="10" x1="160.107" y1="1030.876" x2="172.548" y2="1030.876"/>
<path fill="#FCFCFC" d="M577.716,1591.959c0,2.231-1.81,4.041-4.041,4.041l0,0c-2.232,0-4.042-1.81-4.042-4.041v-3.875
	c0-2.232,1.81-4.042,4.042-4.042l0,0c2.231,0,4.041,1.81,4.041,4.042V1591.959z"/>
<path fill="#FCFCFC" d="M530.635,1633.039c0,2.762-2.238,5-5,5h-1.999c-2.762,0-5-2.238-5-5v-48.496c0-2.762,2.238-5,5-5h1.999
	c2.762,0,5,2.238,5,5V1633.039z"/>
<path fill="#FCFCFC" d="M577.132,1626.041c0,0.828-0.672,1.499-1.5,1.499l0,0c-0.828,0-1.499-0.671-1.499-1.499v-10.5
	c0-0.829,0.671-1.5,1.499-1.5l0,0c0.828,0,1.5,0.671,1.5,1.5V1626.041z"/>
<path fill="#FCFCFC" d="M99.548,355c0,2.761-2.239,5-5,5l0,0c-2.761,0-5-2.239-5-5v-46c0-2.761,2.239-5,5-5l0,0c2.761,0,5,2.239,5,5
	V355z"/>
<path fill="#FCFCFC" d="M97.548,398c0,1.104-0.896,2-2,2l0,0c-1.104,0-2-0.896-2-2v-20c0-1.104,0.896-2,2-2l0,0c1.104,0,2,0.896,2,2
	V398z"/>
<path fill="#FCFCFC" d="M121.548,528c0,1.104-0.896,2-2,2l0,0c-1.104,0-2-0.896-2-2v-2c0-1.104,0.896-2,2-2l0,0c1.104,0,2,0.896,2,2
	V528z"/>
</svg>
