<?xml version="1.0" encoding="utf-8"?>
<!-- Generator: Adobe Illustrator 16.0.0, SVG Export Plug-In . SVG Version: 6.00 Build 0)  -->
<!DOCTYPE svg PUBLIC "-//W3C//DTD SVG 1.1//EN" "http://www.w3.org/Graphics/SVG/1.1/DTD/svg11.dtd">
<svg version="1.1" xmlns="http://www.w3.org/2000/svg" xmlns:xlink="http://www.w3.org/1999/xlink" x="0px" y="0px"
	 width="583.078px" height="485.082px" viewBox="0 0 583.078 485.082" enable-background="new 0 0 583.078 485.082"
	 xml:space="preserve">
<g id="Layer_2">
	<path fill="#E2E1DE" d="M19,192l23,87l157,184c0,0,8,18,25,8l325-209c0,0,2-1,6-15c1,1,15-68,15-68s4-13-16-25
		c-1,1-178-126-178-126s-9-11-27,1L27,176C27,176,14,181,19,192z"/>
	<polygon fill="#27374E" stroke="#353535" stroke-width="6" stroke-miterlimit="10" points="138,180 341,82 454,168 245,284 	"/>
	<polygon fill="none" points="20.667,180 364.667,24.667 568,169.334 203.333,377.334 	"/>
	<g>
		<defs>
			<path id="SVGID_1_" d="M19,191l20,86l160,185c0,0,8,18,25,8l325-209c0,0,2-1,6-15c1,1,15-68,15-68s4-13-16-25
				c-1,1-178-126-178-126s-9-11-27,1L27,175C27,175,14,180,19,191z"/>
		</defs>
		<clipPath id="SVGID_2_">
			<use xlink:href="#SVGID_1_"  overflow="visible"/>
		</clipPath>
		<polygon clip-path="url(#SVGID_2_)" fill="#A6A797" points="8,180 39,282 213.333,496.666 205,393 		"/>
		<polygon clip-path="url(#SVGID_2_)" fill="#D3D2CF" points="198,387 209.433,496 571.544,272.817 584,163 		"/>
	</g>
	<g>
		<path fill="#848484" d="M410.334,295.667c0,0,4,43.667-18.667,44.667C392,340.667,392.334,307,392.334,307L410.334,295.667z"/>
		<path fill="#1C1C1C" stroke="#000000" stroke-miterlimit="10" d="M392.334,307l7.666-4.333c0,0,0.667,22.999-8.333,25.333
			C391.667,327.667,392.334,307,392.334,307z"/>
	</g>
	<path fill="none" stroke="#353535" stroke-miterlimit="10" d="M31,230l156,176c0,0,15,21,43,0c1-2,329-198,329-198"/>
	<g>
		<path fill-rule="evenodd" clip-rule="evenodd" fill="#00E520" d="M164.147,189.593c4.432-2.106,8.833-4.281,13.307-6.292
			c2.734-1.229,5.66-1.377,8.569-0.647c0.947,0.238,1.89,0.686,2.698,1.237c2.027,1.381,2.22,3.25,0.611,5.091
			c-0.362,0.415-0.824,0.742-1.192,1.313c6.955,0.563,13.699,3.408,20.798,0.978c0.014,0.147,0.027,0.294,0.041,0.442
			c-2.087,1.041-4.126,2.205-6.286,3.061c-0.794,0.314-1.882-0.055-2.826-0.186c-4.827-0.67-9.642-1.436-14.481-1.99
			c-0.988-0.113-2.064,0.535-3.099,0.832c-0.026,0.158-0.053,0.315-0.08,0.473c2.665,1.699,5.289,3.468,8.014,5.064
			c1.11,0.65,2.329,0.099,3.445-0.399c0.378-0.169,0.803-0.23,1.234-0.232c-1.416,1.436-10.079,5.423-10.872,5.06
			c0.517-0.303,1.006-0.549,1.45-0.86c1.002-0.701,1.043-1.321,0.129-2.101c-0.516-0.439-1.076-0.83-1.633-1.218
			c-4.231-2.942-8.493-5.844-12.691-8.834c-1.929-1.374-3.836-1.88-6.014-0.65c-0.297,0.168-0.745,0.072-1.123,0.099
			C164.147,189.753,164.147,189.673,164.147,189.593z M172.687,187.169c2.212,1.533,4.433,2.834,6.357,4.479
			c1.641,1.402,2.968,1.152,4.496,0.054c1.271-0.913,2.815-1.74,2.621-3.551c-0.202-1.888-1.854-2.607-3.426-3.12
			C179.084,183.84,175.826,184.797,172.687,187.169z"/>
		<path fill-rule="evenodd" clip-rule="evenodd" fill="#00E520" d="M421.188,158.153c-1.193,2.662-3.604,3.705-6.136,4.54
			c-1.248,0.411-2.55,0.655-3.816,1.014c-0.556,0.157-1.083,0.414-1.688,0.65c0.228,0.463,0.376,0.766,0.529,1.079
			c-0.857,0.191-5.285-2.415-7.639-4.726c0.429,0.083,0.896,0.084,1.28,0.261c3.576,1.645,7.221,1.96,10.935,0.563
			c0.887-0.333,1.766-0.776,2.524-1.336c1.658-1.224,1.529-3.021-0.358-3.864c-1.132-0.505-2.464-0.861-3.686-0.808
			c-3.347,0.145-6.678,0.639-10.024,0.808c-2.457,0.123-4.946,0.107-7.388-0.158c-1.198-0.13-2.429-0.811-3.453-1.52
			c-2.05-1.418-2.105-3.713-0.254-5.402c1.91-1.742,4.316-2.339,6.761-2.826c0.392-0.078,0.783-0.152,1.171-0.244
			c0.869-0.204,1.551-0.51,0.588-1.627c0.403-0.061,0.726-0.217,0.886-0.116c2.347,1.484,4.672,3.003,7.002,4.514
			c-0.054,0.135-0.108,0.27-0.163,0.405c-0.477-0.14-0.978-0.226-1.426-0.43c-3.422-1.56-6.92-1.853-10.482-0.584
			c-0.773,0.275-1.543,0.697-2.168,1.226c-1.226,1.036-1.081,2.415,0.269,3.287c1.346,0.87,2.877,0.945,4.396,0.811
			c3.978-0.351,7.942-0.854,11.925-1.125c1.729-0.118,3.51,0.049,5.228,0.328c2.25,0.364,4.089,1.498,5.188,3.604
			C421.188,157.033,421.188,157.593,421.188,158.153z"/>
		<path fill-rule="evenodd" clip-rule="evenodd" fill="#00E520" d="M389.153,162.698c1.925-0.076,3.968-0.401,5.939-0.154
			c1.511,0.189,3.077,0.883,4.354,1.744c1.835,1.235,1.96,3.604,0.301,5.06c-1.394,1.223-3.001,2.254-4.641,3.135
			c-3.585,1.925-7.248,3.708-10.89,5.528c-0.354,0.178-0.783,0.208-1.178,0.307c-0.034-0.111-0.069-0.222-0.104-0.333
			c0.428-0.257,0.875-0.488,1.28-0.777c0.946-0.674,0.988-1.263,0.125-2.015c-0.449-0.392-0.947-0.734-1.447-1.063
			c-4.466-2.949-8.963-5.852-13.396-8.851c-2.014-1.363-3.99-1.969-6.234-0.625c-0.209,0.125-0.532,0.06-0.802,0.083
			c-0.031-0.106-0.062-0.213-0.092-0.319c0.856-0.446,1.706-0.906,2.571-1.334c3.397-1.682,6.764-3.434,10.213-5.004
			c2.988-1.36,6.149-2.015,9.452-1.376c0.816,0.158,1.636,0.393,2.398,0.72C389.824,158.633,390.396,160.194,389.153,162.698z
			 M380.008,168.217c2.53,1.668,4.91,3.129,7.162,4.767c1.118,0.813,2.107,0.954,3.271,0.316c1.702-0.933,3.537-1.69,5.068-2.849
			c1.674-1.268,1.456-3.093-0.304-4.264c-0.716-0.477-1.548-0.847-2.38-1.069C388.089,163.851,384.125,165.864,380.008,168.217z
			 M370.462,161.928c2.672,1.762,5.229,3.453,7.797,5.129c0.143,0.093,0.413,0.145,0.546,0.072c2.158-1.176,4.381-2.262,6.422-3.618
			c1.01-0.672,1-1.903,0.064-2.72c-0.93-0.811-2.07-1.588-3.241-1.875C377.768,157.869,374.055,159.373,370.462,161.928z"/>
		<path fill-rule="evenodd" clip-rule="evenodd" fill="#00E520" d="M278.165,231.667c-2.524,1.768-10.098,5.301-10.936,4.979
			c0.59-0.369,1.136-0.654,1.616-1.025c0.747-0.578,0.846-1.246,0.059-1.883c-0.59-0.477-1.199-0.931-1.823-1.363
			c-4.373-3.021-8.78-5.995-13.116-9.069c-1.977-1.401-3.921-1.882-6.119-0.61c-0.243,0.14-0.604,0.076-0.91,0.107
			c-0.029-0.104-0.059-0.207-0.088-0.311c0.974-0.498,1.941-1.008,2.923-1.49c3.153-1.547,6.285-3.142,9.476-4.609
			c3.146-1.447,6.448-1.855,9.814-0.861c0.899,0.266,1.787,0.725,2.547,1.277c1.93,1.402,2.117,3.204,0.621,5.054
			c-0.37,0.457-0.794,0.87-1.326,1.446c2.416,0.357,4.683,0.71,6.955,1.024c2.255,0.312,4.518,0.575,6.775,0.875
			c2.104,0.28,4.138-0.003,6.137-0.679c0.375-0.126,0.794-0.117,1.193-0.17c0.032,0.125,0.063,0.25,0.096,0.376
			c-2.086,1.06-4.089,2.381-6.29,3.078c-1.245,0.395-2.818-0.212-4.237-0.409c-4.235-0.586-8.478-1.128-12.694-1.827
			c-1.489-0.247-2.466,0.556-3.879,1.166c2.742,1.803,5.274,3.532,7.874,5.151c1.318,0.821,2.69,0.421,4.008-0.207
			c0.385-0.184,0.838-0.226,1.26-0.333C278.123,231.458,278.144,231.563,278.165,231.667z M255.328,220.033
			c2.198,1.514,4.294,2.96,6.393,4.404c2.515,1.729,2.526,1.743,5.06-0.024c1.157-0.807,2.363-1.687,2.214-3.31
			c-0.147-1.6-1.466-2.271-2.717-2.933c-0.035-0.018-0.074-0.028-0.111-0.043C262.257,216.594,258.74,217.399,255.328,220.033z"/>
		<path fill-rule="evenodd" clip-rule="evenodd" fill="#00E520" d="M280.048,155.913c0.457-0.278,0.928-0.536,1.368-0.839
			c0.788-0.542,0.944-1.178,0.154-1.846c-0.517-0.438-1.057-0.854-1.619-1.23c-4.31-2.891-8.653-5.731-12.93-8.67
			c-1.943-1.335-3.849-1.864-6.004-0.585c-0.215,0.127-0.535,0.08-0.967,0.133c0.148-0.308,0.169-0.455,0.243-0.489
			c4.793-2.267,9.489-4.78,14.411-6.722c6.756-2.666,13.403-1.986,19.585,1.948c1.056,0.672,2.024,1.588,2.799,2.575
			c1.827,2.325,1.732,5-0.424,7.014c-1.525,1.423-3.301,2.651-5.137,3.651c-3.36,1.831-6.843,3.435-10.286,5.113
			c-0.33,0.161-0.73,0.177-1.098,0.26C280.111,156.12,280.08,156.017,280.048,155.913z M268.481,140.296
			c5.724,3.828,11.36,7.601,17.01,11.356c0.192,0.128,0.556,0.171,0.762,0.079c1.919-0.858,3.971-1.531,5.695-2.689
			c2.944-1.977,3.13-5.074,0.589-7.528c-4.313-4.164-9.581-5.565-15.43-4.911C273.925,136.958,271.03,138.118,268.481,140.296z"/>
		<path fill-rule="evenodd" clip-rule="evenodd" fill="#00E520" d="M286.025,129.521c4.729-2.098,9.38-4.403,14.216-6.218
			c3.042-1.142,6.315-0.934,9.273,0.774c1.094,0.632,2.147,1.46,1.989,2.881c-0.091,0.813-0.554,1.619-0.99,2.344
			c-0.245,0.408-0.776,0.644-1.179,0.957c0.063,0.102,0.126,0.204,0.189,0.306c3.468,0.479,6.929,1.029,10.407,1.412
			c2.09,0.229,4.209,0.262,6.314,0.253c0.813-0.003,1.624-0.372,2.439-0.56c0.363-0.084,0.734-0.134,1.206,0.045
			c-0.187,0.154-0.372,0.309-0.56,0.46c-0.03,0.024-0.073,0.031-0.108,0.05c-5.482,2.861-5.479,2.836-11.904,1.858
			c-3.513-0.535-7.034-1.053-10.57-1.391c-0.922-0.088-1.913,0.527-2.872,0.82c-0.012,0.123-0.023,0.246-0.035,0.369
			c2.542,1.602,5.049,3.263,7.64,4.781c1.233,0.723,2.553,0.323,3.794-0.256c0.361-0.168,0.776-0.219,1.2-0.192
			c-1.643,1.472-9.602,5.158-10.543,4.907c0.493-0.295,0.884-0.515,1.26-0.757c1.188-0.765,1.251-1.342,0.147-2.191
			c-0.98-0.753-2.022-1.427-3.054-2.111c-3.795-2.518-7.623-4.986-11.384-7.552c-1.871-1.276-3.715-1.779-5.798-0.581
			c-0.252,0.145-0.609,0.109-0.918,0.157C286.131,129.897,286.078,129.709,286.025,129.521z M294.307,127.498
			c2.083,1.379,4.072,2.694,6.058,4.012c2.593,1.72,2.831,1.714,5.373-0.167c0.096-0.071,0.192-0.143,0.285-0.218
			c2.121-1.713,2.004-3.541-0.314-4.96C302.369,124.118,297.672,124.621,294.307,127.498z"/>
		<path fill-rule="evenodd" clip-rule="evenodd" fill="#00E520" d="M271.71,209.961c3.128-1.582,6.252-3.168,9.384-4.741
			c2.782-1.398,5.584-2.758,8.349-4.188c0.641-0.332,1.115-0.377,1.733,0.038c1.288,0.862,2.631,1.643,3.952,2.458
			c-0.022,0.103-0.043,0.207-0.065,0.31c-0.404-0.039-0.869,0.039-1.202-0.135c-2.585-1.351-5.049-1.053-7.534,0.318
			c-2.084,1.15-4.241,2.167-6.562,3.342c2.732,1.856,5.288,3.605,7.868,5.318c0.199,0.132,0.617,0.097,0.855-0.02
			c1.863-0.914,3.731-1.822,5.55-2.818c1.851-1.013,1.91-1.658,0.447-3.156c-0.108-0.11-0.193-0.241-0.446-0.562
			c0.459,0,0.804-0.109,0.994,0.016c2.319,1.537,4.616,3.108,6.919,4.671c-0.04,0.123-0.08,0.245-0.121,0.368
			c-0.397-0.084-0.85-0.073-1.183-0.267c-2.053-1.194-4.048-0.916-6.049,0.12c-1.728,0.894-3.469,1.763-5.396,2.741
			c2.108,1.443,4.188,2.647,6.003,4.167c2.232,1.869,4.327,1.979,6.712,0.396c1.257-0.834,2.693-1.393,4.009-2.144
			c2.245-1.282,2.582-2.237,1.798-4.757c-0.082-0.261-0.153-0.525-0.319-1.095c0.485,0.127,0.913,0.106,1.053,0.297
			c1.011,1.373,1.965,2.789,2.989,4.267c-3.796,1.932-7.455,3.797-11.117,5.656c-2.313,1.174-4.626,2.35-6.953,3.497
			c-0.347,0.171-0.768,0.191-1.155,0.281c-0.029-0.107-0.059-0.215-0.088-0.322c0.466-0.3,0.961-0.563,1.392-0.907
			c0.991-0.792,1.009-1.321,0.025-2.087c-0.881-0.686-1.82-1.299-2.743-1.931c-4.021-2.751-8.076-5.456-12.058-8.263
			c-1.968-1.387-3.896-1.96-6.093-0.6c-0.231,0.143-0.598,0.069-0.901,0.095C271.741,210.202,271.725,210.082,271.71,209.961z"/>
		<path fill-rule="evenodd" clip-rule="evenodd" fill="#00E520" d="M325.169,207.963c-3.269,1.651-6.534,3.311-9.813,4.939
			c-0.24,0.119-0.591,0.016-0.925-0.222c0.378-0.215,0.761-0.42,1.131-0.647c1.267-0.774,1.353-1.494,0.17-2.368
			c-1.542-1.139-3.144-2.197-4.731-3.273c-3.439-2.332-6.907-4.623-10.321-6.992c-1.813-1.258-3.613-1.587-5.593-0.45
			c-0.276,0.159-0.667,0.12-1.109,0.188c0.092-0.287,0.094-0.395,0.139-0.417c3.827-1.893,7.603-3.904,11.504-5.628
			c3.583-1.583,7.355-1.883,11.072-0.359c1.005,0.412,1.963,1.103,2.741,1.87c1.375,1.357,1.434,3.209-0.039,4.448
			c-1.409,1.185-3.111,2.036-4.734,2.946c-0.721,0.404-1.563,0.593-2.539,0.949c0.873,0.609,1.634,1.157,2.412,1.68
			c1.525,1.026,3.061,2.035,4.589,3.056c1.509,1.008,3.049,1.029,4.648,0.207c0.392-0.202,0.851-0.274,1.279-0.407
			C325.089,207.643,325.129,207.803,325.169,207.963z M302.482,196.479c2.761,1.866,5.43,3.681,8.117,5.47
			c0.229,0.153,0.624,0.26,0.858,0.17c1.149-0.441,2.337-0.843,3.386-1.469c1.697-1.013,1.814-2.709,0.417-4.109
			C312.083,193.355,305.896,193.278,302.482,196.479z"/>
		<path fill-rule="evenodd" clip-rule="evenodd" fill="#00E520" d="M211.625,173.467c0.335,0.084,0.727,0.085,0.997,0.267
			c2.155,1.443,4.287,2.92,6.376,4.694c-0.351-0.033-0.77,0.047-1.042-0.116c-2.261-1.355-4.419-0.926-6.593,0.23
			c-1.583,0.842-3.21,1.601-5.007,2.491c2.268,1.559,4.481,2.943,6.534,4.534c1.729,1.34,3.306,1.418,5.153,0.298
			c1.531-0.929,3.215-1.601,4.792-2.459c2.231-1.215,2.586-2.154,1.985-4.618c-0.083-0.341,0.09-0.745,0.144-1.12
			c0.282,0.226,0.634,0.402,0.833,0.686c0.844,1.206,1.643,2.444,2.555,3.816c-6.333,3.111-12.588,6.187-18.853,9.243
			c-0.093,0.045-0.308-0.158-0.556-0.295c0.587-0.377,1.117-0.654,1.572-1.023c0.893-0.725,0.887-1.197,0.023-1.919
			c-0.397-0.333-0.823-0.635-1.251-0.929c-4.346-2.99-8.729-5.927-13.027-8.985c-1.993-1.417-3.921-2.097-6.18-0.697
			c-0.219,0.136-0.595,0.018-0.959-0.25c1.065-0.523,2.131-1.046,3.196-1.57c4.837-2.377,9.683-4.737,14.503-7.148
			c0.729-0.365,1.269-0.405,1.961,0.075c1.175,0.815,2.427,1.52,3.646,2.271c-0.021,0.118-0.043,0.236-0.064,0.354
			c-0.391-0.047-0.832,0.008-1.164-0.158c-2.51-1.251-4.904-1.002-7.328,0.309c-2.132,1.154-4.347,2.155-6.678,3.299
			c2.609,1.794,5.053,3.501,7.539,5.145c0.271,0.179,0.838,0.11,1.174-0.046c1.666-0.771,3.317-1.578,4.941-2.434
			C213.226,176.159,213.293,175.721,211.625,173.467z"/>
		<path fill-rule="evenodd" clip-rule="evenodd" fill="#00E520" d="M341.735,125.468c0.077-0.118,0.092-0.164,0.123-0.182
			c2.486-1.502,2.49-1.848-0.001-3.481c-4.441-2.913-8.908-5.787-13.322-8.742c-1.906-1.276-3.788-1.828-5.911-0.589
			c-0.221,0.129-0.542,0.086-0.87,0.13c0.04-0.252,0.029-0.375,0.066-0.392c4.34-2.001,8.623-4.149,13.051-5.932
			c2.591-1.042,5.434-0.899,8.116,0.007c1.036,0.35,2.049,0.918,2.915,1.59c1.946,1.509,2.005,3.694-0.007,5.128
			c-1.536,1.094-3.352,1.799-5.056,2.652c-0.42,0.21-0.889,0.326-1.616,0.584c2.754,1.714,5.278,3.353,7.873,4.87
			c1.16,0.678,2.4,0.296,3.572-0.224c0.404-0.18,0.849-0.269,1.313-0.263C350.333,122.12,342.48,125.739,341.735,125.468z
			 M329.942,110.095c2.678,1.755,5.339,3.508,8.017,5.234c0.2,0.129,0.563,0.163,0.786,0.076c1.11-0.433,2.266-0.811,3.28-1.416
			c1.445-0.862,1.623-2.354,0.582-3.554C339.74,107.13,333.117,106.92,329.942,110.095z"/>
		<path fill-rule="evenodd" clip-rule="evenodd" fill="#00E520" d="M372.645,183.356c0.442-0.559,0.846-1.068,1.249-1.578
			c-0.607-0.4-1.166-0.943-1.832-1.173c-1.733-0.598-3.512-1.069-5.28-1.561c-0.286-0.08-0.667-0.112-0.916,0.012
			c-2.923,1.45-5.828,2.934-8.819,4.449c0.605,1.071,1.144,2.045,1.702,3.007c1.083,1.866,1.92,2.17,3.966,1.5
			c0.546-0.179,1.112-0.294,1.699-0.305c-1.643,1.564-7.109,4.02-7.785,3.663c1.495-1.705,1.536-1.887,0.317-4.052
			c-2.743-4.874-5.518-9.731-8.278-14.595c-0.275-0.485-0.545-0.973-1-1.787c0.693,0.055,1.163,0.015,1.588,0.137
			c8.521,2.436,17.037,4.896,25.558,7.336c2.203,0.631,4.42,1.194,6.683,0.209c0.132-0.057,0.315-0.038,0.462-0.002
			c0.104,0.025,0.186,0.138,0.279,0.213C380.745,180.142,373.278,183.623,372.645,183.356z M364.453,178.312
			c-4.237-1.215-8.135-2.332-12.362-3.544c1.566,2.77,2.934,5.187,4.308,7.617C359.055,181.041,361.58,179.765,364.453,178.312z"/>
		<path fill-rule="evenodd" clip-rule="evenodd" fill="#00E520" d="M257.142,167.745c-2.367,1.748-9.172,4.782-9.723,4.495
			c0.396-0.562,0.806-1.143,1.215-1.723c-0.672-0.384-1.305-0.883-2.024-1.129c-1.697-0.581-3.459-1.504-5.149-1.416
			c-1.621,0.085-3.198,1.239-4.769,1.979c-1.62,0.763-3.207,1.594-4.868,2.424c0.59,1.121,1.119,2.188,1.704,3.225
			c0.856,1.517,1.698,1.83,3.399,1.343c0.672-0.192,1.347-0.372,2.092-0.338c-2.528,1.465-5.058,2.864-7.826,4.064
			c-0.034-0.452-0.074-0.559-0.04-0.595c1.468-1.558,1.508-1.893,0.305-4.171c-2.647-5.012-5.31-10.015-7.966-15.021
			c-0.111-0.209-0.216-0.422-0.491-0.959c0.701,0.049,1.206-0.002,1.658,0.128c8.282,2.388,16.554,4.807,24.835,7.197
			c2.272,0.656,4.564,1.268,6.913,0.268c0.131-0.056,0.312-0.013,0.465,0.011C256.938,167.538,256.992,167.62,257.142,167.745z
			 M231.21,171.262c2.715-1.348,5.315-2.64,8.182-4.064c-4.169-1.203-7.982-2.303-12.14-3.503
			C228.658,166.384,229.889,168.736,231.21,171.262z"/>
		<path fill-rule="evenodd" clip-rule="evenodd" fill="#00E520" d="M260.866,240.546c-3.337,1.694-6.671,3.396-10.02,5.067
			c-0.212,0.105-0.544-0.029-1.145-0.078c0.811-0.494,1.347-0.76,1.814-1.117c0.898-0.685,0.917-1.189,0.094-1.942
			c-0.411-0.376-0.868-0.707-1.327-1.025c-5.024-3.487-10.063-6.955-15.07-10.465c-0.638-0.447-1.124-0.547-1.813-0.139
			c-1.063,0.631-2.211,1.116-3.28,1.738c-1.833,1.066-1.968,2.165-0.528,3.758c0.126,0.14,0.26,0.274,0.317,0.669
			c-0.326-0.048-0.73,0.01-0.966-0.163c-1.383-1.013-2.727-2.079-4.213-3.228c1.347-0.701,2.562-1.352,3.793-1.971
			c5.174-2.601,10.36-5.177,15.521-7.803c0.653-0.333,1.119-0.347,1.728,0.065c1.386,0.938,2.822,1.801,4.237,2.694
			c-0.02,0.104-0.039,0.207-0.059,0.311c-0.362-0.033-0.779,0.04-1.077-0.116c-2.692-1.406-5.311-1.139-7.908,0.248
			c-0.947,0.506-1.906,0.991-3.006,1.563c1.474,1.021,2.847,1.972,4.22,2.923c3.909,2.709,7.846,5.378,11.715,8.144
			c1.931,1.38,3.835,1.893,5.996,0.607c0.241-0.144,0.599-0.091,0.902-0.13C260.817,240.287,260.842,240.417,260.866,240.546z"/>
		<path fill-rule="evenodd" clip-rule="evenodd" fill="#00E520" d="M349.795,188.496c0.268,0.097,0.637,0.114,0.787,0.304
			c1.158,1.47,2.273,2.974,3.408,4.474c-5.615,3.334-18.263,9.44-19.211,9.133c0.451-0.27,0.802-0.475,1.146-0.688
			c1.349-0.832,1.441-1.515,0.18-2.435c-1.805-1.317-3.679-2.539-5.533-3.788c-3.18-2.14-6.388-4.24-9.544-6.415
			c-1.781-1.227-3.556-1.507-5.491-0.417c-0.284,0.16-0.671,0.138-1.301,0.252c1.49-1.44,10.665-5.776,11.477-5.452
			c-0.641,0.408-1.25,0.746-1.804,1.159c-1.017,0.758-1.062,1.445-0.017,2.176c3.075,2.151,6.189,4.246,9.3,6.346
			c1.984,1.34,3.996,2.642,5.984,3.978c1.176,0.789,2.354,0.855,3.611,0.192c1.903-1.005,3.871-1.898,5.729-2.981
			c2.289-1.334,2.586-2.603,1.399-4.996c-0.088-0.177-0.177-0.353-0.265-0.53C349.698,188.706,349.747,188.601,349.795,188.496z"/>
		<path fill-rule="evenodd" clip-rule="evenodd" fill="#00E520" d="M272.755,153.25c0.5,0.175,0.887,0.188,1.041,0.385
			c1.1,1.412,2.152,2.861,3.222,4.301c-3.263,2.171-18.276,9.262-19.187,8.93c0.472-0.258,0.841-0.447,1.197-0.658
			c1.297-0.767,1.392-1.452,0.205-2.343c-1.405-1.054-2.882-2.014-4.337-3c-3.341-2.265-6.71-4.489-10.023-6.794
			c-1.865-1.298-3.731-1.739-5.81-0.565c-0.258,0.146-0.609,0.124-0.918,0.18c-0.041-0.116-0.082-0.231-0.124-0.348
			c1.211-0.613,2.418-1.235,3.634-1.837c1.288-0.637,2.567-1.298,3.884-1.87c1.196-0.519,2.26-1.475,3.629-1.482
			c0.036,0.096,0.071,0.193,0.106,0.29c-0.572,0.352-1.169,0.669-1.71,1.063c-1.125,0.82-1.168,1.425-0.033,2.229
			c2.643,1.868,5.33,3.673,8.009,5.49c2.183,1.48,4.39,2.925,6.564,4.417c1.28,0.878,2.548,0.974,3.932,0.237
			c1.797-0.956,3.666-1.781,5.438-2.778c2.429-1.365,2.749-2.507,1.604-5.025C273,153.893,272.937,153.709,272.755,153.25z"/>
		<path fill-rule="evenodd" clip-rule="evenodd" fill="#00E520" d="M320.64,113.381c-2.785,1.649-2.794,1.972-0.11,3.742
			c4.403,2.904,8.85,5.741,13.213,8.702c1.896,1.287,3.736,1.699,5.813,0.564c0.252-0.138,0.603-0.096,1.185-0.176
			c-1.73,1.547-9.877,5.281-10.626,4.918c0.441-0.261,0.857-0.485,1.25-0.744c1.047-0.689,1.141-1.299,0.129-2.033
			c-1.842-1.335-3.759-2.567-5.659-3.821c-3.101-2.047-6.241-4.035-9.308-6.13c-1.703-1.164-3.373-1.275-5.186-0.375
			c-0.325,0.162-0.735,0.153-1.126,0.117C312.054,116.579,319.846,113.06,320.64,113.381z"/>
		<path fill-rule="evenodd" clip-rule="evenodd" fill="#FEFEFE" d="M268.144,186.499c-1.713-1.148-3.381-2.376-5.166-3.4
			c-0.584-0.335-1.471-0.142-2.271-0.193c1.161-0.583,2.34-1.176,3.52-1.768c0.038,0.065,0.075,0.13,0.113,0.195
			c-0.279,0.248-0.558,0.495-1.042,0.923c1.483,1.024,2.87,1.989,4.265,2.943c1.404,0.962,2.816,1.914,4.224,2.87
			c-0.029,0.098-0.058,0.196-0.087,0.294c-4.594-0.466-9.188-0.931-13.782-1.397c-0.034,0.073-0.068,0.146-0.102,0.218
			c1.951,1.288,3.861,2.646,5.88,3.816c0.536,0.311,1.405,0.047,2.232,0.047c-1.207,0.604-2.381,1.193-3.556,1.782
			c-0.042-0.06-0.085-0.121-0.128-0.18c0.245-0.258,0.489-0.515,0.822-0.866c-0.438-0.352-0.815-0.693-1.231-0.98
			c-1.676-1.158-3.366-2.296-5.047-3.449c-1.571-1.077-3.566-0.831-5.041,0.726c0.39,0.319,0.754,0.662,1.161,0.943
			c1.676,1.158,3.385,2.27,5.042,3.454c1.049,0.75,2.073,1.36,3.399,0.501c0.025,0.106,0.049,0.213,0.075,0.32
			c-1.439,0.72-2.878,1.441-4.317,2.161c-0.05-0.062-0.1-0.123-0.149-0.184c0.256-0.241,0.513-0.481,0.956-0.898
			c-1.242-0.862-2.396-1.675-3.571-2.458c-0.119-0.08-0.387-0.02-0.547,0.057c-1.43,0.689-2.851,1.396-4.297,2.109
			c1.736,1.9,3.294,2.547,5.816,2.267c-1.78,0.892-3.257,1.631-4.735,2.372c-0.043-0.055-0.086-0.11-0.129-0.166
			c0.272-0.26,0.544-0.519,0.927-0.884c-0.441-0.371-0.802-0.724-1.209-1.007c-1.64-1.14-3.295-2.26-4.945-3.385
			c-1.691-1.153-1.692-1.152-3.554-0.92c1.444-0.724,2.887-1.448,4.331-2.172c0.067,0.091,0.134,0.183,0.201,0.274
			c-0.334,0.183-0.668,0.367-1.28,0.702c1.402,0.964,2.46,1.718,3.553,2.416c0.177,0.113,0.546,0.052,0.767-0.054
			c1.4-0.672,2.783-1.379,4.375-2.176c-1.858-0.885-2.984-3.061-5.477-2.173c1.241-0.631,2.552-1.158,3.71-1.916
			c2.447-1.602,5.011-1.88,7.856-1.377c2.742,0.485,5.549,0.606,8.327,0.888C268.069,186.681,268.107,186.59,268.144,186.499z"/>
		<path fill-rule="evenodd" clip-rule="evenodd" fill="#FEFEFE" d="M345.291,151.152c0.247-0.217,0.494-0.434,0.868-0.762
			c-0.425-0.361-0.772-0.719-1.179-0.991c-1.656-1.112-3.352-2.167-4.991-3.304c-1.088-0.754-2.147-1.402-3.555-0.728
			c2.592-1.325,4.961-3.067,7.905-3.466c0.655-0.088,1.36,0,2.014,0.142c1.527,0.333,1.908,0.851,1.909,2.392
			c0.589,0,1.182-0.04,1.768,0.011c0.55,0.048,1.187,0.046,1.612,0.327c0.55,0.362,1.205,0.94,1.295,1.507
			c0.076,0.487-0.445,1.311-0.932,1.602c-1.775,1.063-3.645,1.969-5.483,2.925c-0.368,0.192-0.758,0.344-1.138,0.515
			C345.354,151.265,345.322,151.208,345.291,151.152z M344.047,146.954c0.765,0.512,1.494,0.87,2.057,1.403
			c1.352,1.282,2.671,0.912,3.942-0.009c0.463-0.335,1.044-0.982,0.992-1.42c-0.053-0.452-0.741-1.003-1.268-1.195
			C347.689,144.975,345.915,145.887,344.047,146.954z M339.906,144.233c0.693,0.467,1.316,0.766,1.784,1.224
			c1.347,1.317,2.645,0.936,3.914-0.042c0.38-0.292,0.911-0.827,0.849-1.148c-0.087-0.441-0.604-0.957-1.057-1.14
			C343.424,142.332,341.707,143.042,339.906,144.233z"/>
		<path fill-rule="evenodd" clip-rule="evenodd" fill="#FEFEFE" d="M295.559,166.54c2.421,0.113,4.697,0.595,6.471,2.397
			c1.366,1.386,1.227,3.146-0.307,4.356c-3.103,2.446-9.267,2.022-11.993-0.823c-1.213-1.267-1.215-2.811,0.067-4.018
			C291.415,166.928,293.451,166.597,295.559,166.54z M293.958,167.253c-0.531,0.135-1.29,0.245-1.983,0.521
			c-1.995,0.792-2.24,2.181-0.632,3.632c1.671,1.508,3.62,2.572,5.892,2.637c1.1,0.032,2.3-0.286,3.3-0.767
			c1.238-0.595,1.363-1.779,0.411-2.776C299.114,168.58,296.845,167.512,293.958,167.253z"/>
		<path fill-rule="evenodd" clip-rule="evenodd" fill="#FEFEFE" d="M275.193,177.117c1.326,0.023,3.353,0.5,5.094,1.86
			c2.096,1.639,1.964,3.872-0.299,5.266c-3.123,1.924-8.085,1.624-10.954-0.664c-2.039-1.625-1.918-3.762,0.295-5.186
			C270.658,177.539,272.363,177.104,275.193,177.117z M272.759,177.819c-0.507,0.125-1.266,0.231-1.961,0.5
			c-2.049,0.794-2.325,2.112-0.742,3.61c1.737,1.645,3.82,2.688,6.215,2.756c1.017,0.029,2.133-0.344,3.054-0.822
			c1.241-0.643,1.391-1.783,0.436-2.783C277.934,179.167,275.684,178.049,272.759,177.819z"/>
		<path fill-rule="evenodd" clip-rule="evenodd" fill="#FEFEFE" d="M306.909,159.962c0.791,0.451,1.75,0.999,2.71,1.547
			c-0.025,0.073-0.051,0.147-0.076,0.22c-0.504-0.112-1.008-0.233-1.514-0.336c-1.848-0.375-3.585-0.118-5.141,0.985
			c-0.973,0.689-1.169,1.524-0.669,2.502c1.692,3.312,8.671,4.417,11.286,1.782c0.134-0.135,0.226-0.312,0.335-0.466
			c-2.592-2.19-3.326-2.483-5.35-2.271c1.321-0.659,2.643-1.319,4.269-2.131c-0.373,0.546-0.539,0.791-0.781,1.145
			c1.234,0.861,2.43,1.695,3.962,2.764c-1.361,0.904-2.457,1.837-3.714,2.426c-2.717,1.275-5.574,1.387-8.386,0.301
			c-0.903-0.349-1.796-0.925-2.473-1.615c-1.398-1.422-1.241-3.357,0.43-4.425c1.148-0.734,2.54-1.083,3.809-1.634
			C305.989,160.591,306.326,160.323,306.909,159.962z"/>
		<path fill-rule="evenodd" clip-rule="evenodd" fill="#FEFEFE" d="M238.278,204.847c-2.862,1.429-5.584,2.788-8.307,4.147
			c-0.063-0.085-0.127-0.171-0.19-0.256c0.328-0.192,0.657-0.383,0.985-0.575c0.037-0.145,0.073-0.29,0.11-0.434
			c-0.28-0.147-0.578-0.268-0.836-0.445c-2.111-1.444-4.17-2.973-6.348-4.306c-0.678-0.415-1.674-0.312-2.453-0.434
			c2.407-1.205,4.954-2.593,7.613-3.718c0.541-0.229,1.502,0.536,2.253,1.055c-2.569-1.063-4.336,0.706-6.609,1.674
			c1.213,0.827,2.273,1.557,3.346,2.267c0.104,0.069,0.317,0.063,0.436,0.004c1.027-0.513,2.045-1.046,3.126-1.604
			c-0.209-0.471-0.355-0.801-0.501-1.13c0.048-0.051,0.097-0.102,0.145-0.152c1.026,0.698,2.052,1.396,3.078,2.094
			c-2.167-1.012-3.67,0.505-5.561,1.333c1.271,0.854,2.398,1.652,3.574,2.368c0.245,0.148,0.697,0.064,1.013-0.039
			c0.489-0.16,0.95-0.415,1.411-0.652c1.268-0.653,2.841-1.103,1.892-3.293c0.132,0.026,0.265,0.053,0.397,0.079
			C237.291,203.452,237.73,204.073,238.278,204.847z"/>
		<path fill-rule="evenodd" clip-rule="evenodd" fill="#FEFEFE" d="M314.228,156.251c2.521-1.25,5-2.602,7.596-3.672
			c0.569-0.235,1.551,0.532,2.308,1.069c-2.573-1.292-4.266,0.764-6.528,1.508c1.207,0.811,2.235,1.529,3.298,2.19
			c0.179,0.111,0.537,0.036,0.768-0.06c0.551-0.229,1.07-0.532,1.611-0.787c0.785-0.372,1.518-0.752,0.792-1.883
			c0.998,0.657,1.996,1.313,3.1,2.04c-1.051,0-1.98-0.157-2.825,0.043c-0.856,0.203-1.628,0.759-2.604,1.242
			c1.227,0.803,2.271,1.52,3.353,2.172c0.276,0.167,0.741,0.279,1.006,0.161c1.088-0.486,2.236-0.943,3.149-1.675
			c0.439-0.352,0.406-1.292,0.615-2.072c0.402,0.528,0.87,1.142,1.424,1.868c-2.739,1.371-5.36,2.683-7.982,3.995
			c-0.042-0.047-0.085-0.093-0.128-0.14c0.23-0.264,0.462-0.527,0.783-0.894c-0.369-0.287-0.685-0.565-1.031-0.799
			c-1.787-1.205-3.579-2.402-5.374-3.594C316.058,155.968,316.035,155.969,314.228,156.251z"/>
		<path fill-rule="evenodd" clip-rule="evenodd" fill="#FEFEFE" d="M330.578,148.116c0.857,0.572,1.842,1.23,2.829,1.888
			c-0.035,0.084-0.07,0.168-0.105,0.252c-0.33-0.125-0.659-0.249-0.987-0.374c-1.442-0.551-2.909-0.618-4.308,0.04
			c-0.459,0.216-0.743,0.808-1.106,1.228c0.472,0.313,0.936,0.88,1.415,0.893c1.389,0.037,2.782-0.165,4.175-0.241
			c1.271-0.069,2.546-0.136,3.817-0.122c0.457,0.005,0.939,0.194,1.364,0.397c1.639,0.784,1.781,2.291,0.222,3.199
			c-0.945,0.55-2.074,0.779-3.102,1.199c-0.391,0.16-0.729,0.449-1.248,0.781c-0.784-0.518-1.767-1.167-2.75-1.816
			c0.035-0.076,0.071-0.153,0.107-0.229c0.395,0.124,0.795,0.232,1.184,0.373c1.69,0.609,3.312,0.405,4.83-0.489
			c0.329-0.194,0.74-0.714,0.681-0.99c-0.08-0.373-0.566-0.913-0.902-0.931c-1.499-0.081-3.008-0.02-4.513,0.026
			c-1.116,0.035-2.23,0.142-3.346,0.182c-0.353,0.013-0.723-0.041-1.063-0.141c-0.974-0.287-2.026-0.612-2.071-1.838
			c-0.042-1.15,0.924-1.607,1.822-1.969c0.624-0.252,1.316-0.33,1.951-0.56C329.797,148.755,330.063,148.477,330.578,148.116z"/>
		<path fill-rule="evenodd" clip-rule="evenodd" fill="#FEFEFE" d="M247.288,197.687c0.763,1.088,0.574,2.1-0.513,2.989
			c-1.374,1.124-3.006,1.65-4.744,1.777c-2.545,0.186-4.944-0.301-6.946-1.996c-1.91-1.617-1.841-3.728,0.264-5.064
			c1.014-0.643,2.275-0.888,3.408-1.354c0.45-0.186,0.853-0.482,1.533-0.876c0.76,0.451,1.831,1.086,2.827,1.678
			c-1.527-0.078-3.062-0.306-4.569-0.188c-1.36,0.107-2.821,0.619-3.19,2.117c-0.363,1.472,0.925,2.259,1.938,3.013
			c2.223,1.656,4.69,2.168,7.349,1.278C246.204,200.538,247.506,199.718,247.288,197.687z"/>
		<path fill-rule="evenodd" clip-rule="evenodd" fill="#FEFEFE" d="M358.827,144.398c0.24-0.22,0.481-0.439,0.997-0.91
			c-1.348-0.768-2.481-1.729-3.78-2.082c-2.223-0.603-4.544-0.858-6.833-1.188c-0.805-0.115-1.64-0.018-2.688-0.018
			c1.572-0.785,3.004-1.5,4.436-2.215c0.037,0.047,0.075,0.093,0.112,0.14c-0.187,0.253-0.372,0.507-0.749,1.02
			c2.281,0.398,4.359,0.762,6.678,1.167c-0.343-1.197-0.445-2.245-0.944-3.045c-0.31-0.496-1.223-0.614-1.867-0.902
			c0.917-0.449,2.055-1.005,3.404-1.666c-1.486,2.209-0.363,4.22,0.519,5.617c0.909,1.441,2.669,2.936,5.018,2.187
			c-1.394,0.699-2.787,1.397-4.181,2.096C358.908,144.532,358.867,144.465,358.827,144.398z"/>
		<path fill-rule="evenodd" clip-rule="evenodd" fill="#FEFEFE" d="M222.033,212.579c1.443-0.584,1.05-1.101,0.241-1.652
			c-2.078-1.417-4.154-2.839-6.207-4.292c-1.202-0.851-1.916,0.248-2.708,0.721c-0.278,0.166-0.154,1.007-0.229,1.667
			c-0.511-0.39-1.163-0.887-1.947-1.484c2.883-1.442,5.538-2.912,8.325-4.062c0.682-0.281,1.796,0.487,2.711,0.774
			c-0.022,0.207-0.046,0.414-0.068,0.621c-1.849-1.225-3.394-0.455-5.106,0.524c1.082,0.751,2.081,1.448,3.083,2.14
			c1.117,0.772,2.251,1.519,3.351,2.315c0.978,0.709,1.948,1.303,3.203,0.378c0.022,0.124,0.043,0.248,0.065,0.372
			c-1.432,0.719-2.865,1.439-4.297,2.158C222.311,212.7,222.172,212.639,222.033,212.579z"/>
		<path fill-rule="evenodd" clip-rule="evenodd" fill="#FEFEFE" d="M293.574,177.228c-2.777,1.389-5.443,2.722-8.109,4.055
			c-0.019-0.021-0.037-0.042-0.056-0.063c0.287-0.199,0.574-0.397,1.018-0.705c-0.739-0.597-1.136-0.965-1.578-1.268
			c-1.68-1.15-3.391-2.255-5.057-3.426c-0.992-0.697-1.968-1.242-3.284-0.785c1.523-0.766,3.047-1.533,4.57-2.299
			c0.037,0.066,0.074,0.131,0.11,0.197c-0.347,0.305-0.693,0.609-1.105,0.971c0.235,0.26,0.382,0.501,0.594,0.646
			c2.076,1.418,4.136,2.865,6.27,4.193c0.448,0.279,1.208,0.238,1.769,0.107c0.644-0.15,1.234-0.547,1.832-0.867
			c1.521-0.813,1.635-1.083,1.381-2.842C292.459,175.815,292.99,176.487,293.574,177.228z"/>
		<path fill-rule="evenodd" clip-rule="evenodd" fill="#FEFEFE" d="M317.922,164.804c0.253-0.217,0.506-0.433,0.894-0.765
			c-0.396-0.333-0.717-0.656-1.086-0.907c-1.649-1.12-3.312-2.221-4.971-3.326c-1.79-1.193-1.791-1.192-3.751-0.94
			c1.467-0.732,2.935-1.464,4.401-2.196c0.04,0.061,0.08,0.122,0.12,0.184c-0.267,0.24-0.535,0.48-0.923,0.829
			c0.394,0.337,0.715,0.668,1.089,0.921c1.619,1.094,3.266,2.146,4.878,3.249c1.126,0.771,2.198,1.654,3.745,1.031
			c-1.423,0.711-2.847,1.423-4.27,2.135C318.005,164.947,317.963,164.875,317.922,164.804z"/>
	</g>
	<polygon fill="none" stroke="#828282" stroke-width="3" stroke-miterlimit="10" points="138,179 341,81 454,167 245,283 	"/>
	<path fill="#757575" stroke="#828282" stroke-width="3" stroke-miterlimit="10" d="M392,329.667l-0.333,6c0,0,16-5.333,15-34.333
		c0,0.333-5,2.333-5,2.333S404.333,326,392,329.667z"/>
	
		<image display="none" overflow="visible" width="800" height="641" xlink:href="realdrip.jpg"  transform="matrix(1 0 0 1 -6.9326 -4.4258)">
	</image>
</g>
<g id="Layer_1" display="none">
	
		<image display="inline" overflow="visible" width="2309" height="1879" xlink:href="220FB443.jpg"  transform="matrix(0.24 0 0 0.24 17.1113 23.7773)">
	</image>
</g>
</svg>
